<?xml version="1.0" encoding="utf-8"?>
<!-- Generator: Adobe Illustrator 16.0.0, SVG Export Plug-In . SVG Version: 6.00 Build 0)  -->
<!DOCTYPE svg PUBLIC "-//W3C//DTD SVG 1.1//EN" "http://www.w3.org/Graphics/SVG/1.1/DTD/svg11.dtd">
<svg version="1.1" id="Layer_1" xmlns="http://www.w3.org/2000/svg" xmlns:xlink="http://www.w3.org/1999/xlink" x="0px" y="0px"
	 width="73.319px" height="58.778px" viewBox="0 0 73.319 58.778" enable-background="new 0 0 73.319 58.778" xml:space="preserve">
<g>
	<circle fill="#FAC317" cx="29.446" cy="29.389" r="28.662"/>
	<g>
		<path fill="#3168B2" d="M21.258,34.057l8.582,8.671c0.207,0.209,0.451,0.373,0.723,0.486c0.27,0.111,0.561,0.17,0.854,0.17
			c0.291,0,0.582-0.059,0.852-0.17c0.27-0.113,0.516-0.277,0.723-0.486c0.412-0.415,0.646-0.978,0.646-1.563
			s-0.232-1.148-0.646-1.563l-7.896-7.962h45.223c0.588,0,1.152-0.234,1.569-0.649c0.415-0.416,0.648-0.979,0.648-1.567l0,0
			c0-0.59-0.233-1.152-0.648-1.567c-0.417-0.417-0.981-0.651-1.569-0.651H24.963l8.029-8.007c0.207-0.204,0.371-0.45,0.484-0.72
			c0.111-0.271,0.17-0.561,0.17-0.854c0-0.291-0.059-0.582-0.17-0.853c-0.113-0.271-0.277-0.517-0.484-0.724
			s-0.453-0.371-0.723-0.485c-0.271-0.11-0.563-0.169-0.854-0.169c-0.293,0-0.584,0.059-0.854,0.169
			c-0.27,0.114-0.516,0.278-0.721,0.485l-8.582,8.606c-1.248,1.248-1.947,2.938-1.947,4.7
			C19.313,31.118,20.012,32.809,21.258,34.057z"/>
	</g>
</g>
</svg>
