<svg width="138" height="126" viewBox="0 0 138 126" fill="none" xmlns="http://www.w3.org/2000/svg">
<circle cx="68.3164" cy="58.5" r="47.5" fill="#FDC300"/>
<path d="M119.6 69.4199H117.116L114.356 70.7999L112.7 73.2839L111.044 79.9079L107.732 86.2559L104.972 91.4999L102.764 92.0519L103.592 89.8439V86.5319L102.488 83.7719L100.28 82.1159L98.9004 81.5639H95.3124L92.5524 82.9439L88.9644 88.1879L86.4804 91.4999V92.0519H85.9284L82.0644 97.8479L80.9604 100.332L79.8564 105.576L79.5804 107.784V122.964L79.8564 124.344L84.5484 124.068V108.336L85.6524 102.816L87.8604 98.6759L91.1724 93.9839L92.2764 92.0519L95.0364 88.4639L96.4164 86.8079H97.7964L98.6244 87.6359L98.3484 89.2919L96.6924 92.0519L93.3804 97.8479L92.8284 101.16L93.1044 101.436H97.7964L98.9004 98.9519L114.356 93.7079L116.564 92.6039L118.496 90.9479L120.98 87.9119L123.464 85.1519L125.672 82.3919L127.88 79.6319L128.432 79.3559H130.088L130.64 79.6319V81.5639L127.604 85.7039L125.672 89.0159L123.188 92.3279L120.98 95.3639L117.668 100.056L115.46 101.988L114.356 103.368L112.976 104.196L109.388 107.508L107.18 109.44L103.868 112.752L103.04 114.132L102.764 114.96H102.212L100.556 117.72L99.4524 120.756V124.068L103.868 123.792L104.42 121.86L106.352 117.996L109.388 114.408L112.148 111.924L114.356 109.992L118.22 106.404L120.428 104.472L122.912 101.988L123.74 100.608L125.672 97.8479L127.604 94.8119L130.64 90.6719L134.228 85.7039L135.608 83.4959L135.884 82.6679V78.8039L134.78 76.5959L132.572 74.6639L131.192 74.1119H127.328L124.568 75.7679L123.74 72.7319L122.636 71.0759L121.256 69.9719L119.6 69.4199ZM118.496 74.3879L119.324 75.2159L117.944 83.7719L115.736 86.2559L113.804 88.7399L112.424 89.0159L112.976 87.3599L114.08 85.1519L115.736 80.4599L117.116 75.2159L117.944 74.3879H118.496Z" fill="#3C3C3C"/>
<path d="M20.7924 69.4199H18.0324L15.5484 70.5239L14.1684 72.1799L13.3404 74.3879L13.0644 75.7679L10.3044 74.1119H6.44037L4.23237 75.2159L2.30037 77.4239L1.74837 78.5279L1.47237 81.2879L2.30037 84.0479L6.16437 89.5679L8.92437 93.1559L11.6844 97.2959L13.6164 100.332L15.5484 102.816L18.8604 106.128L21.8964 108.612L24.1044 110.82L26.3124 112.752L29.0724 115.236L31.8324 118.824L33.2124 121.86L33.4884 123.792L38.1804 124.068V120.756L36.8004 117.168L35.4204 114.96H34.8684L34.3164 113.856L33.2124 112.2L28.7964 107.784L26.5884 105.852L24.1044 103.644L22.7244 102.816L19.6884 99.7799L16.1004 94.5359L14.1684 92.0519L11.1324 87.6359L9.20037 84.5999L6.99237 81.5639V79.6319L7.54437 79.3559H9.20037L10.5804 80.4599L13.0644 83.7719L16.6524 87.9119L19.1364 90.9479L21.8964 93.1559L29.6244 95.9159L38.7324 98.9519L39.8364 100.884H44.8044L44.2524 97.8479L40.9404 92.0519L39.0084 88.7399L39.2844 87.3599L39.8364 86.8079H41.2164L42.8724 88.7399L46.1844 93.1559L47.5644 95.6399L50.3244 99.5039L51.9804 102.816L53.0844 108.336V124.068L57.7764 124.344L58.0524 122.964V107.784L57.2244 103.092L56.3964 99.7799L54.7404 96.4679L51.7044 92.0519H51.1524L50.6004 90.9479L47.5644 86.5319L45.0804 83.2199L43.1484 81.8399L42.3204 81.5639H38.7324L35.9724 82.9439L34.8684 84.3239L34.0404 86.5319V89.8439L34.8684 92.0519L32.3844 91.2239L27.1404 80.7359L26.3124 78.8039L24.9324 73.2839L23.2764 70.7999L20.7924 69.4199ZM19.6884 74.3879L20.5164 75.2159L22.4484 82.3919L23.5524 84.5999L24.6564 87.3599L25.2084 89.0159L23.8284 88.7399L21.3444 85.7039L19.6884 83.7719L18.3084 75.2159L19.1364 74.3879H19.6884Z" fill="#3C3C3C"/>
<path d="M89.6497 66.8752V41.7294C89.6497 39.2294 87.608 37.3752 85.1289 37.5835H85.0039C80.6289 37.9585 73.983 40.1877 70.2747 42.521L69.9205 42.7502C69.3164 43.1252 68.3164 43.1252 67.7122 42.7502L67.1914 42.4377C63.483 40.1252 56.858 37.9169 52.483 37.5627C50.0039 37.3544 47.983 39.2294 47.983 41.7085V66.8752C47.983 68.8752 49.608 70.7502 51.608 71.0002L52.2122 71.0835C56.733 71.6877 63.7122 73.9794 67.7122 76.1669L67.7955 76.2085C68.358 76.521 69.2539 76.521 69.7955 76.2085C73.7955 74.0002 80.7955 71.6877 85.3372 71.0835L86.0247 71.0002C88.0247 70.7502 89.6497 68.8752 89.6497 66.8752Z" fill="#0066CC" stroke="#0066CC" stroke-width="4" stroke-linecap="round" stroke-linejoin="round"/>
<path d="M68.8164 43.4375V74.6875" stroke="#0066CC" stroke-width="4" stroke-linecap="round" stroke-linejoin="round"/>
<path d="M59.9623 49.6875H55.2748" stroke="white" stroke-width="3" stroke-linecap="round" stroke-linejoin="round"/>
<path d="M61.5248 55.9375H55.2748" stroke="white" stroke-width="3" stroke-linecap="round" stroke-linejoin="round"/>
<path d="M68.8164 41L68.8164 78" stroke="white" stroke-width="0.5" stroke-linecap="round"/>
</svg>
