<svg width="115" height="127" viewBox="0 0 115 127" fill="none" xmlns="http://www.w3.org/2000/svg">
<circle cx="60.9082" cy="47.5" r="47.5" fill="#FDC300"/>
<path d="M61.8856 23.1415C62.4021 22.037 63.4003 21.0265 64.5846 20.4096C65.2614 20.0571 67.6707 20.0107 85.784 20.0016C105.404 19.992 106.258 20.0107 107.164 20.4723C108.379 21.091 109.378 22.1411 109.877 23.3224C110.21 24.1119 110.271 25.6978 110.266 33.4023C110.26 43.4948 110.229 43.7155 108.586 45.2409C107.258 46.4742 106.289 46.7032 102.4 46.7032H98.8379L98.5866 47.6482C98.4484 48.1681 98.1438 49.3583 97.9099 50.2932C96.9236 54.2329 93.3455 56.0226 89.9501 54.2745C89.438 54.0106 87.4171 52.1993 85.459 50.2491L81.8992 46.7032H73.6773C64.6086 46.7032 64.4675 46.6813 62.8801 45.0254C61.4362 43.519 61.4026 43.2514 61.4087 33.2924C61.4138 24.9309 61.4545 24.0633 61.8856 23.1415Z" fill="#0066CC"/>
<path fill-rule="evenodd" clip-rule="evenodd" d="M16.6199 20.6549C9.16462 22.5628 3.37392 28.1204 1.12163 35.5288C0.527314 37.4833 0.429067 38.267 0.409469 41.1988C0.383253 45.138 0.755878 46.907 2.31281 50.2313C5.28668 56.5812 10.9725 61.0672 17.8671 62.5031C19.2369 62.7884 21.8239 62.8705 29.4472 62.8705C38.8448 62.8705 39.2989 62.8488 40.0937 62.3625C42.3819 60.9624 42.2374 57.7492 39.8082 56.022C39.1818 55.577 38.7768 55.1163 38.873 54.9585C38.9662 54.8056 39.4165 54.1627 39.8736 53.5297C41.0749 51.8653 42.4153 48.9373 43.0378 46.6167C43.7956 43.7918 43.7963 39.1142 43.0394 36.2848C41.615 30.9614 38.4136 26.4897 33.9251 23.5544C28.8659 20.2459 22.4315 19.1679 16.6199 20.6549ZM25.3247 25.7047C31.3814 26.973 36.4003 31.8333 37.8114 37.7968C38.418 40.3606 38.2148 44.2567 37.3474 46.6941C36.5826 48.8428 35.0712 51.2426 33.586 52.6664C31.7517 54.4251 31.3875 55.9106 32.4939 57.1209C32.8968 57.5619 32.6873 57.5786 26.7505 57.5786C19.7898 57.5786 18.1209 57.3412 15.1437 55.9277C9.34559 53.1749 5.74432 47.5627 5.77333 41.3248C5.82118 31.1582 15.2798 23.6013 25.3247 25.7047ZM17.2025 34.9182L16.5436 35.6934V41.4508V47.2081L17.2025 47.9833C18.2781 49.2491 18.9101 49.0853 24.064 46.2042C29.4375 43.2006 30.0334 42.7261 30.0334 41.4508C30.0334 40.1704 29.4253 39.6878 24.0431 36.6951C18.8832 33.8261 18.2667 33.6658 17.2025 34.9182ZM58.3353 52.7969C56.0535 53.2636 54.9962 54.0665 49.0121 59.8775C45.7831 63.0131 42.3969 66.2208 41.487 67.006C37.9499 70.0585 32.6738 73.0628 28.2517 74.543C27.2018 74.8946 23.7084 75.8796 20.4887 76.7324C14.1106 78.4217 12.615 79.0623 11.2777 80.6781C10.3917 81.7486 9.41686 83.8906 9.41686 84.767C9.41686 85.1191 9.11092 85.3146 8.20786 85.5394C3.0578 86.8221 -0.261969 91.6695 0.735515 96.4506C1.16006 98.4863 1.82234 99.7211 3.34338 101.313C5.68934 103.769 9.23258 104.726 12.6799 103.835L14.2885 103.419L14.799 104.062C15.6319 105.11 17.3896 106.165 19.0786 106.63C20.4546 107.008 20.8809 107.024 22.3561 106.752C23.289 106.58 24.2068 106.417 24.3962 106.39C24.6257 106.357 25.737 108.872 27.734 113.945C30.9571 122.133 31.559 123.358 32.9602 124.576C38.8125 129.663 47.7282 126.3 48.7578 118.617C49.0044 116.775 48.5995 115.34 45.9356 108.613C44.6088 105.263 43.5232 102.428 43.5232 102.313C43.5232 102.005 49.6583 102.362 52.2794 102.822C54.8768 103.279 63.7172 105.862 66.176 106.883C67.5473 107.452 68.2228 107.572 70.1257 107.585C72.2227 107.599 72.5678 107.528 74.1243 106.77C77.8816 104.94 80.369 100.426 81.1652 93.9921C82.5401 82.8846 78.2122 67.8074 71.183 59.2165C67.2338 54.3898 62.3876 51.9684 58.3353 52.7969ZM62.6459 58.8764C66.5936 60.9596 70.8821 67.3853 73.4187 75.0178C75.0434 79.9053 75.629 83.1434 75.7805 88.0702C75.9612 93.9498 75.2757 97.6443 73.516 100.275C72.5353 101.741 70.9524 102.57 69.6632 102.294C67.2353 101.775 64.381 99.397 61.9137 95.8385L60.5784 93.9128L61.6882 93.2689C65.4605 91.0801 67.7606 86.3239 67.0014 82.2816C66.3249 78.6808 64.0201 75.6833 60.7963 74.2121C59.3249 73.5406 58.573 73.3642 56.7415 73.2608L54.493 73.1338L54.3255 72.3784C54.2334 71.9628 54.2364 70.5325 54.3326 69.1997C54.7009 64.096 55.8282 60.7255 57.7351 59.0275C59.1452 57.7716 60.4748 57.7308 62.6459 58.8764ZM90.1214 67.8205C86.8597 68.9509 84.9093 71.3321 84.2225 75.0221C83.9746 76.3546 83.9734 77.0748 84.2169 78.4225C84.7848 81.5649 86.5392 84.0504 91.6213 88.9116C96.1486 93.242 98.0657 94.3969 100.1 94.0191C102.216 93.626 106.386 90.1192 110.869 84.9626C113.945 81.424 114.408 80.3483 114.408 76.7303C114.408 74.3739 114.332 73.9234 113.713 72.6137C112.637 70.3412 111.657 69.2876 109.754 68.3603C106.73 66.8861 103.067 67.1083 100.396 68.928L99.3324 69.652L98.4849 69.0328C96.3657 67.4851 92.6455 66.9458 90.1214 67.8205ZM49.6237 79.1135C50.7388 85.1206 52.9208 91.3633 55.4589 95.8085C56.1533 97.0244 56.6855 98.0546 56.6417 98.0977C56.5979 98.141 55.2606 97.9165 53.6699 97.5987C51.1765 97.1008 50.0044 97.0212 45.1776 97.0212C38.6012 97.0212 37.1094 97.2578 28.1245 99.7276C21.8084 101.464 20.4671 101.671 19.5223 101.058C18.6836 100.514 18.6355 100.378 16.5224 92.5477C15.3025 88.0274 14.7591 85.5956 14.8708 85.1554C15.2091 83.8205 15.9772 83.4682 21.9245 81.9202C25.0544 81.1055 28.7608 80.0469 30.1607 79.5676C33.2631 78.5054 37.5251 76.4189 40.3075 74.6C42.4522 73.1981 46.6434 69.8229 47.9774 68.4238L48.741 67.6229L48.9026 71.8615C49.0021 74.4722 49.279 77.2578 49.6237 79.1135ZM95.3445 73.4231C95.8905 73.8218 96.7307 74.5576 97.2117 75.0583C98.7809 76.6923 100.192 76.5235 102.191 74.4624C102.751 73.885 103.519 73.252 103.897 73.0557C104.804 72.584 106.237 72.6026 107.296 73.0998C108.994 73.8979 109.695 76.7717 108.704 78.8723C108.041 80.2777 104.538 84.1491 101.766 86.5421C99.7102 88.3162 99.3772 88.5173 98.9064 88.2703C97.8094 87.695 90.6977 80.344 90.1453 79.2145C89.4953 77.885 89.4144 75.8756 89.9588 74.5858C90.7684 72.6674 93.5013 72.0775 95.3445 73.4231ZM57.8583 78.7645C59.0314 79.087 60.6276 80.4591 61.1865 81.6254C61.7551 82.8118 61.7131 85.0881 61.1005 86.2773C60.5632 87.3198 58.9859 88.8262 58.4313 88.8262C58.2411 88.8262 58.006 88.6276 57.9087 88.3852C56.3437 84.4856 54.8707 78.9698 55.3189 78.6874C55.7374 78.4238 56.7285 78.454 57.8583 78.7645ZM11.3108 94.4704C12.4213 98.5838 12.4365 98.4878 10.6241 98.7912C9.3629 99.0021 7.47687 98.105 6.68097 96.9158C5.68399 95.426 5.98357 92.9758 7.30786 91.7894C7.84084 91.3119 9.64542 90.5897 10.0532 90.6907C10.1932 90.7255 10.7592 92.4262 11.3108 94.4704ZM38.391 104.261C38.6682 104.989 39.8789 108.06 41.0818 111.086C43.4766 117.111 43.6958 118.243 42.7609 119.761C41.3687 122.022 37.6615 122.216 36.1746 120.106C35.7238 119.466 29.9364 104.949 30.0866 104.834C30.1273 104.803 30.9051 104.59 31.8151 104.361C32.725 104.133 34.2712 103.726 35.2512 103.457C37.8178 102.753 37.8165 102.753 38.391 104.261Z" fill="#3C3C3C"/>
<circle cx="85.9082" cy="33.5" r="3.5" fill="white"/>
<circle cx="99.9082" cy="33.5" r="3.5" fill="white"/>
<circle cx="71.9082" cy="33.5" r="3.5" fill="white"/>
</svg>
