<svg width="97" height="111" viewBox="0 0 97 111" fill="none" xmlns="http://www.w3.org/2000/svg">
<circle cx="49.5" cy="47.5" r="47.5" fill="#FDC300"/>
<path fill-rule="evenodd" clip-rule="evenodd" d="M17.8513 3.07088C16.1927 3.3522 13.5861 4.14523 12.185 4.79438C7.41642 7.00401 3.38004 11.248 1.45963 16.0709C-0.115325 20.0261 0.00197138 16.501 0.00197138 59.8506V98.8793L0.605965 100.658C1.46539 103.19 2.63125 105.023 4.54567 106.853C6.48737 108.709 8.64614 109.928 11.1127 110.561C12.7739 110.987 13.6936 110.999 43.5609 110.999C77.4828 110.999 75.6779 111.073 78.131 109.6C80.4589 108.203 82.3152 105.491 82.8206 102.749C82.97 101.938 83.027 90.029 82.9882 67.7317L82.9292 33.9426L82.2775 32.6518C81.5352 31.1814 80.3055 29.9674 78.9485 29.3654C78.4365 29.1381 77.9072 28.7096 77.7726 28.4129C77.1327 27.0048 74.3926 20.2716 74.3926 20.1077C74.3926 20.0056 74.7427 19.7332 75.1704 19.5021C76.3356 18.8728 78.1088 16.8742 78.7837 15.4296C79.3197 14.2825 79.3813 13.8973 79.3804 11.7039C79.3793 9.36998 79.3458 9.19296 78.6474 7.84952C77.6817 5.9917 76.2602 4.6029 74.4371 3.73671L72.9513 3.03085L45.6785 3.00372C30.6784 2.98905 18.1562 3.01907 17.8513 3.07088ZM72.3116 9.04907C74.3682 10.5891 74.4183 13.0845 72.4196 14.4237L71.6662 14.9285L48.1401 14.9323C22.9351 14.9365 22.8874 14.9385 20.7118 16.0518C19.2735 16.7877 17.2772 18.8178 16.5433 20.2911C14.1224 25.1503 16.0553 30.9228 20.9087 33.329L22.5952 34.1649L49.6204 34.2761C76.1119 34.3851 76.652 34.396 76.9624 34.8219C77.2343 35.1948 77.2711 40.0228 77.2219 68.8632L77.1642 102.47L76.5542 103.394C76.2188 103.903 75.5203 104.546 75.0021 104.824L74.06 105.329L44.5698 105.39C24.4225 105.432 14.5879 105.376 13.5275 105.213C10.7546 104.788 8.47053 103.324 7.03128 101.051C5.56475 98.7346 5.6561 101.476 5.6561 59.7345C5.6561 22.8235 5.66674 21.8516 6.09247 20.182C7.62463 14.174 12.6659 9.61927 18.7619 8.73529C19.5752 8.61742 31.16 8.5427 45.9394 8.56004C71.5875 8.59029 71.7021 8.59251 72.3116 9.04907ZM70.0877 24.7135L71.6988 28.6053L48.2949 28.662C33.0848 28.6987 24.6001 28.64 24.0606 28.4943C22.9453 28.1932 22.1466 27.5265 21.5903 26.4328C20.6282 24.5416 21.4327 22.1796 23.3985 21.122C24.1358 20.7257 25.087 20.7108 46.3222 20.7651L68.4766 20.8218L70.0877 24.7135ZM13.2612 41.1612C11.7739 42.0705 11.8646 40.3479 11.8646 67.7012V92.4755L12.3701 93.2281C12.6482 93.6417 13.1222 94.1054 13.4233 94.2584C14.8464 94.9805 16.8384 94.2166 17.34 92.7559C17.7211 91.6458 17.7211 43.6224 17.34 42.5122C16.7994 40.9382 14.7408 40.2561 13.2612 41.1612Z" fill="#3C3C3C"/>
<path d="M25.9266 59.1332C29.1147 51.7377 35.665 46.4109 43.4883 44.852C45.6218 44.4268 50.4243 44.427 52.6607 44.8524C57.6215 45.7964 61.8552 48.1435 65.5068 51.9746C69.678 56.3507 71.845 61.422 72.112 67.4335C72.3191 72.0987 71.5692 75.5953 69.4933 79.6432C68.1565 82.25 66.6765 84.2426 64.6614 86.1493C57.3296 93.086 46.4986 94.7443 37.5278 90.3035C30.7646 86.9555 26.0022 80.784 24.496 73.4164C24.0918 71.4387 24.0348 70.5707 24.1235 67.7455C24.2404 64.0232 24.6386 62.1212 25.9266 59.1332Z" fill="#0066CC"/>
<path d="M53.4969 58.4876C52.6834 54.5538 51.4501 52.0348 50.0005 51.3448C47.1142 49.9711 44.8503 52.7407 43.7672 58.9699C43.5124 60.435 43.4991 60.8931 43.7078 61.0226C44.5557 61.5481 53.1927 61.5367 53.7187 61.0092C53.902 60.8253 53.844 60.1653 53.4969 58.4876Z" fill="#FDC300"/>
<path d="M52.7007 66.9434C51.8164 67.0359 49.9956 67.1117 48.6541 67.1117C47.3127 67.1117 45.4918 67.0359 44.6075 66.9434L43 66.775V69.5531V72.3309L44.3858 72.1677C45.1481 72.0778 47.0688 72.0042 48.6541 72.0042C50.2395 72.0042 52.1604 72.0778 52.9224 72.1677L54.3083 72.3309V69.5531V66.775L52.7007 66.9434Z" fill="#FDC300"/>
<path d="M53.7539 78.0173L52.7561 77.8628C51.5537 77.6764 45.6843 77.684 44.4412 77.8734L43.5543 78.0086L43.6228 79.0094C43.8166 81.8344 45.1541 85.6877 46.3832 86.9619C47.6464 88.2713 49.5122 88.3258 50.7976 87.0909C52.1065 85.8333 53.5499 81.8824 53.6934 79.1651L53.7539 78.0173Z" fill="#FDC300"/>
<path d="M36.9395 57.4851C36.9457 57.1588 37.1757 56.0162 37.4502 54.9459C37.7247 53.8758 37.934 53 37.9154 53C37.8967 53 37.4424 53.312 36.9058 53.6934C35.5679 54.6445 33.3752 56.8148 33.5182 57.0468C33.5825 57.1511 34.3167 57.5807 35.15 58.0015C36.7863 58.8281 36.9143 58.7912 36.9395 57.4851Z" fill="#FDC300"/>
<path d="M60.5141 55.8548C59.9199 55.2454 58.9713 54.4039 58.4062 53.9847C57.2002 53.0901 57.0008 53.0465 57.2046 53.7228C57.2873 53.9981 57.5647 55.2434 57.8208 56.4904L58.2864 58.7578L58.9864 58.4645C59.3714 58.303 60.1157 57.8992 60.6405 57.5669L61.5949 56.9627L60.5141 55.8548Z" fill="#FDC300"/>
<path d="M34.2672 63.9067C33.2306 63.4557 31.9604 62.8186 31.4446 62.491C30.9286 62.1634 30.4588 61.8954 30.4003 61.8954C30.1643 61.8954 29.3761 64.9464 29.1266 66.8251C28.8184 69.1461 29.0803 71.9653 29.8304 74.4007L30.2834 75.8718L32.5526 74.7009C33.8005 74.0569 35.1482 73.4186 35.5471 73.2823L36.2726 73.0345L36.2123 68.8806L36.152 64.7266L34.2672 63.9067Z" fill="#FDC300"/>
<path d="M65.0703 74.2483C66.133 70.657 66.1319 67.019 65.0669 63.3966C64.8242 62.5711 64.555 61.9035 64.4687 61.913C64.3822 61.9228 63.7629 62.2733 63.0922 62.6916C62.4215 63.1101 61.1991 63.7183 60.376 64.0435L58.8793 64.6344V68.9357C58.8793 72.3925 58.9379 73.2371 59.1778 73.2371C59.3421 73.2371 60.6306 73.8174 62.0414 74.5263L64.6064 75.8155L65.0703 74.2483Z" fill="#FDC300"/>
<path d="M37.2757 81.799C37.0746 80.8205 36.8624 79.7949 36.8041 79.5196C36.7455 79.2442 36.6249 79.0214 36.5358 79.0241C36.2449 79.033 33.3803 80.6686 33.3803 80.8259C33.3803 81.0749 36.3708 83.7642 37.1559 84.221L37.8786 84.6418L37.7599 84.1098C37.6945 83.8174 37.4768 82.7775 37.2757 81.799Z" fill="#FDC300"/>
<path d="M61.5401 80.827C61.5401 80.7405 60.8547 80.2981 60.0168 79.8442C59.1791 79.3906 58.4478 79.0192 58.392 79.0192C58.3359 79.0192 58.0731 80.0451 57.8079 81.2987C57.5427 82.5522 57.2607 83.8181 57.1811 84.1114L57.0365 84.6449L57.7498 84.2226C58.5512 83.7485 61.5401 81.0707 61.5401 80.827Z" fill="#FDC300"/>
</svg>
