<?xml version="1.0" encoding="utf-8"?>
<!-- Generator: Adobe Illustrator 16.0.0, SVG Export Plug-In . SVG Version: 6.00 Build 0)  -->
<!DOCTYPE svg PUBLIC "-//W3C//DTD SVG 1.1//EN" "http://www.w3.org/Graphics/SVG/1.1/DTD/svg11.dtd">
<svg version="1.1" id="Layer_1" xmlns="http://www.w3.org/2000/svg" xmlns:xlink="http://www.w3.org/1999/xlink" x="0px" y="0px"
	 width="925.333px" height="141.583px" viewBox="31 0 925.333 141.583" enable-background="new 31 0 925.333 141.583"
	 xml:space="preserve">
<g>
	<g>
		<defs>
			<rect id="SVGID_1_" x="14.221" y="3.779" width="312.279" height="139.475"/>
		</defs>
		<clipPath id="SVGID_2_">
			<use xlink:href="#SVGID_1_"  overflow="visible"/>
		</clipPath>
		<g opacity="0.5" clip-path="url(#SVGID_2_)">
			<path fill="none" stroke="#FBC311" stroke-linecap="round" stroke-linejoin="round" d="M241.493,112.225l1.175-20.966
				l1.18,21.022 M240.86,123.461l-1.097,19.527h5.81l-1.097-19.533 M246.825,116.104c0.139,0,0.27-0.056,0.367-0.151
				c0.099-0.099,0.153-0.231,0.153-0.368 M245.162,119.27c0.138,0,0.271-0.059,0.367-0.153c0.098-0.099,0.152-0.229,0.152-0.367
				 M245.978,117.706c0.138,0,0.269-0.054,0.368-0.151c0.097-0.099,0.152-0.229,0.152-0.369 M244.3,117.706
				c0.138,0,0.27-0.054,0.367-0.151c0.098-0.099,0.152-0.229,0.152-0.369 M242.621,117.706c0.138,0,0.27-0.054,0.367-0.151
				c0.098-0.099,0.152-0.229,0.152-0.369 M243.437,119.309c0.138,0,0.27-0.055,0.367-0.151c0.098-0.097,0.152-0.23,0.152-0.367
				 M245.916,120.911c0.138,0,0.269-0.056,0.367-0.152c0.097-0.098,0.152-0.229,0.152-0.368 M245.068,116.156
				c0.138,0,0.27-0.055,0.368-0.151c0.097-0.098,0.151-0.229,0.151-0.369 M245.884,114.596c0.138,0,0.27-0.054,0.367-0.152
				c0.097-0.098,0.152-0.229,0.152-0.366 M246.701,119.382c0.137,0,0.27-0.054,0.367-0.153c0.097-0.097,0.152-0.229,0.152-0.364
				 M247.516,117.82c0.138,0,0.27-0.055,0.367-0.15c0.098-0.098,0.152-0.23,0.152-0.369 M238.512,119.27
				c0.138,0,0.27-0.059,0.366-0.153c0.098-0.099,0.153-0.229,0.153-0.367 M237.015,119.27c0.108-0.037,0.199-0.108,0.263-0.203
				c0.064-0.092,0.096-0.205,0.09-0.317 M237.664,117.706c0.137,0,0.27-0.054,0.367-0.151c0.097-0.099,0.152-0.229,0.152-0.369
				 M238.48,116.146c0.138,0,0.27-0.056,0.367-0.152c0.098-0.098,0.152-0.229,0.152-0.366 M242.637,114.585
				c0.138,0,0.27-0.054,0.367-0.151c0.097-0.097,0.152-0.23,0.152-0.369 M241.836,119.27c0.138,0,0.27-0.059,0.368-0.153
				c0.097-0.099,0.152-0.229,0.152-0.367 M240.99,117.706c0.137,0,0.27-0.054,0.368-0.151c0.097-0.099,0.151-0.229,0.151-0.369
				 M240.174,119.27c0.138,0,0.271-0.059,0.368-0.153c0.098-0.099,0.152-0.229,0.152-0.367 M239.327,120.869
				c0.138,0,0.27-0.055,0.368-0.151c0.097-0.099,0.152-0.229,0.152-0.368 M244.3,114.523c0.138,0,0.27-0.056,0.367-0.152
				c0.098-0.1,0.152-0.23,0.152-0.368 M239.343,117.706c0.137,0,0.27-0.054,0.367-0.151c0.098-0.099,0.152-0.229,0.152-0.369
				 M243.5,112.947c0.138,0,0.27-0.057,0.368-0.152c0.097-0.1,0.151-0.229,0.151-0.369c0.003-0.02,0.003-0.041,0-0.062
				 M245.162,112.957c0.087,0,0.173-0.025,0.25-0.066 M243.5,122.498c0.138,0,0.27-0.055,0.368-0.152
				c0.097-0.099,0.151-0.229,0.151-0.369 M245.146,122.498c0.139,0,0.27-0.055,0.368-0.152c0.097-0.099,0.153-0.229,0.153-0.369
				 M244.3,120.938c0.138,0,0.27-0.056,0.367-0.151c0.098-0.099,0.152-0.229,0.152-0.367 M241.79,112.998
				c0.137,0,0.27-0.055,0.367-0.15c0.098-0.099,0.152-0.229,0.152-0.369 M243.437,116.193c0.138,0,0.27-0.055,0.367-0.152
				c0.098-0.1,0.152-0.23,0.152-0.368 M239.847,112.957c0.07,0.039,0.148,0.063,0.228,0.064c0.08,0.004,0.161-0.011,0.234-0.043
				c0.073-0.031,0.139-0.08,0.189-0.144c0.052-0.062,0.088-0.134,0.107-0.212 M240.085,116.209c0.138,0,0.27-0.055,0.367-0.152
				c0.098-0.1,0.152-0.229,0.152-0.369 M239.239,114.648c0.137,0,0.27-0.058,0.368-0.153c0.097-0.097,0.152-0.229,0.152-0.367
				 M240.886,114.648c0.138,0,0.27-0.058,0.368-0.153c0.097-0.097,0.152-0.229,0.152-0.367 M242.533,121.025
				c0.138,0,0.27-0.055,0.366-0.152c0.099-0.098,0.153-0.229,0.153-0.368 M241.686,116.27c0.138,0,0.27-0.054,0.368-0.149
				c0.097-0.099,0.152-0.229,0.152-0.369 M241.686,122.645c0.138,0,0.27-0.056,0.368-0.151c0.097-0.099,0.152-0.229,0.152-0.369
				 M240.839,121.082c0.138,0,0.27-0.055,0.367-0.15c0.098-0.1,0.152-0.229,0.152-0.369 M238.688,122.545
				c0.055-0.049,0.1-0.109,0.13-0.176c0.031-0.066,0.047-0.141,0.047-0.215 M239.992,122.676c0.138,0,0.271-0.056,0.367-0.154
				c0.098-0.097,0.152-0.229,0.152-0.367 M237.478,121.115c0.138,0,0.27-0.057,0.366-0.153c0.098-0.098,0.153-0.229,0.153-0.368
				 M257.077,99.348l-2.462,43.896h4.926L257.077,99.348z M257.077,99.348l-0.52,9.23h1.039L257.077,99.348z M278.386,122.716
				c0.137,0,0.27-0.055,0.366-0.151c0.098-0.099,0.152-0.229,0.152-0.367 M275.049,122.716c0.138,0,0.271-0.055,0.368-0.151
				c0.098-0.099,0.151-0.229,0.151-0.367 M276.701,122.716c0.139,0,0.271-0.055,0.368-0.151c0.097-0.099,0.151-0.229,0.151-0.367
				 M271.704,122.716c0.137,0,0.27-0.055,0.367-0.151c0.097-0.099,0.152-0.229,0.152-0.367 M275.86,114.777
				c0.138,0,0.271-0.055,0.367-0.151c0.098-0.099,0.152-0.229,0.152-0.368 M278.343,116.386c0.138,0,0.27-0.056,0.368-0.153
				c0.097-0.098,0.152-0.229,0.152-0.367 M277.502,114.826c0.137,0,0.27-0.057,0.367-0.154c0.097-0.097,0.152-0.23,0.152-0.367
				 M279.154,118.018c0.138,0,0.271-0.053,0.368-0.149c0.097-0.099,0.153-0.231,0.153-0.369 M276.649,116.459
				c0.138,0,0.271-0.057,0.368-0.152c0.097-0.098,0.152-0.23,0.152-0.369 M280.807,118.061c0.137,0,0.27-0.055,0.367-0.151
				c0.098-0.097,0.152-0.229,0.152-0.368 M279.964,116.5c0.138,0,0.27-0.055,0.368-0.154c0.097-0.096,0.152-0.229,0.152-0.365
				 M273.304,122.871c0.137,0,0.27-0.055,0.367-0.15c0.097-0.099,0.151-0.229,0.151-0.369 M268.306,122.871
				c0.137,0,0.269-0.055,0.367-0.15c0.098-0.098,0.152-0.229,0.152-0.369 M268.306,116.525c0.137,0,0.269-0.055,0.367-0.151
				c0.098-0.097,0.152-0.229,0.152-0.368 M277.772,117.706c0.138,0,0.27-0.054,0.367-0.151c0.098-0.099,0.152-0.229,0.152-0.369
				 M271.11,117.706c0.138,0,0.271-0.054,0.368-0.151c0.097-0.099,0.152-0.229,0.152-0.369 M272.764,117.706
				c0.137,0,0.27-0.054,0.366-0.151c0.098-0.099,0.153-0.229,0.153-0.369 M274.416,117.706c0.138,0,0.27-0.054,0.366-0.151
				c0.098-0.099,0.152-0.229,0.152-0.369 M276.068,117.706c0.138,0,0.27-0.054,0.367-0.151c0.097-0.099,0.153-0.229,0.153-0.369
				 M269.407,114.539c0.138,0,0.27-0.055,0.367-0.153c0.097-0.098,0.152-0.229,0.152-0.368 M279.367,114.539
				c0.126,0.002,0.248-0.045,0.343-0.126c0.096-0.083,0.159-0.198,0.176-0.321 M280.204,122.486c0.137,0,0.27-0.055,0.367-0.15
				c0.098-0.098,0.152-0.23,0.152-0.369 M276.867,112.957c0.12,0.004,0.235-0.035,0.331-0.105c0.094-0.072,0.161-0.174,0.189-0.289
				 M279.378,124.089c0.138,0,0.27-0.055,0.367-0.151c0.097-0.097,0.152-0.229,0.152-0.367 M277.704,124.089
				c0.138,0,0.27-0.055,0.368-0.151c0.097-0.097,0.152-0.229,0.152-0.367 M276.862,125.691c0.138,0,0.271-0.055,0.368-0.151
				c0.097-0.099,0.152-0.231,0.152-0.369 M275.189,116.167c0.138,0,0.27-0.056,0.368-0.153c0.097-0.096,0.152-0.229,0.152-0.367
				 M278.505,125.723c0.138,0,0.27-0.054,0.367-0.149c0.097-0.101,0.152-0.23,0.152-0.371 M275.169,113.016
				c0.138,0,0.27-0.056,0.367-0.152c0.098-0.098,0.152-0.23,0.152-0.367 M273.496,113.016c0.138,0,0.271-0.056,0.368-0.152
				c0.097-0.098,0.151-0.23,0.151-0.367 M271.495,112.904c0.073,0.061,0.161,0.1,0.253,0.113c0.092,0.015,0.188,0.002,0.275-0.033
				s0.162-0.096,0.219-0.17c0.056-0.075,0.09-0.164,0.1-0.258 M270.347,125.706c0.105-0.036,0.196-0.106,0.257-0.202
				c0.062-0.093,0.092-0.204,0.085-0.316 M275.979,124.146c0.138,0,0.27-0.056,0.369-0.151c0.097-0.099,0.151-0.229,0.151-0.369
				 M270.981,114.617c0.137,0,0.27-0.057,0.367-0.152c0.098-0.098,0.152-0.23,0.152-0.369 M269.459,117.706
				c0.138,0,0.27-0.054,0.366-0.151c0.098-0.099,0.152-0.229,0.152-0.369 M267.786,117.706c0.137,0,0.27-0.054,0.368-0.151
				c0.097-0.099,0.152-0.229,0.152-0.369 M275.252,125.671c0.137,0,0.27-0.054,0.367-0.149c0.097-0.1,0.152-0.231,0.152-0.369
				 M274.41,114.555c0.138,0,0.27-0.056,0.368-0.152c0.097-0.098,0.152-0.229,0.152-0.367 M273.568,116.161
				c0.138,0,0.271-0.056,0.368-0.152s0.152-0.229,0.152-0.366 M271.895,116.161c0.138,0,0.271-0.056,0.368-0.152
				c0.098-0.097,0.152-0.229,0.152-0.366 M272.716,114.6c0.138,0,0.271-0.054,0.369-0.149c0.097-0.099,0.151-0.229,0.151-0.369
				 M270.212,116.209c0.138,0,0.27-0.055,0.367-0.152c0.098-0.1,0.153-0.229,0.153-0.369 M271.941,125.645
				c0.139,0,0.271-0.054,0.368-0.151c0.097-0.099,0.152-0.229,0.152-0.367 M272.764,124.085c0.137,0,0.27-0.056,0.366-0.153
				c0.098-0.097,0.153-0.229,0.153-0.367 M274.416,124.085c0.138,0,0.27-0.056,0.366-0.153c0.098-0.097,0.152-0.229,0.152-0.367
				 M273.574,125.688c0.137,0,0.27-0.055,0.367-0.152c0.098-0.098,0.152-0.229,0.152-0.368 M271.068,124.127
				c0.139,0,0.271-0.057,0.369-0.152c0.097-0.099,0.152-0.229,0.152-0.367 M269.396,124.127c0.137,0,0.27-0.057,0.367-0.152
				c0.097-0.099,0.152-0.229,0.152-0.367 M270.212,122.566c0.138,0,0.27-0.057,0.367-0.153c0.098-0.097,0.153-0.229,0.153-0.368
				 M275.579,95.291l-0.722-12.869l-0.722,12.869 M276.531,112.255l-0.359-6.36 M272.374,126.639l-0.92,16.35h6.801l-0.915-16.35
				 M273.538,105.895l-0.354,6.36 M267.541,118.143h14.658 M267.541,120.943h14.658 M182.212,104.368h-23.709
				c-0.384-1.587-0.314-3.25,0.199-4.802c0.514-1.551,1.451-2.924,2.706-3.969c4.677-4.053,8.241-2.908,8.953-6.051
				c0.713,3.121,4.287,1.998,8.953,6.051c1.254,1.045,2.192,2.418,2.706,3.969c0.513,1.552,0.582,3.215,0.199,4.802H182.212z
				 M182.212,104.368v1.088h-23.714v-1.088H182.212z M159.21,107.434v-1.978h22.322v1.978 M159.21,107.434h22.322 M159.21,107.434
				v4.467h22.322v-4.467 M157.324,116.489V111.9h26.063v4.589 M157.324,116.489h26.063 M157.324,116.489v20.585h26.063v-20.585
				 M170.355,89.548v-0.692 M170.355,87.223v-0.671 M170.355,85.396v-1.162 M170.355,85.396c-0.112,0-0.222,0.031-0.314,0.096
				c-0.094,0.063-0.165,0.15-0.208,0.255c-0.043,0.103-0.055,0.217-0.033,0.326c0.022,0.11,0.076,0.212,0.155,0.291
				s0.18,0.133,0.29,0.155c0.109,0.021,0.223,0.01,0.327-0.033s0.192-0.114,0.254-0.209c0.063-0.094,0.095-0.203,0.095-0.313
				c0-0.151-0.059-0.294-0.165-0.399c-0.104-0.106-0.247-0.168-0.396-0.168H170.355L170.355,85.396z M143.082,137.074v-20.585h12.99
				v20.585 M143.082,137.074h12.99 M143.082,137.074h-1.269l0.027-30.059h1.242 M143.082,137.074v-30.059 M156.072,137.074h1.242
				v-30.059h-1.242V137.074z M149.557,104.343c0.312,1.373,1.875,0.874,3.917,2.647c0.552,0.455,0.965,1.057,1.194,1.734
				c0.228,0.678,0.26,1.408,0.095,2.104H144.37c-0.169-0.694-0.14-1.424,0.084-2.102c0.224-0.68,0.635-1.281,1.184-1.737
				C147.68,105.217,149.244,105.716,149.557,104.343z M149.557,104.343v-1.354 M143.082,127.163h12.99 M144.381,109.664h10.476
				 M136.327,101.48v-0.592 M130.871,127.163h10.776 M133.178,104.368h6.339 M133.178,107.594h6.339 M143.082,107.018l0.732-0.734
				l-1.367-1.368l-1.382,1.349l0.732,0.732L143.082,107.018z M114.732,128.205h8.236 M114.655,130.453h8.371 M115.076,116.489h7.555
				 M118.843,89.746c0.217,0.982,1.335,0.624,2.785,1.888l0.01-0.006c0.392,0.325,0.684,0.755,0.843,1.239
				c0.159,0.482,0.178,1.003,0.057,1.498h-7.389c-0.12-0.495-0.099-1.014,0.061-1.496c0.16-0.483,0.452-0.912,0.843-1.235
				C117.508,90.37,118.619,90.729,118.843,89.746z M118.843,89.746v-1.941 M115.132,114.243h7.425 M114.565,102.923h8.6
				 M184.649,137.079v-20.583h12.99v20.583H184.649z M184.649,137.079h-1.241v-30.06h1.241 M184.649,137.079v-30.06 M191.17,104.343
				v-1.349 M197.691,127.163h-13.042 M196.346,109.669h-10.495 M184.649,107.021l0.732-0.733l-1.366-1.367l-1.367,1.367l0.733,0.733
				H184.649z M198.908,116.5v-2.436h10.937v2.436H198.908z M198.908,116.5v20.584 M198.908,116.5l10.937-0.004v20.588h-10.937
				 M198.908,137.084h-1.242v-30.059h1.242 M198.908,137.084v-30.059 M204.379,101.492c0.135,0.607,0.826,0.391,1.73,1.176
				c0.243,0.201,0.424,0.467,0.524,0.768c0.099,0.299,0.112,0.621,0.038,0.928h-4.588v-0.004c-0.073-0.307-0.06-0.627,0.039-0.926
				c0.1-0.3,0.28-0.563,0.522-0.766C203.547,101.883,204.239,102.1,204.379,101.492z M204.379,101.492v-0.594 M209.845,127.168
				h-10.776 M207.538,104.379h-6.34 M207.538,107.6h-6.34 M198.908,107.025l0.732-0.732l-1.367-1.367l-1.366,1.367l0.733,0.732
				H198.908z M211.076,107.025h-1.241v30.033h1.241V107.025z M211.076,107.025l0.732-0.732l-1.371-1.367l-1.341,1.338l0.734,0.731
				L211.076,107.025z M225.963,128.229h-8.215 M217.748,128.229h1.195v2.254h-1.251L217.748,128.229z M226.061,130.482h-8.38
				 M225.641,116.521h-7.549 M225.641,116.521h-0.847v-2.252h0.785L225.641,116.521z M218.091,116.521h0.851v-2.252h-0.784
				 M218.091,116.521l0.067-2.252 M218.158,114.27h7.436 M221.884,89.771c0.223,0.982,1.335,0.623,2.79,1.889
				c0.391,0.324,0.684,0.754,0.843,1.234c0.16,0.482,0.182,1.002,0.062,1.494h-7.389l-0.016-0.023
				c-0.112-0.492-0.086-1.008,0.076-1.483c0.163-0.479,0.454-0.901,0.843-1.222C220.549,90.395,221.661,90.755,221.884,89.771z
				 M221.884,89.771V87.83 M217.57,102.943h8.595 M312.471,104.232l-0.088,2.14 M315.573,95.707l-1.366-32.253l-1.368,32.253
				 M316.03,106.372l-0.088-2.14 M312.17,111.516l-1.336,31.479h6.755l-1.335-31.479 M309.613,99.26h9.203 M309.613,100.686h9.203
				 M310.663,93.923h7.108 M311.707,91.898h5.014 M312.367,89.869h3.699 M312.596,82.764h3.236 M313.121,75.657h2.188
				 M313.64,68.547h1.147 M309.593,102.094h9.202 M307.826,108.29h12.741 M79.243,129.475c-1.761,1.561-3.943,3.443-4.795,4.162
				c-0.112,0.096-0.202,0.217-0.265,0.354c-0.062,0.135-0.093,0.281-0.093,0.432v8.553h-5.196v-8.543
				c-0.001-0.147-0.033-0.297-0.096-0.433s-0.154-0.257-0.267-0.354c-1.378-1.181-6.272-5.379-7.177-6.414
				c-1.039-1.205,1.471-4.451,10.138-4.451 M71.123,142.982v-9.92c0.008-0.063,0.008-0.129,0-0.192l-1.46-9.925 M70.432,142.982
				v-9.633c0-0.134-0.025-0.263-0.073-0.386l-3.71-9.653 M69.72,142.982v-9.416c0-0.207-0.062-0.409-0.177-0.582l-6.604-8.516
				 M73.138,124.325l-1.241,8.545c-0.006,0.063-0.006,0.13,0,0.192v9.92 M75.3,126.154l-2.598,6.811
				c-0.052,0.121-0.079,0.252-0.078,0.385v9.635 M77.405,127.939l-3.887,5.045c-0.118,0.173-0.181,0.375-0.182,0.582v9.416
				 M87.599,129.459c1.762,1.563,3.949,3.443,4.796,4.161c0.112,0.097,0.203,0.218,0.265,0.354c0.062,0.135,0.093,0.281,0.093,0.43
				v8.553h5.196v-8.525c0-0.147,0.032-0.297,0.094-0.432c0.063-0.135,0.153-0.256,0.265-0.354c1.382-1.182,6.277-5.379,7.181-6.414
				c1.04-1.207-1.47-4.453-10.142-4.453 M97.196,122.945l-1.461,9.925c-0.005,0.063-0.005,0.13,0,0.192v9.92 M100.235,123.311
				l-3.715,9.654c-0.049,0.123-0.073,0.252-0.073,0.385v9.635 M103.847,124.471l-6.578,8.531c-0.116,0.171-0.177,0.375-0.177,0.582
				V143 M94.931,143v-9.938c0.008-0.063,0.008-0.129,0-0.192l-1.258-8.562 M94.24,142.982v-9.633c0-0.134-0.025-0.263-0.073-0.386
				l-2.598-6.812 M93.549,142.982v-9.416c0-0.207-0.061-0.409-0.177-0.582l-3.892-5.045 M82.896,142.982v-14.564
				c-0.019-0.105-0.049-0.208-0.088-0.307l-2.152-14.565 M81.791,142.975v-14.15c0-0.194-0.037-0.387-0.11-0.566l-5.445-14.17
				 M80.746,142.975v-13.822c-0.002-0.305-0.094-0.604-0.265-0.854l-9.623-12.521 M86.112,113.546l-2.145,14.565
				c-0.008,0.096-0.008,0.189,0,0.285v14.565 M90.566,114.076l-5.471,14.189c-0.072,0.182-0.11,0.375-0.11,0.567v14.149
				 M95.949,115.777l-9.66,12.525c-0.169,0.252-0.26,0.549-0.259,0.854v13.826 M23.958,142.982l4.766-91.316l14.757,7.095
				l-1.507,84.224H23.958V142.982z M23.958,142.982h-3.72L20.94,73.42l6.551,1.868L23.958,142.982z M24.125,138.875h17.91
				 M24.368,134.754h17.719 M24.551,130.629h17.63 M24.764,126.51H42.28 M24.977,122.389h17.365 M25.247,118.27h17.147
				 M25.652,114.148h16.835 M25.913,110.023H42.54 M26.068,105.902h16.549 M26.214,101.782h16.497 M26.322,97.663h16.477
				 M26.692,93.542h16.164 M26.827,89.418h16.108 M26.967,85.298h16.03 M27.326,81.177h15.749 M27.487,77.057h15.661 M27.601,72.937
				H43.22 M27.908,68.806h15.411 M28.25,64.687h15.12 M28.375,60.567h15.069 M28.547,56.446h9.997 M300.779,92.02l-6.281,1.617
				l-3.144-0.089V143h9.425V92.02L300.779,92.02z M300.779,92.02c-7.139,8.578-9.425,29.65-9.425,29.65 M299.767,93.537h1.039
				 M298.26,95.924h2.546 M297.215,98.318h3.591 M296.13,100.705h4.676 M295.506,103.094h5.3 M294.716,105.486h6.063
				 M293.921,107.875h6.858 M293.454,110.268h7.326 M292.913,112.654h7.866 M292.466,115.047h8.313 M291.947,117.438h8.832
				 M291.354,119.83h9.425 M291.354,122.217h9.425 M291.354,124.609h9.425 M291.354,126.999h9.425 M291.354,129.391h9.425
				 M291.354,131.777h9.425 M291.354,134.172h9.425 M291.354,136.559h9.425 M291.354,138.952h9.425 M291.354,141.34h9.425
				 M51.7,91.546l-2.665-3.526v54.965l6.567,0.011V86.863L51.7,91.546z M51.7,91.546v51.448 M55.603,86.874l-1.907-3.715
				 M53.695,83.159l-4.676,4.858 M53.695,83.159v-7.627 M14.481,142.994H326.24 M242.668,112.162c-1.145,0-2.264,0.339-3.216,0.975
				c-0.951,0.639-1.693,1.545-2.132,2.603c-0.438,1.06-0.552,2.225-0.329,3.348c0.224,1.124,0.774,2.157,1.584,2.968
				c0.809,0.813,1.841,1.363,2.963,1.588c1.124,0.224,2.287,0.108,3.345-0.33c1.058-0.439,1.961-1.183,2.597-2.136
				c0.636-0.952,0.976-2.073,0.976-3.219c0-0.763-0.15-1.517-0.441-2.22c-0.291-0.701-0.718-1.342-1.254-1.879
				c-0.538-0.539-1.176-0.967-1.878-1.256C244.181,112.311,243.428,112.162,242.668,112.162z M242.449,91.516l-0.608,10.875h1.222
				L242.449,91.516z M274.644,95.499c-1.069,0-2.114,0.317-3.002,0.911c-0.888,0.595-1.581,1.439-1.99,2.429
				c-0.41,0.988-0.517,2.075-0.308,3.126c0.208,1.049,0.723,2.014,1.48,2.77c0.755,0.758,1.718,1.272,2.766,1.48
				c1.048,0.209,2.134,0.104,3.123-0.307c0.986-0.41,1.831-1.104,2.424-1.993c0.594-0.89,0.911-1.937,0.911-3.007
				c0.034-0.713-0.073-1.428-0.316-2.1c-0.242-0.67-0.616-1.287-1.098-1.814c-0.481-0.526-1.063-0.953-1.711-1.254
				c-0.647-0.301-1.348-0.469-2.061-0.496L274.644,95.499z M274.224,94h1.298l-0.649-11.578L274.224,94z M283.664,119.049h-17.593
				v0.988h17.583L283.664,119.049z M267.416,120.037c0.123,1.896,0.962,3.675,2.347,4.975c1.385,1.301,3.211,2.023,5.11,2.023
				c1.898,0,3.726-0.725,5.109-2.023c1.385-1.3,2.224-3.078,2.348-4.975H267.416z M282.33,119.049
				c-0.124-1.896-0.963-3.675-2.348-4.975c-1.384-1.299-3.211-2.023-5.109-2.023c-1.899,0-3.726,0.725-5.11,2.023
				c-1.385,1.3-2.224,3.078-2.347,4.975H282.33z M271.719,96.585l0.555,0.558l0.551-0.558l-0.551-0.55L271.719,96.585z
				 M272.757,101.466l0.551,0.552l0.551-0.552l-0.551-0.552L272.757,101.466z M272.757,98.215l0.551,0.551l0.551-0.551l-0.551-0.552
				L272.757,98.215z M274.893,103.088l-0.55-0.55l-0.551,0.55l0.551,0.559L274.893,103.088z M273.854,104.718l-0.546-0.536
				l-0.551,0.521l0.551,0.551L273.854,104.718z M272.815,103.088l-0.551-0.55l-0.556,0.55l0.556,0.559L272.815,103.088z
				 M273.781,99.838l0.551,0.557l0.551-0.557l-0.551-0.552L273.781,99.838z M270.742,99.838l-0.551-0.552l-0.551,0.552l0.551,0.557
				L270.742,99.838z M274.816,98.215l0.556,0.551l0.55-0.551l-0.55-0.552L274.816,98.215z M271.776,101.466l-0.551-0.552
				l-0.551,0.552l0.551,0.552L271.776,101.466z M275.855,96.585l0.55,0.558l0.551-0.558l-0.551-0.55L275.855,96.585z M277.99,98.215
				l-0.551-0.552l-0.551,0.552l0.551,0.551L277.99,98.215z M275.855,99.838l0.55,0.557l0.551-0.557l-0.551-0.552L275.855,99.838z
				 M272.264,100.395l0.551-0.557l-0.551-0.552l-0.556,0.552L272.264,100.395z M271.225,98.766l0.551-0.551l-0.551-0.552
				l-0.551,0.552L271.225,98.766z M273.781,96.585l0.551,0.558l0.551-0.558l-0.551-0.55L273.781,96.585z M270.742,103.088
				l-0.551-0.55l-0.286,0.286c0.113,0.244,0.244,0.482,0.389,0.711L270.742,103.088z M275.938,104.718l-0.557-0.536l-0.556,0.521
				l0.556,0.551L275.938,104.718z M278.489,102.538l-0.551,0.55l0.551,0.559l0.557-0.559L278.489,102.538z M271.589,104.926
				l0.202-0.208l-0.556-0.536l-0.25,0.25c0.188,0.178,0.388,0.344,0.598,0.494H271.589z M278.141,96.379l-0.208,0.206l0.551,0.558
				l0.249-0.25C278.548,96.708,278.35,96.533,278.141,96.379z M276.967,103.088l-0.552-0.55l-0.55,0.55l0.55,0.559L276.967,103.088z
				 M278.006,104.718l-0.556-0.536l-0.551,0.521l0.551,0.551L278.006,104.718z M275.928,101.466l-0.551-0.552l-0.555,0.552
				l0.555,0.552L275.928,101.466z M277.444,100.914l-0.55,0.552l0.55,0.552l0.551-0.552L277.444,100.914z M279.035,99.838
				l-0.557-0.552l-0.55,0.552l0.55,0.557L279.035,99.838z M278.967,98.215l0.552,0.551l0.28-0.281
				c-0.11-0.248-0.238-0.486-0.385-0.717L278.967,98.215z M280.069,101.466l-0.551-0.552l-0.552,0.552l0.552,0.552L280.069,101.466z
				 M159.746,120.719v10.623h3.424c-0.233-0.91-0.189-1.869,0.125-2.756c0.313-0.885,0.883-1.656,1.636-2.219
				c2.827-2.299,4.994-1.648,5.425-3.434c0.431,1.784,2.598,1.135,5.425,3.434c0.753,0.563,1.323,1.334,1.636,2.219
				c0.314,0.887,0.358,1.846,0.125,2.756h3.424v-10.623H159.746z M170.355,87.238c-0.16,0-0.317,0.046-0.451,0.136
				c-0.133,0.09-0.237,0.215-0.299,0.364c-0.061,0.146-0.077,0.312-0.045,0.469c0.032,0.156,0.108,0.303,0.222,0.417
				c0.113,0.112,0.257,0.188,0.415,0.222c0.157,0.031,0.32,0.014,0.468-0.046c0.148-0.063,0.275-0.166,0.364-0.3
				c0.089-0.135,0.137-0.29,0.137-0.45c0-0.214-0.084-0.42-0.236-0.573c-0.151-0.15-0.355-0.236-0.57-0.237L170.355,87.238
				L170.355,87.238z M171.536,81.566c-0.253-0.039-0.511-0.012-0.75,0.08c-0.239,0.092-0.449,0.242-0.612,0.441
				c-0.132,0.167-0.218,0.367-0.247,0.579c-0.029,0.213-0.001,0.429,0.082,0.627c0.084,0.197,0.22,0.371,0.392,0.498
				c0.172,0.128,0.375,0.21,0.589,0.233c0.236,0.037,0.478-0.002,0.691-0.107c0.255-0.111,0.474-0.293,0.634-0.521c0,0,0,0,0.031,0
				c-0.109,0.277-0.296,0.516-0.539,0.685c-0.243,0.17-0.531,0.265-0.828,0.269c-0.224,0.006-0.446-0.039-0.65-0.132
				c-0.204-0.092-0.385-0.229-0.53-0.399c-0.145-0.172-0.248-0.373-0.304-0.59c-0.057-0.218-0.063-0.443-0.021-0.664
				c0.043-0.22,0.135-0.428,0.269-0.607c0.134-0.18,0.306-0.326,0.504-0.43c0.198-0.105,0.417-0.164,0.641-0.172
				c0.224-0.008,0.447,0.033,0.651,0.123v0.03L171.536,81.566z M152.746,122.7c0,0,0.068-1.618-0.774-2.347
				c-0.731-0.637-1.538-1.183-2.4-1.621c-0.847,0.465-1.649,1.009-2.396,1.621c-0.841,0.688-0.779,2.347-0.779,2.347v4.463h6.35
				L152.746,122.7L152.746,122.7z M152.746,135.764c0,0,0.068-1.617-0.774-2.353c-0.73-0.636-1.536-1.181-2.4-1.617
				c-0.848,0.463-1.65,1.005-2.396,1.617c-0.841,0.692-0.779,2.353-0.779,2.353v1.312h6.35L152.746,135.764L152.746,135.764z
				 M154.856,114.064c0.019-0.377-0.105-0.75-0.349-1.041c-0.323-0.282-0.682-0.526-1.065-0.723
				c-0.377,0.207-0.733,0.449-1.065,0.723c-0.241,0.291-0.364,0.664-0.343,1.041H154.856z M150.985,114.064
				c0.02-0.377-0.104-0.75-0.348-1.041c-0.324-0.282-0.681-0.526-1.065-0.723c-0.377,0.207-0.734,0.449-1.065,0.723
				c-0.243,0.291-0.365,0.664-0.343,1.041H150.985z M147.113,114.064c0.02-0.377-0.104-0.75-0.348-1.041
				c-0.323-0.282-0.681-0.526-1.066-0.723c-0.368,0.207-0.715,0.449-1.039,0.723c-0.243,0.291-0.367,0.664-0.348,1.041H147.113z
				 M149.572,114.064h-6.49v2.436h12.99v-2.436H149.572z M149.572,110.84h-5.654v3.225h11.307v-3.225H149.572z M157.329,107.018
				l0.734-0.734l-1.367-1.368l-1.356,1.349l0.732,0.732L157.329,107.018z M139.517,122.7c0,0,0.068-1.618-0.779-2.347
				c-0.734-0.633-1.544-1.172-2.412-1.605c-0.847,0.464-1.648,1.009-2.395,1.621c-0.842,0.688-0.78,2.347-0.78,2.347v4.464h6.35
				L139.517,122.7z M139.517,135.764c0,0,0.068-1.617-0.779-2.353c-0.729-0.638-1.533-1.181-2.396-1.617
				c-0.848,0.463-1.649,1.005-2.396,1.617c-0.842,0.692-0.779,2.353-0.779,2.353v1.312h6.349L139.517,135.764L139.517,135.764z
				 M135.288,114.064h-4.417v2.436h10.942v-2.436H135.288z M133.168,110.84v3.225h6.328v-3.225H133.168z M134.057,104.361v6.479
				h4.551v-6.488L134.057,104.361z M130.861,116.5v20.584h10.943v-20.595L130.861,116.5z M138.063,102.668
				c-0.905-0.785-1.595-0.568-1.73-1.176c-0.14,0.607-0.831,0.391-1.735,1.176c-0.242,0.201-0.424,0.467-0.523,0.768
				c-0.099,0.299-0.113,0.621-0.039,0.928h4.588c0.079-0.309,0.068-0.631-0.029-0.932c-0.098-0.302-0.279-0.572-0.521-0.773
				L138.063,102.668z M129.634,137.059h1.237v-30.063h-1.237V137.059z M130.887,106.995l0.732-0.731l-1.366-1.369l-1.367,1.369
				l0.732,0.731H130.887z M122.183,101.497h-6.64l-1.039,35.577h8.729L122.183,101.497z M120.864,116.489v-2.253h-1.559v2.253
				H120.864z M118.396,116.489v-2.253h-1.559v2.253H118.396z M122.552,114.236h-0.774v2.253h0.847L122.552,114.236z M115.07,116.489
				h0.847v-2.253h-0.78L115.07,116.489z M120.858,130.453v-2.248H119.3v2.248H120.858z M118.391,130.453v-2.248h-1.56v2.248H118.391
				z M122.963,128.205h-1.185v2.248h1.257L122.963,128.205z M114.65,130.453h1.257v-2.248h-1.19L114.65,130.453z M123.15,97.938
				h-8.6v3.563h8.6V97.938z M122.147,94.381h-6.604v3.559h6.594L122.147,94.381z M118.089,99.816
				c0.009-0.125-0.007-0.254-0.049-0.371c-0.041-0.119-0.107-0.229-0.192-0.32c-0.086-0.093-0.189-0.167-0.306-0.216
				c-0.114-0.052-0.239-0.077-0.365-0.077c-0.126,0-0.25,0.025-0.366,0.077c-0.115,0.049-0.219,0.123-0.305,0.216
				c-0.085,0.093-0.151,0.201-0.193,0.32c-0.042,0.117-0.058,0.246-0.049,0.371v1.686h1.824L118.089,99.816L118.089,99.816z
				 M121.44,99.816c0.01-0.125-0.007-0.254-0.047-0.371c-0.042-0.119-0.108-0.229-0.193-0.32c-0.086-0.093-0.189-0.167-0.305-0.216
				c-0.116-0.052-0.24-0.077-0.366-0.077c-0.125,0-0.25,0.025-0.366,0.077c-0.116,0.049-0.219,0.123-0.305,0.216
				s-0.151,0.201-0.193,0.32c-0.041,0.117-0.058,0.246-0.048,0.371v1.686h1.823V99.816z M119.762,96.253
				c-0.018-0.229-0.122-0.444-0.291-0.603c-0.168-0.156-0.391-0.244-0.621-0.244s-0.453,0.088-0.622,0.244
				c-0.169,0.158-0.272,0.371-0.29,0.603v1.687h1.824V96.253z M229.522,137.059H111.199v5.93h118.323V137.059z M187.954,127.176
				h6.35v-4.46c0,0,0.067-1.659-0.779-2.347c-0.741-0.613-1.537-1.158-2.38-1.621c-0.861,0.441-1.666,0.986-2.395,1.621
				c-0.842,0.73-0.779,2.347-0.779,2.347L187.954,127.176z M187.954,137.09h6.35v-1.313c0,0,0.067-1.662-0.779-2.351
				c-0.746-0.614-1.548-1.159-2.396-1.624c-0.861,0.442-1.666,0.987-2.396,1.624c-0.842,0.729-0.779,2.351-0.779,2.351V137.09z
				 M188.687,114.064c0.022-0.377-0.103-0.75-0.348-1.041c-0.33-0.273-0.688-0.518-1.065-0.723
				c-0.384,0.195-0.743,0.439-1.065,0.723c-0.242,0.291-0.366,0.664-0.348,1.041H188.687z M192.558,114.064
				c0.022-0.377-0.103-0.75-0.348-1.041c-0.33-0.273-0.688-0.518-1.065-0.723c-0.383,0.195-0.741,0.439-1.064,0.723
				c-0.242,0.291-0.366,0.664-0.349,1.041H192.558z M196.429,114.064c0.021-0.377-0.104-0.75-0.348-1.041
				c-0.332-0.273-0.688-0.518-1.065-0.723c-0.383,0.195-0.742,0.439-1.065,0.723c-0.241,0.291-0.366,0.664-0.348,1.041H196.429z
				 M184.649,114.064v2.436h12.99v-2.436H184.649z M185.513,110.84v3.225h11.306v-3.225h-11.327H185.513z M185.975,110.834h10.392
				c0.167-0.693,0.137-1.422-0.088-2.102c-0.225-0.678-0.636-1.28-1.185-1.737c-2.042-1.772-3.606-1.274-3.918-2.652
				c-0.312,1.378-1.875,0.88-3.918,2.652c-0.555,0.454-0.972,1.054-1.202,1.733c-0.231,0.676-0.267,1.407-0.102,2.104
				L185.975,110.834L185.975,110.834z M201.204,127.163h6.35v-4.456c0,0,0.067-1.661-0.774-2.348
				c-0.744-0.609-1.542-1.149-2.385-1.611c-0.862,0.441-1.667,0.986-2.396,1.621c-0.842,0.73-0.779,2.347-0.779,2.347
				L201.204,127.163z M201.204,137.079h6.35v-1.312c0,0,0.067-1.664-0.774-2.353c-0.748-0.612-1.552-1.157-2.4-1.622
				c-0.861,0.441-1.666,0.986-2.396,1.622c-0.842,0.729-0.78,2.353-0.78,2.353V137.079L201.204,137.079z M201.214,110.84v3.225
				h6.324v-3.225H201.214z M202.098,104.361v6.479h4.551v-6.48L202.098,104.361z M217.462,137.105h8.76l-1.039-35.578h-6.651
				L217.462,137.105z M221.412,116.521v-2.252h-1.559v2.252H221.412z M223.879,116.521v-2.252h-1.559v2.252H223.879z
				 M221.422,130.482v-2.254h-1.559v2.254H221.422z M223.889,130.482v-2.254h-1.558v2.254H223.889z M226.004,128.229h-1.195v2.254
				h1.258L226.004,128.229z M217.587,101.527h8.578v-3.59h-8.595L217.587,101.527z M218.584,97.963h6.593v-3.556h-6.609
				L218.584,97.963z M222.633,101.527h1.823v-1.717c-0.017-0.23-0.121-0.444-0.29-0.602s-0.392-0.246-0.622-0.246
				s-0.452,0.089-0.622,0.246c-0.169,0.156-0.272,0.37-0.29,0.602L222.633,101.527L222.633,101.527z M219.281,101.527h1.823v-1.717
				c-0.016-0.23-0.121-0.444-0.289-0.602c-0.17-0.157-0.392-0.246-0.622-0.246c-0.231,0-0.453,0.089-0.623,0.246
				c-0.168,0.156-0.272,0.37-0.29,0.602v1.717H219.281z M220.953,97.963h1.825v-1.686c0.009-0.125-0.007-0.252-0.048-0.369
				c-0.042-0.119-0.108-0.229-0.193-0.321c-0.085-0.091-0.189-0.165-0.305-0.216c-0.116-0.051-0.241-0.077-0.366-0.077
				s-0.25,0.026-0.366,0.077c-0.115,0.051-0.219,0.125-0.305,0.216c-0.086,0.093-0.151,0.202-0.193,0.321
				c-0.041,0.117-0.058,0.244-0.049,0.369V97.963L220.953,97.963z M314.196,106.18c-0.983-0.021-1.961,0.148-2.878,0.508
				c-0.917,0.355-1.753,0.891-2.463,1.572c0.284,0.75,0.725,1.432,1.294,1.996c0.569,0.563,1.252,0.999,2.006,1.275h4.083
				c0.752-0.276,1.436-0.713,2.005-1.275c0.569-0.564,1.011-1.246,1.294-1.996c-0.71-0.682-1.548-1.215-2.467-1.57
				c-0.917-0.355-1.896-0.527-2.88-0.504L314.196,106.18z M317.771,99.249v-2.757c0,0-1.216-0.9-3.575-0.9
				c-2.358,0-3.58,0.9-3.58,0.9v2.757h-0.52v2.283c0.001,0.247,0.056,0.491,0.162,0.716c0.106,0.223,0.26,0.42,0.451,0.576
				l1.777,1.455h3.471l1.771-1.455c0.192-0.156,0.346-0.354,0.453-0.576c0.106-0.225,0.161-0.469,0.161-0.716v-2.283H317.771
				L317.771,99.249z M68.55,119.855c1.331,1.522,8.517,7.688,10.538,9.416c0.165,0.144,0.297,0.319,0.387,0.521
				c0.09,0.198,0.135,0.415,0.133,0.633v12.56h7.638v-12.56c-0.001-0.218,0.044-0.435,0.134-0.633c0.09-0.2,0.222-0.377,0.386-0.521
				c2.022-1.729,9.208-7.894,10.538-9.416c1.559-1.77-2.162-6.541-14.892-6.541s-16.45,4.771-14.902,6.541H68.55L68.55,119.855z
				 M24.915,70.861l-3.949,2.559l3.949,1.125V70.861z"/>
			<path fill="none" stroke="#FBC311" stroke-linecap="round" stroke-linejoin="round" d="M221.873,55.951h44.66 M155.339,18.768
				h32.012 M134.68,71.975h-17.261 M211.695,39.076h-28.739 M48.79,42.719h18.285 M318.955,41.005c0-0.062,0-0.123,0-0.191
				c0-1.18-0.467-2.312-1.3-3.146s-1.963-1.302-3.142-1.302c-0.396,0-0.789,0.055-1.169,0.161c-0.047-0.8-0.279-1.576-0.68-2.271
				c-0.399-0.693-0.956-1.284-1.624-1.726c-0.667-0.44-1.43-0.719-2.224-0.813c-0.795-0.093-1.6-0.001-2.352,0.272
				c-1.126-1.076-2.536-1.809-4.064-2.105c-1.528-0.298-3.108-0.15-4.556,0.425c-1.446,0.576-2.697,1.554-3.604,2.819
				c-0.907,1.267-1.433,2.767-1.515,4.323c-0.196-0.039-0.396-0.061-0.597-0.063c-0.907,0-1.778,0.362-2.419,1.004
				c-0.642,0.641-1.004,1.512-1.005,2.42c0,0.068,0,0.13,0,0.191h30.251V41.005z M203.735,68.75
				c0.544-0.835,0.852-1.799,0.894-2.795c0.042-0.994-0.187-1.982-0.66-2.857c-0.474-0.877-1.174-1.607-2.028-2.116
				c-0.855-0.511-1.831-0.779-2.825-0.779c-0.233,0.003-0.466,0.019-0.696,0.047c-0.125-1.751-0.761-3.427-1.828-4.82
				c-1.067-1.393-2.519-2.441-4.176-3.015c-1.656-0.574-3.446-0.649-5.144-0.216c-1.699,0.434-3.234,1.358-4.414,2.656
				c-0.888-1.229-2.143-2.147-3.585-2.618c-1.441-0.472-2.996-0.474-4.438-0.008c-1.443,0.467-2.701,1.381-3.594,2.609
				c-0.891,1.228-1.372,2.707-1.372,4.225c-0.001,0.206,0.01,0.409,0.03,0.613h-0.03c-1.124-0.001-2.211,0.396-3.067,1.126
				c-0.857,0.727-1.427,1.736-1.61,2.844c-0.856,0.19-1.622,0.666-2.172,1.35c-0.549,0.685-0.85,1.534-0.852,2.411
				c0.003,0.459,0.085,0.912,0.245,1.344L203.735,68.75L203.735,68.75z M241.229,18.768c0.376-0.57,0.576-1.238,0.576-1.921
				c0-0.932-0.37-1.827-1.028-2.485c-0.659-0.66-1.552-1.03-2.484-1.03c-0.149,0-0.299,0.01-0.446,0.031
				c-0.087-1.111-0.494-2.173-1.174-3.055c-0.68-0.882-1.603-1.547-2.655-1.911c-1.051-0.363-2.186-0.414-3.266-0.142
				s-2.056,0.854-2.81,1.675c-0.565-0.789-1.365-1.377-2.286-1.679c-0.921-0.302-1.914-0.303-2.835-0.005
				c-0.922,0.301-1.724,0.887-2.291,1.674c-0.568,0.786-0.87,1.733-0.863,2.703c0,0.136,0,0.265,0,0.396
				c-0.713,0-1.403,0.255-1.947,0.716c-0.543,0.464-0.905,1.103-1.02,1.807c-0.342,0.076-0.664,0.224-0.943,0.435
				c-0.279,0.211-0.512,0.479-0.68,0.786c-0.167,0.308-0.268,0.647-0.293,0.997c-0.026,0.35,0.023,0.7,0.145,1.029L241.229,18.768z
				 M48.634,16.461c0.102-0.272,0.155-0.563,0.156-0.856c-0.001-0.559-0.192-1.099-0.543-1.534
				c-0.351-0.434-0.839-0.735-1.384-0.854c-0.113-0.707-0.475-1.348-1.018-1.812c-0.543-0.464-1.235-0.717-1.949-0.717
				c0-0.131,0-0.261,0-0.39c-0.001-0.968-0.308-1.911-0.877-2.692c-0.568-0.78-1.37-1.364-2.288-1.661
				c-0.92-0.297-1.909-0.295-2.828,0.004c-0.918,0.302-1.718,0.887-2.283,1.67c-0.755-0.82-1.732-1.403-2.813-1.674
				s-2.216-0.221-3.268,0.145c-1.053,0.366-1.975,1.031-2.654,1.915c-0.679,0.883-1.085,1.946-1.17,3.058
				c-0.146-0.021-0.294-0.031-0.442-0.031c-0.633,0-1.254,0.171-1.798,0.496c-0.545,0.324-0.99,0.79-1.292,1.347
				c-0.302,0.558-0.447,1.187-0.42,1.82c0.026,0.633,0.223,1.249,0.569,1.778L48.634,16.461z"/>
		</g>
	</g>
</g>
<g>
	<g>
		<defs>
			<rect id="SVGID_3_" x="324.292" y="1" width="319.208" height="142.57"/>
		</defs>
		<clipPath id="SVGID_4_">
			<use xlink:href="#SVGID_3_"  overflow="visible"/>
		</clipPath>
		<g opacity="0.5" clip-path="url(#SVGID_4_)">
			<path fill="none" stroke="#FBC311" stroke-linecap="round" stroke-linejoin="round" d="M556.607,111.852l1.2-21.431l1.206,21.488
				 M555.959,123.337l-1.121,19.962h5.938l-1.121-19.967 M562.057,115.818c0.142,0,0.275-0.058,0.375-0.156
				c0.101-0.1,0.156-0.235,0.156-0.375 M560.357,119.051c0.141,0,0.275-0.057,0.375-0.154c0.1-0.101,0.155-0.235,0.155-0.377
				 M561.191,117.456c0.141,0,0.275-0.058,0.375-0.157c0.1-0.099,0.155-0.234,0.155-0.374 M559.475,117.456
				c0.142,0,0.276-0.058,0.376-0.157c0.1-0.099,0.155-0.234,0.155-0.374 M557.76,117.456c0.142,0,0.276-0.058,0.376-0.157
				c0.101-0.099,0.155-0.234,0.155-0.374 M558.594,119.094c0.142,0,0.276-0.057,0.375-0.154c0.101-0.102,0.156-0.235,0.156-0.377
				 M561.127,120.73c0.14,0,0.275-0.056,0.375-0.155c0.1-0.101,0.155-0.234,0.155-0.376 M560.261,115.871
				c0.142,0,0.276-0.057,0.375-0.155c0.101-0.1,0.156-0.235,0.156-0.376 M561.095,114.275c0.142,0,0.276-0.057,0.375-0.155
				c0.101-0.101,0.156-0.235,0.156-0.376 M561.929,119.168c0.142,0,0.276-0.057,0.376-0.156c0.101-0.1,0.155-0.234,0.155-0.375
				 M562.763,117.572c0.142,0,0.276-0.057,0.376-0.155c0.1-0.101,0.155-0.233,0.155-0.376 M553.559,119.051
				c0.142,0,0.276-0.057,0.375-0.154c0.101-0.101,0.156-0.235,0.156-0.377 M552.029,119.051c0.108-0.037,0.204-0.107,0.27-0.205
				c0.065-0.096,0.099-0.211,0.091-0.326 M552.693,117.456c0.141,0,0.275-0.058,0.375-0.157c0.1-0.099,0.155-0.234,0.155-0.374
				 M553.527,115.859c0.141,0,0.274-0.055,0.375-0.155c0.1-0.099,0.155-0.233,0.155-0.376 M557.775,114.266
				c0.141,0,0.275-0.057,0.376-0.156c0.1-0.099,0.155-0.234,0.155-0.375 M556.958,119.051c0.141,0,0.276-0.057,0.376-0.154
				c0.1-0.101,0.156-0.235,0.156-0.377 M556.092,117.456c0.142,0,0.276-0.058,0.375-0.157c0.101-0.099,0.156-0.234,0.156-0.374
				 M555.258,119.051c0.142,0,0.276-0.057,0.375-0.154c0.101-0.101,0.156-0.235,0.156-0.377 M554.392,120.688
				c0.142,0,0.276-0.056,0.376-0.154c0.101-0.1,0.155-0.234,0.155-0.376 M559.475,114.201c0.142,0,0.276-0.055,0.376-0.155
				s0.155-0.235,0.155-0.377 M554.409,117.456c0.141,0,0.275-0.058,0.375-0.157c0.1-0.099,0.155-0.234,0.155-0.374 M558.658,112.59
				c0.141,0,0.275-0.057,0.375-0.154c0.1-0.102,0.156-0.234,0.156-0.377c0.002-0.021,0.002-0.043,0-0.063 M560.357,112.602
				c0.089-0.002,0.178-0.024,0.255-0.069 M558.658,122.354c0.141,0,0.275-0.057,0.375-0.155c0.099-0.099,0.156-0.234,0.156-0.376
				 M560.341,122.354c0.143,0,0.276-0.057,0.376-0.155c0.101-0.099,0.156-0.234,0.156-0.376 M559.475,120.758
				c0.142,0,0.276-0.056,0.376-0.156c0.1-0.1,0.155-0.233,0.155-0.375 M556.91,112.645c0.141,0,0.275-0.058,0.375-0.156
				c0.1-0.1,0.156-0.235,0.156-0.377 M558.594,115.908c0.142,0,0.276-0.057,0.375-0.156c0.101-0.1,0.156-0.234,0.156-0.375
				 M554.923,112.602c0.072,0.039,0.152,0.063,0.233,0.066c0.082,0.004,0.164-0.012,0.238-0.044
				c0.075-0.034,0.142-0.083,0.194-0.146c0.053-0.063,0.09-0.139,0.109-0.219 M555.167,115.924c0.142,0,0.277-0.056,0.376-0.154
				c0.099-0.1,0.155-0.235,0.155-0.377 M554.302,114.328c0.142,0,0.276-0.055,0.375-0.154c0.101-0.1,0.156-0.234,0.156-0.377
				 M555.985,114.328c0.142,0,0.275-0.055,0.376-0.154c0.1-0.099,0.155-0.234,0.155-0.377 M557.67,120.85
				c0.141,0,0.275-0.058,0.375-0.156c0.099-0.1,0.155-0.235,0.155-0.375 M556.804,115.988c0.142,0,0.276-0.057,0.375-0.156
				c0.101-0.1,0.156-0.234,0.156-0.375 M556.804,122.502c0.142,0,0.276-0.057,0.375-0.156c0.101-0.099,0.156-0.234,0.156-0.375
				 M555.938,120.906c0.142,0,0.276-0.057,0.375-0.155c0.101-0.099,0.155-0.235,0.155-0.376 M553.739,122.4
				c0.057-0.049,0.102-0.11,0.133-0.18c0.031-0.068,0.048-0.144,0.048-0.22 M555.072,122.535c0.141,0,0.275-0.057,0.375-0.156
				c0.1-0.102,0.156-0.234,0.156-0.377 M552.501,120.938c0.141,0,0.276-0.056,0.376-0.154c0.099-0.1,0.156-0.234,0.156-0.376
				 M572.536,98.689l-2.519,44.871h5.035L572.536,98.689z M572.536,98.689l-0.531,9.434h1.063L572.536,98.689z M594.317,122.576
				c0.141,0,0.275-0.057,0.376-0.155c0.099-0.101,0.154-0.235,0.154-0.376 M590.908,122.576c0.141,0,0.274-0.057,0.375-0.155
				c0.1-0.099,0.155-0.235,0.155-0.376 M592.597,122.576c0.142,0,0.276-0.057,0.375-0.155c0.102-0.101,0.156-0.235,0.156-0.376
				 M587.487,122.576c0.141,0,0.274-0.057,0.375-0.155c0.101-0.101,0.155-0.235,0.155-0.376 M591.736,114.461
				c0.141,0,0.275-0.055,0.375-0.154s0.155-0.234,0.155-0.377 M594.275,116.105c0.141,0,0.275-0.058,0.375-0.155
				c0.1-0.101,0.154-0.235,0.154-0.377 M593.415,114.511c0.141,0,0.276-0.058,0.375-0.157c0.1-0.099,0.155-0.233,0.155-0.375
				 M595.104,117.775c0.142,0,0.276-0.058,0.377-0.156c0.099-0.1,0.154-0.234,0.154-0.376 M592.543,116.18
				c0.141,0,0.276-0.057,0.375-0.156c0.1-0.1,0.156-0.233,0.156-0.375 M596.793,117.816c0.141,0,0.276-0.057,0.375-0.154
				c0.1-0.102,0.156-0.236,0.156-0.377 M595.932,116.223c0.143,0,0.276-0.057,0.375-0.156c0.101-0.1,0.156-0.234,0.156-0.377
				 M589.123,122.736c0.141,0,0.276-0.057,0.376-0.156s0.155-0.234,0.155-0.376 M584.014,122.736c0.142,0,0.276-0.057,0.375-0.156
				c0.1-0.1,0.155-0.234,0.155-0.376 M584.014,116.249c0.142,0,0.276-0.058,0.375-0.155c0.1-0.101,0.155-0.236,0.155-0.377
				 M593.69,117.456c0.141,0,0.275-0.058,0.376-0.157c0.1-0.099,0.154-0.234,0.154-0.374 M586.882,117.456
				c0.142,0,0.275-0.058,0.375-0.157c0.1-0.099,0.156-0.234,0.156-0.374 M588.571,117.456c0.141,0,0.275-0.058,0.375-0.157
				c0.1-0.099,0.155-0.234,0.155-0.374 M590.26,117.456c0.142,0,0.275-0.058,0.375-0.157c0.101-0.099,0.155-0.234,0.155-0.374
				 M591.949,117.456c0.141,0,0.275-0.058,0.375-0.157c0.1-0.099,0.156-0.234,0.156-0.374 M585.14,114.217
				c0.142,0,0.276-0.056,0.376-0.154c0.1-0.101,0.155-0.235,0.155-0.377 M595.321,114.217c0.129,0.002,0.254-0.044,0.352-0.128
				s0.161-0.2,0.18-0.329 M596.177,122.342c0.142,0,0.276-0.055,0.375-0.154c0.101-0.101,0.156-0.234,0.156-0.377 M592.767,112.602
				c0.122,0.004,0.24-0.035,0.337-0.108c0.098-0.073,0.165-0.179,0.194-0.295 M595.332,123.98c0.141,0,0.276-0.057,0.376-0.156
				s0.155-0.235,0.155-0.375 M593.621,123.98c0.142,0,0.275-0.057,0.376-0.156c0.099-0.1,0.155-0.235,0.155-0.375 M592.761,125.618
				c0.142,0,0.276-0.056,0.376-0.155c0.1-0.102,0.155-0.236,0.155-0.377 M591.051,115.883c0.142,0,0.276-0.057,0.375-0.156
				c0.101-0.1,0.156-0.234,0.156-0.377 M594.44,125.65c0.141,0,0.274-0.058,0.375-0.156c0.1-0.1,0.154-0.234,0.154-0.376
				 M591.03,112.66c0.141,0,0.275-0.057,0.375-0.156c0.1-0.102,0.155-0.234,0.155-0.377 M589.319,112.66
				c0.141,0,0.275-0.057,0.376-0.156c0.099-0.102,0.155-0.234,0.155-0.377 M587.274,112.548c0.073,0.062,0.163,0.101,0.259,0.114
				c0.095,0.015,0.191,0.004,0.281-0.033c0.089-0.037,0.166-0.098,0.224-0.174c0.057-0.077,0.092-0.168,0.102-0.266
				 M586.101,125.635c0.108-0.039,0.201-0.111,0.265-0.208c0.063-0.097,0.093-0.21,0.087-0.325 M591.858,124.039
				c0.141,0,0.275-0.057,0.375-0.156s0.155-0.234,0.155-0.376 M586.749,114.298c0.141,0,0.276-0.057,0.375-0.157
				c0.101-0.099,0.156-0.233,0.156-0.375 M585.192,117.456c0.141,0,0.275-0.058,0.376-0.157c0.1-0.099,0.154-0.234,0.154-0.374
				 M583.483,117.456c0.14,0,0.274-0.058,0.375-0.157c0.1-0.099,0.154-0.234,0.154-0.374 M591.115,125.598
				c0.141,0,0.275-0.057,0.375-0.156s0.156-0.233,0.156-0.375 M590.254,114.232c0.141,0,0.276-0.057,0.375-0.155
				c0.1-0.099,0.156-0.234,0.156-0.376 M589.394,115.876c0.143,0,0.276-0.056,0.376-0.155s0.156-0.234,0.156-0.375 M587.684,115.876
				c0.142,0,0.276-0.056,0.376-0.155s0.155-0.234,0.155-0.375 M588.523,114.281c0.14,0,0.275-0.057,0.375-0.156
				c0.099-0.1,0.154-0.234,0.154-0.376 M585.963,115.924c0.141,0,0.276-0.056,0.375-0.154c0.1-0.1,0.155-0.235,0.155-0.377
				 M587.732,125.57c0.141,0,0.275-0.057,0.375-0.156c0.099-0.1,0.155-0.234,0.155-0.375 M588.571,123.975
				c0.141,0,0.275-0.056,0.375-0.154c0.1-0.102,0.155-0.234,0.155-0.377 M590.26,123.975c0.142,0,0.275-0.056,0.375-0.154
				c0.101-0.102,0.155-0.234,0.155-0.377 M589.399,125.613c0.141,0,0.275-0.057,0.375-0.156s0.155-0.234,0.155-0.375
				 M586.839,124.018c0.143,0,0.276-0.056,0.376-0.156c0.1-0.1,0.155-0.233,0.155-0.375 M585.129,124.018
				c0.141,0,0.276-0.056,0.376-0.156c0.099-0.1,0.155-0.233,0.155-0.375 M585.963,122.422c0.141,0,0.276-0.055,0.375-0.154
				c0.1-0.101,0.155-0.234,0.155-0.377 M591.449,94.543l-0.738-13.156l-0.738,13.156 M592.421,111.884l-0.366-6.504
				 M588.172,126.587l-0.938,16.712h6.952l-0.935-16.712 M589.362,105.38l-0.361,6.504 M583.233,117.902h14.982 M583.233,120.764
				h14.982 M496.011,103.822h-24.234c-0.393-1.623-0.321-3.324,0.204-4.908c0.524-1.586,1.482-2.991,2.765-4.059
				c4.78-4.143,8.424-2.973,9.152-6.185c0.727,3.19,4.381,2.042,9.15,6.185c1.282,1.066,2.241,2.473,2.767,4.059
				c0.524,1.584,0.595,3.285,0.203,4.908H496.011z M496.011,103.822v1.109H471.77v-1.109H496.011z M472.498,106.953v-2.021h22.818
				v2.021 M472.498,106.953h22.818 M472.498,106.953v4.568h22.818v-4.568 M470.569,116.212v-4.69h26.642v4.69 M470.569,116.212
				h26.642 M470.569,116.212v21.041h26.642v-21.041 M483.891,88.672v-0.707 M483.891,86.294v-0.687 M483.891,84.428v-1.186
				 M483.891,84.428c-0.114,0-0.227,0.034-0.321,0.098c-0.096,0.064-0.169,0.156-0.213,0.262s-0.056,0.222-0.033,0.335
				c0.021,0.112,0.077,0.216,0.158,0.297c0.08,0.081,0.184,0.136,0.297,0.158c0.111,0.021,0.228,0.011,0.334-0.033
				c0.105-0.044,0.196-0.118,0.26-0.213c0.063-0.097,0.098-0.208,0.098-0.322c0-0.153-0.061-0.299-0.168-0.407
				c-0.106-0.108-0.253-0.172-0.404-0.172h-0.007V84.428z M456.011,137.253v-21.041h13.278v21.041 M456.011,137.253h13.278
				 M456.011,137.253h-1.295l0.025-30.726h1.27 M456.011,137.253v-30.726 M469.289,137.253h1.27v-30.726h-1.27V137.253z
				 M462.629,103.795c0.319,1.403,1.918,0.893,4.005,2.706c0.564,0.466,0.987,1.08,1.22,1.774c0.233,0.691,0.267,1.438,0.098,2.149
				h-10.623c-0.173-0.711-0.144-1.454,0.086-2.147c0.229-0.693,0.648-1.311,1.21-1.776
				C460.712,104.688,462.311,105.198,462.629,103.795z M462.629,103.795v-1.383 M456.011,127.123h13.278 M457.339,109.234h10.708
				 M449.106,100.87v-0.606 M443.53,127.123h11.016 M445.888,103.822h6.48 M445.888,107.118h6.48 M456.011,106.527l0.749-0.75
				l-1.396-1.397l-1.413,1.378l0.749,0.749L456.011,106.527z M427.033,128.188h8.419 M426.953,130.484h8.556 M427.384,116.212h7.723
				 M431.234,88.874c0.223,1.005,1.364,0.638,2.847,1.931l0.011-0.006c0.4,0.332,0.698,0.771,0.861,1.266
				c0.163,0.496,0.182,1.025,0.058,1.531h-7.553c-0.122-0.505-0.102-1.035,0.062-1.527c0.164-0.493,0.463-0.933,0.862-1.264
				C429.869,89.512,431.006,89.879,431.234,88.874z M431.234,88.874v-1.983 M427.442,113.914h7.589 M426.863,102.344h8.791
				 M498.502,137.258v-21.042h13.278v21.042H498.502z M498.502,137.258h-1.27v-30.725h1.27 M498.502,137.258v-30.725
				 M505.168,103.795v-1.377 M511.833,127.123h-13.331 M510.458,109.24h-10.729 M498.502,106.533l0.749-0.75l-1.396-1.398
				l-1.397,1.398l0.749,0.75H498.502z M513.076,116.223v-2.488h11.18v2.488H513.076z M513.076,116.223v21.041 M513.076,116.223
				l11.18-0.007v21.048h-11.18 M513.076,137.264h-1.271v-30.725h1.271 M513.076,137.264v-30.725 M518.669,100.881
				c0.138,0.622,0.844,0.398,1.769,1.201c0.248,0.206,0.435,0.479,0.535,0.784c0.103,0.308,0.115,0.636,0.039,0.948h-4.689v-0.004
				c-0.075-0.313-0.063-0.642,0.04-0.947c0.102-0.305,0.286-0.575,0.532-0.781C517.819,101.279,518.525,101.503,518.669,100.881z
				 M518.669,100.881v-0.605 M524.256,127.128h-11.015 M521.896,103.832h-6.479 M521.896,107.123h-6.479 M513.076,106.539
				l0.749-0.75l-1.397-1.398l-1.396,1.398l0.749,0.75H513.076z M525.515,106.539h-1.27v30.697h1.27V106.539z M525.515,106.539
				l0.749-0.75l-1.401-1.398l-1.371,1.367l0.749,0.749L525.515,106.539z M540.732,128.213h-8.397 M532.335,128.213h1.222v2.303
				h-1.279L532.335,128.213z M540.833,130.516h-8.567 M540.403,116.244h-7.718 M540.403,116.244h-0.866v-2.303h0.802
				L540.403,116.244z M532.686,116.244h0.871v-2.303h-0.802 M532.686,116.244l0.069-2.303 M532.754,113.941h7.6 M536.563,88.9
				c0.229,1.004,1.365,0.639,2.854,1.93c0.399,0.332,0.698,0.771,0.861,1.264c0.163,0.493,0.185,1.022,0.063,1.528h-7.553
				l-0.016-0.026c-0.116-0.503-0.09-1.027,0.076-1.517s0.466-0.921,0.863-1.249C535.198,89.539,536.334,89.904,536.563,88.9z
				 M536.563,88.9v-1.983 M532.154,102.363h8.785 M629.159,103.684l-0.09,2.186 M632.331,94.967l-1.397-32.968l-1.396,32.968
				 M632.798,105.868l-0.09-2.185 M628.852,111.128l-1.364,32.177h6.904l-1.364-32.177 M626.238,98.6h9.405 M626.238,100.057h9.405
				 M627.311,93.145h7.267 M628.379,91.075h5.125 M629.054,89.001h3.781 M629.287,81.736h3.309 M629.823,74.475h2.235
				 M630.354,67.205h1.175 M626.217,101.498h9.407 M624.411,107.83h13.022 M390.757,129.482c-1.8,1.598-4.031,3.521-4.902,4.256
				c-0.115,0.1-0.207,0.224-0.271,0.361c-0.063,0.139-0.096,0.289-0.096,0.44v8.742h-5.312v-8.732
				c-0.001-0.151-0.034-0.303-0.099-0.44c-0.064-0.139-0.157-0.262-0.273-0.361c-1.407-1.206-6.41-5.498-7.334-6.557
				c-1.062-1.232,1.503-4.551,10.362-4.551 M382.455,143.294v-10.142c0.008-0.064,0.008-0.131,0-0.196l-1.493-10.146
				 M381.749,143.294v-9.849c0-0.135-0.025-0.269-0.074-0.394l-3.792-9.87 M381.021,143.294v-9.625c0-0.212-0.063-0.42-0.181-0.595
				l-6.75-8.705 M384.516,124.221l-1.269,8.735c-0.006,0.065-0.006,0.132,0,0.196v10.142 M386.726,126.091l-2.655,6.962
				c-0.054,0.123-0.081,0.258-0.08,0.393v9.85 M388.877,127.915l-3.973,5.159c-0.12,0.175-0.185,0.383-0.186,0.595v9.625
				 M399.297,129.469c1.801,1.596,4.037,3.52,4.903,4.254c0.114,0.101,0.207,0.223,0.27,0.361c0.063,0.139,0.097,0.289,0.097,0.441
				v8.742h5.312v-8.718c0-0.151,0.033-0.302,0.096-0.438c0.063-0.141,0.155-0.264,0.271-0.363c1.413-1.206,6.416-5.498,7.34-6.557
				c1.063-1.232-1.502-4.551-10.368-4.551 M409.107,122.811l-1.493,10.146c-0.005,0.064-0.005,0.132,0,0.195v10.143
				 M412.215,123.184l-3.798,9.869c-0.049,0.125-0.074,0.258-0.074,0.393v9.85 M415.906,124.369l-6.725,8.721
				c-0.118,0.176-0.181,0.383-0.181,0.596v9.625 M406.792,143.311v-10.158c0.008-0.063,0.008-0.131,0-0.195l-1.285-8.752
				 M406.085,143.294v-9.849c0.001-0.135-0.024-0.269-0.073-0.394l-2.655-6.962 M405.379,143.294v-9.625
				c0-0.212-0.063-0.42-0.181-0.595l-3.979-5.159 M394.491,143.294v-14.89c-0.021-0.107-0.051-0.211-0.09-0.313l-2.199-14.89
				 M393.359,143.283v-14.465c0-0.197-0.038-0.396-0.111-0.578l-5.566-14.485 M392.292,143.283v-14.129
				c-0.002-0.313-0.096-0.614-0.271-0.872l-9.836-12.8 M397.778,113.202l-2.193,14.89c-0.007,0.096-0.007,0.194,0,0.291v14.891
				 M402.33,113.744l-5.593,14.506c-0.074,0.186-0.111,0.382-0.111,0.58v14.464 M407.833,115.482l-9.874,12.806
				c-0.173,0.257-0.266,0.562-0.266,0.872v14.134 M334.245,143.294l4.871-93.345l15.084,7.252l-1.541,86.093H334.245z
				 M334.245,143.294h-3.802l0.716-71.106l6.698,1.91L334.245,143.294z M334.415,139.093h18.308 M334.665,134.882h18.111
				 M334.851,130.665h18.021 M335.068,126.453h17.904 M335.286,122.242h17.75 M335.562,118.029h17.528 M335.977,113.818h17.208
				 M336.242,109.602h16.996 M336.401,105.391h16.916 M336.55,101.18h16.863 M336.661,96.968h16.842 M337.039,92.756h16.524
				 M337.177,88.539h16.465 M337.32,84.328h16.385 M337.687,80.116h16.099 M337.852,75.904h16.008 M337.968,71.692h15.965
				 M338.281,67.471h15.753 M338.632,63.259h15.456 M338.759,59.047h15.403 M338.935,54.836h10.219 M617.209,91.197l-6.421,1.654
				l-3.214-0.093v50.55h9.635V91.197z M617.209,91.197c-7.298,8.77-9.635,30.311-9.635,30.311 M616.173,92.75h1.063 M614.633,95.189
				h2.604 M613.565,97.637h3.67 M612.456,100.078h4.78 M611.818,102.52h5.417 M611.011,104.965h6.198 M610.198,107.406h7.011
				 M609.72,109.852h7.489 M609.168,112.293h8.041 M608.711,114.738h8.498 M608.181,117.18h9.028 M607.574,119.625h9.635
				 M607.574,122.064h9.635 M607.574,124.514h9.635 M607.574,126.953h9.635 M607.574,129.4h9.635 M607.574,131.84h9.635
				 M607.574,134.286h9.635 M607.574,136.727h9.635 M607.574,139.172h9.635 M607.574,141.613h9.635 M362.602,90.714l-2.725-3.604
				v56.186l6.714,0.012V85.928L362.602,90.714z M362.602,90.714v52.591 M366.591,85.938l-1.95-3.795 M364.641,82.143l-4.78,4.967
				 M364.641,82.143v-7.797 M324.557,143.305h318.678 M557.808,111.787c-1.17,0-2.313,0.349-3.288,0.998
				c-0.973,0.65-1.73,1.576-2.179,2.658s-0.564,2.272-0.336,3.423c0.229,1.149,0.791,2.206,1.619,3.034s1.881,1.392,3.029,1.621
				c1.147,0.229,2.337,0.109,3.418-0.338c1.081-0.449,2.005-1.209,2.655-2.183c0.65-0.976,0.997-2.119,0.997-3.291
				c0-0.776-0.152-1.548-0.449-2.267c-0.299-0.719-0.733-1.373-1.283-1.924c-0.549-0.549-1.202-0.985-1.919-1.283
				C559.354,111.939,558.585,111.787,557.808,111.787z M557.585,90.682l-0.622,11.119h1.248L557.585,90.682z M590.493,94.754
				c-1.092,0-2.16,0.326-3.068,0.934c-0.909,0.606-1.617,1.472-2.035,2.48c-0.418,1.012-0.526,2.123-0.313,3.195
				s0.739,2.059,1.512,2.832c0.772,0.772,1.757,1.3,2.828,1.514c1.071,0.213,2.182,0.104,3.191-0.313
				c1.009-0.42,1.871-1.129,2.479-2.039c0.607-0.909,0.931-1.979,0.931-3.071c0.035-0.729-0.074-1.458-0.322-2.146
				s-0.629-1.317-1.123-1.855c-0.493-0.539-1.087-0.975-1.749-1.281s-1.378-0.479-2.107-0.509L590.493,94.754z M590.063,93.223
				h1.328l-0.664-11.836L590.063,93.223z M599.714,118.828H581.73v1.01h17.973L599.714,118.828z M583.105,119.838
				c0.125,1.939,0.982,3.758,2.397,5.085c1.416,1.329,3.283,2.068,5.224,2.068s3.809-0.739,5.224-2.068
				c1.416-1.327,2.272-3.146,2.398-5.085H583.105z M598.349,118.828c-0.125-1.938-0.982-3.758-2.398-5.086
				c-1.415-1.328-3.282-2.067-5.224-2.067c-1.94,0-3.808,0.739-5.224,2.067s-2.272,3.146-2.397,5.086H598.349z M587.503,95.866
				l0.569,0.569l0.563-0.569l-0.563-0.563L587.503,95.866z M588.565,100.854l0.563,0.564l0.563-0.564l-0.563-0.563L588.565,100.854z
				 M588.565,97.531l0.563,0.563l0.563-0.563l-0.563-0.563L588.565,97.531z M590.748,102.514l-0.563-0.563l-0.563,0.563l0.563,0.568
				L590.748,102.514z M589.686,104.178l-0.558-0.548l-0.563,0.532l0.563,0.563L589.686,104.178z M588.624,102.514l-0.563-0.563
				l-0.568,0.563l0.568,0.568L588.624,102.514z M589.612,99.189l0.563,0.569l0.563-0.569l-0.563-0.563L589.612,99.189z
				 M586.505,99.189l-0.563-0.563l-0.563,0.563l0.563,0.569L586.505,99.189z M590.668,97.531l0.569,0.563l0.563-0.563l-0.563-0.563
				L590.668,97.531z M587.563,100.854l-0.563-0.563l-0.563,0.563l0.563,0.564L587.563,100.854z M591.731,95.866l0.563,0.569
				l0.564-0.569l-0.564-0.563L591.731,95.866z M593.914,97.531l-0.563-0.563l-0.563,0.563l0.563,0.563L593.914,97.531z
				 M591.731,99.189l0.563,0.569l0.564-0.569l-0.564-0.563L591.731,99.189z M588.061,99.76l0.563-0.57l-0.563-0.563l-0.568,0.563
				L588.061,99.76z M586.999,98.094l0.563-0.563l-0.563-0.563l-0.563,0.563L586.999,98.094z M589.612,95.866l0.563,0.569
				l0.563-0.569l-0.563-0.563L589.612,95.866z M586.505,102.514l-0.563-0.563l-0.292,0.293c0.114,0.252,0.249,0.495,0.397,0.729
				L586.505,102.514z M591.815,104.178l-0.567-0.548l-0.569,0.532l0.569,0.563L591.815,104.178z M594.423,101.949l-0.563,0.564
				l0.563,0.567l0.568-0.567L594.423,101.949z M587.37,104.391l0.208-0.213l-0.569-0.548l-0.255,0.255
				c0.192,0.184,0.396,0.352,0.611,0.506H587.37z M594.068,95.652l-0.212,0.214l0.563,0.569l0.255-0.256
				C594.484,95.991,594.282,95.814,594.068,95.652z M592.867,102.514l-0.563-0.563l-0.563,0.563l0.563,0.568L592.867,102.514z
				 M593.93,104.178l-0.567-0.548l-0.563,0.532l0.563,0.563L593.93,104.178z M591.805,100.854l-0.563-0.563l-0.568,0.563
				l0.568,0.564L591.805,100.854z M593.356,100.291l-0.563,0.563l0.563,0.564l0.563-0.564L593.356,100.291z M594.981,99.189
				l-0.568-0.563l-0.563,0.563l0.563,0.569L594.981,99.189z M594.912,97.531l0.563,0.563l0.286-0.287
				c-0.111-0.254-0.244-0.498-0.393-0.732L594.912,97.531z M596.039,100.854l-0.563-0.563l-0.563,0.563l0.563,0.564L596.039,100.854
				z M473.045,120.534v10.858h3.5c-0.237-0.931-0.193-1.91,0.127-2.816c0.321-0.904,0.903-1.693,1.673-2.268
				c2.891-2.35,5.104-1.686,5.545-3.51c0.44,1.824,2.655,1.16,5.546,3.51c0.771,0.573,1.353,1.362,1.673,2.268
				c0.319,0.906,0.364,1.887,0.127,2.816h3.5v-10.858H473.045z M483.891,86.311c-0.164,0-0.323,0.049-0.46,0.141
				c-0.136,0.092-0.243,0.221-0.306,0.372s-0.079,0.317-0.047,0.479s0.111,0.31,0.227,0.425c0.116,0.115,0.264,0.195,0.424,0.228
				c0.161,0.032,0.328,0.017,0.479-0.047c0.152-0.063,0.281-0.168,0.372-0.306c0.091-0.137,0.14-0.297,0.14-0.461
				c0-0.22-0.086-0.43-0.239-0.586c-0.155-0.154-0.364-0.242-0.583-0.244H483.891z M485.096,80.514
				c-0.258-0.039-0.521-0.012-0.767,0.082c-0.244,0.094-0.459,0.248-0.625,0.451c-0.136,0.172-0.223,0.377-0.253,0.594
				s-0.001,0.438,0.083,0.641c0.086,0.201,0.224,0.378,0.4,0.51s0.385,0.214,0.603,0.238c0.241,0.037,0.488-0.002,0.707-0.11
				c0.261-0.114,0.484-0.298,0.647-0.53c0,0,0,0,0.032,0c-0.11,0.28-0.302,0.524-0.551,0.698c-0.249,0.173-0.543,0.269-0.846,0.272
				c-0.229,0.006-0.456-0.039-0.665-0.135c-0.209-0.094-0.395-0.233-0.542-0.408c-0.147-0.176-0.254-0.381-0.313-0.604
				c-0.057-0.223-0.063-0.454-0.02-0.679c0.043-0.226,0.138-0.438,0.273-0.621c0.138-0.183,0.313-0.335,0.517-0.44
				c0.203-0.106,0.427-0.166,0.655-0.175c0.229-0.009,0.456,0.035,0.666,0.126v0.032L485.096,80.514z M465.891,122.561
				c0,0,0.069-1.653-0.792-2.397c-0.747-0.651-1.57-1.209-2.454-1.659c-0.865,0.477-1.686,1.032-2.448,1.659
				c-0.86,0.7-0.796,2.397-0.796,2.397v4.563h6.489L465.891,122.561L465.891,122.561z M465.891,135.913c0,0,0.069-1.653-0.792-2.404
				c-0.746-0.651-1.569-1.206-2.454-1.653c-0.865,0.474-1.686,1.027-2.448,1.653c-0.86,0.708-0.796,2.404-0.796,2.404v1.34h6.489
				L465.891,135.913L465.891,135.913z M468.047,113.732c0.021-0.387-0.106-0.767-0.354-1.063c-0.331-0.291-0.697-0.539-1.09-0.738
				c-0.385,0.211-0.75,0.459-1.089,0.738c-0.247,0.297-0.373,0.678-0.35,1.063H468.047z M464.09,113.732
				c0.021-0.387-0.105-0.767-0.355-1.063c-0.331-0.291-0.696-0.539-1.088-0.738c-0.387,0.211-0.75,0.459-1.09,0.738
				c-0.248,0.297-0.374,0.678-0.351,1.063H464.09z M460.133,113.732c0.021-0.387-0.106-0.767-0.354-1.063
				c-0.331-0.291-0.696-0.539-1.089-0.738c-0.377,0.213-0.732,0.461-1.063,0.738c-0.249,0.297-0.376,0.678-0.355,1.063H460.133z
				 M462.646,113.732h-6.635v2.49h13.278v-2.49H462.646z M462.646,110.436h-5.779v3.299h11.557v-3.299H462.646z M470.575,106.527
				l0.75-0.75l-1.397-1.397l-1.386,1.378l0.748,0.749L470.575,106.527z M452.368,122.561c0,0,0.069-1.653-0.797-2.397
				c-0.75-0.647-1.578-1.199-2.465-1.644c-0.865,0.478-1.686,1.032-2.448,1.658c-0.86,0.702-0.797,2.398-0.797,2.398v4.563h6.49
				L452.368,122.561z M452.368,135.913c0,0,0.069-1.653-0.797-2.404c-0.744-0.651-1.566-1.207-2.449-1.653
				c-0.866,0.474-1.687,1.027-2.448,1.653c-0.859,0.708-0.797,2.404-0.797,2.404v1.34h6.491V135.913z M448.044,113.732h-4.514v2.49
				h11.186v-2.49H448.044z M445.877,110.436v3.299h6.469v-3.299H445.877z M446.786,103.814v6.621h4.652v-6.631L446.786,103.814z
				 M443.519,116.223v21.041h11.187v-21.052L443.519,116.223z M450.881,102.082c-0.924-0.803-1.631-0.579-1.769-1.201
				c-0.144,0.622-0.851,0.398-1.773,1.201c-0.249,0.206-0.434,0.479-0.535,0.784c-0.101,0.308-0.114,0.636-0.039,0.948h4.689
				c0.08-0.313,0.069-0.644-0.03-0.953c-0.1-0.307-0.284-0.582-0.533-0.789L450.881,102.082z M442.266,137.236h1.265v-30.729h-1.265
				V137.236z M443.546,106.507l0.749-0.749l-1.396-1.398l-1.397,1.398l0.749,0.749H443.546z M434.649,100.886h-6.788l-1.063,36.367
				h8.923L434.649,100.886z M433.3,116.212v-2.304h-1.593v2.304H433.3z M430.778,116.212v-2.304h-1.595v2.304H430.778z
				 M435.027,113.908h-0.792v2.304h0.865L435.027,113.908z M427.378,116.212h0.866v-2.304h-0.797L427.378,116.212z M433.294,130.484
				v-2.299h-1.592v2.299H433.294z M430.772,130.484v-2.299h-1.594v2.299H430.772z M435.446,128.188h-1.211v2.297h1.286
				L435.446,128.188z M426.948,130.484h1.286v-2.299h-1.217L426.948,130.484z M435.638,97.249h-8.791v3.644h8.791V97.249z
				 M434.612,93.611h-6.751v3.638h6.739L434.612,93.611z M430.464,99.169c0.009-0.129-0.007-0.258-0.049-0.379
				c-0.043-0.123-0.11-0.233-0.197-0.329c-0.088-0.094-0.192-0.17-0.312-0.221s-0.246-0.078-0.374-0.078
				c-0.129,0-0.256,0.027-0.374,0.078s-0.225,0.127-0.313,0.221c-0.088,0.096-0.154,0.206-0.196,0.329
				c-0.042,0.121-0.061,0.25-0.051,0.379v1.724h1.865V99.169z M433.89,99.169c0.011-0.129-0.007-0.258-0.049-0.379
				c-0.042-0.123-0.109-0.233-0.197-0.329c-0.087-0.094-0.192-0.17-0.312-0.221c-0.118-0.051-0.245-0.078-0.374-0.078
				s-0.257,0.027-0.375,0.078s-0.224,0.127-0.311,0.221c-0.089,0.096-0.155,0.206-0.198,0.329c-0.042,0.121-0.06,0.25-0.05,0.379
				v1.724h1.863v-1.724H433.89z M432.174,95.525c-0.017-0.234-0.123-0.455-0.296-0.615s-0.399-0.25-0.636-0.25
				s-0.463,0.09-0.636,0.25c-0.174,0.16-0.279,0.381-0.298,0.615v1.724h1.864L432.174,95.525L432.174,95.525z M544.37,137.236
				H423.421v6.063H544.37V137.236z M501.879,127.135h6.491v-4.559c0,0,0.069-1.696-0.797-2.398
				c-0.757-0.627-1.571-1.184-2.433-1.658c-0.881,0.451-1.703,1.008-2.448,1.658c-0.861,0.746-0.796,2.398-0.796,2.398
				L501.879,127.135z M501.879,137.27h6.491v-1.34c0,0,0.069-1.701-0.797-2.404c-0.764-0.629-1.582-1.184-2.448-1.658
				c-0.881,0.451-1.703,1.008-2.448,1.658c-0.86,0.744-0.797,2.404-0.797,2.404L501.879,137.27L501.879,137.27z M502.629,113.732
				c0.022-0.387-0.104-0.768-0.355-1.063c-0.338-0.281-0.702-0.529-1.09-0.738c-0.392,0.199-0.758,0.447-1.088,0.738
				c-0.247,0.297-0.374,0.678-0.355,1.063H502.629z M506.585,113.732c0.022-0.387-0.104-0.768-0.356-1.063
				c-0.337-0.281-0.701-0.529-1.088-0.738c-0.392,0.199-0.758,0.447-1.089,0.738c-0.247,0.297-0.374,0.678-0.354,1.063H506.585z
				 M510.542,113.732c0.022-0.387-0.105-0.768-0.356-1.063c-0.338-0.281-0.701-0.529-1.089-0.738
				c-0.391,0.199-0.757,0.447-1.088,0.738c-0.248,0.297-0.374,0.678-0.355,1.063H510.542z M498.502,113.732v2.49h13.278v-2.49
				H498.502z M499.384,110.436v3.299h11.558v-3.299h-11.578H499.384z M499.856,110.432h10.622c0.172-0.711,0.141-1.455-0.09-2.147
				c-0.229-0.694-0.648-1.31-1.211-1.776c-2.087-1.813-3.686-1.304-4.005-2.712c-0.319,1.408-1.917,0.897-4.005,2.712
				c-0.567,0.463-0.994,1.077-1.229,1.771c-0.236,0.691-0.272,1.438-0.104,2.152H499.856z M515.424,127.123h6.49v-4.557
				c0,0,0.068-1.696-0.792-2.398c-0.76-0.624-1.577-1.176-2.438-1.648c-0.88,0.451-1.702,1.008-2.447,1.658
				c-0.861,0.746-0.797,2.398-0.797,2.398L515.424,127.123z M515.424,137.258h6.49v-1.34c0,0,0.068-1.701-0.792-2.402
				c-0.765-0.629-1.586-1.184-2.454-1.66c-0.881,0.451-1.703,1.01-2.449,1.66c-0.859,0.744-0.796,2.402-0.796,2.402L515.424,137.258
				L515.424,137.258z M515.435,110.436v3.299h6.464v-3.299H515.435z M516.337,103.814v6.621h4.652v-6.625L516.337,103.814z
				 M532.042,137.285h8.955l-1.063-36.368h-6.798L532.042,137.285z M536.08,116.244v-2.303h-1.593v2.303H536.08z M538.602,116.244
				v-2.303h-1.593v2.303H538.602z M536.09,130.516v-2.303h-1.594v2.303H536.09z M538.613,130.516v-2.303h-1.594v2.303H538.613z
				 M540.774,128.213h-1.222v2.303h1.285L540.774,128.213z M532.17,100.917h8.771v-3.668h-8.785L532.17,100.917z M533.19,97.275
				h6.739v-3.637h-6.755L533.19,97.275z M537.328,100.917h1.864v-1.755c-0.019-0.234-0.124-0.454-0.298-0.615
				c-0.172-0.16-0.398-0.249-0.636-0.249c-0.234,0-0.462,0.089-0.635,0.249c-0.173,0.161-0.279,0.381-0.296,0.615V100.917z
				 M533.901,100.917h1.863v-1.755c-0.018-0.234-0.123-0.454-0.296-0.615c-0.173-0.16-0.399-0.249-0.636-0.249
				c-0.235,0-0.462,0.089-0.636,0.249c-0.172,0.161-0.278,0.381-0.296,0.615V100.917z M535.612,97.275h1.864v-1.724
				c0.01-0.129-0.008-0.258-0.05-0.379s-0.108-0.233-0.196-0.327c-0.089-0.096-0.194-0.171-0.313-0.222
				c-0.117-0.054-0.245-0.079-0.373-0.079c-0.129,0-0.256,0.025-0.375,0.079c-0.118,0.051-0.224,0.126-0.311,0.222
				c-0.088,0.094-0.155,0.206-0.198,0.327c-0.042,0.121-0.06,0.25-0.049,0.379V97.275z M630.923,105.672
				c-1.005-0.023-2.005,0.153-2.942,0.52c-0.937,0.363-1.793,0.91-2.518,1.607c0.289,0.768,0.74,1.463,1.323,2.04
				c0.581,0.577,1.28,1.022,2.05,1.306h4.174c0.77-0.283,1.468-0.729,2.05-1.306s1.033-1.272,1.323-2.04
				c-0.727-0.695-1.584-1.242-2.521-1.605s-1.938-0.539-2.943-0.516L630.923,105.672z M634.577,98.59v-2.818
				c0,0-1.243-0.92-3.654-0.92s-3.659,0.92-3.659,0.92v2.818h-0.53v2.334c0.001,0.252,0.058,0.501,0.166,0.729
				c0.107,0.229,0.265,0.43,0.461,0.59l1.815,1.488h3.548l1.812-1.488c0.195-0.16,0.354-0.36,0.462-0.588
				c0.107-0.229,0.165-0.479,0.165-0.73V98.59H634.577z M379.826,119.652c1.36,1.558,8.706,7.857,10.771,9.625
				c0.169,0.146,0.303,0.326,0.395,0.531c0.091,0.203,0.138,0.426,0.136,0.647v12.837h7.808v-12.837
				c-0.002-0.224,0.045-0.444,0.137-0.647c0.092-0.205,0.227-0.386,0.395-0.531c2.066-1.768,9.412-8.067,10.771-9.625
				c1.594-1.81-2.209-6.687-15.222-6.687s-16.815,4.877-15.233,6.687H379.826z M335.222,69.57l-4.036,2.617l4.036,1.148V69.57z"/>
			<path fill="none" stroke="#FBC311" stroke-linecap="round" stroke-linejoin="round" d="M536.552,54.331h45.65 M468.541,16.32
				h32.723 M447.423,70.709h-17.644 M526.146,37.08H496.77 M359.627,40.804h18.69 M635.788,39.053c0-0.063,0-0.127,0-0.196
				c0-1.206-0.479-2.363-1.33-3.215c-0.852-0.853-2.007-1.332-3.211-1.332c-0.404,0-0.806,0.057-1.195,0.165
				c-0.048-0.816-0.285-1.611-0.693-2.32c-0.409-0.71-0.978-1.313-1.66-1.764c-0.684-0.45-1.462-0.734-2.274-0.831
				c-0.812-0.095-1.635-0.001-2.403,0.278c-1.15-1.101-2.593-1.848-4.153-2.151c-1.563-0.305-3.178-0.154-4.656,0.434
				c-1.479,0.589-2.758,1.588-3.686,2.882c-0.929,1.295-1.465,2.829-1.548,4.419c-0.201-0.039-0.405-0.062-0.61-0.063
				c-0.928,0-1.817,0.368-2.473,1.024c-0.656,0.656-1.026,1.546-1.027,2.475c0,0.069,0,0.133,0,0.196L635.788,39.053L635.788,39.053
				z M518.01,67.411c0.558-0.852,0.873-1.837,0.915-2.854c0.042-1.018-0.19-2.026-0.675-2.921c-0.484-0.896-1.2-1.644-2.074-2.165
				c-0.873-0.521-1.871-0.796-2.887-0.796c-0.238,0.003-0.477,0.019-0.711,0.048c-0.128-1.789-0.778-3.503-1.869-4.926
				c-1.091-1.424-2.575-2.496-4.269-3.084c-1.693-0.586-3.522-0.663-5.26-0.219c-1.735,0.443-3.305,1.387-4.511,2.714
				c-0.908-1.257-2.191-2.194-3.665-2.676c-1.473-0.482-3.062-0.484-4.536-0.008c-1.475,0.479-2.761,1.412-3.673,2.667
				c-0.912,1.256-1.404,2.768-1.404,4.319c0,0.209,0.012,0.419,0.032,0.628h-0.032c-1.146-0.002-2.258,0.405-3.135,1.148
				c-0.875,0.743-1.458,1.773-1.645,2.908c-0.875,0.193-1.658,0.68-2.22,1.379c-0.563,0.698-0.869,1.568-0.871,2.465
				c0.003,0.469,0.088,0.934,0.25,1.372L518.01,67.411L518.01,67.411z M556.336,16.32c0.385-0.582,0.59-1.264,0.589-1.962
				c0-0.953-0.378-1.867-1.051-2.542c-0.673-0.674-1.587-1.053-2.54-1.053c-0.153,0-0.305,0.011-0.456,0.032
				c-0.088-1.137-0.505-2.221-1.2-3.123c-0.694-0.9-1.639-1.58-2.713-1.953c-1.075-0.372-2.234-0.423-3.338-0.145
				c-1.104,0.277-2.101,0.872-2.872,1.711c-0.578-0.806-1.396-1.406-2.338-1.716c-0.941-0.309-1.956-0.311-2.898-0.004
				c-0.941,0.307-1.763,0.906-2.342,1.711c-0.58,0.803-0.889,1.771-0.884,2.763c0,0.138,0,0.271,0,0.404
				c-0.729,0.001-1.433,0.26-1.988,0.732c-0.556,0.473-0.926,1.127-1.044,1.847c-0.35,0.077-0.678,0.229-0.964,0.444
				c-0.286,0.215-0.521,0.489-0.693,0.803c-0.173,0.315-0.274,0.662-0.302,1.02c-0.025,0.356,0.024,0.716,0.148,1.052L556.336,16.32
				z M359.468,13.965c0.104-0.28,0.158-0.578,0.159-0.877c-0.001-0.571-0.198-1.124-0.557-1.568
				c-0.358-0.443-0.857-0.752-1.414-0.873c-0.116-0.721-0.486-1.377-1.041-1.852c-0.556-0.473-1.263-0.732-1.992-0.732
				c0-0.134,0-0.267,0-0.398c-0.001-0.989-0.314-1.952-0.896-2.752c-0.582-0.799-1.4-1.394-2.34-1.697
				c-0.939-0.305-1.951-0.302-2.89,0.005c-0.938,0.308-1.756,0.904-2.335,1.704c-0.771-0.838-1.77-1.432-2.874-1.71
				c-1.104-0.277-2.265-0.227-3.341,0.147c-1.075,0.375-2.018,1.055-2.712,1.957c-0.695,0.904-1.11,1.99-1.196,3.127
				c-0.149-0.021-0.301-0.033-0.452-0.033c-0.647,0-1.283,0.176-1.838,0.508c-0.556,0.332-1.013,0.807-1.321,1.377
				c-0.308,0.57-0.457,1.213-0.429,1.86c0.027,0.647,0.228,1.275,0.582,1.818L359.468,13.965z"/>
		</g>
	</g>
</g>
<g>
	<g>
		<defs>
			<rect id="SVGID_5_" x="643.5" y="1" width="319.208" height="142.57"/>
		</defs>
		<clipPath id="SVGID_6_">
			<use xlink:href="#SVGID_5_"  overflow="visible"/>
		</clipPath>
		<g opacity="0.5" clip-path="url(#SVGID_6_)">
			<path fill="none" stroke="#FBC311" stroke-linecap="round" stroke-linejoin="round" d="M875.815,111.852l1.2-21.431l1.206,21.488
				 M875.167,123.337l-1.121,19.962h5.938l-1.121-19.967 M881.265,115.818c0.142,0,0.275-0.058,0.375-0.156
				c0.101-0.1,0.156-0.235,0.156-0.375 M879.565,119.051c0.141,0,0.275-0.057,0.375-0.154c0.1-0.101,0.155-0.235,0.155-0.377
				 M880.399,117.456c0.141,0,0.275-0.058,0.375-0.157c0.1-0.099,0.155-0.234,0.155-0.374 M878.684,117.456
				c0.142,0,0.276-0.058,0.376-0.157c0.1-0.099,0.155-0.234,0.155-0.374 M876.968,117.456c0.142,0,0.276-0.058,0.376-0.157
				c0.101-0.099,0.155-0.234,0.155-0.374 M877.802,119.094c0.142,0,0.276-0.057,0.375-0.154c0.101-0.102,0.156-0.235,0.156-0.377
				 M880.336,120.73c0.14,0,0.275-0.056,0.375-0.155c0.1-0.101,0.155-0.234,0.155-0.376 M879.47,115.871
				c0.142,0,0.276-0.057,0.375-0.155c0.101-0.1,0.156-0.235,0.156-0.376 M880.304,114.275c0.142,0,0.276-0.057,0.375-0.155
				c0.101-0.101,0.156-0.235,0.156-0.376 M881.137,119.168c0.142,0,0.276-0.057,0.376-0.156c0.101-0.1,0.155-0.234,0.155-0.375
				 M881.972,117.572c0.142,0,0.276-0.057,0.376-0.155c0.1-0.101,0.155-0.233,0.155-0.376 M872.767,119.051
				c0.142,0,0.276-0.057,0.375-0.154c0.101-0.101,0.156-0.235,0.156-0.377 M871.238,119.051c0.108-0.037,0.204-0.107,0.27-0.205
				c0.065-0.096,0.099-0.211,0.091-0.326 M871.902,117.456c0.141,0,0.275-0.058,0.375-0.157c0.1-0.099,0.155-0.234,0.155-0.374
				 M872.736,115.859c0.141,0,0.274-0.055,0.375-0.155c0.1-0.099,0.155-0.233,0.155-0.376 M876.984,114.266
				c0.141,0,0.275-0.057,0.376-0.156c0.1-0.099,0.155-0.234,0.155-0.375 M876.166,119.051c0.141,0,0.276-0.057,0.376-0.154
				c0.1-0.101,0.156-0.235,0.156-0.377 M875.3,117.456c0.142,0,0.276-0.058,0.375-0.157c0.101-0.099,0.156-0.234,0.156-0.374
				 M874.467,119.051c0.142,0,0.276-0.057,0.375-0.154c0.101-0.101,0.156-0.235,0.156-0.377 M873.601,120.688
				c0.142,0,0.276-0.056,0.376-0.154c0.101-0.1,0.155-0.234,0.155-0.376 M878.684,114.201c0.142,0,0.276-0.055,0.376-0.155
				s0.155-0.235,0.155-0.377 M873.617,117.456c0.141,0,0.275-0.058,0.375-0.157c0.1-0.099,0.155-0.234,0.155-0.374 M877.866,112.59
				c0.141,0,0.275-0.057,0.375-0.154c0.1-0.102,0.156-0.234,0.156-0.377c0.002-0.021,0.002-0.043,0-0.063 M879.565,112.602
				c0.089-0.002,0.178-0.024,0.255-0.069 M877.866,122.354c0.141,0,0.275-0.057,0.375-0.155c0.099-0.099,0.156-0.234,0.156-0.376
				 M879.549,122.354c0.143,0,0.276-0.057,0.376-0.155c0.101-0.099,0.156-0.234,0.156-0.376 M878.684,120.758
				c0.142,0,0.276-0.056,0.376-0.156c0.1-0.1,0.155-0.233,0.155-0.375 M876.119,112.645c0.141,0,0.275-0.058,0.375-0.156
				c0.1-0.1,0.156-0.235,0.156-0.377 M877.802,115.908c0.142,0,0.276-0.057,0.375-0.156c0.101-0.1,0.156-0.234,0.156-0.375
				 M874.132,112.602c0.072,0.039,0.152,0.063,0.233,0.066c0.082,0.004,0.164-0.012,0.238-0.044
				c0.075-0.034,0.142-0.083,0.194-0.146c0.053-0.063,0.09-0.139,0.109-0.219 M874.376,115.924c0.142,0,0.277-0.056,0.376-0.154
				c0.099-0.1,0.155-0.235,0.155-0.377 M873.511,114.328c0.142,0,0.276-0.055,0.375-0.154c0.101-0.1,0.156-0.234,0.156-0.377
				 M875.194,114.328c0.142,0,0.275-0.055,0.376-0.154c0.1-0.099,0.155-0.234,0.155-0.377 M876.878,120.85
				c0.141,0,0.275-0.058,0.375-0.156c0.099-0.1,0.155-0.235,0.155-0.375 M876.012,115.988c0.142,0,0.276-0.057,0.375-0.156
				c0.101-0.1,0.156-0.234,0.156-0.375 M876.012,122.502c0.142,0,0.276-0.057,0.375-0.156c0.101-0.099,0.156-0.234,0.156-0.375
				 M875.146,120.906c0.141,0,0.275-0.057,0.375-0.155s0.154-0.235,0.154-0.376 M872.948,122.4c0.057-0.049,0.102-0.11,0.133-0.18
				c0.031-0.068,0.048-0.144,0.048-0.22 M874.281,122.535c0.141,0,0.275-0.057,0.375-0.156c0.1-0.102,0.156-0.234,0.156-0.377
				 M871.71,120.938c0.141,0,0.276-0.056,0.376-0.154c0.099-0.1,0.156-0.234,0.156-0.376 M891.745,98.689l-2.519,44.871h5.035
				L891.745,98.689z M891.745,98.689l-0.531,9.434h1.063L891.745,98.689z M913.526,122.576c0.141,0,0.275-0.057,0.376-0.155
				c0.099-0.101,0.154-0.235,0.154-0.376 M910.117,122.576c0.141,0,0.274-0.057,0.375-0.155c0.1-0.099,0.155-0.235,0.155-0.376
				 M911.805,122.576c0.142,0,0.276-0.057,0.375-0.155c0.102-0.101,0.156-0.235,0.156-0.376 M906.696,122.576
				c0.141,0,0.274-0.057,0.375-0.155c0.101-0.101,0.155-0.235,0.155-0.376 M910.945,114.461c0.141,0,0.275-0.055,0.375-0.154
				s0.155-0.234,0.155-0.377 M913.483,116.105c0.141,0,0.275-0.058,0.375-0.155c0.1-0.101,0.154-0.235,0.154-0.377 M912.623,114.511
				c0.141,0,0.276-0.058,0.375-0.157c0.1-0.099,0.155-0.233,0.155-0.375 M914.313,117.775c0.141,0,0.275-0.058,0.375-0.156
				c0.1-0.1,0.155-0.234,0.155-0.376 M911.752,116.18c0.141,0,0.276-0.057,0.375-0.156c0.1-0.1,0.156-0.233,0.156-0.375
				 M916.001,117.816c0.141,0,0.276-0.057,0.375-0.154c0.1-0.102,0.156-0.236,0.156-0.377 M915.14,116.223
				c0.143,0,0.276-0.057,0.375-0.156c0.101-0.1,0.156-0.234,0.156-0.377 M908.332,122.736c0.141,0,0.276-0.057,0.376-0.156
				s0.155-0.234,0.155-0.376 M903.222,122.736c0.142,0,0.276-0.057,0.375-0.156c0.1-0.1,0.155-0.234,0.155-0.376 M903.222,116.249
				c0.142,0,0.276-0.058,0.375-0.155c0.1-0.101,0.155-0.236,0.155-0.377 M912.899,117.456c0.141,0,0.275-0.058,0.376-0.157
				c0.1-0.099,0.154-0.234,0.154-0.374 M906.09,117.456c0.142,0,0.275-0.058,0.375-0.157c0.1-0.099,0.156-0.234,0.156-0.374
				 M907.779,117.456c0.141,0,0.275-0.058,0.375-0.157c0.1-0.099,0.155-0.234,0.155-0.374 M909.468,117.456
				c0.142,0,0.275-0.058,0.375-0.157c0.101-0.099,0.155-0.234,0.155-0.374 M911.157,117.456c0.141,0,0.275-0.058,0.375-0.157
				c0.1-0.099,0.155-0.234,0.155-0.374 M904.348,114.217c0.142,0,0.276-0.056,0.376-0.154c0.1-0.101,0.155-0.235,0.155-0.377
				 M914.53,114.217c0.129,0.002,0.254-0.044,0.352-0.128c0.099-0.084,0.161-0.2,0.181-0.329 M915.385,122.342
				c0.142,0,0.276-0.055,0.375-0.154c0.101-0.101,0.156-0.234,0.156-0.377 M911.975,112.602c0.122,0.004,0.24-0.035,0.337-0.108
				c0.098-0.073,0.165-0.179,0.194-0.295 M914.54,123.98c0.141,0,0.276-0.057,0.376-0.156s0.155-0.235,0.155-0.375 M912.83,123.98
				c0.142,0,0.276-0.057,0.376-0.156c0.099-0.1,0.155-0.235,0.155-0.375 M911.97,125.618c0.142,0,0.276-0.056,0.376-0.155
				c0.1-0.102,0.155-0.236,0.155-0.377 M910.26,115.883c0.142,0,0.276-0.057,0.375-0.156c0.101-0.1,0.156-0.234,0.156-0.377
				 M913.648,125.65c0.141,0,0.274-0.058,0.375-0.156c0.1-0.1,0.154-0.234,0.154-0.376 M910.238,112.66
				c0.141,0,0.275-0.057,0.375-0.156c0.1-0.102,0.155-0.234,0.155-0.377 M908.528,112.66c0.141,0,0.275-0.057,0.376-0.156
				c0.099-0.102,0.155-0.234,0.155-0.377 M906.483,112.548c0.073,0.062,0.163,0.101,0.259,0.114
				c0.095,0.015,0.191,0.004,0.281-0.033c0.089-0.037,0.166-0.098,0.224-0.174c0.057-0.077,0.092-0.168,0.102-0.266 M905.31,125.635
				c0.108-0.039,0.201-0.111,0.265-0.208c0.063-0.097,0.093-0.21,0.087-0.325 M911.066,124.039c0.141,0,0.275-0.057,0.375-0.156
				s0.155-0.234,0.155-0.376 M905.957,114.298c0.141,0,0.276-0.057,0.375-0.157c0.101-0.099,0.156-0.233,0.156-0.375
				 M904.401,117.456c0.141,0,0.275-0.058,0.376-0.157c0.1-0.099,0.154-0.234,0.154-0.374 M902.691,117.456
				c0.14,0,0.274-0.058,0.375-0.157c0.1-0.099,0.154-0.234,0.154-0.374 M910.323,125.598c0.141,0,0.275-0.057,0.375-0.156
				s0.155-0.233,0.155-0.375 M909.463,114.232c0.141,0,0.276-0.057,0.375-0.155c0.1-0.099,0.156-0.234,0.156-0.376 M908.602,115.876
				c0.143,0,0.276-0.056,0.376-0.155s0.156-0.234,0.156-0.375 M906.892,115.876c0.142,0,0.276-0.056,0.376-0.155
				s0.155-0.234,0.155-0.375 M907.731,114.281c0.14,0,0.275-0.057,0.375-0.156c0.099-0.1,0.154-0.234,0.154-0.376 M905.171,115.924
				c0.142,0,0.276-0.056,0.375-0.154c0.101-0.1,0.155-0.235,0.155-0.377 M906.94,125.57c0.141,0,0.275-0.057,0.375-0.156
				c0.099-0.1,0.155-0.234,0.155-0.375 M907.779,123.975c0.141,0,0.275-0.056,0.375-0.154c0.1-0.102,0.155-0.234,0.155-0.377
				 M909.468,123.975c0.142,0,0.275-0.056,0.375-0.154c0.101-0.102,0.155-0.234,0.155-0.377 M908.608,125.613
				c0.141,0,0.275-0.057,0.375-0.156s0.155-0.234,0.155-0.375 M906.047,124.018c0.143,0,0.276-0.056,0.376-0.156
				c0.101-0.1,0.155-0.233,0.155-0.375 M904.337,124.018c0.141,0,0.276-0.056,0.376-0.156c0.099-0.1,0.155-0.233,0.155-0.375
				 M905.171,122.422c0.142,0,0.276-0.055,0.375-0.154c0.101-0.101,0.155-0.234,0.155-0.377 M910.658,94.543l-0.738-13.156
				l-0.738,13.156 M911.63,111.884l-0.366-6.504 M907.38,126.587l-0.938,16.712h6.952l-0.935-16.712 M908.571,105.38l-0.361,6.504
				 M902.441,117.902h14.982 M902.441,120.764h14.982 M815.219,103.822h-24.234c-0.393-1.623-0.321-3.324,0.203-4.908
				c0.525-1.586,1.483-2.991,2.766-4.059c4.78-4.143,8.424-2.973,9.152-6.185c0.727,3.19,4.381,2.042,9.15,6.185
				c1.282,1.066,2.241,2.473,2.766,4.059c0.525,1.584,0.596,3.285,0.204,4.908H815.219z M815.219,103.822v1.109h-24.241v-1.109
				H815.219z M791.706,106.953v-2.021h22.818v2.021 M791.706,106.953h22.818 M791.706,106.953v4.568h22.818v-4.568 M789.778,116.212
				v-4.69h26.642v4.69 M789.778,116.212h26.642 M789.778,116.212v21.041h26.642v-21.041 M803.099,88.672v-0.707 M803.099,86.294
				v-0.687 M803.099,84.428v-1.186 M803.099,84.428c-0.114,0-0.227,0.034-0.321,0.098c-0.096,0.064-0.169,0.156-0.213,0.262
				s-0.056,0.222-0.033,0.335c0.021,0.112,0.077,0.216,0.158,0.297c0.08,0.081,0.184,0.136,0.297,0.158
				c0.111,0.021,0.228,0.011,0.334-0.033c0.105-0.044,0.196-0.118,0.26-0.213c0.063-0.097,0.098-0.208,0.098-0.322
				c0-0.153-0.061-0.299-0.168-0.407c-0.106-0.108-0.253-0.172-0.405-0.172h-0.006V84.428z M775.22,137.253v-21.041h13.278v21.041
				 M775.22,137.253h13.278 M775.22,137.253h-1.295l0.025-30.726h1.27 M775.22,137.253v-30.726 M788.498,137.253h1.27v-30.726h-1.27
				V137.253z M781.837,103.795c0.319,1.403,1.918,0.893,4.005,2.706c0.564,0.466,0.987,1.08,1.22,1.774
				c0.233,0.691,0.267,1.438,0.098,2.149h-10.623c-0.173-0.711-0.144-1.454,0.086-2.147c0.229-0.693,0.647-1.311,1.21-1.776
				C779.921,104.688,781.519,105.198,781.837,103.795z M781.837,103.795v-1.383 M775.22,127.123h13.278 M776.547,109.234h10.708
				 M768.315,100.87v-0.606 M762.738,127.123h11.016 M765.097,103.822h6.48 M765.097,107.118h6.48 M775.22,106.527l0.749-0.75
				l-1.396-1.397l-1.413,1.378l0.749,0.749L775.22,106.527z M746.241,128.188h8.419 M746.162,130.484h8.556 M746.592,116.212h7.723
				 M750.443,88.874c0.223,1.005,1.364,0.638,2.847,1.931l0.011-0.006c0.4,0.332,0.698,0.771,0.861,1.266
				c0.163,0.496,0.182,1.025,0.058,1.531h-7.553c-0.122-0.505-0.102-1.035,0.062-1.527c0.164-0.493,0.463-0.933,0.862-1.264
				C749.078,89.512,750.214,89.879,750.443,88.874z M750.443,88.874v-1.983 M746.65,113.914h7.589 M746.071,102.344h8.791
				 M817.71,137.258v-21.042h13.278v21.042H817.71z M817.71,137.258h-1.27v-30.725h1.27 M817.71,137.258v-30.725 M824.376,103.795
				v-1.377 M831.042,127.123H817.71 M829.666,109.24h-10.729 M817.71,106.533l0.749-0.75l-1.396-1.398l-1.397,1.398l0.749,0.75
				H817.71z M832.285,116.223v-2.488h11.18v2.488H832.285z M832.285,116.223v21.041 M832.285,116.223l11.18-0.007v21.048h-11.18
				 M832.285,137.264h-1.271v-30.725h1.271 M832.285,137.264v-30.725 M837.877,100.881c0.138,0.622,0.844,0.398,1.77,1.201
				c0.247,0.206,0.434,0.479,0.534,0.784c0.103,0.308,0.115,0.636,0.039,0.948h-4.689v-0.004c-0.075-0.313-0.063-0.642,0.04-0.947
				c0.102-0.305,0.287-0.575,0.532-0.781C837.028,101.279,837.734,101.503,837.877,100.881z M837.877,100.881v-0.605
				 M843.465,127.128H832.45 M841.106,103.832h-6.479 M841.106,107.123h-6.479 M832.285,106.539l0.749-0.75l-1.397-1.398
				l-1.396,1.398l0.749,0.75H832.285z M844.724,106.539h-1.27v30.697h1.27V106.539z M844.724,106.539l0.749-0.75l-1.401-1.398
				l-1.371,1.367l0.749,0.749L844.724,106.539z M859.94,128.213h-8.397 M851.543,128.213h1.222v2.303h-1.279L851.543,128.213z
				 M860.042,130.516h-8.567 M859.611,116.244h-7.717 M859.611,116.244h-0.866v-2.303h0.802L859.611,116.244z M851.894,116.244
				h0.871v-2.303h-0.802 M851.894,116.244l0.069-2.303 M851.963,113.941h7.6 M855.771,88.9c0.228,1.004,1.364,0.639,2.853,1.93
				c0.399,0.332,0.698,0.771,0.861,1.264c0.163,0.493,0.185,1.022,0.063,1.528h-7.553l-0.016-0.026
				c-0.116-0.503-0.09-1.027,0.076-1.517s0.466-0.921,0.863-1.249C854.406,89.539,855.543,89.904,855.771,88.9z M855.771,88.9
				v-1.983 M851.363,102.363h8.785 M948.368,103.684l-0.09,2.186 M951.539,94.967l-1.397-32.968l-1.396,32.968 M952.006,105.868
				l-0.09-2.185 M948.06,111.128l-1.364,32.177h6.904l-1.364-32.177 M945.447,98.6h9.406 M945.447,100.057h9.406 M946.52,93.145
				h7.267 M947.587,91.075h5.125 M948.262,89.001h3.781 M948.496,81.736h3.309 M949.032,74.475h2.235 M949.563,67.205h1.175
				 M945.426,101.498h9.407 M943.62,107.83h13.022 M709.965,129.482c-1.8,1.598-4.031,3.521-4.901,4.256
				c-0.115,0.1-0.207,0.224-0.271,0.361c-0.063,0.139-0.096,0.289-0.096,0.44v8.742h-5.313v-8.732
				c-0.001-0.151-0.034-0.303-0.099-0.44c-0.064-0.139-0.157-0.262-0.273-0.361c-1.406-1.206-6.41-5.498-7.334-6.557
				c-1.062-1.232,1.503-4.551,10.362-4.551 M701.664,143.294v-10.142c0.008-0.064,0.008-0.131,0-0.196l-1.493-10.146
				 M700.958,143.294v-9.849c0-0.135-0.025-0.269-0.074-0.394l-3.792-9.87 M700.23,143.294v-9.625c0-0.212-0.063-0.42-0.182-0.595
				l-6.75-8.705 M703.725,124.221l-1.269,8.735c-0.006,0.065-0.006,0.132,0,0.196v10.142 M705.934,126.091l-2.654,6.962
				c-0.055,0.123-0.081,0.258-0.08,0.393v9.85 M708.085,127.915l-3.973,5.159c-0.12,0.175-0.186,0.383-0.187,0.595v9.625
				 M718.506,129.469c1.801,1.596,4.037,3.52,4.903,4.254c0.114,0.101,0.207,0.223,0.27,0.361c0.063,0.139,0.097,0.289,0.097,0.441
				v8.742h5.312v-8.718c0-0.151,0.033-0.302,0.096-0.438c0.063-0.141,0.155-0.264,0.271-0.363c1.413-1.206,6.416-5.498,7.34-6.557
				c1.063-1.232-1.502-4.551-10.368-4.551 M728.316,122.811l-1.493,10.146c-0.005,0.064-0.005,0.132,0,0.195v10.143
				 M731.423,123.184l-3.798,9.869c-0.049,0.125-0.074,0.258-0.074,0.393v9.85 M735.114,124.369l-6.725,8.721
				c-0.118,0.176-0.181,0.383-0.181,0.596v9.625 M726,143.311v-10.158c0.008-0.063,0.008-0.131,0-0.195l-1.285-8.752
				 M725.293,143.294v-9.849c0.001-0.135-0.023-0.269-0.073-0.394l-2.655-6.962 M724.587,143.294v-9.625
				c0-0.212-0.063-0.42-0.181-0.595l-3.979-5.159 M713.699,143.294v-14.89c-0.021-0.107-0.051-0.211-0.09-0.313l-2.199-14.89
				 M712.568,143.283v-14.465c0-0.197-0.038-0.396-0.111-0.578l-5.566-14.485 M711.5,143.283v-14.129
				c-0.002-0.313-0.096-0.614-0.271-0.872l-9.836-12.8 M716.986,113.202l-2.193,14.89c-0.007,0.096-0.007,0.194,0,0.291v14.891
				 M721.539,113.744l-5.593,14.506c-0.074,0.186-0.111,0.382-0.111,0.58v14.464 M727.041,115.482l-9.874,12.806
				c-0.173,0.257-0.266,0.562-0.266,0.872v14.134 M653.453,143.294l4.871-93.345l15.084,7.252l-1.541,86.093H653.453z
				 M653.453,143.294h-3.802l0.716-71.106l6.698,1.91L653.453,143.294z M653.623,139.093h18.308 M653.873,134.882h18.111
				 M654.059,130.665h18.021 M654.277,126.453h17.903 M654.495,122.242h17.75 M654.77,118.029h17.528 M655.185,113.818h17.208
				 M655.45,109.602h16.996 M655.61,105.391h16.916 M655.758,101.18h16.863 M655.87,96.968h16.842 M656.247,92.756h16.524
				 M656.385,88.539h16.465 M656.529,84.328h16.385 M656.895,80.116h16.1 M657.06,75.904h16.009 M657.177,71.692h15.965
				 M657.49,67.471h15.753 M657.84,63.259h15.456 M657.968,59.047h15.403 M658.143,54.836h10.22 M936.417,91.197l-6.421,1.654
				l-3.214-0.093v50.55h9.635V91.197z M936.417,91.197c-7.298,8.77-9.635,30.311-9.635,30.311 M935.382,92.75h1.063 M933.841,95.189
				h2.604 M932.774,97.637h3.67 M931.664,100.078h4.78 M931.027,102.52h5.417 M930.219,104.965h6.198 M929.407,107.406h7.011
				 M928.929,109.852h7.489 M928.376,112.293h8.041 M927.92,114.738h8.498 M927.389,117.18h9.028 M926.783,119.625h9.635
				 M926.783,122.064h9.635 M926.783,124.514h9.635 M926.783,126.953h9.635 M926.783,129.4h9.635 M926.783,131.84h9.635
				 M926.783,134.286h9.635 M926.783,136.727h9.635 M926.783,139.172h9.635 M926.783,141.613h9.635 M681.81,90.714l-2.725-3.604
				v56.186l6.714,0.012V85.928L681.81,90.714z M681.81,90.714v52.591 M685.799,85.938l-1.95-3.795 M683.85,82.143l-4.779,4.967
				 M683.85,82.143v-7.797 M643.765,143.305h318.679 M877.016,111.787c-1.17,0-2.313,0.349-3.288,0.998
				c-0.973,0.65-1.73,1.576-2.179,2.658s-0.564,2.272-0.336,3.423c0.229,1.149,0.791,2.206,1.619,3.034s1.881,1.392,3.029,1.621
				c1.147,0.229,2.337,0.109,3.418-0.338c1.081-0.449,2.005-1.209,2.655-2.183c0.65-0.976,0.997-2.119,0.997-3.291
				c0-0.776-0.152-1.548-0.449-2.267c-0.299-0.719-0.733-1.373-1.283-1.924c-0.549-0.549-1.202-0.985-1.919-1.283
				C878.563,111.939,877.793,111.787,877.016,111.787z M876.793,90.682l-0.622,11.119h1.248L876.793,90.682z M909.702,94.754
				c-1.092,0-2.16,0.326-3.068,0.934c-0.909,0.606-1.617,1.472-2.035,2.48c-0.418,1.012-0.526,2.123-0.313,3.195
				s0.739,2.059,1.512,2.832c0.772,0.772,1.757,1.3,2.828,1.514c1.071,0.213,2.182,0.104,3.191-0.313
				c1.009-0.42,1.872-1.129,2.479-2.039c0.607-0.909,0.932-1.979,0.932-3.071c0.034-0.729-0.075-1.458-0.323-2.146
				s-0.629-1.317-1.123-1.855c-0.493-0.539-1.087-0.975-1.749-1.281s-1.378-0.479-2.107-0.509L909.702,94.754z M909.271,93.223
				h1.328l-0.664-11.836L909.271,93.223z M918.922,118.828h-17.984v1.01h17.974L918.922,118.828z M902.314,119.838
				c0.125,1.939,0.982,3.758,2.397,5.085c1.416,1.329,3.283,2.068,5.224,2.068s3.809-0.739,5.224-2.068
				c1.416-1.327,2.272-3.146,2.398-5.085H902.314z M917.558,118.828c-0.125-1.938-0.982-3.758-2.398-5.086
				c-1.415-1.328-3.282-2.067-5.224-2.067c-1.94,0-3.808,0.739-5.224,2.067s-2.272,3.146-2.397,5.086H917.558z M906.711,95.866
				l0.569,0.569l0.563-0.569l-0.563-0.563L906.711,95.866z M907.774,100.854l0.563,0.564l0.563-0.564l-0.563-0.563L907.774,100.854z
				 M907.774,97.531l0.563,0.563l0.563-0.563l-0.563-0.563L907.774,97.531z M909.957,102.514l-0.563-0.563l-0.563,0.563l0.563,0.568
				L909.957,102.514z M908.895,104.178l-0.558-0.548l-0.563,0.532l0.563,0.563L908.895,104.178z M907.832,102.514l-0.563-0.563
				l-0.568,0.563l0.568,0.568L907.832,102.514z M908.82,99.189l0.563,0.569l0.563-0.569l-0.563-0.563L908.82,99.189z
				 M905.713,99.189l-0.563-0.563l-0.563,0.563l0.563,0.569L905.713,99.189z M909.877,97.531l0.569,0.563l0.563-0.563l-0.563-0.563
				L909.877,97.531z M906.771,100.854l-0.563-0.563l-0.563,0.563l0.563,0.564L906.771,100.854z M910.939,95.866l0.563,0.569
				l0.564-0.569l-0.564-0.563L910.939,95.866z M913.122,97.531l-0.563-0.563l-0.563,0.563l0.563,0.563L913.122,97.531z
				 M910.939,99.189l0.563,0.569l0.564-0.569l-0.564-0.563L910.939,99.189z M907.27,99.76l0.563-0.57l-0.563-0.563l-0.568,0.563
				L907.27,99.76z M906.208,98.094l0.563-0.563l-0.563-0.563l-0.563,0.563L906.208,98.094z M908.82,95.866l0.563,0.569l0.563-0.569
				l-0.563-0.563L908.82,95.866z M905.713,102.514l-0.563-0.563l-0.292,0.293c0.114,0.252,0.249,0.495,0.397,0.729L905.713,102.514z
				 M911.024,104.178l-0.567-0.548l-0.569,0.532l0.569,0.563L911.024,104.178z M913.632,101.949l-0.563,0.564l0.563,0.567
				l0.568-0.567L913.632,101.949z M906.579,104.391l0.208-0.213l-0.569-0.548l-0.255,0.255c0.192,0.184,0.396,0.352,0.611,0.506
				H906.579z M913.276,95.652l-0.212,0.214l0.563,0.569l0.255-0.256C913.692,95.991,913.49,95.814,913.276,95.652z M912.076,102.514
				l-0.563-0.563l-0.563,0.563l0.563,0.568L912.076,102.514z M913.138,104.178l-0.567-0.548l-0.563,0.532l0.563,0.563
				L913.138,104.178z M911.014,100.854l-0.563-0.563l-0.568,0.563l0.568,0.564L911.014,100.854z M912.565,100.291l-0.563,0.563
				l0.563,0.564l0.563-0.564L912.565,100.291z M914.19,99.189l-0.568-0.563l-0.563,0.563l0.563,0.569L914.19,99.189z
				 M914.121,97.531l0.563,0.563l0.286-0.287c-0.111-0.254-0.244-0.498-0.393-0.732L914.121,97.531z M915.247,100.854l-0.563-0.563
				l-0.563,0.563l0.563,0.564L915.247,100.854z M792.253,120.534v10.858h3.5c-0.237-0.931-0.193-1.91,0.127-2.816
				c0.321-0.904,0.903-1.693,1.673-2.268c2.891-2.35,5.104-1.686,5.545-3.51c0.44,1.824,2.655,1.16,5.545,3.51
				c0.771,0.573,1.354,1.362,1.674,2.268c0.319,0.906,0.364,1.887,0.127,2.816h3.5v-10.858H792.253z M803.099,86.311
				c-0.164,0-0.323,0.049-0.46,0.141c-0.136,0.092-0.242,0.221-0.306,0.372s-0.079,0.317-0.047,0.479s0.11,0.31,0.227,0.425
				s0.264,0.195,0.424,0.228c0.161,0.032,0.328,0.017,0.479-0.047c0.152-0.063,0.281-0.168,0.372-0.306
				c0.091-0.137,0.14-0.297,0.14-0.461c0-0.22-0.086-0.43-0.24-0.586c-0.154-0.154-0.363-0.242-0.582-0.244H803.099z
				 M804.305,80.514c-0.258-0.039-0.521-0.012-0.767,0.082c-0.244,0.094-0.459,0.248-0.625,0.451
				c-0.136,0.172-0.224,0.377-0.253,0.594c-0.03,0.217-0.001,0.438,0.083,0.641c0.086,0.201,0.224,0.378,0.4,0.51
				s0.385,0.214,0.603,0.238c0.241,0.037,0.488-0.002,0.707-0.11c0.261-0.114,0.484-0.298,0.647-0.53c0,0,0,0,0.032,0
				c-0.111,0.28-0.302,0.524-0.551,0.698c-0.249,0.173-0.543,0.269-0.846,0.272c-0.229,0.006-0.456-0.039-0.665-0.135
				c-0.209-0.094-0.395-0.233-0.542-0.408c-0.147-0.176-0.254-0.381-0.313-0.604c-0.057-0.223-0.063-0.454-0.02-0.679
				c0.043-0.226,0.138-0.438,0.273-0.621c0.137-0.183,0.313-0.335,0.517-0.44c0.202-0.106,0.427-0.166,0.655-0.175
				c0.229-0.009,0.456,0.035,0.666,0.126v0.032L804.305,80.514z M785.099,122.561c0,0,0.069-1.653-0.792-2.397
				c-0.747-0.651-1.57-1.209-2.453-1.659c-0.866,0.477-1.687,1.032-2.449,1.659c-0.86,0.7-0.796,2.397-0.796,2.397v4.563h6.489
				L785.099,122.561L785.099,122.561z M785.099,135.913c0,0,0.069-1.653-0.792-2.404c-0.746-0.651-1.569-1.206-2.453-1.653
				c-0.866,0.474-1.687,1.027-2.449,1.653c-0.86,0.708-0.796,2.404-0.796,2.404v1.34h6.489L785.099,135.913L785.099,135.913z
				 M787.255,113.732c0.021-0.387-0.106-0.767-0.354-1.063c-0.331-0.291-0.697-0.539-1.09-0.738
				c-0.385,0.211-0.75,0.459-1.089,0.738c-0.247,0.297-0.373,0.678-0.35,1.063H787.255z M783.298,113.732
				c0.021-0.387-0.105-0.767-0.355-1.063c-0.331-0.291-0.696-0.539-1.089-0.738c-0.386,0.211-0.75,0.459-1.089,0.738
				c-0.248,0.297-0.374,0.678-0.351,1.063H783.298z M779.341,113.732c0.021-0.387-0.106-0.767-0.354-1.063
				c-0.331-0.291-0.696-0.539-1.089-0.738c-0.376,0.213-0.732,0.461-1.063,0.738c-0.249,0.297-0.376,0.678-0.356,1.063H779.341z
				 M781.854,113.732h-6.634v2.49h13.278v-2.49H781.854z M781.854,110.436h-5.778v3.299h11.557v-3.299H781.854z M789.783,106.527
				l0.75-0.75l-1.397-1.397l-1.386,1.378l0.748,0.749L789.783,106.527z M771.577,122.561c0,0,0.069-1.653-0.797-2.397
				c-0.75-0.647-1.578-1.199-2.465-1.644c-0.865,0.478-1.686,1.032-2.448,1.658c-0.86,0.702-0.797,2.398-0.797,2.398v4.563h6.49
				L771.577,122.561z M771.577,135.913c0,0,0.069-1.653-0.797-2.404c-0.744-0.651-1.566-1.207-2.449-1.653
				c-0.866,0.474-1.686,1.027-2.448,1.653c-0.859,0.708-0.797,2.404-0.797,2.404v1.34h6.491V135.913L771.577,135.913z
				 M767.252,113.732h-4.514v2.49h11.186v-2.49H767.252z M765.086,110.436v3.299h6.469v-3.299H765.086z M765.995,103.814v6.621
				h4.651v-6.631L765.995,103.814z M762.729,116.223v21.041h11.186v-21.052L762.729,116.223z M770.089,102.082
				c-0.924-0.803-1.631-0.579-1.769-1.201c-0.144,0.622-0.851,0.398-1.773,1.201c-0.249,0.206-0.434,0.479-0.535,0.784
				c-0.101,0.308-0.114,0.636-0.039,0.948h4.689c0.08-0.313,0.069-0.644-0.03-0.953c-0.1-0.307-0.284-0.582-0.533-0.789
				L770.089,102.082z M761.474,137.236h1.265v-30.729h-1.265V137.236z M762.754,106.507l0.749-0.749l-1.396-1.398l-1.397,1.398
				l0.749,0.749H762.754z M753.858,100.886h-6.788l-1.063,36.367h8.923L753.858,100.886z M752.509,116.212v-2.304h-1.593v2.304
				H752.509z M749.986,116.212v-2.304h-1.595v2.304H749.986z M754.235,113.908h-0.792v2.304h0.865L754.235,113.908z
				 M746.587,116.212h0.866v-2.304h-0.797L746.587,116.212z M752.503,130.484v-2.299h-1.592v2.299H752.503z M749.98,130.484v-2.299
				h-1.594v2.299H749.98z M754.654,128.188h-1.211v2.297h1.285L754.654,128.188z M746.156,130.484h1.286v-2.299h-1.217
				L746.156,130.484z M754.846,97.249h-8.791v3.644h8.791V97.249z M753.821,93.611h-6.751v3.638h6.739L753.821,93.611z
				 M749.673,99.169c0.009-0.129-0.007-0.258-0.049-0.379c-0.043-0.123-0.11-0.233-0.197-0.329c-0.088-0.094-0.192-0.17-0.312-0.221
				s-0.246-0.078-0.374-0.078c-0.129,0-0.256,0.027-0.374,0.078s-0.225,0.127-0.313,0.221c-0.088,0.096-0.155,0.206-0.197,0.329
				c-0.042,0.121-0.06,0.25-0.05,0.379v1.724h1.865V99.169L749.673,99.169z M753.098,99.169c0.011-0.129-0.007-0.258-0.049-0.379
				c-0.042-0.123-0.109-0.233-0.197-0.329c-0.087-0.094-0.192-0.17-0.312-0.221c-0.118-0.051-0.245-0.078-0.374-0.078
				s-0.257,0.027-0.375,0.078s-0.224,0.127-0.311,0.221c-0.089,0.096-0.155,0.206-0.198,0.329c-0.042,0.121-0.06,0.25-0.05,0.379
				v1.724h1.863v-1.724H753.098z M751.382,95.525c-0.017-0.234-0.123-0.455-0.296-0.615s-0.4-0.25-0.636-0.25
				c-0.236,0-0.463,0.09-0.636,0.25c-0.174,0.16-0.279,0.381-0.298,0.615v1.724h1.864L751.382,95.525L751.382,95.525z
				 M863.579,137.236h-120.95v6.063h120.949L863.579,137.236L863.579,137.236z M821.088,127.135h6.491v-4.559
				c0,0,0.069-1.696-0.797-2.398c-0.757-0.627-1.571-1.184-2.433-1.658c-0.881,0.451-1.702,1.008-2.448,1.658
				c-0.861,0.746-0.796,2.398-0.796,2.398L821.088,127.135z M821.088,137.27h6.491v-1.34c0,0,0.069-1.701-0.797-2.404
				c-0.763-0.629-1.582-1.184-2.448-1.658c-0.881,0.451-1.703,1.008-2.448,1.658c-0.86,0.744-0.797,2.404-0.797,2.404
				L821.088,137.27L821.088,137.27z M821.837,113.732c0.022-0.387-0.104-0.768-0.356-1.063c-0.337-0.281-0.701-0.529-1.089-0.738
				c-0.392,0.199-0.758,0.447-1.088,0.738c-0.247,0.297-0.374,0.678-0.355,1.063H821.837z M825.794,113.732
				c0.022-0.387-0.104-0.768-0.356-1.063c-0.337-0.281-0.701-0.529-1.088-0.738c-0.392,0.199-0.758,0.447-1.089,0.738
				c-0.247,0.297-0.374,0.678-0.354,1.063H825.794z M829.751,113.732c0.022-0.387-0.104-0.768-0.356-1.063
				c-0.338-0.281-0.701-0.529-1.089-0.738c-0.391,0.199-0.757,0.447-1.088,0.738c-0.248,0.297-0.374,0.678-0.355,1.063H829.751z
				 M817.71,113.732v2.49h13.278v-2.49H817.71z M818.592,110.436v3.299h11.558v-3.299h-11.578H818.592z M819.064,110.432h10.623
				c0.171-0.711,0.14-1.455-0.091-2.147c-0.229-0.694-0.648-1.31-1.211-1.776c-2.087-1.813-3.686-1.304-4.005-2.712
				c-0.318,1.408-1.917,0.897-4.005,2.712c-0.567,0.463-0.994,1.077-1.229,1.771c-0.235,0.691-0.271,1.438-0.104,2.152H819.064z
				 M834.632,127.123h6.49v-4.557c0,0,0.068-1.696-0.792-2.398c-0.76-0.624-1.577-1.176-2.438-1.648
				c-0.88,0.451-1.702,1.008-2.447,1.658c-0.861,0.746-0.797,2.398-0.797,2.398L834.632,127.123z M834.632,137.258h6.49v-1.34
				c0,0,0.068-1.701-0.792-2.402c-0.765-0.629-1.586-1.184-2.454-1.66c-0.881,0.451-1.703,1.01-2.449,1.66
				c-0.859,0.744-0.796,2.402-0.796,2.402L834.632,137.258L834.632,137.258z M834.643,110.436v3.299h6.464v-3.299H834.643z
				 M835.546,103.814v6.621h4.652v-6.625L835.546,103.814z M851.251,137.285h8.955l-1.063-36.368h-6.798L851.251,137.285z
				 M855.288,116.244v-2.303h-1.593v2.303H855.288z M857.811,116.244v-2.303h-1.593v2.303H857.811z M855.298,130.516v-2.303h-1.594
				v2.303H855.298z M857.821,130.516v-2.303h-1.594v2.303H857.821z M859.983,128.213h-1.222v2.303h1.285L859.983,128.213z
				 M851.378,100.917h8.771v-3.668h-8.785L851.378,100.917z M852.398,97.275h6.739v-3.637h-6.755L852.398,97.275z M856.536,100.917
				h1.864v-1.755c-0.019-0.234-0.124-0.454-0.297-0.615c-0.173-0.16-0.399-0.249-0.637-0.249c-0.234,0-0.462,0.089-0.635,0.249
				c-0.173,0.161-0.279,0.381-0.296,0.615V100.917z M853.11,100.917h1.863v-1.755c-0.018-0.234-0.123-0.454-0.296-0.615
				c-0.173-0.16-0.399-0.249-0.636-0.249c-0.235,0-0.462,0.089-0.636,0.249c-0.172,0.161-0.278,0.381-0.296,0.615V100.917z
				 M854.82,97.275h1.864v-1.724c0.01-0.129-0.008-0.258-0.05-0.379s-0.108-0.233-0.197-0.327c-0.088-0.096-0.193-0.171-0.312-0.222
				c-0.117-0.054-0.245-0.079-0.373-0.079c-0.129,0-0.256,0.025-0.375,0.079c-0.118,0.051-0.224,0.126-0.311,0.222
				c-0.089,0.094-0.155,0.206-0.198,0.327c-0.042,0.121-0.06,0.25-0.049,0.379V97.275z M950.131,105.672
				c-1.005-0.023-2.005,0.153-2.941,0.52c-0.938,0.363-1.794,0.91-2.519,1.607c0.289,0.768,0.74,1.463,1.323,2.04
				c0.581,0.577,1.28,1.022,2.05,1.306h4.174c0.77-0.283,1.468-0.729,2.05-1.306s1.033-1.272,1.323-2.04
				c-0.727-0.695-1.584-1.242-2.521-1.605s-1.938-0.539-2.943-0.516L950.131,105.672z M953.786,98.59v-2.818
				c0,0-1.243-0.92-3.654-0.92s-3.659,0.92-3.659,0.92v2.818h-0.53v2.334c0.001,0.252,0.058,0.501,0.166,0.729
				c0.107,0.229,0.265,0.43,0.461,0.59l1.815,1.488h3.548l1.812-1.488c0.195-0.16,0.354-0.36,0.462-0.588
				c0.107-0.229,0.165-0.479,0.165-0.73V98.59H953.786z M699.035,119.652c1.359,1.558,8.706,7.857,10.771,9.625
				c0.169,0.146,0.304,0.326,0.396,0.531c0.091,0.203,0.138,0.426,0.136,0.647v12.837h7.808v-12.837
				c-0.002-0.224,0.045-0.444,0.137-0.647c0.092-0.205,0.227-0.386,0.395-0.531c2.066-1.768,9.412-8.067,10.771-9.625
				c1.594-1.81-2.209-6.687-15.223-6.687c-13.013,0-16.814,4.877-15.232,6.687H699.035z M654.43,69.57l-4.036,2.617l4.036,1.148
				V69.57z"/>
			<path fill="none" stroke="#FBC311" stroke-linecap="round" stroke-linejoin="round" d="M855.76,54.331h45.65 M787.75,16.32
				h32.723 M766.631,70.709h-17.644 M845.356,37.08h-29.378 M678.836,40.804h18.69 M954.997,39.053c0-0.063,0-0.127,0-0.196
				c0-1.206-0.479-2.363-1.33-3.215c-0.852-0.853-2.007-1.332-3.211-1.332c-0.404,0-0.806,0.057-1.195,0.165
				c-0.048-0.816-0.285-1.611-0.693-2.32c-0.409-0.71-0.978-1.313-1.66-1.764c-0.684-0.45-1.462-0.734-2.274-0.831
				c-0.812-0.095-1.635-0.001-2.403,0.278c-1.15-1.101-2.593-1.848-4.153-2.151c-1.563-0.305-3.178-0.154-4.656,0.434
				c-1.479,0.589-2.758,1.588-3.686,2.882c-0.929,1.295-1.465,2.829-1.548,4.419c-0.201-0.039-0.405-0.062-0.61-0.063
				c-0.928,0-1.817,0.368-2.473,1.024c-0.656,0.656-1.026,1.546-1.027,2.475c0,0.069,0,0.133,0,0.196L954.997,39.053L954.997,39.053
				z M837.218,67.411c0.558-0.852,0.873-1.837,0.915-2.854c0.042-1.018-0.19-2.026-0.675-2.921c-0.484-0.896-1.2-1.644-2.074-2.165
				c-0.873-0.521-1.871-0.796-2.887-0.796c-0.238,0.003-0.476,0.019-0.711,0.048c-0.128-1.789-0.778-3.503-1.869-4.926
				c-1.091-1.424-2.575-2.496-4.269-3.084c-1.693-0.586-3.522-0.663-5.26-0.219c-1.735,0.443-3.305,1.387-4.511,2.714
				c-0.908-1.257-2.19-2.194-3.665-2.676c-1.473-0.482-3.062-0.484-4.536-0.008c-1.475,0.479-2.761,1.412-3.673,2.667
				c-0.912,1.256-1.404,2.768-1.404,4.319c0,0.209,0.012,0.419,0.032,0.628H802.6c-1.146-0.002-2.258,0.405-3.135,1.148
				c-0.875,0.743-1.458,1.773-1.645,2.908c-0.875,0.193-1.658,0.68-2.219,1.379c-0.563,0.698-0.87,1.568-0.872,2.465
				c0.003,0.469,0.088,0.934,0.25,1.372L837.218,67.411L837.218,67.411z M875.545,16.32c0.385-0.582,0.59-1.264,0.589-1.962
				c0-0.953-0.378-1.867-1.051-2.542c-0.673-0.674-1.587-1.053-2.54-1.053c-0.153,0-0.305,0.011-0.456,0.032
				c-0.088-1.137-0.505-2.221-1.2-3.123c-0.694-0.9-1.639-1.58-2.713-1.953c-1.075-0.372-2.234-0.423-3.338-0.145
				c-1.104,0.277-2.101,0.872-2.872,1.711c-0.578-0.806-1.396-1.406-2.338-1.716c-0.941-0.309-1.956-0.311-2.898-0.004
				c-0.941,0.307-1.763,0.906-2.342,1.711c-0.58,0.803-0.889,1.771-0.884,2.763c0,0.138,0,0.271,0,0.404
				c-0.729,0.001-1.433,0.26-1.988,0.732c-0.556,0.473-0.926,1.127-1.044,1.847c-0.35,0.077-0.678,0.229-0.964,0.444
				c-0.286,0.215-0.521,0.489-0.693,0.803c-0.173,0.315-0.274,0.662-0.302,1.02c-0.025,0.356,0.024,0.716,0.148,1.052L875.545,16.32
				z M678.677,13.965c0.104-0.28,0.158-0.578,0.159-0.877c-0.001-0.571-0.198-1.124-0.557-1.568
				c-0.358-0.443-0.857-0.752-1.414-0.873c-0.116-0.721-0.486-1.377-1.041-1.852c-0.557-0.473-1.264-0.732-1.992-0.732
				c0-0.134,0-0.267,0-0.398c-0.001-0.989-0.314-1.952-0.896-2.752c-0.582-0.799-1.399-1.394-2.34-1.697
				c-0.938-0.305-1.951-0.302-2.89,0.005c-0.938,0.308-1.756,0.904-2.335,1.704c-0.771-0.838-1.771-1.432-2.874-1.71
				c-1.104-0.277-2.266-0.227-3.341,0.147c-1.075,0.375-2.019,1.055-2.712,1.957c-0.695,0.904-1.11,1.99-1.196,3.127
				c-0.149-0.021-0.301-0.033-0.452-0.033c-0.647,0-1.283,0.176-1.838,0.508c-0.556,0.332-1.013,0.807-1.321,1.377
				c-0.308,0.57-0.457,1.213-0.429,1.86c0.026,0.647,0.228,1.275,0.582,1.818L678.677,13.965z"/>
		</g>
	</g>
</g>
<ellipse fill="#FBC311" cx="427.282" cy="28.852" rx="26.494" ry="26.505"/>
</svg>
