<svg width="672" height="111" viewBox="0 0 672 111" fill="none" xmlns="http://www.w3.org/2000/svg">
<g clip-path="url(#clip0_245_1528)">
<path d="M615.381 41.571C610.972 40.2738 606.477 40.2738 601.723 40.3603C601.896 40.0144 601.982 39.755 602.068 39.4955C603.365 37.6795 604.748 35.9499 606.045 34.2204C606.218 33.9609 606.65 33.788 606.909 33.7015C611.404 33.0097 615.813 33.8745 620.048 35.2581C621.172 35.604 621.691 36.6417 621.431 37.766C621.172 38.7172 620.74 39.6685 620.221 40.4468C619.011 42.0034 617.714 43.387 616.331 44.7707C614.862 46.2408 612.874 46.8461 610.886 47.1921C608.811 47.6245 606.65 47.8839 604.489 48.1433C604.057 48.2298 603.624 47.9704 603.279 47.8839C603.624 47.6245 603.884 47.1921 604.229 47.0191C607.774 45.376 611.318 43.7329 614.862 42.0899C615.035 42.0034 615.208 41.9169 615.381 41.8304C615.381 41.8304 615.381 41.7439 615.381 41.571Z" fill="white"/>
<path d="M260.968 42.6955C256.56 41.3983 252.065 41.3983 247.311 41.4848C247.483 41.1389 247.57 40.8795 247.656 40.62C248.953 38.804 250.336 37.0744 251.633 35.3449C251.806 35.0854 252.238 34.9125 252.497 34.826C256.992 34.1342 261.401 34.999 265.636 36.3826C266.76 36.7285 267.279 37.7663 267.019 38.8905C266.76 39.8417 266.328 40.793 265.809 41.5713C264.599 43.1279 263.302 44.5115 261.919 45.8952C260.45 47.3653 258.462 47.9707 256.473 48.3166C254.399 48.749 252.238 49.0084 250.077 49.2678C249.644 49.3543 249.212 49.0949 248.866 49.0084C249.212 48.749 249.472 48.3166 249.817 48.1436C253.361 46.5005 256.906 44.8575 260.45 43.2144C260.623 43.1279 260.795 43.0414 260.968 42.9549C260.968 42.8685 260.968 42.782 260.968 42.6955Z" fill="white"/>
<path d="M593.77 14.4172C594.289 11.6499 594.634 9.05555 595.24 6.54769C595.585 5.07756 596.104 3.69392 596.796 2.39675C597.314 1.35901 598.179 1.18605 599.302 1.44549C601.982 2.22379 602.933 4.99109 601.204 7.15304C600.858 6.72065 600.426 6.28826 600.08 5.85587C598.957 4.5587 597.66 4.64517 597.141 6.28826C596.45 8.27725 596.104 10.4392 595.672 12.5147C595.326 14.3307 595.067 16.2332 594.807 18.1357C594.721 18.6546 594.462 19.087 594.289 19.5194C594.202 19.5194 594.029 19.5194 593.943 19.6059C593.597 19.0005 593.165 18.4817 592.992 17.8763C592.387 16.4927 592.041 15.0225 591.35 13.6389C590.745 12.3417 589.794 11.304 589.016 10.0933C588.929 10.1798 588.843 10.3527 588.756 10.4392C588.151 10.3527 587.546 10.3527 586.941 10.1798C586.509 10.0933 586.163 9.74738 585.731 9.57442C583.916 8.53668 583.397 7.32599 584.002 5.25052C584.261 4.38574 584.78 3.86687 585.731 4.12631C586.595 4.38574 587.633 4.81813 588.324 5.42348C590.312 7.15304 591.523 9.31499 592.646 11.6499C592.906 12.4282 593.251 13.3795 593.77 14.4172Z" fill="white"/>
<path d="M240.568 15.2819C241.087 12.5146 241.433 9.9203 242.038 7.41244C242.383 5.94231 242.902 4.55866 243.594 3.26149C244.112 2.22376 244.977 2.0508 246.1 2.31023C248.78 3.08854 249.731 5.85583 248.002 8.01778C247.656 7.58539 247.224 7.153 246.878 6.72061C245.755 5.42344 244.458 5.50992 243.939 7.153C243.248 9.142 242.902 11.3039 242.47 13.3794C242.124 15.1955 241.865 17.098 241.605 19.0005C241.519 19.5194 241.26 19.9517 241.087 20.3841C241 20.3841 240.827 20.3841 240.741 20.4706C240.395 19.8653 239.963 19.3464 239.79 18.7411C239.185 17.3574 238.839 15.8873 238.148 14.5036C237.543 13.2065 236.592 12.1687 235.814 10.958C235.727 11.0445 235.641 11.2175 235.554 11.3039C234.949 11.2175 234.344 11.2175 233.739 11.0445C233.307 10.958 232.961 10.6121 232.529 10.4392C230.714 9.40143 230.195 8.19074 230.8 6.11527C231.059 5.25049 231.578 4.73162 232.529 4.99105C233.393 5.25049 234.431 5.68288 235.122 6.28822C237.11 8.01778 238.321 10.1797 239.444 12.5146C239.704 13.2929 240.049 14.1577 240.568 15.2819Z" fill="white"/>
<path d="M668.542 49.5269C668.629 49.8728 668.715 50.2188 668.715 50.5647C668.542 51.6889 668.456 52.8131 668.024 53.8508C667.764 54.5426 667.073 55.2345 666.468 55.5804C665.258 56.3587 664.22 56.0128 663.529 54.8021C662.146 52.5537 661.8 50.1323 662.232 47.6244C662.837 43.9923 663.702 40.2738 664.566 36.7282C664.825 35.7769 665.43 34.9121 665.949 34.0474C666.122 34.1338 666.295 34.1338 666.381 34.2203C666.295 34.7392 666.208 35.3445 666.035 35.8634C664.912 40.1873 663.788 44.4247 663.961 48.9216C663.961 49.6134 664.047 50.3917 664.307 50.9971C664.566 51.5159 665.171 52.2077 665.603 52.2942C666.208 52.2942 666.986 51.8618 667.419 51.343C667.851 50.9106 668.024 50.1323 668.283 49.5269C668.283 49.5269 668.456 49.5269 668.542 49.5269Z" fill="white"/>
<path d="M646.672 27.9942C646.759 28.3401 646.845 28.686 646.845 29.0319C646.672 30.1562 646.586 31.2804 646.154 32.3181C645.894 33.0099 645.203 33.7018 644.598 34.0477C643.388 34.826 642.35 34.4801 641.659 33.2694C640.276 31.0209 639.93 28.5996 640.362 26.0917C640.967 22.4596 641.832 18.7411 642.696 15.1955C642.955 14.2442 643.56 13.3794 644.079 12.5146C644.252 12.6011 644.425 12.6011 644.511 12.6876C644.425 13.2065 644.338 13.8118 644.166 14.3307C643.042 18.6546 641.918 22.892 642.091 27.3889C642.091 28.0807 642.177 28.859 642.437 29.4643C642.696 29.9832 643.301 30.675 643.733 30.7615C644.338 30.7615 645.116 30.3291 645.549 29.8102C645.981 29.3779 646.154 28.5996 646.413 27.9942C646.413 27.9077 646.586 27.9077 646.672 27.9942Z" fill="white"/>
<path d="M593.078 45.2896C593.165 45.6355 593.251 45.9814 593.251 46.3274C593.078 47.4516 592.992 48.5758 592.56 49.6135C592.3 50.3053 591.609 50.9972 591.004 51.3431C589.794 52.1214 588.756 51.7755 588.065 50.5648C586.682 48.3163 586.336 45.895 586.768 43.3871C587.373 39.755 588.238 36.0365 589.102 32.4909C589.361 31.5396 589.966 30.6748 590.485 29.8101C590.658 29.8965 590.831 29.8965 590.917 29.983C590.831 30.5019 590.744 31.1072 590.572 31.6261C589.448 35.95 588.324 40.1874 588.497 44.6843C588.497 45.3761 588.583 46.1544 588.843 46.7597C589.102 47.2786 589.707 47.9704 590.139 48.0569C590.744 48.0569 591.522 47.6245 591.955 47.1057C592.387 46.6733 592.56 45.895 592.819 45.2896C592.819 45.2031 592.992 45.2031 593.078 45.2896Z" fill="white"/>
<path d="M556.773 60.8555C556.859 61.2014 556.946 61.5474 556.946 61.8933C556.773 63.0175 556.686 64.1417 556.254 65.1794C555.995 65.8713 555.303 66.5631 554.698 66.909C553.488 67.6873 552.451 67.3414 551.759 66.1307C550.376 63.8823 550.03 61.4609 550.462 58.953C551.068 55.3209 551.932 51.6024 552.796 48.0568C553.056 47.1055 553.661 46.2408 554.179 45.376C554.352 45.4625 554.525 45.4625 554.612 45.5489C554.525 46.0678 554.439 46.6731 554.266 47.192C553.142 51.5159 552.018 55.7533 552.191 60.2502C552.191 60.942 552.278 61.7203 552.537 62.3257C552.796 62.8445 553.402 63.5364 553.834 63.6228C554.439 63.6228 555.217 63.1904 555.649 62.6716C556.081 62.2392 556.254 61.4609 556.513 60.8555C556.513 60.7691 556.686 60.7691 556.773 60.8555Z" fill="white"/>
<path d="M553.315 16.752C553.402 17.0979 553.488 17.4438 553.488 17.7898C553.315 18.914 553.229 20.0382 552.797 21.0759C552.537 21.7677 551.846 22.4596 551.241 22.8055C550.03 23.5838 548.993 23.2379 548.302 22.0272C546.919 19.7788 546.573 17.3574 547.005 14.8495C547.61 11.2174 548.474 7.49888 549.339 3.95328C549.598 3.00202 550.203 2.13724 550.722 1.27246C550.895 1.35894 551.068 1.35894 551.154 1.44542C551.068 1.96428 550.981 2.56963 550.808 3.0885C549.685 7.4124 548.561 11.6498 548.734 16.1467C548.734 16.8385 548.82 17.6168 549.08 18.2221C549.339 18.741 549.944 19.4328 550.376 19.5193C550.981 19.5193 551.759 19.0869 552.191 18.5681C552.624 18.1357 552.797 17.3574 553.056 16.752C553.056 16.6655 553.229 16.6655 553.315 16.752Z" fill="white"/>
<path d="M285.259 16.9249C285.345 17.2708 285.431 17.6167 285.431 17.9626C285.259 19.0868 285.172 20.211 284.74 21.2488C284.481 21.9406 283.789 22.6324 283.184 22.9783C281.974 23.7566 280.936 23.4107 280.245 22.2C278.862 19.9516 278.516 17.5302 278.948 15.0224C279.553 11.3903 280.418 7.67173 281.282 4.12613C281.542 3.17487 282.147 2.31009 282.665 1.44531C282.838 1.53179 283.011 1.53179 283.098 1.61827C283.011 2.13714 282.925 2.74248 282.752 3.26135C281.628 7.58525 280.504 11.8227 280.677 16.3195C280.677 17.0114 280.764 17.7897 281.023 18.395C281.282 18.9139 281.887 19.6057 282.32 19.6922C282.925 19.6922 283.703 19.2598 284.135 18.7409C284.567 18.3085 284.74 17.5302 284.999 16.9249C284.999 16.9249 285.086 16.9249 285.259 16.9249Z" fill="white"/>
<path d="M179.194 37.8526C179.281 38.1985 179.367 38.5444 179.367 38.8903C179.194 40.0146 179.108 41.1388 178.675 42.1765C178.416 42.8683 177.725 43.5602 177.12 43.9061C175.909 44.6844 174.872 44.3385 174.18 43.1278C172.797 40.8793 172.452 38.458 172.884 35.9501C173.489 32.318 174.353 28.5995 175.218 25.0539C175.477 24.1026 176.082 23.2378 176.601 22.373C176.774 22.4595 176.947 22.4595 177.033 22.546C176.947 23.0649 176.86 23.6702 176.687 24.1891C175.564 28.513 174.44 32.7504 174.613 37.2473C174.613 37.9391 174.699 38.7174 174.958 39.3227C175.218 39.8416 175.823 40.5334 176.255 40.6199C176.86 40.6199 177.638 40.1875 178.07 39.6686C178.503 39.2363 178.675 38.458 178.935 37.8526C178.935 37.8526 179.108 37.8526 179.194 37.8526Z" fill="white"/>
<path d="M569.134 95.1873C569.221 94.8414 569.307 94.4955 569.566 94.236C570.258 93.3712 570.949 92.42 571.814 91.7282C572.419 91.2958 573.283 91.0363 574.061 90.9499C575.444 90.8634 576.222 91.6417 576.309 93.1118C576.395 95.7062 575.531 98.0411 573.975 100.03C571.641 102.97 569.134 105.738 566.627 108.418C565.936 109.11 564.985 109.543 564.12 110.062C564.034 109.889 563.948 109.802 563.775 109.629C564.12 109.197 564.466 108.764 564.812 108.332C567.837 105.132 570.949 101.933 573.024 97.9546C573.37 97.3492 573.715 96.6574 573.715 95.9656C573.802 95.3602 573.629 94.4955 573.197 94.236C572.678 93.8901 571.814 93.9766 571.209 94.1495C570.604 94.3225 570.085 94.9279 569.566 95.2738C569.393 95.3602 569.221 95.2738 569.134 95.1873Z" fill="white"/>
<path d="M442.669 95.4471C442.756 95.1011 442.842 94.7552 443.102 94.4958C443.793 93.631 444.485 92.6798 445.349 91.9879C445.954 91.5555 446.819 91.2961 447.597 91.2096C448.98 91.1232 449.758 91.9015 449.844 93.3716C449.931 95.9659 449.066 98.3008 447.51 100.29C445.176 103.23 442.669 105.997 440.163 108.678C439.471 109.37 438.52 109.802 437.656 110.321C437.569 110.148 437.483 110.062 437.31 109.889C437.656 109.456 438.002 109.024 438.347 108.592C441.373 105.392 444.485 102.192 446.559 98.2144C446.905 97.609 447.251 96.9172 447.251 96.2254C447.337 95.62 447.164 94.7552 446.732 94.4958C446.214 94.1499 445.349 94.2364 444.744 94.4093C444.139 94.5823 443.62 95.1876 443.102 95.5335C442.929 95.5335 442.756 95.4471 442.669 95.4471Z" fill="white"/>
<path d="M430.567 38.977C430.567 39.2365 430.74 39.5824 430.654 39.8418C430.481 40.7931 430.395 41.7443 430.049 42.5226C429.789 43.128 429.271 43.6468 428.752 43.9927C427.801 44.5981 426.937 44.3387 426.332 43.3874C425.208 41.5714 424.949 39.4959 425.294 37.4204C425.813 34.3937 426.505 31.367 427.196 28.3402C427.369 27.5619 427.888 26.8701 428.32 26.0918C428.493 26.1783 428.579 26.1783 428.752 26.2648C428.666 26.6971 428.579 27.1295 428.493 27.6484C427.628 31.194 426.591 34.7396 426.764 38.4582C426.764 39.0635 426.85 39.6688 427.023 40.1877C427.196 40.6201 427.715 41.2254 428.061 41.2254C428.579 41.2254 429.184 40.8795 429.53 40.4471C429.876 40.1012 430.049 39.4959 430.222 38.977C430.308 38.977 430.481 38.977 430.567 38.977Z" fill="white"/>
<path d="M431 13.4656C431 13.7251 431.173 13.9845 431.086 14.244C430.913 15.1087 430.827 15.9735 430.568 16.7518C430.395 17.2707 429.876 17.7895 429.357 18.049C428.407 18.6543 427.629 18.3949 427.11 17.4436C426.073 15.7141 425.813 13.898 426.159 11.9955C426.591 9.22823 427.283 6.46093 427.888 3.69364C428.061 3.00181 428.579 2.30999 428.925 1.61816C429.012 1.70464 429.185 1.70464 429.271 1.79112C429.185 2.22351 429.098 2.6559 429.012 3.00181C428.147 6.28798 427.283 9.48766 427.456 12.9468C427.456 13.4656 427.542 14.071 427.715 14.5034C427.888 14.9358 428.32 15.4546 428.666 15.4546C429.098 15.4546 429.703 15.1087 430.049 14.7628C430.395 14.4169 430.481 13.8116 430.74 13.3792C430.74 13.4656 430.913 13.4656 431 13.4656Z" fill="white"/>
<path d="M617.801 10.7849C617.801 11.0443 617.887 11.2173 617.887 11.4767C617.801 12.1685 617.714 12.9468 617.455 13.5522C617.282 13.9845 616.85 14.4169 616.418 14.6764C615.64 15.1952 614.948 14.9358 614.516 14.1575C613.652 12.6874 613.392 11.1308 613.652 9.48769C614.084 7.15279 614.602 4.81788 615.121 2.48298C615.294 1.87763 615.726 1.35876 615.985 0.753418C616.072 0.753418 616.158 0.839896 616.331 0.839896C616.245 1.18581 616.245 1.53172 616.158 1.87763C615.467 4.64493 614.689 7.41222 614.775 10.266C614.775 10.6984 614.775 11.2173 615.035 11.5632C615.208 11.9091 615.553 12.3415 615.899 12.3415C616.331 12.3415 616.763 12.082 617.023 11.7361C617.282 11.4767 617.369 10.9578 617.628 10.5254C617.628 10.7849 617.714 10.7849 617.801 10.7849Z" fill="white"/>
<path d="M496.004 103.316C496.004 103.576 496.177 103.922 496.091 104.181C495.918 105.132 495.831 106.084 495.486 106.862C495.226 107.467 494.708 107.986 494.189 108.332C493.238 108.937 492.374 108.678 491.769 107.727C490.645 105.911 490.385 103.835 490.731 101.76C491.25 98.733 491.941 95.7063 492.633 92.6796C492.806 91.9013 493.325 91.2095 493.757 90.4312C493.93 90.5176 494.016 90.5176 494.189 90.6041C494.102 91.0365 494.016 91.4689 493.93 91.9878C493.065 95.5333 492.028 99.0789 492.201 102.798C492.201 103.403 492.287 104.008 492.46 104.527C492.633 104.959 493.152 105.565 493.497 105.565C494.016 105.565 494.621 105.219 494.967 104.786C495.313 104.441 495.486 103.749 495.658 103.316C495.831 103.316 495.918 103.316 496.004 103.316Z" fill="white"/>
<path d="M479.58 22.7187C479.58 22.9782 479.753 23.3241 479.667 23.5835C479.494 24.5348 479.407 25.486 479.061 26.2643C478.802 26.8697 478.284 27.3885 477.765 27.7344C476.814 28.3398 475.95 28.0804 475.344 27.1291C474.221 25.3131 473.961 23.2376 474.307 21.1621C474.826 18.1354 475.517 15.1087 476.209 12.0819C476.382 11.3036 476.9 10.6118 477.333 9.8335C477.506 9.91997 477.592 9.91997 477.765 10.0065C477.678 10.4388 477.592 10.8712 477.506 11.3901C476.641 14.9357 475.604 18.4813 475.777 22.1998C475.777 22.8052 475.863 23.4105 476.036 23.9294C476.209 24.3618 476.728 24.9671 477.073 24.9671C477.592 24.9671 478.197 24.6212 478.543 24.1888C478.889 23.8429 479.062 23.2376 479.234 22.7187C479.407 22.7187 479.494 22.7187 479.58 22.7187Z" fill="white"/>
<path d="M373.429 42.8681C373.429 43.1276 373.602 43.4735 373.516 43.7329C373.343 44.6842 373.256 45.6354 372.911 46.4137C372.651 47.0191 372.133 47.5379 371.614 47.8839C370.663 48.4892 369.799 48.2298 369.194 47.2785C368.07 45.4625 367.811 43.387 368.156 41.3115C368.675 38.2848 369.367 35.2581 370.058 32.2313C370.231 31.453 370.75 30.7612 371.182 29.9829C371.355 30.0694 371.441 30.0694 371.614 30.1559C371.528 30.5883 371.441 31.0206 371.355 31.5395C370.49 35.0851 369.453 38.6307 369.626 42.3493C369.626 42.9546 369.712 43.56 369.885 44.0788C370.058 44.5112 370.577 45.1166 370.922 45.1166C371.441 45.1166 372.046 44.7706 372.392 44.3383C372.738 43.9923 372.911 43.387 373.084 42.8681H373.429Z" fill="white"/>
<path d="M244.285 59.9912C244.285 60.2506 244.458 60.5965 244.371 60.856C244.199 61.8072 244.112 62.7585 243.766 63.5368C243.507 64.1421 242.988 64.661 242.47 65.0069C241.519 65.6122 240.654 65.3528 240.049 64.4016C238.926 62.5855 238.666 60.51 239.012 58.4346C239.531 55.4078 240.222 52.3811 240.914 49.3544C241.087 48.5761 241.605 47.8843 242.037 47.106C242.21 47.1924 242.297 47.1924 242.47 47.2789C242.383 47.7113 242.297 48.1437 242.21 48.6626C241.346 52.2082 240.309 55.7538 240.482 59.4723C240.482 60.0777 240.568 60.683 240.741 61.2019C240.914 61.6343 241.432 62.2396 241.778 62.2396C242.297 62.2396 242.902 61.8937 243.248 61.4613C243.593 61.1154 243.766 60.51 243.939 59.9912C244.112 59.9912 244.199 59.9912 244.285 59.9912Z" fill="white"/>
<path d="M146.778 48.1433C146.865 48.8351 147.124 49.6134 147.038 50.2187C146.692 52.4672 146.519 54.7156 145.741 56.7911C145.222 58.1747 144.099 59.4719 142.975 60.3367C140.9 61.8068 139.085 61.2014 137.788 58.78C135.368 54.3697 134.763 49.3539 135.455 44.3382C136.492 36.9876 138.048 29.7234 139.517 22.4593C139.949 20.5568 141.073 18.9137 141.851 17.0977C142.111 17.1841 142.37 17.3571 142.716 17.4436C142.543 18.5678 142.37 19.6055 142.197 20.7297C140.295 29.2911 138.221 37.8524 138.48 46.8461C138.566 48.2297 138.566 49.6999 139.085 50.9105C139.517 51.9483 140.555 53.4184 141.333 53.4184C142.37 53.4184 143.666 52.5536 144.531 51.6024C145.309 50.6511 145.568 49.181 146.087 47.9703C146.26 48.0568 146.519 48.0568 146.778 48.1433Z" fill="white"/>
<path d="M463.243 10.5253C467.997 8.96872 472.751 7.32564 477.505 5.85551C482.433 4.29891 487.273 2.74231 492.201 1.1857C492.46 1.09923 492.806 1.01275 493.065 0.92627C493.151 1.01275 493.238 1.09923 493.324 1.09923C492.633 2.65583 492.028 4.21243 491.163 5.59608C490.904 6.11495 490.126 6.54734 489.521 6.80677C475.085 11.736 460.649 16.5788 446.3 21.5945C429.703 27.3885 413.106 33.269 396.855 40.1008C395.731 40.5332 394.694 41.0521 393.57 41.4844C393.397 39.0631 395.558 35.7769 397.806 34.9121C419.416 25.9184 441.2 17.876 463.243 10.5253Z" fill="white"/>
<path d="M633.879 12.601C638.633 11.0444 643.388 9.40132 648.142 7.9312C653.069 6.37459 657.91 4.81799 662.837 3.26139C663.097 3.17491 663.442 3.08843 663.702 3.00195L663.961 3.17491C663.269 4.73151 662.664 6.28812 661.8 7.67176C661.541 8.19063 660.763 8.62302 660.158 8.88246C645.722 13.8117 631.286 18.6545 616.937 23.6702C600.34 29.4642 569.48 38.8903 553.229 45.7221C552.105 46.1545 551.068 46.6733 549.944 47.1057C549.858 44.6843 551.932 41.3982 554.18 40.5334C575.704 31.6262 611.75 19.9516 633.879 12.601Z" fill="white"/>
<path d="M627.742 50.3056C627.482 48.8354 627.655 47.5383 628.26 46.3276C628.433 45.9817 628.865 45.6358 629.298 45.4628C642.264 39.7553 655.49 34.7395 668.975 30.4156C669.234 30.3292 669.493 30.3292 669.752 30.2427C670.012 31.7128 668.888 33.7883 667.591 34.3071C660.417 36.988 653.156 39.5823 645.981 42.4361C640.016 44.8575 634.225 47.5383 628.347 50.1326C628.087 50.1326 628.001 50.1326 627.742 50.3056Z" fill="white"/>
<path d="M455.376 109.284C455.117 107.813 455.29 106.516 455.895 105.306C456.068 104.96 456.5 104.614 456.932 104.441C469.899 98.7333 483.124 93.7176 496.609 89.3937C496.869 89.3072 497.128 89.3072 497.387 89.2207C497.647 90.6908 496.523 92.7663 495.226 93.2852C488.052 95.966 480.79 98.5603 473.616 101.414C467.651 103.835 461.86 106.516 455.982 109.111C455.809 109.111 455.722 109.197 455.376 109.284Z" fill="white"/>
<path d="M194.235 109.629C193.976 108.159 194.149 106.862 194.754 105.651C194.927 105.305 195.359 104.959 195.791 104.787C208.757 99.079 221.983 94.0633 235.468 89.7394C235.727 89.6529 235.987 89.6529 236.246 89.5664C236.505 91.0365 235.381 93.112 234.085 93.6309C226.91 96.3117 219.649 98.906 212.474 101.76C206.51 104.181 200.718 106.862 194.84 109.456C194.667 109.456 194.581 109.543 194.235 109.629Z" fill="white"/>
<path d="M541.473 35.2582C541.905 34.9123 542.423 34.5664 542.856 34.3069C547.783 31.4532 552.71 28.6859 557.637 25.7456C561.873 23.1513 565.849 20.2975 569.307 16.7519C569.566 16.4925 569.739 16.233 569.999 15.9736C569.999 15.9736 569.999 15.8871 569.999 15.8006C569.221 15.2818 568.356 14.8494 567.578 14.3305C564.639 12.255 564.12 9.74718 566.109 6.72046C566.887 5.50976 567.924 4.47203 568.961 3.43429C569.393 3.0019 569.998 2.82895 570.517 2.56951C571.9 2.13712 572.851 2.56951 573.37 3.95316C574.234 6.20159 574.061 8.53649 573.716 10.8714C573.716 11.0444 573.629 11.1308 573.629 11.2173C573.197 12.9469 573.11 12.5145 574.666 13.1198C575.358 13.3793 576.049 13.6387 576.741 13.8981C577.26 14.0711 577.433 14.417 577.173 14.9359V15.0223C576.222 17.5302 576.049 17.6167 573.456 16.9249C571.468 16.3195 571.468 16.406 570.171 17.9626C567.751 20.9028 564.898 23.3242 561.787 25.5727C555.995 29.7236 549.771 33.0962 542.856 35.1717C542.423 35.2582 542.078 35.3447 541.645 35.4311C541.559 35.4311 541.559 35.3447 541.473 35.2582ZM572.073 12.428C572.246 11.1308 572.419 10.2661 572.419 9.3148C572.419 7.3258 571.295 6.46102 569.307 6.89341C568.443 7.06637 567.837 7.49876 567.578 8.36354C567.319 9.22832 567.665 10.0066 568.356 10.439C569.48 11.1308 570.69 11.6497 572.073 12.428Z" fill="white"/>
<path d="M158.016 25.6593C155.768 24.4486 154.818 26.0917 153.78 27.5618C153.089 25.5728 154.645 22.4596 156.892 21.2489C155.682 18.3086 154.212 15.5413 151.792 13.12C151.187 14.763 150.236 14.2442 149.372 13.7253C148.68 13.2929 147.989 12.8605 147.297 12.4281C145.309 11.131 144.963 10.0932 145.655 7.75833C146 6.54763 146.606 6.20172 147.902 6.54764C150.409 7.23946 152.311 8.88254 153.78 10.8715C155.077 12.6011 156.201 14.4171 157.67 16.2332C157.67 14.5901 157.584 12.947 157.67 11.3039C157.843 9.31493 157.929 7.32594 158.362 5.42342C159.053 2.65613 161.214 2.05078 163.548 3.69386C165.536 5.07751 165.882 6.2882 164.672 8.62311C164.326 8.27719 163.894 8.01776 163.548 7.58537C162.684 6.63411 161.56 6.2882 160.35 6.72059C159.14 7.0665 159.053 8.19072 158.967 9.31493C158.794 13.2929 158.535 17.2709 158.275 20.9895C159.918 22.3731 161.387 23.5838 162.943 24.881C163.808 25.5728 163.808 26.524 163.548 27.5618C163.202 28.5995 162.684 29.2049 161.56 29.4643C159.053 30.0696 156.46 30.9344 154.04 31.8857C152.484 32.491 152.397 33.0964 152.743 34.7395C154.212 42.3495 155.768 49.9596 157.152 57.5697C157.497 59.5586 157.843 61.4612 158.102 63.4502C158.189 64.142 158.016 64.9203 158.016 65.6986C157.929 65.6986 157.757 65.6986 157.67 65.7851C157.497 65.3527 157.238 64.9203 157.152 64.4879C156.201 59.5586 155.25 54.6294 154.212 49.7002C153.348 45.3763 152.397 41.1388 151.446 36.8149C150.323 31.7127 152.916 27.4753 157.238 26.0917C157.584 26.0052 157.757 25.8322 158.016 25.6593Z" fill="white"/>
<path d="M358.043 24.8809C355.795 23.6703 354.844 25.3133 353.807 26.7835C353.116 24.7945 354.672 21.6813 356.919 20.4706C355.709 17.5303 354.239 14.763 351.819 12.3416C351.214 13.9847 350.263 13.4659 349.399 12.947C348.707 12.5146 348.016 12.0822 347.324 11.6498C345.336 10.3526 344.99 9.31491 345.682 6.98001C346.027 5.76932 346.632 5.4234 347.929 5.76932C350.436 6.46114 352.338 8.10422 353.807 10.0932C355.104 11.8228 356.227 13.6388 357.697 15.4549C357.697 13.8118 357.611 12.1687 357.697 10.5256C357.87 8.53661 357.956 6.54762 358.389 4.6451C359.08 1.87781 361.241 1.27246 363.575 2.91554C365.563 4.29919 365.909 5.50988 364.699 7.84479C364.353 7.49887 363.921 7.23944 363.575 6.80705C362.711 5.85579 361.587 5.50988 360.377 5.94227C359.167 6.28818 359.08 7.4124 358.994 8.53661C358.821 12.5146 358.561 16.4926 358.302 20.2111C359.945 21.5948 361.414 22.8055 362.97 24.1026C363.834 24.7945 363.834 25.7457 363.575 26.7835C363.229 27.8212 362.711 28.4265 361.587 28.686C359.08 29.2913 356.487 30.1561 354.066 31.1074C352.511 31.7127 352.424 32.3181 352.77 33.9611C354.239 41.5712 355.795 49.1813 357.178 56.7913C357.524 58.7803 357.87 60.6828 358.129 62.6718C358.216 63.3637 358.043 64.142 358.043 64.9203C357.956 64.9203 357.783 64.9203 357.697 65.0067C357.524 64.5743 357.265 64.142 357.178 63.7096C356.228 58.7803 355.277 53.8511 354.239 48.9218C353.375 44.5979 352.424 40.3605 351.473 36.0366C350.349 30.9344 352.943 26.697 357.265 25.3133C357.611 25.2269 357.783 25.0539 358.043 24.8809Z" fill="white"/>
<path d="M263.735 90.2583C263.648 90.5177 263.648 90.8636 263.562 91.1231C263.216 91.9014 263.562 92.4202 264.167 92.7661C264.858 93.1985 265.55 93.0256 266.241 92.7661C266.328 92.7661 266.241 92.2473 266.155 92.0743C265.809 91.469 266.241 89.6529 266.933 89.48C267.106 89.48 267.452 89.7394 267.538 89.9124C268.23 91.1231 267.538 94.4957 266.587 95.447C265.723 96.2253 263.907 96.3117 262.957 95.3605C262.351 94.8416 262.006 95.0146 261.573 95.447C259.758 97.263 257.943 97.6089 255.695 96.4847C253.189 95.1875 250.855 95.7064 248.694 97.1765C246.014 99.079 243.507 101.068 240.914 103.057C236.938 105.997 232.443 107.9 227.602 108.938C227.256 109.024 226.824 109.024 226.478 109.024C226.478 108.938 226.392 108.851 226.392 108.678C226.91 108.505 227.429 108.246 227.948 108.073C230.022 107.208 232.183 106.343 234.258 105.392C237.888 103.576 241 101.155 243.939 98.3872C246.1 96.3982 248.521 94.7551 251.2 93.5444C253.016 92.6797 254.745 92.6797 256.387 93.8039C258.116 94.9281 260.623 94.3228 261.66 92.5932C262.006 92.0743 262.265 91.3825 262.611 90.8636C262.87 90.5177 263.216 90.3448 263.475 90.0853C263.562 90.1718 263.648 90.1718 263.735 90.2583Z" fill="white"/>
<path d="M626.445 95.447C626.704 96.8307 626.445 97.609 625.321 98.1278C622.901 99.1656 620.999 100.895 619.184 102.711C618.579 103.317 617.801 104.008 618.233 105.046C618.579 105.997 619.616 106.084 620.48 106.17C623.247 106.516 625.84 105.824 628.347 104.787C628.865 104.614 629.384 104.441 629.816 104.354C629.903 104.441 629.903 104.527 629.903 104.614C629.816 104.787 629.643 105.046 629.557 105.219C626.877 108.159 623.42 109.37 619.53 109.024C619.184 109.024 618.838 108.938 618.492 108.851C616.763 108.332 616.072 107.208 616.591 105.392C617.109 103.489 618.492 101.155 620.135 99.5115C619.703 99.1656 619.27 98.8197 618.925 98.4738C617.887 97.5225 617.801 96.5712 618.579 95.447C619.357 94.1499 620.394 93.0256 621.777 92.3338C622.382 91.9879 623.16 91.815 623.765 92.3338C624.37 92.8527 624.284 93.631 624.025 94.3228C623.852 94.7552 623.592 95.1011 623.42 95.5335C623.247 95.447 623.16 95.447 623.074 95.3606C622.296 94.2363 621.345 94.2363 620.394 95.1876C619.962 95.62 620.048 96.3118 620.74 96.6577C621.864 97.2631 623.074 97.436 624.284 96.7442C624.716 96.4848 625.062 96.1389 625.494 95.8794C625.667 95.7929 626.013 95.62 626.445 95.447Z" fill="white"/>
<path d="M341.792 45.5493C341.965 45.9817 342.224 46.3276 342.137 46.76C341.965 48.749 341.965 50.8244 341.532 52.8134C341.187 54.4565 339.976 55.5807 338.248 55.8402C336.519 56.0996 335.654 54.8889 334.876 53.6782C332.715 50.4785 332.542 46.9329 333.147 43.3873C333.666 40.3606 334.358 37.4203 335.222 34.4801C337.902 25.4864 337.21 17.1845 330.986 9.74739C330.295 8.88261 329.949 8.01783 330.381 6.9801C330.814 5.68293 331.246 4.38576 331.764 2.74268C332.456 3.52098 332.975 3.95337 333.32 4.47224C337.297 10.8716 339.112 17.8763 339.112 25.3999C339.112 30.1562 337.383 34.4801 336.173 38.977C335.568 41.3119 335.308 43.6468 335.049 46.0681C334.963 47.0194 335.136 48.0571 335.395 48.9219C335.741 50.2191 336.432 51.1703 337.988 51.0839C339.458 50.9974 340.409 50.1326 340.668 48.576C340.841 47.6248 341.014 46.6735 341.1 45.7222C341.359 45.5493 341.619 45.5493 341.792 45.5493Z" fill="white"/>
<path d="M405.24 104.786C405.759 104.959 406.191 105.132 406.537 105.305C409.13 106.689 411.81 106.862 414.662 106.257C418.898 105.305 423.133 104.527 427.369 103.662C427.456 103.662 427.628 103.576 427.715 103.576C427.628 102.279 426.505 101.241 424.949 101.241C423.998 101.241 422.961 101.327 422.01 101.5C419.589 101.933 417.255 102.538 414.922 102.884C413.711 103.057 412.415 103.057 411.205 102.538C410.599 102.279 410.34 101.846 410.254 101.154C409.994 98.733 410.945 96.6575 412.155 94.5821C413.193 92.766 414.403 91.0365 416.132 89.6528C416.564 89.3069 416.996 88.8745 417.515 89.2204C418.033 89.5663 418.12 90.1717 418.033 90.777C417.947 91.2959 417.774 91.8148 417.601 92.3336C416.65 91.6418 416.477 91.5553 415.613 92.4201C414.662 93.3714 413.798 94.4956 413.106 95.6198C412.415 96.6575 411.81 97.8682 411.377 98.9924C411.032 99.8572 411.291 100.29 412.242 100.29C413.711 100.29 415.267 100.203 416.737 99.9437C419.071 99.5978 421.405 98.906 423.739 98.5601C426.073 98.2141 427.888 99.4248 428.666 101.673C428.839 102.279 429.012 102.97 428.925 103.662C428.752 104.873 427.974 105.738 426.764 106.084C421.664 107.467 416.564 108.591 411.377 109.283C409.735 109.456 408.179 109.024 407.142 107.554C406.623 106.775 406.018 106.084 405.499 105.305C405.413 105.219 405.413 105.046 405.24 104.786Z" fill="white"/>
<path d="M631.977 109.283C633.965 108.505 636.04 107.727 638.028 106.948C644.079 104.44 650.217 101.933 656.268 99.2517C657.996 98.4734 659.639 97.3492 661.195 96.225C661.973 95.6197 662.491 94.5819 663.01 93.7172C663.961 92.42 664.739 90.9499 665.776 89.7392C666.641 88.7014 667.505 88.7014 668.542 89.6527C670.617 91.3823 670.963 94.236 670.098 96.4845C670.012 96.8304 669.407 97.1763 668.975 97.1763C667.159 97.2628 665.603 96.5709 664.134 95.6197C663.961 95.4467 663.788 95.3602 663.529 95.2738C663.442 95.2738 663.442 95.2738 663.269 95.1873C663.01 95.7926 662.837 96.398 662.578 97.0033C661.8 98.6464 660.417 99.6841 658.861 100.549C653.847 103.316 648.661 105.651 643.215 107.554C640.276 108.505 637.164 108.851 634.138 109.456C633.447 109.629 632.755 109.629 632.064 109.716C631.977 109.456 631.977 109.37 631.977 109.283ZM668.456 94.4955C668.629 92.5065 667.505 91.4687 666.035 91.9876C665.776 92.0741 665.517 92.42 665.344 92.6794C665.257 92.8524 665.517 93.1983 665.776 93.2848C666.554 93.7172 667.419 94.0631 668.456 94.4955Z" fill="white"/>
<path d="M173.835 94.6685C175.736 93.7173 177.725 92.766 179.626 91.8148C185.418 88.788 191.296 85.7613 197.088 82.5616C198.816 81.6104 200.286 80.3997 201.755 79.1025C202.533 78.4107 202.879 77.3729 203.398 76.5082C204.176 75.1245 204.867 73.6544 205.732 72.2707C206.51 71.1465 207.374 71.1465 208.498 71.9248C210.745 73.4814 211.264 76.2487 210.659 78.5836C210.573 78.9295 209.967 79.2755 209.622 79.3619C207.806 79.6214 206.164 79.1025 204.608 78.2377C204.435 78.1512 204.176 77.9783 204.003 77.8918C203.917 77.8918 203.917 77.8918 203.744 77.8918C203.571 78.4972 203.398 79.1025 203.139 79.7079C202.533 81.4374 201.237 82.5616 199.767 83.5994C195.013 86.799 189.999 89.6528 184.813 91.9012C181.96 93.1119 178.935 93.7173 175.909 94.5821C175.218 94.755 174.526 94.8415 173.835 95.0145C173.921 94.8415 173.921 94.755 173.835 94.6685ZM208.93 76.7676C208.93 74.7786 207.634 73.8274 206.25 74.4327C205.991 74.5192 205.732 74.8651 205.645 75.211C205.645 75.3839 205.905 75.7299 206.164 75.8163C207.028 76.0758 207.893 76.3352 208.93 76.7676Z" fill="white"/>
<path d="M492.633 24.881C491.855 24.881 491.336 24.9675 490.817 24.881C490.126 24.6216 489.434 24.2757 488.829 23.9298C487.36 22.9785 486.841 21.1625 487.619 19.6059C488.051 18.7411 488.916 18.4817 489.953 18.7411C491.941 19.26 492.979 20.7301 493.929 22.2867C494.967 24.0162 495.831 25.9188 496.782 27.7348C496.955 28.0807 497.214 28.5131 497.646 28.859C497.906 26.87 498.165 24.7945 498.597 22.8056C499.029 20.9895 499.462 19.087 500.24 17.4439C500.931 15.8873 502.055 15.6279 503.697 16.3197C506.031 17.4439 506.636 19.8653 504.908 21.7678C504.475 21.249 504.13 20.7301 503.611 20.2977C502.401 19.1735 501.277 19.26 500.845 20.903C500.24 22.892 499.894 24.881 499.462 26.9565C499.116 28.7725 499.03 30.7615 498.511 32.5776C497.819 35.3449 495.831 37.1609 493.584 38.7175C490.04 41.2254 486.15 43.0414 481.914 44.2521C481.741 44.3386 481.568 44.3386 481.309 44.425C481.222 44.3386 481.222 44.2521 481.136 44.1656C482.951 42.9549 484.68 41.5713 486.582 40.4471C489.694 38.631 492.719 36.642 495.485 34.3071C496.35 33.5288 496.609 33.01 496.177 31.7993C495.399 29.4644 494.535 27.3024 492.892 25.4864C492.892 25.1405 492.633 24.9675 492.633 24.881Z" fill="white"/>
<path d="M408.093 13.8981C408.525 11.5632 408.784 9.22827 409.303 6.89336C409.562 5.59619 410.081 4.3855 410.686 3.17481C411.204 2.05059 412.242 1.79116 413.366 2.31003C413.538 2.39651 413.625 2.48298 413.798 2.56946C415.959 3.78015 416.391 5.33676 414.921 7.58519C414.489 7.1528 414.144 6.72041 413.798 6.28802C412.674 4.99085 411.81 5.1638 411.032 6.63393C409.908 8.96883 409.821 11.4767 409.476 13.8981C409.303 15.1088 409.13 16.4059 408.871 17.6166C408.784 18.049 408.611 18.3949 408.352 19.0003C407.92 18.3949 407.574 18.049 407.401 17.6166C406.796 16.1465 406.277 14.5899 405.586 13.2063C404.981 12.082 404.116 11.0443 403.425 10.093C401.523 10.9578 398.843 9.05531 398.584 6.54745C394.694 11.9956 389.162 14.5899 383.284 16.7519C383.197 16.6654 383.197 16.5789 383.111 16.4924C383.37 16.3195 383.629 16.1465 383.889 15.9736C388.038 13.0333 392.274 10.093 396.423 7.1528C397.201 6.54745 397.892 5.85563 398.67 5.1638C399.621 4.29902 400.399 4.12607 401.437 4.90437C402.387 5.50971 403.338 6.20154 403.943 7.1528C405.154 8.88236 406.104 10.7849 407.142 12.6874C407.401 13.1198 407.574 13.5522 407.747 14.071C407.92 13.9846 408.006 13.8981 408.093 13.8981Z" fill="white"/>
<path d="M669.32 66.5633C667.937 64.6608 666.381 63.7095 664.652 63.8825C662.405 64.0554 660.33 65.785 658.602 68.9847C658.256 68.7253 657.996 68.6388 657.91 68.6388C657.305 69.4171 656.786 70.1954 656.354 70.8872C654.625 73.9139 653.156 76.0759 651.859 77.2001C650.217 78.7567 648.228 79.535 645.981 79.535C642.61 79.535 639.757 78.3243 637.423 75.9894C641.486 73.8275 644.511 72.3573 646.413 71.6655C646.673 71.579 647.191 70.6278 647.796 68.7253C648.401 66.9957 648.747 65.958 648.747 65.6121C648.747 65.1797 646.673 64.4014 642.61 63.2771C637.942 61.98 632.755 61.7205 627.137 62.3259C622.901 63.1042 620.221 63.796 619.098 64.2284C618.838 64.3149 618.32 65.1797 617.714 66.7363C617.109 68.1199 616.764 69.1577 616.677 69.6765C616.591 70.0224 616.677 70.2819 616.764 70.4548C616.936 70.5413 617.369 70.5413 617.801 70.3683C620.048 69.4171 622.037 69.5036 623.852 70.7143C625.062 71.4926 626.445 72.8762 628.001 74.6922C621.345 77.8054 617.196 79.8809 615.381 81.0051C612.096 83.0806 608.465 86.4533 604.489 90.8636C599.562 96.4847 596.709 99.5979 596.018 100.29C592.992 103.143 590.399 104.614 588.065 104.614C586.25 104.614 584.694 103.922 583.397 102.452C582.187 101.068 581.495 99.3385 581.495 97.263C581.495 93.7174 583.224 89.3935 586.682 84.2913C587.719 82.8212 588.151 82.0429 587.978 81.8699C587.633 81.4375 586.855 81.8699 585.731 83.1671C581.582 88.1828 579.421 93.1985 579.421 98.2143C579.421 100.982 580.026 103.489 581.322 105.651C583.051 108.419 585.472 109.802 588.843 109.802C591.436 109.802 594.202 108.592 596.968 106.084C598.611 104.614 601.118 101.846 604.489 97.6954C608.638 92.5932 612.355 88.9611 615.553 86.7992C617.801 85.2426 623.16 82.5617 631.805 78.5837C635.954 83.2536 640.189 85.5885 644.425 85.5885C649.179 85.5885 653.069 82.3023 656.181 75.6435C658.083 77.0271 660.33 78.3243 663.183 79.4485C665.69 80.4863 667.332 80.9187 668.11 80.8322C668.802 80.8322 669.666 79.8809 670.617 78.1514C671.568 76.5083 672.086 75.4705 672.086 74.9517C672 72.0979 671.136 69.1576 669.32 66.5633ZM630.508 69.0712C632.669 68.2929 635.608 68.3793 639.325 69.5036C636.991 70.7143 635.089 71.752 633.706 72.4438C632.15 70.6278 631.113 69.5036 630.508 69.0712ZM663.096 72.7897C661.454 72.0114 660.59 71.4926 660.676 71.2331C660.763 70.7143 661.368 70.4548 662.491 70.3683C663.183 70.2819 664.047 70.5413 665.085 71.1466C666.295 71.8385 666.986 72.7897 667.159 73.9139C666.122 73.9139 664.739 73.568 663.096 72.7897Z" fill="white"/>
<path d="M568.529 48.4893L575.099 52.3808L571.9 58.0883L565.331 54.1968L568.529 48.4893ZM602.155 70.3682C602.155 69.5034 600.858 68.0333 598.265 65.8713C595.24 63.1905 592.387 61.8069 589.707 61.8069C584.521 61.8069 578.297 66.4767 571.122 75.7298C573.629 76.5946 576.482 77.027 579.594 77.027C584.521 77.027 589.707 76.0757 595.067 74.1732C599.735 72.5301 602.155 71.233 602.155 70.3682ZM605.44 66.6496C605.44 67.9468 605.094 69.5899 604.402 71.6654C603.711 73.6544 602.933 75.1245 602.241 75.8163C599.821 78.2377 595.845 80.2267 590.485 81.6968C585.904 83.0805 581.582 83.6858 577.519 83.6858C574.666 83.6858 571.295 83.1669 567.405 82.0427C567.405 87.3179 566.368 91.3823 564.207 94.0632C562.392 96.571 557.81 99.7707 550.463 103.576C541.645 108.246 533.866 110.58 527.21 110.58C519.43 110.58 513.984 107.9 510.699 102.624C508.798 99.5978 507.847 96.3981 507.847 93.0254C507.847 88.8745 508.279 85.0694 509.23 81.6103C510.181 78.4971 510.959 77.027 511.477 77.2864C511.65 77.2864 511.737 77.3729 511.737 77.6323C511.737 77.3729 511.564 78.4106 511.131 80.7455C510.699 83.0805 510.526 85.7613 510.526 88.788C510.526 92.593 511.737 95.7927 514.157 98.3871C517.442 101.846 522.369 103.576 529.025 103.576C536.027 103.576 544.066 101.154 553.056 96.3116C560.663 92.2471 564.639 89.4798 565.071 88.0097C565.331 87.1449 565.071 85.2424 564.466 82.3886C563.602 79.016 562.392 76.2487 560.749 74.1732C560.663 74.1732 560.922 73.049 561.527 70.8871C562.132 68.6386 562.478 67.5144 562.564 67.5144C562.651 67.5144 562.91 67.9468 563.429 68.7251C564.034 69.8493 564.639 70.8006 565.158 71.5789C566.281 72.9625 567.492 73.9138 568.615 74.4327C571.295 70.4547 574.321 66.8226 577.605 63.3635C582.878 58.0018 587.546 55.321 591.523 55.321C594.894 55.321 598.092 56.7047 601.204 59.472C604.057 62.2393 605.44 64.5742 605.44 66.6496Z" fill="white"/>
<path d="M60.7687 70.3682C61.028 70.4547 60.8551 71.06 60.25 72.0978C55.6686 79.6213 49.9634 83.3399 43.221 83.3399C41.1463 83.3399 39.2446 82.821 37.5158 81.8698C35.6141 80.9185 34.6632 79.4484 34.6632 77.6324C34.6632 74.6056 35.6141 71.4059 37.6022 68.1198C40.2819 63.6229 41.665 61.1151 41.665 60.6827C41.665 60.2503 40.1955 59.9908 37.17 59.9044C32.5021 59.7314 30.1682 58.3478 30.1682 55.8399C30.1682 51.516 32.1564 46.5003 36.2192 40.7927C39.9362 35.6905 42.5294 33.0962 44.0854 33.0962V33.2691C44.0854 34.0474 43.7396 35.6905 42.9616 38.1119C42.0972 40.5333 41.4057 41.9169 40.9735 42.1764C36.6514 44.2519 34.4903 46.1544 34.4903 47.8839C34.4903 49.3541 36.4785 50.2188 40.4548 50.4783C44.7769 50.7377 46.938 51.689 46.938 53.1591C46.938 54.8886 45.7278 58.0019 43.221 62.4122C40.7141 66.9091 39.5039 69.6764 39.5039 70.8871C39.5039 71.7519 40.5412 72.6166 42.6159 73.3085C44.5176 74.0003 46.3329 74.4327 48.0617 74.4327C51.6058 74.4327 55.3228 73.222 59.1263 70.8006C59.9043 70.3682 60.4229 70.2817 60.7687 70.3682Z" fill="white"/>
<path d="M99.7542 42.6954C94.049 52.2944 89.9862 63.2771 87.5658 75.6435C86.4421 81.2645 85.7506 84.0318 85.4048 84.0318C84.7133 84.0318 83.6759 81.6105 82.4658 76.6812C78.403 61.807 73.0436 50.8243 66.1282 43.8196C65.7825 43.4737 65.7825 41.5711 66.1282 38.285C66.474 34.8259 66.8198 33.1828 67.252 33.1828C68.3757 33.1828 70.8825 36.6419 74.9453 43.6466C79.6132 51.6891 82.898 59.645 84.7132 67.3416C86.3556 59.1262 88.8625 50.9972 92.3201 42.9548C95.0863 36.296 96.9016 32.9233 97.5931 32.9233C97.9389 32.9233 98.4575 33.9611 99.0626 35.9501C99.6677 37.9391 100.013 39.7551 100.013 41.1387C100.013 41.9171 99.927 42.3494 99.7542 42.6954Z" fill="white"/>
<path d="M543.028 59.7313C540.176 42.6952 536.2 21.854 534.73 14.0709C535.94 15.2816 536.632 15.9735 536.978 16.3194C537.928 17.3571 538.62 17.7895 538.966 17.6165C539.311 17.3571 538.188 14.5033 535.681 9.05522C533.433 4.12597 532.137 1.70459 531.877 1.70459C531.791 1.70459 531.359 2.48289 530.84 3.95302C530.149 5.76906 529.63 7.1527 529.284 8.10396C529.198 8.44987 529.457 8.96874 530.235 9.66056C531.791 20.0379 534.816 36.1228 535.767 41.3115C539.052 60.0772 541.473 80.3131 542.337 88.2691C542.337 88.615 542.423 90.431 542.683 93.7172C542.769 95.2738 542.942 95.9656 543.288 95.9656C543.806 95.9656 544.412 94.1496 545.103 90.431C545.535 88.442 545.708 86.5395 545.708 84.637C545.535 81.6103 544.412 68.6386 543.028 59.7313Z" fill="white"/>
<path d="M341.532 100.203L348.102 104.008L351.3 98.3006L344.731 94.4956L341.532 100.203Z" fill="white"/>
<path d="M376.541 58.8668C375.331 57.1372 374.467 56.2725 373.948 56.2725C373.862 56.2725 373.689 57.3967 373.343 59.7316C372.997 62.0665 372.911 63.1907 372.997 63.1907C373.948 64.0555 374.985 65.2662 376.023 66.9092C377.06 68.5523 377.578 69.763 377.578 70.6278C377.578 71.4926 374.121 72.8762 367.292 74.7787C357.438 77.546 347.497 78.9297 337.556 78.9297C328.912 78.9297 322.688 77.2001 318.971 73.741C316.896 71.752 315.859 69.5036 315.859 67.0822C315.859 65.958 316.118 64.7473 316.55 63.3637C316.983 61.98 317.069 61.2017 316.637 61.0288C316.205 60.9423 315.513 62.153 314.476 64.7473C313.525 67.3416 313.006 69.4171 313.006 71.1467C313.006 74.4328 314.044 77.2866 316.205 79.708C320.095 83.7725 326.751 85.7615 336.173 85.7615C343.261 85.7615 351.214 84.7237 359.944 82.6482C369.021 80.5728 374.899 78.3243 377.492 75.903C379.048 74.5193 379.826 71.925 379.826 68.1199C379.826 66.1309 379.394 64.142 378.529 62.2394C378.27 61.4611 377.579 60.3369 376.541 58.8668Z" fill="white"/>
<path d="M411.982 50.046L418.379 53.851L421.578 48.1435L415.008 44.252L412.328 49.0082L405.845 45.2032L402.733 50.9108L409.303 54.8023L411.982 50.046Z" fill="white"/>
<path d="M516.664 14.8493C517.787 16.06 518.565 16.7518 518.825 17.0977C519.862 18.1354 520.467 18.5678 520.813 18.3949C520.813 18.3949 520.899 18.3084 520.899 18.2219C520.899 17.703 519.776 14.8493 517.615 9.83354C515.454 4.90429 514.157 2.48291 513.811 2.48291C513.725 2.48291 513.292 3.26121 512.687 4.73134C512.342 5.6826 511.823 7.06624 511.131 8.88228C511.045 9.22819 511.304 9.74706 512.082 10.4389C513.638 20.8162 516.231 35.5175 517.182 40.7062C520.554 60.1637 522.455 72.5301 522.801 77.8917C522.888 79.6213 522.11 81.0049 520.294 82.2156C519.689 82.648 518.998 82.9074 518.393 83.1669C518.22 82.9939 518.047 82.821 517.787 82.821C515.799 82.821 514.33 82.3021 513.465 81.2644C512.342 79.7942 511.996 78.0647 512.428 75.9892C512.86 75.3839 513.552 74.0002 514.589 71.9247C515.626 69.8493 516.145 68.6386 516.145 68.3791C516.145 65.9578 515.021 63.6229 512.687 61.6339C510.959 60.0773 509.057 58.8666 506.896 58.0883C503.092 56.7046 497.128 56.4452 488.916 57.31C476.641 58.6936 467.478 59.7313 461.514 60.4232C452.005 61.3744 445.003 61.4609 440.422 60.7691C435.149 59.9908 432.556 58.7801 432.556 57.137C432.556 55.5804 435.149 52.9861 440.335 49.4405C449.498 43.1276 456.673 39.9279 461.859 39.9279C462.551 39.9279 463.07 40.1008 463.329 40.4468C464.021 41.3115 464.453 41.7439 464.539 41.7439C464.885 41.7439 465.317 41.0521 465.749 39.582C466.268 38.1118 466.441 36.9876 466.441 36.1229C466.441 34.4798 465.749 33.7015 464.366 33.7015C458.92 33.7015 451.659 36.8147 442.669 42.9546C433.507 49.2675 428.925 55.321 428.925 61.115C428.925 64.0552 431.864 65.8713 437.656 66.6496C443.361 67.3414 451.659 67.082 462.465 65.7848C475.517 64.3147 484.507 63.3634 489.435 62.8446C495.226 62.3257 499.548 62.4122 502.314 63.2769C507.328 64.7471 510.44 67.082 511.737 70.3681C499.808 72.7895 486.409 74.865 471.627 76.5081C456.846 78.2376 445.09 79.0159 436.273 79.0159C426.678 79.0159 420.54 77.4593 418.12 74.3461C417.083 73.049 416.65 71.6653 416.823 70.1952C416.91 69.1574 416.823 68.6386 416.391 68.5521C415.872 68.4656 415.094 69.071 414.144 70.4546C412.155 73.049 410.686 74.692 409.649 75.5568C407.228 77.4593 404.462 78.4971 401.437 78.4971C394.694 78.4971 390.545 73.5678 388.989 63.6229C388.902 63.104 388.038 55.7534 386.396 41.398C385.185 31.1071 384.148 25.0537 382.333 17.703C381.728 15.2817 380.95 12.8603 379.912 10.3524C379.048 8.27694 378.529 7.15272 378.357 7.15272C378.27 7.15272 377.838 8.19046 377.233 10.3524C376.628 12.4279 376.282 13.6386 376.368 13.8115C379.74 20.6433 382.419 35.6905 385.185 64.5741C386.569 78.0647 391.409 84.8964 399.881 84.8964C404.894 84.8964 408.871 82.821 411.982 78.5835C413.452 76.681 414.316 75.7298 414.749 75.7298C414.835 76.0757 414.922 76.5081 415.008 76.854C416.045 82.5615 422.615 85.4153 434.803 85.4153C452.092 85.4153 477.506 82.3021 511.045 76.1622C509.662 80.4861 510.008 84.0317 511.996 86.7125C512.169 86.9719 512.428 87.2313 512.601 87.4908C512.601 87.7502 512.601 87.9232 512.601 88.1826C512.601 89.3933 512.86 89.9986 513.465 89.9986C517.528 89.9986 520.813 88.1826 523.06 84.637C525.135 81.3508 526.172 77.4593 526.172 72.9625C526.172 69.2439 525.221 62.0662 523.406 51.4295C521.591 41.571 518.479 24.7942 516.664 14.8493Z" fill="white"/>
<path d="M103.99 92.5067C109.436 85.502 114.709 78.7568 115.314 69.6766C115.4 68.3794 115.314 67.0822 114.795 65.6121C113.671 66.9093 113.758 68.2929 114.276 69.6766C114.709 70.8873 114.881 72.0115 114.017 73.1357C113.239 74.0869 112.202 74.4329 111.078 74.0869C110.127 73.741 109.522 72.8763 109.695 71.8385C110.041 70.2819 111.337 70.4549 112.634 70.8008C111.683 69.4171 110.473 68.2929 110.819 66.5634C111.164 65.0067 111.856 63.7096 113.153 62.6718C113.758 62.153 113.498 61.6341 113.153 61.2017C112.547 60.3369 111.856 59.4722 111.251 58.6074C111.597 58.175 112.029 57.6561 112.461 57.1373C113.412 55.9266 113.758 55.0618 112.375 53.6781C110.127 51.5162 110.386 49.4407 112.634 46.5005C111.683 46.5005 110.559 47.0193 109.954 45.8951C109.522 45.2033 109.695 44.5115 110.127 43.9061C110.646 43.1278 111.424 42.8684 112.288 42.9549C113.758 43.1278 114.881 44.7709 114.622 46.3275C114.449 47.3652 113.931 48.403 114.017 49.5272C114.103 50.219 114.276 50.9108 115.054 51.6027C116.092 46.241 114.709 41.5712 112.547 36.9879C110.473 32.491 107.188 28.7725 104.508 24.708C107.62 26.3511 109.954 28.859 112.029 31.5398C115.659 36.3825 118.08 41.7442 118.685 47.7976C118.858 49.4407 118.685 50.9973 118.339 52.5539C117.907 54.4564 118.858 55.6671 119.809 57.3967C120.759 54.7159 120.154 52.5539 118.944 50.219C120.154 50.392 121.451 50.6514 121.71 51.4297C122.748 54.4564 126.205 55.0618 127.675 57.6561C128.193 58.5209 128.194 58.7803 127.588 59.4722C126.465 60.8558 125.514 62.2395 123.699 62.6718C123.007 62.8448 123.007 63.3637 122.921 63.7961C122.402 65.6121 121.105 66.3904 119.031 66.8228C120.154 64.4879 120.846 62.3259 119.895 59.7316C118.771 61.3747 118.08 62.8448 118.426 64.7473C119.463 70.6278 117.82 75.9895 114.968 81.0917C112.807 85.0696 110.041 88.5288 106.41 91.2961C105.632 91.7284 105.113 92.3338 103.99 92.5067ZM124.304 58.5209C124.217 57.4832 123.612 56.8778 122.661 56.8778C121.537 56.8778 120.327 57.3102 120.241 58.5209C120.154 59.4722 121.365 59.991 122.315 60.164C123.353 60.2505 124.044 59.7316 124.304 58.5209ZM118.771 58.4344C118.339 57.7426 117.907 56.9643 117.129 57.0508C116.524 57.0508 116.092 58.002 116.092 58.5209C116.178 59.1263 116.524 60.0775 117.215 59.991C117.907 59.9045 118.426 59.2127 118.771 58.4344Z" fill="white"/>
<path d="M21.6969 91.3825C18.0664 88.6152 15.3002 85.0696 13.1392 81.1781C10.373 76.0759 8.64419 70.7143 9.68149 64.8338C10.0273 62.8448 9.33572 61.4612 8.21198 59.8181C7.26111 62.3259 7.95265 64.5744 9.0764 66.9093C7.00179 66.3904 5.70516 65.6121 5.18651 63.7961C5.01362 63.3637 5.01362 62.7583 4.40853 62.6718C2.59325 62.2395 1.55594 60.8558 0.518639 59.4722C-1.2815e-05 58.7803 -0.0864548 58.5209 0.432197 57.6561C1.90171 55.0618 5.44583 54.4564 6.39669 51.4297C6.65602 50.6514 7.86621 50.392 9.16284 50.219C7.95265 52.5539 7.34756 54.7159 8.29842 57.3967C9.24928 55.6671 10.2001 54.4564 9.76793 52.5539C9.42216 50.9973 9.24928 49.4407 9.42216 47.7976C9.94081 41.6577 12.4476 36.3825 16.0782 31.5398C18.1528 28.7725 20.4867 26.3511 23.5986 24.708C20.9189 28.7725 17.6342 32.5775 15.5595 36.9879C13.3985 41.4847 12.0154 46.1546 13.0527 51.6027C13.8307 50.9108 14.0036 50.3055 14.09 49.5272C14.1765 48.403 13.6578 47.3652 13.4849 46.3275C13.1392 44.7709 14.2629 43.1278 15.8189 42.9549C16.6833 42.8684 17.4613 43.1278 17.9799 43.9061C18.4121 44.5115 18.4986 45.2033 18.1528 45.8951C17.4613 47.0193 16.424 46.5005 15.4731 46.5005C17.7206 49.4407 17.8935 51.5162 15.7324 53.6781C14.2629 55.0618 14.6951 55.9266 15.646 57.1373C16.0782 57.6561 16.424 58.0885 16.8562 58.6074C16.1646 59.4722 15.5595 60.3369 14.9544 61.2017C14.6087 61.7206 14.3494 62.153 14.9544 62.6718C16.2511 63.7096 16.9426 65.0067 17.2884 66.5634C17.6342 68.2929 16.5104 69.4171 15.4731 70.8008C16.8562 70.5413 18.0664 70.2819 18.4121 71.8385C18.6715 72.8763 18.0664 73.741 17.0291 74.0869C15.9053 74.5193 14.868 74.0869 14.09 73.1357C13.2256 72.0115 13.3985 70.8873 13.8307 69.6766C14.2629 68.2929 14.4358 66.9957 13.3121 65.6121C12.7934 67.0822 12.707 68.3794 12.7934 69.6766C13.3121 78.7568 18.6715 85.502 24.1173 92.5067C22.6478 92.3338 22.2156 91.7285 21.6969 91.3825ZM5.53227 60.164C6.48314 60.0775 7.69332 59.5586 7.60688 58.5209C7.52044 57.3102 6.31025 56.8778 5.18651 56.8778C4.1492 56.8778 3.63055 57.5696 3.54411 58.5209C3.71699 59.7316 4.49497 60.2505 5.53227 60.164ZM10.5459 59.991C11.3239 60.0775 11.5832 59.0398 11.6697 58.5209C11.7561 58.002 11.2374 57.1373 10.6324 57.0508C9.85437 57.0508 9.42216 57.8291 8.98995 58.4344C9.33572 59.2127 9.94081 59.9045 10.5459 59.991Z" fill="white"/>
<path d="M325.886 51.4294C323.034 34.3933 320.873 21.9404 319.403 14.0709C320.613 15.2816 321.305 15.9735 321.651 16.3194C322.601 17.3571 323.293 17.7895 323.639 17.6165C323.985 17.3571 322.861 14.5033 320.354 9.05522C318.107 4.12597 316.81 1.70459 316.551 1.70459C316.464 1.70459 316.032 2.48289 315.513 3.95302C314.822 5.76906 314.303 7.1527 313.957 8.10396C313.871 8.44987 314.13 8.96874 314.908 9.66056C316.464 20.0379 317.674 27.8209 318.625 33.0096C321.91 51.7753 323.466 60.8555 324.244 68.8115C324.244 69.1574 324.33 70.9735 324.59 74.2596C324.676 75.8162 324.849 76.508 325.195 76.508C325.713 76.508 326.318 74.692 327.01 70.9735C327.442 68.9845 327.615 67.0819 327.615 65.1794C327.442 62.1527 327.183 60.3367 325.886 51.4294Z" fill="white"/>
<path d="M261.574 18.5679C264.426 23.843 268.921 29.8965 274.972 36.7282C279.813 42.0034 284.654 47.1921 289.581 52.4672C293.816 57.2235 296.928 61.8069 298.83 66.0443C299.003 66.5631 299.435 67.9468 300.04 70.1952C300.472 71.9248 300.818 72.7031 301.077 72.7031C302.115 72.7031 302.028 69.9358 300.905 64.4877C299.867 59.5584 297.015 54.3698 292.347 48.9216C292.088 48.6622 287.333 43.387 278.17 33.2691C272.206 26.6968 268.402 22.027 266.674 19.3462C269.526 20.2109 270.996 20.4704 271.082 20.038C271.169 19.7786 269.526 18.222 266.155 15.4547C262.784 12.6874 260.968 11.3037 260.709 11.3037C260.536 11.3037 260.363 12.3414 260.104 14.3304C259.931 16.3194 259.845 17.4436 259.931 17.7031C260.536 18.049 261.055 18.3084 261.574 18.5679Z" fill="white"/>
<path d="M305.054 34.6529C303.843 27.6482 302.633 20.557 301.337 13.5522C303.325 16.3195 304.621 17.5302 305.14 17.2708C305.486 17.0978 304.535 14.5035 302.287 9.57426C300.04 4.64502 298.743 2.22363 298.398 2.22363C298.225 2.22363 297.706 3.17489 296.928 4.99093C296.15 6.80697 295.718 7.8447 295.718 8.10414C295.718 8.36357 295.977 8.88244 296.582 9.40131C296.842 13.0334 298.398 22.8919 301.25 38.9768C303.93 54.2834 305.313 63.9689 305.399 68.1199C305.399 70.2818 304.794 72.2708 303.498 74.1733C301.337 77.2865 296.842 81.0916 290.099 85.5884C287.765 87.2315 284.74 88.9611 281.023 90.9501C278.257 92.4202 276.96 93.1985 276.96 93.3714C277.046 93.5444 279.035 93.285 282.924 92.5066C289.667 91.123 294.508 89.3934 297.447 87.4044C304.967 82.0428 308.684 73.3085 308.511 61.2016C308.338 55.9265 307.215 47.1922 305.054 34.6529Z" fill="white"/>
<path d="M184.381 17.0112C187.233 22.2864 191.728 28.3398 197.779 35.1716C202.62 40.4468 207.461 45.6354 212.388 50.9106C216.624 55.6669 219.735 60.2502 221.637 64.4876C221.81 65.0065 222.242 66.3902 222.847 68.6386C223.28 70.3681 223.625 71.1464 223.885 71.1464C224.922 71.1464 224.835 68.3791 223.712 62.931C222.674 58.0018 219.822 52.8131 215.154 47.365C214.895 47.1056 210.14 41.8304 200.978 31.7125C195.013 25.1402 191.21 20.4703 189.481 17.7895C192.333 18.6543 193.803 18.9137 193.889 18.4813C193.976 18.2219 192.333 16.6653 188.962 13.898C185.591 11.1307 183.776 9.74707 183.516 9.74707C183.343 9.74707 183.17 10.7848 182.911 12.7738C182.738 14.7628 182.652 15.887 182.738 16.1464C183.343 16.4924 183.862 16.8383 184.381 17.0112Z" fill="white"/>
<path d="M282.06 65.9579C282.06 64.5743 281.887 63.2771 281.542 61.9799C281.196 60.8557 280.85 60.2504 280.677 60.2504C280.504 60.2504 280.072 61.1152 279.381 62.8447C278.689 64.5743 278.343 65.612 278.343 65.9579C278.343 66.2174 278.603 66.6497 279.035 67.2551C279.467 67.774 279.726 68.3793 279.726 68.8982C279.726 69.8494 278.775 70.2818 276.874 70.2818C274.972 70.2818 273.416 69.6765 272.292 68.4658C271.082 67.0821 270.736 65.6985 271.255 64.3148C271.601 63.2771 271.687 62.6718 271.601 62.5853C271.169 62.2394 270.65 62.5853 269.872 63.623C269.44 64.3148 269.008 65.2661 268.575 66.5633C266.846 70.9736 264.08 73.1356 260.363 73.1356C256.56 73.1356 254.658 71.752 254.658 68.8982C254.658 68.0334 254.917 66.9957 255.523 65.6985C255.695 65.2661 255.609 65.0067 255.436 64.9202C255.263 64.8337 254.917 65.0067 254.399 65.4391C253.967 65.785 253.448 66.3903 252.843 67.1686C249.126 72.3573 245.495 74.9516 241.865 74.9516C236.505 74.9516 233.393 71.1466 232.356 63.7095C231.232 54.2834 229.417 42.5224 226.997 28.2535C225.268 18.395 223.625 10.612 222.07 4.99094C221.378 2.05069 220.859 0.580566 220.427 0.580566C220.254 0.580566 219.995 1.70478 219.476 4.03969C219.044 6.37459 218.785 7.67176 218.785 8.01767C220.168 15.1089 221.551 22.2001 222.848 29.2913C225.527 44.4249 227.17 55.0617 227.861 61.1152V62.4123C227.861 68.8117 224.663 74.7787 218.18 80.3997C216.364 81.9564 213.598 83.8589 209.968 86.0208C209.449 86.2803 206.856 87.6639 202.188 90.2582C199.94 91.4689 199.422 92.0743 200.632 92.0743C202.015 92.0743 206.596 90.9501 214.376 88.6152C218.958 87.145 222.761 83.6859 225.7 78.3243C227.775 74.6057 229.071 70.2818 229.59 65.4391C230.8 75.9894 234.258 81.2645 240.309 81.351C240.309 81.351 240.309 81.351 240.395 81.351C240.395 81.351 240.395 81.351 240.482 81.351C243.421 81.351 246.1 80.1403 248.521 77.7189C250.25 75.6435 251.546 74.0004 252.324 72.7897C252.238 74.6922 252.843 76.3353 254.226 77.8054C255.523 79.2755 257.165 79.9674 259.067 79.9674C260.796 79.9674 262.524 79.362 264.167 78.1513C265.636 77.1136 266.674 75.9894 267.106 74.7787C268.143 72.7897 268.748 71.579 268.921 71.2331C269.44 75.0381 271.601 77.0271 275.404 77.0271C279.813 76.9406 282.06 73.3086 282.06 65.9579Z" fill="white"/>
<path d="M165.882 104.008L159.399 100.203L156.201 105.911L162.77 109.802L165.45 105.046L171.933 108.851L175.131 103.143L168.475 99.252L165.882 104.008Z" fill="white"/>
<path d="M196.742 43.3007C193.717 41.2252 191.123 40.1875 189.049 40.1875C187.666 40.1875 186.283 40.8793 184.899 42.1765C183.43 43.6466 182.652 45.1167 182.652 46.8463C182.652 48.1435 183.516 50.1325 185.159 52.7268C179.799 55.1482 175.045 58.002 170.982 61.1152C170.55 61.4611 169.859 62.3259 169.081 63.7095C168.216 65.0932 167.87 66.0444 167.87 66.5633C167.87 66.6498 167.87 66.7362 167.957 66.7362C170.031 67.9469 174.181 69.0711 180.232 70.1954C182.825 70.6278 184.986 71.4061 186.628 72.4438C187.925 73.2221 188.53 73.9139 188.53 74.3463C188.53 75.2111 185.591 77.2001 179.713 80.3133C170.723 85.1561 162.425 87.5774 154.731 87.5774C150.496 87.5774 146.951 86.6262 143.926 84.6372C140.123 82.0428 138.134 78.1513 138.134 72.8762C138.134 69.6765 138.653 66.6498 139.777 63.7095C140.641 61.3746 140.987 60.1639 140.641 59.991C139.863 59.645 138.739 61.3746 137.27 65.2661C135.8 69.1576 135.022 73.0491 135.022 77.0271C135.022 81.7834 136.492 85.7614 139.431 88.8746C142.716 92.4202 147.211 94.2362 153.089 94.2362C158.362 94.2362 164.413 92.8526 171.242 89.9988C177.638 87.318 183.084 84.1183 187.752 80.3998C188.876 79.535 189.913 77.8919 190.864 75.4705C191.642 73.395 192.074 71.8384 192.074 70.7142C192.074 68.8982 190.691 67.3416 187.925 66.1309C186.023 65.2661 182.479 64.3149 177.552 63.3636C177.033 63.2771 176.601 63.1906 176.082 63.0177C179.54 60.9422 183.516 58.9532 188.184 57.0507C189.135 58.1749 189.567 58.6938 189.481 58.6938C189.913 58.6938 190 57.9155 189.74 56.4454C192.074 55.4941 195.013 54.4564 198.471 53.2457C198.73 53.1592 199.162 52.3809 199.768 50.9972C200.373 49.6136 200.718 48.3164 200.718 47.1057C200.805 46.4139 199.508 45.2032 196.742 43.3007ZM187.925 51.6891C186.542 49.6136 185.85 48.3164 185.85 47.884C185.85 47.0193 186.542 46.5869 188.011 46.5869C188.703 46.5869 189.827 46.9328 191.296 47.6246C192.766 48.3164 193.544 48.8353 193.717 49.1812L187.925 51.6891Z" fill="white"/>
<path d="M304.708 92.593C306.869 91.1229 307.733 91.1229 309.116 92.7659C309.549 91.8147 310.067 91.0364 310.24 90.1716C310.327 89.5663 310.154 88.615 309.722 88.1826C309.376 87.8367 308.339 87.9232 307.82 88.2691C306.523 89.0474 305.313 89.9986 304.276 91.1229C301.51 93.8902 301.596 94.9279 304.881 97.2628C304.967 97.3493 305.054 97.5222 305.14 97.6952C304.535 98.8194 304.016 99.8571 303.411 100.981C306.523 99.2518 309.289 97.6952 312.228 96.2251C313.698 95.5332 314.13 94.409 314.389 92.6795C312.92 93.3713 311.71 93.8902 310.586 94.4955C308.166 95.5332 306.091 94.8414 304.708 92.593Z" fill="white"/>
<path d="M200.978 8.27688C202.274 9.31462 203.312 10.0064 204.435 11.0442C205.559 12.0819 206.337 13.0332 207.029 14.0709C209.622 17.8759 209.535 22.4593 209.449 24.7942C209.362 29.0316 208.239 31.6259 208.325 31.7124C208.498 31.7124 210.659 27.5615 210.918 22.1134C211.524 9.4011 200.891 2.56934 200.891 2.56934C200.891 2.56934 200.632 5.16368 200.632 5.42311C200.718 5.94198 200.459 7.84449 200.978 8.27688Z" fill="white"/>
<path d="M393.225 103.316C393.225 103.576 393.398 103.922 393.311 104.181C393.138 105.132 393.052 106.084 392.706 106.862C392.447 107.467 391.928 107.986 391.409 108.332C390.459 108.937 389.594 108.678 388.989 107.727C387.865 105.911 387.606 103.835 387.952 101.76C388.47 98.733 389.162 95.7063 389.853 92.6796C390.026 91.9013 390.545 91.2095 390.977 90.4312C391.15 90.5176 391.237 90.5176 391.409 90.6041C391.323 91.0365 391.237 91.4689 391.15 91.9878C390.286 95.5333 389.248 99.0789 389.421 102.798C389.421 103.403 389.508 104.008 389.681 104.527C389.853 104.959 390.372 105.565 390.718 105.565C391.237 105.565 391.842 105.219 392.187 104.786C392.533 104.441 392.706 103.749 392.879 103.316C393.052 103.316 393.138 103.316 393.225 103.316Z" fill="white"/>
<path d="M352.597 109.284C352.338 107.813 352.51 106.516 353.116 105.306C353.288 104.96 353.721 104.614 354.153 104.441C367.119 98.7333 380.345 93.7176 393.83 89.3937C394.089 89.3072 394.348 89.3072 394.608 89.2207C394.867 90.6908 393.743 92.7663 392.447 93.2852C385.272 95.966 378.011 98.5603 370.836 101.414C364.872 103.835 359.08 106.516 353.202 109.111C353.029 109.111 352.943 109.197 352.597 109.284Z" fill="white"/>
<path d="M305.659 107.554C305.832 107.121 306.005 106.689 306.35 106.257C307.82 104.268 309.549 102.538 311.796 101.414C315.773 99.5113 319.749 97.6953 323.725 95.7927C324.244 95.5333 324.849 95.4468 325.454 95.3604C324.33 97.1764 323.639 99.1654 321.478 100.117C316.896 102.279 312.315 104.613 307.82 106.862C307.215 107.121 306.61 107.467 306.005 107.727C305.832 107.727 305.745 107.64 305.659 107.554Z" fill="white"/>
</g>
<defs>
<clipPath id="clip0_245_1528">
<rect width="672" height="110" fill="white" transform="translate(0 0.666992)"/>
</clipPath>
</defs>
</svg>
