<?xml version="1.0" encoding="utf-8"?>
<!-- Generator: Adobe Illustrator 25.0.1, SVG Export Plug-In . SVG Version: 6.00 Build 0)  -->
<svg version="1.1" id="Layer_1" xmlns="http://www.w3.org/2000/svg" xmlns:xlink="http://www.w3.org/1999/xlink" x="0px" y="0px"
	 viewBox="0 0 671.7 115.6" style="enable-background:new 0 0 671.7 115.6;" xml:space="preserve">
<style type="text/css">
	.st0{fill:#FBC311;}
	.st1{fill:#2F67B2;}
	.st2{font-family:'Times-Bold';}
	.st3{font-size:77px;}
</style>
<g>
	<circle class="st0" cx="59" cy="59.9" r="54"/>
	<g>
		<path class="st1" d="M610,42.7c-4.4-1.3-8.9-1.3-13.7-1.2c0.2-0.3,0.3-0.6,0.3-0.9c1.3-1.8,2.7-3.5,4-5.3c0.2-0.3,0.6-0.4,0.9-0.5
			c4.5-0.7,8.9,0.2,13.1,1.6c1.1,0.3,1.6,1.4,1.4,2.5c-0.3,1-0.7,1.9-1.2,2.7c-1.2,1.6-2.5,2.9-3.9,4.3c-1.5,1.5-3.5,2.1-5.4,2.4
			c-2.1,0.4-4.2,0.7-6.4,1c-0.4,0.1-0.9-0.2-1.2-0.3c0.3-0.3,0.6-0.7,0.9-0.9c3.5-1.6,7.1-3.3,10.6-4.9c0.2-0.1,0.3-0.2,0.5-0.3
			C610,42.9,610,42.8,610,42.7z"/>
		<path class="st1" d="M255.6,43.8c-4.4-1.3-8.9-1.3-13.7-1.2c0.2-0.3,0.3-0.6,0.3-0.9c1.3-1.8,2.7-3.5,4-5.3
			c0.2-0.3,0.6-0.4,0.9-0.5c4.5-0.7,8.9,0.2,13.1,1.6c1.1,0.3,1.6,1.4,1.4,2.5c-0.3,1-0.7,1.9-1.2,2.7c-1.2,1.6-2.5,2.9-3.9,4.3
			c-1.5,1.5-3.5,2.1-5.4,2.4c-2.1,0.4-4.2,0.7-6.4,1c-0.4,0.1-0.9-0.2-1.2-0.3c0.3-0.3,0.6-0.7,1-0.9c3.5-1.6,7.1-3.3,10.6-4.9
			c0.2-0.1,0.3-0.2,0.5-0.3C255.6,44,255.6,43.9,255.6,43.8z"/>
		<path class="st1" d="M588.4,15.5c0.5-2.8,0.9-5.4,1.5-7.9c0.3-1.5,0.9-2.9,1.6-4.2c0.5-1,1.4-1.2,2.5-1c2.7,0.8,3.6,3.5,1.9,5.7
			c-0.3-0.4-0.8-0.9-1.1-1.3c-1.1-1.3-2.4-1.2-2.9,0.4c-0.7,2-1,4.1-1.5,6.2c-0.3,1.8-0.6,3.7-0.9,5.6c-0.1,0.5-0.3,1-0.5,1.4
			c-0.1,0-0.3,0-0.3,0.1c-0.3-0.6-0.8-1.1-1-1.7c-0.6-1.4-1-2.9-1.6-4.2s-1.6-2.3-2.3-3.5c-0.1,0.1-0.2,0.3-0.3,0.3
			c-0.6-0.1-1.2-0.1-1.8-0.3c-0.4-0.1-0.8-0.4-1.2-0.6c-1.8-1-2.3-2.2-1.7-4.3c0.3-0.9,0.8-1.4,1.7-1.1s1.9,0.7,2.6,1.3
			c2,1.7,3.2,3.9,4.3,6.2C587.5,13.5,587.9,14.5,588.4,15.5z"/>
		<path class="st1" d="M235.2,16.4c0.5-2.8,0.9-5.4,1.5-7.9c0.3-1.5,0.9-2.9,1.6-4.2c0.5-1,1.4-1.2,2.5-1c2.7,0.8,3.6,3.5,1.9,5.7
			c-0.3-0.4-0.8-0.9-1.1-1.3c-1.1-1.3-2.4-1.2-2.9,0.4c-0.7,2-1,4.1-1.5,6.2c-0.3,1.8-0.6,3.7-0.9,5.6c-0.1,0.5-0.3,1-0.5,1.4
			c-0.1,0-0.3,0-0.3,0.1c-0.3-0.6-0.8-1.1-1-1.7c-0.6-1.4-1-2.9-1.6-4.2s-1.6-2.3-2.3-3.5c-0.1,0.1-0.2,0.3-0.3,0.3
			c-0.6-0.1-1.2-0.1-1.8-0.3c-0.4-0.1-0.8-0.4-1.2-0.6c-1.8-1-2.3-2.2-1.7-4.3c0.3-0.9,0.8-1.4,1.7-1.1s1.9,0.7,2.6,1.3
			c2,1.7,3.2,3.9,4.3,6.2C234.3,14.4,234.7,15.3,235.2,16.4z"/>
		<path class="st1" d="M663.2,50.6c0.1,0.3,0.2,0.7,0.2,1c-0.2,1.1-0.3,2.2-0.7,3.3c-0.3,0.7-1,1.4-1.6,1.7
			c-1.2,0.8-2.2,0.4-2.9-0.8c-1.4-2.2-1.7-4.7-1.3-7.2c0.6-3.6,1.5-7.3,2.3-10.9c0.3-1,0.9-1.8,1.4-2.7c0.2,0.1,0.3,0.1,0.4,0.2
			c-0.1,0.5-0.2,1.1-0.3,1.6c-1.1,4.3-2.2,8.6-2.1,13.1c0,0.7,0.1,1.5,0.3,2.1c0.3,0.5,0.9,1.2,1.3,1.3c0.6,0,1.4-0.4,1.8-1
			c0.4-0.4,0.6-1.2,0.9-1.8C662.9,50.6,663.1,50.6,663.2,50.6z"/>
		<path class="st1" d="M641.3,29.1c0.1,0.3,0.2,0.7,0.2,1c-0.2,1.1-0.3,2.2-0.7,3.3c-0.3,0.7-1,1.4-1.6,1.7
			c-1.2,0.8-2.2,0.4-2.9-0.8c-1.4-2.2-1.7-4.7-1.3-7.2c0.6-3.6,1.5-7.4,2.3-10.9c0.3-1,0.9-1.8,1.4-2.7c0.2,0.1,0.3,0.1,0.4,0.2
			c-0.1,0.5-0.2,1.1-0.3,1.6c-1.1,4.3-2.2,8.6-2.1,13.1c0,0.7,0.1,1.5,0.3,2.1c0.3,0.5,0.9,1.2,1.3,1.3c0.6,0,1.4-0.4,1.8-1
			c0.4-0.4,0.6-1.2,0.9-1.8C641,29,641.2,29,641.3,29.1z"/>
		<path class="st1" d="M587.7,46.4c0.1,0.3,0.2,0.7,0.2,1c-0.2,1.1-0.3,2.2-0.7,3.3c-0.3,0.7-0.9,1.4-1.6,1.7
			c-1.2,0.8-2.2,0.4-2.9-0.8c-1.4-2.2-1.7-4.7-1.3-7.2c0.6-3.6,1.5-7.4,2.3-10.9c0.3-1,0.9-1.8,1.4-2.7c0.2,0.1,0.3,0.1,0.4,0.2
			c-0.1,0.5-0.2,1.1-0.3,1.6c-1.1,4.3-2.2,8.6-2.1,13.1c0,0.7,0.1,1.5,0.3,2.1c0.3,0.5,0.9,1.2,1.3,1.3c0.6,0,1.4-0.4,1.8-1
			c0.4-0.4,0.6-1.2,0.9-1.8C587.4,46.3,587.6,46.3,587.7,46.4z"/>
		<path class="st1" d="M551.4,62c0.1,0.3,0.2,0.7,0.2,1c-0.2,1.1-0.3,2.2-0.7,3.3c-0.3,0.7-1,1.4-1.6,1.7c-1.2,0.8-2.2,0.4-2.9-0.8
			c-1.4-2.2-1.7-4.7-1.3-7.2c0.6-3.6,1.5-7.3,2.3-10.9c0.3-1,0.9-1.8,1.4-2.7c0.2,0.1,0.3,0.1,0.4,0.2c-0.1,0.5-0.2,1.1-0.3,1.6
			c-1.1,4.3-2.2,8.6-2.1,13.1c0,0.7,0.1,1.5,0.3,2.1c0.3,0.5,0.9,1.2,1.3,1.3c0.6,0,1.4-0.4,1.8-0.9c0.4-0.4,0.6-1.2,0.9-1.8
			C551.1,61.9,551.3,61.9,551.4,62z"/>
		<path class="st1" d="M547.9,17.8c0.1,0.3,0.2,0.7,0.2,1c-0.2,1.1-0.3,2.2-0.7,3.3c-0.3,0.7-1,1.4-1.6,1.7
			c-1.2,0.8-2.2,0.4-2.9-0.8c-1.4-2.2-1.7-4.7-1.3-7.2c0.6-3.6,1.5-7.4,2.3-10.9c0.3-1,0.9-1.8,1.4-2.7c0.2,0.1,0.3,0.1,0.4,0.2
			c-0.1,0.5-0.2,1.1-0.3,1.6c-1.1,4.3-2.2,8.6-2.1,13.1c0,0.7,0.1,1.5,0.3,2.1c0.3,0.5,0.9,1.2,1.3,1.3c0.6,0,1.4-0.4,1.8-1
			c0.4-0.4,0.6-1.2,0.9-1.8C547.7,17.8,547.8,17.8,547.9,17.8z"/>
		<path class="st1" d="M279.9,18c0.1,0.3,0.2,0.7,0.2,1c-0.2,1.1-0.3,2.2-0.7,3.3c-0.3,0.7-1,1.4-1.6,1.7c-1.2,0.8-2.2,0.4-2.9-0.8
			c-1.4-2.2-1.7-4.7-1.3-7.2c0.6-3.6,1.5-7.4,2.3-10.9c0.3-1,0.9-1.8,1.4-2.7c0.2,0.1,0.3,0.1,0.4,0.2c-0.1,0.5-0.2,1.1-0.3,1.6
			c-1.1,4.3-2.2,8.6-2.1,13.1c0,0.7,0.1,1.5,0.3,2.1c0.3,0.5,0.9,1.2,1.3,1.3c0.6,0,1.4-0.4,1.8-1c0.4-0.4,0.6-1.2,0.9-1.8
			C279.6,18,279.7,18,279.9,18z"/>
		<path class="st1" d="M173.8,38.9c0.1,0.3,0.2,0.7,0.2,1c-0.2,1.1-0.3,2.2-0.7,3.3c-0.3,0.7-0.9,1.4-1.6,1.7
			c-1.2,0.8-2.2,0.4-2.9-0.8c-1.4-2.2-1.7-4.7-1.3-7.2c0.6-3.6,1.5-7.4,2.3-10.9c0.3-1,0.9-1.8,1.4-2.7c0.2,0.1,0.3,0.1,0.4,0.2
			c-0.1,0.5-0.2,1.1-0.3,1.6c-1.1,4.3-2.2,8.6-2.1,13.1c0,0.7,0.1,1.5,0.3,2.1c0.3,0.5,0.9,1.2,1.3,1.3c0.6,0,1.4-0.4,1.8-1
			c0.4-0.4,0.6-1.2,0.9-1.8C173.6,38.9,173.7,38.9,173.8,38.9z"/>
		<path class="st1" d="M563.8,96.3c0.1-0.3,0.2-0.7,0.4-0.9c0.7-0.9,1.4-1.8,2.2-2.5c0.6-0.4,1.5-0.7,2.2-0.8
			c1.4-0.1,2.2,0.7,2.2,2.2c0.1,2.6-0.8,4.9-2.3,6.9c-2.3,2.9-4.8,5.7-7.3,8.4c-0.7,0.7-1.6,1.1-2.5,1.6c-0.1-0.2-0.2-0.3-0.3-0.4
			c0.3-0.4,0.7-0.9,1-1.3c3-3.2,6.1-6.4,8.2-10.4c0.3-0.6,0.7-1.3,0.7-2c0.1-0.6-0.1-1.5-0.5-1.7c-0.5-0.3-1.4-0.3-2-0.1
			c-0.6,0.2-1.1,0.8-1.6,1.1C564,96.5,563.8,96.4,563.8,96.3z"/>
		<path class="st1" d="M437.3,96.5c0.1-0.3,0.2-0.7,0.4-1c0.7-0.9,1.4-1.8,2.2-2.5c0.6-0.4,1.5-0.7,2.2-0.8c1.4-0.1,2.2,0.7,2.2,2.2
			c0.1,2.6-0.8,4.9-2.3,6.9c-2.3,2.9-4.8,5.7-7.3,8.4c-0.7,0.7-1.6,1.1-2.5,1.6c-0.1-0.2-0.2-0.3-0.4-0.4c0.4-0.4,0.7-0.9,1-1.3
			c3-3.2,6.1-6.4,8.2-10.4c0.3-0.6,0.7-1.3,0.7-2c0.1-0.6-0.1-1.5-0.5-1.7c-0.5-0.3-1.4-0.3-2-0.1c-0.6,0.2-1.1,0.8-1.6,1.1
			C437.5,96.6,437.4,96.5,437.3,96.5z"/>
		<path class="st1" d="M425.2,40.1c0,0.3,0.2,0.6,0.1,0.9c-0.2,1-0.3,1.9-0.6,2.7c-0.3,0.6-0.8,1.1-1.3,1.5c-1,0.6-1.8,0.3-2.4-0.6
			c-1.1-1.8-1.4-3.9-1-6c0.5-3,1.2-6.1,1.9-9.1c0.2-0.8,0.7-1.5,1.1-2.2c0.2,0.1,0.3,0.1,0.4,0.2c-0.1,0.4-0.2,0.9-0.3,1.4
			c-0.9,3.5-1.9,7.1-1.7,10.8c0,0.6,0.1,1.2,0.3,1.7c0.2,0.4,0.7,1,1,1c0.5,0,1.1-0.3,1.5-0.8c0.3-0.3,0.5-1,0.7-1.5
			C424.9,40.1,425.1,40.1,425.2,40.1z"/>
		<path class="st1" d="M425.6,14.6c0,0.3,0.2,0.5,0.1,0.8c-0.2,0.9-0.3,1.7-0.5,2.5c-0.2,0.5-0.7,1-1.2,1.3c-1,0.6-1.7,0.3-2.2-0.6
			c-1-1.7-1.3-3.5-1-5.4c0.4-2.8,1.1-5.5,1.7-8.3c0.2-0.7,0.7-1.4,1-2.1c0.1,0.1,0.3,0.1,0.3,0.2c-0.1,0.4-0.2,0.9-0.3,1.2
			c-0.9,3.3-1.7,6.5-1.6,9.9c0,0.5,0.1,1.1,0.3,1.6c0.2,0.4,0.6,1,1,1s1-0.3,1.4-0.7s0.4-1,0.7-1.4
			C425.4,14.6,425.5,14.6,425.6,14.6z"/>
		<path class="st1" d="M612.4,11.9c0,0.3,0.1,0.4,0.1,0.7c-0.1,0.7-0.2,1.5-0.4,2.1c-0.2,0.4-0.6,0.9-1,1.1
			c-0.8,0.5-1.5,0.3-1.9-0.5c-0.9-1.5-1.1-3-0.9-4.7c0.4-2.3,0.9-4.7,1.5-7c0.2-0.6,0.6-1.1,0.9-1.7c0.1,0,0.2,0.1,0.3,0.1
			c-0.1,0.3-0.1,0.7-0.2,1c-0.7,2.8-1.5,5.5-1.4,8.4c0,0.4,0,1,0.3,1.3c0.2,0.3,0.5,0.8,0.9,0.8s0.9-0.3,1.1-0.6
			c0.3-0.3,0.3-0.8,0.6-1.2C612.2,11.9,612.3,11.9,612.4,11.9z"/>
		<path class="st1" d="M490.6,104.4c0,0.3,0.2,0.6,0.1,0.9c-0.2,1-0.3,1.9-0.6,2.7c-0.3,0.6-0.8,1.1-1.3,1.5c-1,0.6-1.8,0.3-2.4-0.6
			c-1.1-1.8-1.4-3.9-1-6c0.5-3,1.2-6.1,1.9-9.1c0.2-0.8,0.7-1.5,1.1-2.2c0.2,0.1,0.3,0.1,0.4,0.2c-0.1,0.4-0.2,0.9-0.3,1.4
			c-0.9,3.5-1.9,7.1-1.7,10.8c0,0.6,0.1,1.2,0.3,1.7c0.2,0.4,0.7,1,1,1c0.5,0,1.1-0.3,1.5-0.8c0.3-0.3,0.5-1,0.7-1.5
			C490.4,104.4,490.5,104.4,490.6,104.4z"/>
		<path class="st1" d="M474.2,23.8c0,0.3,0.2,0.6,0.1,0.9c-0.2,1-0.3,1.9-0.6,2.7c-0.3,0.6-0.8,1.1-1.3,1.5
			c-0.9,0.6-1.8,0.3-2.4-0.6c-1.1-1.8-1.4-3.9-1-6c0.5-3,1.2-6.1,1.9-9.1c0.2-0.8,0.7-1.5,1.1-2.2c0.2,0.1,0.3,0.1,0.4,0.2
			c-0.1,0.4-0.2,0.9-0.3,1.4c-0.9,3.5-1.9,7.1-1.7,10.8c0,0.6,0.1,1.2,0.3,1.7c0.2,0.4,0.7,1,1,1c0.5,0,1.1-0.3,1.5-0.8
			c0.3-0.3,0.5-1,0.7-1.5C474,23.8,474.1,23.8,474.2,23.8z"/>
		<path class="st1" d="M368,44c0,0.3,0.2,0.6,0.1,0.9c-0.2,1-0.3,1.9-0.6,2.7c-0.3,0.6-0.8,1.1-1.3,1.5c-1,0.6-1.8,0.3-2.4-0.6
			c-1.1-1.8-1.4-3.9-1-6c0.5-3,1.2-6.1,1.9-9.1c0.2-0.8,0.7-1.5,1.1-2.2c0.2,0.1,0.3,0.1,0.4,0.2c-0.1,0.4-0.2,0.9-0.3,1.4
			c-0.9,3.5-1.9,7.1-1.7,10.8c0,0.6,0.1,1.2,0.3,1.7c0.2,0.4,0.7,1,1,1c0.5,0,1.1-0.3,1.5-0.8c0.3-0.3,0.5-1,0.7-1.5L368,44L368,44z
			"/>
		<path class="st1" d="M238.9,61.1c0,0.3,0.2,0.6,0.1,0.9c-0.2,1-0.3,1.9-0.6,2.7c-0.3,0.6-0.8,1.1-1.3,1.5c-1,0.6-1.8,0.3-2.4-0.6
			c-1.1-1.8-1.4-3.9-1-6c0.5-3,1.2-6.1,1.9-9.1c0.2-0.8,0.7-1.5,1.1-2.2c0.2,0.1,0.3,0.1,0.4,0.2c-0.1,0.4-0.2,0.9-0.3,1.4
			c-0.9,3.5-1.9,7.1-1.7,10.8c0,0.6,0.1,1.2,0.3,1.7c0.2,0.4,0.7,1,1,1c0.5,0,1.1-0.3,1.5-0.8c0.3-0.3,0.5-0.9,0.7-1.5
			C238.7,61.1,238.8,61.1,238.9,61.1z"/>
		<path class="st1" d="M141.4,49.2c0.1,0.7,0.3,1.5,0.3,2.1c-0.3,2.2-0.5,4.5-1.3,6.6c-0.5,1.4-1.6,2.7-2.8,3.5
			c-2.1,1.5-3.9,0.9-5.2-1.6c-2.4-4.4-3-9.4-2.3-14.4c1-7.4,2.6-14.6,4.1-21.9c0.4-1.9,1.6-3.5,2.3-5.4c0.3,0.1,0.5,0.3,0.9,0.3
			c-0.2,1.1-0.3,2.2-0.5,3.3c-1.9,8.6-4,17.1-3.7,26.1c0.1,1.4,0.1,2.9,0.6,4.1c0.4,1,1.5,2.5,2.2,2.5c1,0,2.3-0.9,3.2-1.8
			c0.8-1,1-2.4,1.6-3.6C140.9,49.2,141.1,49.2,141.4,49.2z"/>
		<path class="st1" d="M457.9,11.6c4.8-1.6,9.5-3.2,14.3-4.7c4.9-1.6,9.8-3.1,14.7-4.7c0.3-0.1,0.6-0.2,0.9-0.3
			c0.1,0.1,0.2,0.2,0.3,0.2c-0.7,1.6-1.3,3.1-2.2,4.5c-0.3,0.5-1,1-1.6,1.2c-14.4,4.9-28.9,9.8-43.2,14.8
			c-16.6,5.8-33.2,11.7-49.4,18.5c-1.1,0.4-2.2,1-3.3,1.4c-0.2-2.4,2-5.7,4.2-6.6C414,27,435.8,19,457.9,11.6z"/>
		<path class="st1" d="M628.5,13.7c4.8-1.6,9.5-3.2,14.3-4.7c4.9-1.6,9.8-3.1,14.7-4.7c0.3-0.1,0.6-0.2,0.9-0.3l0.3,0.2
			c-0.7,1.6-1.3,3.1-2.2,4.5c-0.3,0.5-1,1-1.6,1.2c-14.4,4.9-28.9,9.8-43.2,14.8C595,30.6,564.1,40,547.8,46.8
			c-1.1,0.4-2.2,1-3.3,1.4c-0.1-2.4,2-5.7,4.2-6.6C570.3,32.7,606.4,21,628.5,13.7z"/>
		<path class="st1" d="M622.4,51.4c-0.3-1.5-0.1-2.8,0.5-4c0.2-0.3,0.6-0.7,1-0.9c13-5.7,26.2-10.7,39.7-15c0.3-0.1,0.5-0.1,0.8-0.2
			c0.3,1.5-0.9,3.5-2.2,4.1c-7.2,2.7-14.4,5.3-21.6,8.1c-6,2.4-11.8,5.1-17.6,7.7C622.7,51.2,622.6,51.2,622.4,51.4z"/>
		<path class="st1" d="M450,110.4c-0.3-1.5-0.1-2.8,0.5-4c0.2-0.3,0.6-0.7,1-0.9c13-5.7,26.2-10.7,39.7-15c0.3-0.1,0.5-0.1,0.8-0.2
			c0.3,1.5-0.9,3.5-2.2,4.1c-7.2,2.7-14.4,5.3-21.6,8.1c-6,2.4-11.8,5.1-17.6,7.7C450.4,110.2,450.3,110.3,450,110.4z"/>
		<path class="st1" d="M188.9,110.7c-0.3-1.5-0.1-2.8,0.5-4c0.2-0.3,0.6-0.7,1-0.9c13-5.7,26.2-10.7,39.7-15
			c0.3-0.1,0.5-0.1,0.8-0.2c0.3,1.5-0.9,3.5-2.2,4.1c-7.2,2.7-14.4,5.3-21.6,8.1c-6,2.4-11.8,5.1-17.6,7.7
			C189.3,110.5,189.2,110.6,188.9,110.7z"/>
		<path class="st1" d="M536.1,36.4c0.4-0.3,0.9-0.7,1.4-1c4.9-2.9,9.9-5.6,14.8-8.6c4.2-2.6,8.2-5.4,11.7-9c0.3-0.3,0.4-0.5,0.7-0.8
			c0,0,0-0.1,0-0.2c-0.8-0.5-1.6-1-2.4-1.5c-2.9-2.1-3.5-4.6-1.5-7.6c0.8-1.2,1.8-2.2,2.9-3.3c0.4-0.4,1-0.6,1.6-0.9
			c1.4-0.4,2.3,0,2.9,1.4c0.9,2.2,0.7,4.6,0.3,6.9c0,0.2-0.1,0.3-0.1,0.3c-0.4,1.7-0.5,1.3,1,1.9c0.7,0.3,1.4,0.5,2.1,0.8
			c0.5,0.2,0.7,0.5,0.4,1v0.1c-1,2.5-1.1,2.6-3.7,1.9c-2-0.6-2-0.5-3.3,1c-2.4,2.9-5.3,5.4-8.4,7.6c-5.8,4.1-12,7.5-18.9,9.6
			c-0.4,0.1-0.8,0.2-1.2,0.3C536.2,36.5,536.2,36.4,536.1,36.4z M566.7,13.5c0.2-1.3,0.3-2.2,0.3-3.1c0-2-1.1-2.9-3.1-2.4
			c-0.9,0.2-1.5,0.6-1.7,1.5c-0.3,0.9,0.1,1.6,0.8,2.1C564.1,12.2,565.3,12.7,566.7,13.5z"/>
		<path class="st1" d="M152.6,26.8c-2.2-1.2-3.2,0.4-4.2,1.9c-0.7-2,0.9-5.1,3.1-6.3c-1.2-2.9-2.7-5.7-5.1-8.1
			c-0.6,1.6-1.6,1.1-2.4,0.6c-0.7-0.4-1.4-0.9-2.1-1.3c-2-1.3-2.3-2.3-1.6-4.7c0.3-1.2,1-1.6,2.2-1.2c2.5,0.7,4.4,2.3,5.9,4.3
			c1.3,1.7,2.4,3.5,3.9,5.4c0-1.6-0.1-3.3,0-4.9c0.2-2,0.3-4,0.7-5.9c0.7-2.8,2.9-3.4,5.2-1.7c2,1.4,2.3,2.6,1.1,4.9
			c-0.3-0.3-0.8-0.6-1.1-1c-0.9-1-2-1.3-3.2-0.9c-1.2,0.3-1.3,1.5-1.4,2.6c-0.2,4-0.4,8-0.7,11.7c1.6,1.4,3.1,2.6,4.7,3.9
			c0.9,0.7,0.9,1.6,0.6,2.7c-0.3,1-0.9,1.6-2,1.9c-2.5,0.6-5.1,1.5-7.5,2.4c-1.6,0.6-1.6,1.2-1.3,2.9c1.5,7.6,3,15.2,4.4,22.8
			c0.3,2,0.7,3.9,0.9,5.9c0.1,0.7-0.1,1.5-0.1,2.2c-0.1,0-0.3,0-0.3,0.1c-0.2-0.4-0.4-0.9-0.5-1.3c-1-4.9-1.9-9.9-2.9-14.8
			c-0.9-4.3-1.8-8.6-2.8-12.9c-1.1-5.1,1.5-9.3,5.8-10.7C152.2,27.1,152.4,26.9,152.6,26.8z"/>
		<path class="st1" d="M352.7,26c-2.2-1.2-3.2,0.4-4.2,1.9c-0.7-2,0.9-5.1,3.1-6.3c-1.2-2.9-2.7-5.7-5.1-8.1
			c-0.6,1.6-1.6,1.1-2.4,0.6c-0.7-0.4-1.4-0.9-2.1-1.3c-2-1.3-2.3-2.3-1.6-4.7c0.3-1.2,0.9-1.6,2.2-1.2c2.5,0.7,4.4,2.3,5.9,4.3
			c1.3,1.7,2.4,3.5,3.9,5.4c0-1.6-0.1-3.3,0-4.9c0.2-2,0.3-4,0.7-5.9c0.7-2.8,2.9-3.4,5.2-1.7c2,1.4,2.3,2.6,1.1,4.9
			c-0.3-0.3-0.8-0.6-1.1-1c-0.9-1-2-1.3-3.2-0.9c-1.2,0.3-1.3,1.5-1.4,2.6c-0.2,4-0.4,8-0.7,11.7c1.6,1.4,3.1,2.6,4.7,3.9
			c0.9,0.7,0.9,1.6,0.6,2.7c-0.3,1-0.9,1.6-2,1.9c-2.5,0.6-5.1,1.5-7.5,2.4c-1.6,0.6-1.6,1.2-1.3,2.9c1.5,7.6,3,15.2,4.4,22.8
			c0.3,2,0.7,3.9,1,5.9c0.1,0.7-0.1,1.5-0.1,2.2c-0.1,0-0.3,0-0.3,0.1c-0.2-0.4-0.4-0.9-0.5-1.3c-0.9-4.9-1.9-9.9-2.9-14.8
			c-0.9-4.3-1.8-8.6-2.8-12.9c-1.1-5.1,1.5-9.3,5.8-10.7C352.2,26.3,352.4,26.1,352.7,26z"/>
		<path class="st1" d="M258.4,91.4c-0.1,0.3-0.1,0.6-0.2,0.9c-0.3,0.8,0,1.3,0.6,1.6c0.7,0.4,1.4,0.3,2.1,0c0.1,0,0-0.5-0.1-0.7
			c-0.3-0.6,0.1-2.4,0.8-2.6c0.2,0,0.5,0.3,0.6,0.4c0.7,1.2,0,4.6-1,5.5c-0.9,0.8-2.7,0.9-3.6-0.1c-0.6-0.5-1-0.3-1.4,0.1
			c-1.8,1.8-3.6,2.2-5.9,1c-2.5-1.3-4.8-0.8-7,0.7c-2.7,1.9-5.2,3.9-7.8,5.9c-4,2.9-8.5,4.8-13.3,5.9c-0.3,0.1-0.8,0.1-1.1,0.1
			c0-0.1-0.1-0.2-0.1-0.3c0.5-0.2,1-0.4,1.6-0.6c2.1-0.9,4.2-1.7,6.3-2.7c3.6-1.8,6.7-4.2,9.7-7c2.2-2,4.6-3.6,7.3-4.8
			c1.8-0.9,3.5-0.9,5.2,0.3c1.7,1.1,4.2,0.5,5.3-1.2c0.3-0.5,0.6-1.2,1-1.7c0.3-0.3,0.6-0.5,0.9-0.8
			C258.2,91.3,258.3,91.3,258.4,91.4z"/>
		<path class="st1" d="M621.1,96.5c0.3,1.4,0,2.2-1.1,2.7c-2.4,1-4.3,2.8-6.1,4.6c-0.6,0.6-1.4,1.3-0.9,2.3c0.3,0.9,1.4,1,2.2,1.1
			c2.8,0.3,5.4-0.3,7.9-1.4c0.5-0.2,1-0.3,1.5-0.4c0.1,0.1,0.1,0.2,0.1,0.3c-0.1,0.2-0.3,0.4-0.3,0.6c-2.7,2.9-6.1,4.2-10,3.8
			c-0.3,0-0.7-0.1-1-0.2c-1.7-0.5-2.4-1.6-1.9-3.5s1.9-4.2,3.5-5.9c-0.4-0.3-0.9-0.7-1.2-1c-1-1-1.1-1.9-0.3-3
			c0.8-1.3,1.8-2.4,3.2-3.1c0.6-0.3,1.4-0.5,2,0s0.5,1.3,0.3,2c-0.2,0.4-0.4,0.8-0.6,1.2c-0.2-0.1-0.3-0.1-0.3-0.2
			c-0.8-1.1-1.7-1.1-2.7-0.2c-0.4,0.4-0.3,1.1,0.3,1.5c1.1,0.6,2.3,0.8,3.5,0.1c0.4-0.3,0.8-0.6,1.2-0.9
			C620.3,96.9,620.6,96.7,621.1,96.5z"/>
		<path class="st1" d="M336.4,46.6c0.2,0.4,0.4,0.8,0.3,1.2c-0.2,2-0.2,4.1-0.6,6.1c-0.3,1.6-1.6,2.8-3.3,3c-1.7,0.3-2.6-1-3.4-2.2
			c-2.2-3.2-2.3-6.7-1.7-10.3c0.5-3,1.2-6,2.1-8.9c2.7-9,2-17.3-4.2-24.7c-0.7-0.9-1-1.7-0.6-2.8c0.4-1.3,0.9-2.6,1.4-4.2
			c0.7,0.8,1.2,1.2,1.6,1.7c4,6.4,5.8,13.4,5.8,20.9c0,4.8-1.7,9.1-2.9,13.6c-0.6,2.3-0.9,4.7-1.1,7.1c-0.1,1,0.1,2,0.3,2.9
			c0.3,1.3,1,2.2,2.6,2.2c1.5-0.1,2.4-1,2.7-2.5c0.2-1,0.3-1.9,0.4-2.9C336,46.6,336.2,46.6,336.4,46.6z"/>
		<path class="st1" d="M399.9,105.9c0.5,0.2,1,0.3,1.3,0.5c2.6,1.4,5.3,1.6,8.1,1c4.2-1,8.5-1.7,12.7-2.6c0.1,0,0.3-0.1,0.3-0.1
			c-0.1-1.3-1.2-2.3-2.8-2.3c-1,0-2,0.1-2.9,0.3c-2.4,0.4-4.8,1-7.1,1.4c-1.2,0.2-2.5,0.2-3.7-0.3c-0.6-0.3-0.9-0.7-1-1.4
			c-0.3-2.4,0.7-4.5,1.9-6.6c1-1.8,2.2-3.5,4-4.9c0.4-0.3,0.9-0.8,1.4-0.4c0.5,0.3,0.6,1,0.5,1.6c-0.1,0.5-0.3,1-0.4,1.6
			c-0.9-0.7-1.1-0.8-2,0.1c-1,1-1.8,2.1-2.5,3.2c-0.7,1-1.3,2.2-1.7,3.4c-0.3,0.9-0.1,1.3,0.9,1.3c1.5,0,3-0.1,4.5-0.3
			c2.3-0.3,4.7-1,7-1.4c2.3-0.3,4.1,0.9,4.9,3.1c0.2,0.6,0.3,1.3,0.3,2c-0.2,1.2-1,2.1-2.2,2.4c-5.1,1.4-10.2,2.5-15.4,3.2
			c-1.6,0.2-3.2-0.3-4.2-1.7c-0.5-0.8-1.1-1.5-1.6-2.2C400,106.3,400,106.1,399.9,105.9z"/>
		<path class="st1" d="M626.6,110.4c2-0.8,4.1-1.6,6.1-2.3c6.1-2.5,12.2-5,18.2-7.7c1.7-0.8,3.4-1.9,4.9-3c0.8-0.6,1.3-1.6,1.8-2.5
			c1-1.3,1.7-2.8,2.8-4c0.9-1,1.7-1,2.8-0.1c2.1,1.7,2.4,4.6,1.6,6.8c-0.1,0.3-0.7,0.7-1.1,0.7c-1.8,0.1-3.4-0.6-4.8-1.6
			c-0.2-0.2-0.3-0.3-0.6-0.3c-0.1,0-0.1,0-0.3-0.1c-0.3,0.6-0.4,1.2-0.7,1.8c-0.8,1.6-2.2,2.7-3.7,3.5c-5,2.8-10.2,5.1-15.6,7
			c-2.9,0.9-6.1,1.3-9.1,1.9c-0.7,0.2-1.4,0.2-2.1,0.3C626.6,110.5,626.6,110.5,626.6,110.4z M663.1,95.6c0.2-2-1-3-2.4-2.5
			c-0.3,0.1-0.5,0.4-0.7,0.7c-0.1,0.2,0.2,0.5,0.4,0.6C661.2,94.8,662,95.2,663.1,95.6z"/>
		<path class="st1" d="M168.5,95.8c1.9-0.9,3.9-1.9,5.8-2.9c5.8-3,11.7-6.1,17.5-9.3c1.7-0.9,3.2-2.2,4.7-3.5
			c0.8-0.7,1.1-1.7,1.6-2.6c0.8-1.4,1.5-2.9,2.3-4.2c0.8-1.1,1.6-1.1,2.8-0.3c2.2,1.6,2.8,4.3,2.2,6.7c-0.1,0.3-0.7,0.7-1,0.8
			c-1.8,0.3-3.5-0.3-5-1.1c-0.2-0.1-0.4-0.3-0.6-0.3c-0.1,0-0.1,0-0.3,0c-0.2,0.6-0.3,1.2-0.6,1.8c-0.6,1.7-1.9,2.9-3.4,3.9
			c-4.8,3.2-9.8,6.1-15,8.3c-2.9,1.2-5.9,1.8-8.9,2.7c-0.7,0.2-1.4,0.3-2.1,0.4C168.5,95.9,168.5,95.9,168.5,95.8z M203.5,77.9
			c0-2-1.3-2.9-2.7-2.3c-0.3,0.1-0.5,0.4-0.6,0.8c0,0.2,0.3,0.5,0.5,0.6C201.6,77.2,202.5,77.4,203.5,77.9z"/>
		<path class="st1" d="M487.2,26c-0.8,0-1.3,0.1-1.8,0c-0.7-0.3-1.4-0.6-2-1c-1.5-1-2-2.8-1.2-4.3c0.4-0.9,1.3-1.1,2.3-0.9
			c2,0.5,3,2,4,3.5c1,1.7,1.9,3.6,2.9,5.4c0.2,0.3,0.4,0.8,0.9,1.1c0.3-2,0.5-4.1,1-6.1c0.4-1.8,0.9-3.7,1.6-5.4
			c0.7-1.6,1.8-1.8,3.5-1.1c2.3,1.1,2.9,3.5,1.2,5.4c-0.4-0.5-0.8-1-1.3-1.5c-1.2-1.1-2.3-1-2.8,0.6c-0.6,2-1,4-1.4,6.1
			c-0.3,1.8-0.4,3.8-1,5.6c-0.7,2.8-2.7,4.6-4.9,6.1c-3.5,2.5-7.4,4.3-11.7,5.5c-0.2,0.1-0.3,0.1-0.6,0.2c-0.1-0.1-0.1-0.2-0.2-0.3
			c1.8-1.2,3.5-2.6,5.4-3.7c3.1-1.8,6.1-3.8,8.9-6.1c0.9-0.8,1.1-1.3,0.7-2.5c-0.8-2.3-1.6-4.5-3.3-6.3
			C487.5,26.2,487.2,26.1,487.2,26z"/>
		<path class="st1" d="M402.7,15c0.4-2.3,0.7-4.7,1.2-7c0.3-1.3,0.8-2.5,1.4-3.7c0.5-1.1,1.6-1.4,2.7-0.9c0.2,0.1,0.3,0.2,0.4,0.3
			c2.2,1.2,2.6,2.8,1.1,5c-0.4-0.4-0.8-0.9-1.1-1.3c-1.1-1.3-2-1.1-2.8,0.3c-1.1,2.3-1.2,4.8-1.6,7.3c-0.2,1.2-0.3,2.5-0.6,3.7
			c-0.1,0.4-0.3,0.8-0.5,1.4c-0.4-0.6-0.8-1-0.9-1.4c-0.6-1.5-1.1-3-1.8-4.4c-0.6-1.1-1.5-2.2-2.2-3.1c-1.9,0.9-4.6-1-4.8-3.5
			c-3.9,5.4-9.4,8-15.3,10.2c-0.1-0.1-0.1-0.2-0.2-0.3c0.3-0.2,0.5-0.3,0.8-0.5c4.1-2.9,8.4-5.9,12.5-8.8c0.8-0.6,1.5-1.3,2.2-2
			c1-0.9,1.7-1,2.8-0.3c0.9,0.6,1.9,1.3,2.5,2.2c1.2,1.7,2.2,3.6,3.2,5.5c0.3,0.4,0.4,0.9,0.6,1.4C402.5,15.1,402.6,15,402.7,15z"/>
		<path class="st1" d="M663.9,67.7c-1.4-1.9-2.9-2.9-4.7-2.7c-2.2,0.2-4.3,1.9-6.1,5.1c-0.3-0.3-0.6-0.3-0.7-0.3
			c-0.6,0.8-1.1,1.6-1.6,2.2c-1.7,3-3.2,5.2-4.5,6.3c-1.6,1.6-3.6,2.3-5.9,2.3c-3.4,0-6.2-1.2-8.6-3.5c4.1-2.2,7.1-3.6,9-4.3
			c0.3-0.1,0.8-1,1.4-2.9c0.6-1.7,1-2.8,1-3.1c0-0.4-2.1-1.2-6.1-2.3c-4.7-1.3-9.9-1.6-15.5-1c-4.2,0.8-6.9,1.5-8,1.9
			c-0.3,0.1-0.8,1-1.4,2.5c-0.6,1.4-0.9,2.4-1,2.9c-0.1,0.3,0,0.6,0.1,0.8c0.2,0.1,0.6,0.1,1-0.1c2.2-1,4.2-0.9,6.1,0.3
			c1.2,0.8,2.6,2.2,4.1,4c-6.7,3.1-10.8,5.2-12.6,6.3c-3.3,2.1-6.9,5.4-10.9,9.9c-4.9,5.6-7.8,8.7-8.5,9.4c-3,2.9-5.6,4.3-8,4.3
			c-1.8,0-3.4-0.7-4.7-2.2c-1.2-1.4-1.9-3.1-1.9-5.2c0-3.5,1.7-7.9,5.2-13c1-1.5,1.5-2.2,1.3-2.4c-0.3-0.4-1.1,0-2.2,1.3
			c-4.1,5-6.3,10-6.3,15c0,2.8,0.6,5.3,1.9,7.4c1.7,2.8,4.1,4.2,7.5,4.2c2.6,0,5.4-1.2,8.1-3.7c1.6-1.5,4.2-4.2,7.5-8.4
			c4.1-5.1,7.9-8.7,11.1-10.9c2.2-1.6,7.6-4.2,16.3-8.2c4.1,4.7,8.4,7,12.6,7c4.8,0,8.6-3.3,11.8-9.9c1.9,1.4,4.2,2.7,7,3.8
			c2.5,1,4.2,1.5,4.9,1.4c0.7,0,1.6-0.9,2.5-2.7c0.9-1.6,1.5-2.7,1.5-3.2C666.6,73.2,665.8,70.3,663.9,67.7z M625.1,70.2
			c2.2-0.8,5.1-0.7,8.8,0.4c-2.3,1.2-4.2,2.2-5.6,2.9C626.8,71.7,625.7,70.6,625.1,70.2z M657.7,73.9c-1.6-0.8-2.5-1.3-2.4-1.6
			c0.1-0.5,0.7-0.8,1.8-0.9c0.7-0.1,1.6,0.2,2.6,0.8c1.2,0.7,1.9,1.6,2.1,2.8C660.7,75,659.4,74.7,657.7,73.9z"/>
		<path class="st1" d="M563.1,49.6l6.6,3.9l-3.2,5.7l-6.6-3.9L563.1,49.6z M596.8,71.5c0-0.9-1.3-2.3-3.9-4.5
			c-3-2.7-5.9-4.1-8.6-4.1c-5.2,0-11.4,4.7-18.6,13.9c2.5,0.9,5.4,1.3,8.5,1.3c4.9,0,10.1-1,15.5-2.9
			C594.4,73.6,596.8,72.3,596.8,71.5z M600.1,67.7c0,1.3-0.3,2.9-1,5c-0.7,2-1.5,3.5-2.2,4.2c-2.4,2.4-6.4,4.4-11.8,5.9
			c-4.6,1.4-8.9,2-13,2c-2.9,0-6.2-0.5-10.1-1.6c0,5.3-1,9.3-3.2,12c-1.8,2.5-6.4,5.7-13.7,9.5c-8.8,4.7-16.6,7-23.3,7
			c-7.8,0-13.2-2.7-16.5-8c-1.9-3-2.9-6.2-2.9-9.6c0-4.2,0.4-8,1.4-11.4c0.9-3.1,1.7-4.6,2.2-4.3c0.2,0,0.3,0.1,0.3,0.3
			c0-0.3-0.2,0.8-0.6,3.1c-0.4,2.3-0.6,5-0.6,8c0,3.8,1.2,7,3.6,9.6c3.3,3.5,8.2,5.2,14.9,5.2c7,0,15-2.4,24-7.3
			c7.6-4.1,11.6-6.8,12-8.3c0.3-0.9,0-2.8-0.6-5.6c-0.9-3.4-2.1-6.1-3.7-8.2c-0.1,0,0.2-1.1,0.8-3.3c0.6-2.2,0.9-3.4,1-3.4
			s0.3,0.4,0.9,1.2c0.6,1.1,1.2,2.1,1.7,2.9c1.1,1.4,2.3,2.3,3.5,2.9c2.7-4,5.7-7.6,9-11.1c5.3-5.4,9.9-8,13.9-8
			c3.4,0,6.6,1.4,9.7,4.2C598.7,63.3,600.1,65.7,600.1,67.7z"/>
		<path class="st1" d="M537.6,60.8c-2.9-17-6.8-37.9-8.3-45.7c1.2,1.2,1.9,1.9,2.2,2.2c0.9,1,1.6,1.5,2,1.3c0.3-0.3-0.8-3.1-3.3-8.6
			c-2.2-4.9-3.5-7.4-3.8-7.4c-0.1,0-0.5,0.8-1,2.2c-0.7,1.8-1.2,3.2-1.6,4.2c-0.1,0.3,0.2,0.9,1,1.6c1.6,10.4,4.6,26.5,5.5,31.6
			c3.3,18.8,5.7,39,6.6,47c0,0.3,0.1,2.2,0.3,5.4c0.1,1.6,0.3,2.2,0.6,2.2c0.5,0,1.1-1.8,1.8-5.5c0.4-2,0.6-3.9,0.6-5.8
			C540.2,82.7,539,69.7,537.6,60.8z"/>
		<path class="st1" d="M336.1,101.3l6.6,3.8l3.2-5.7l-6.6-3.8L336.1,101.3z"/>
		<path class="st1" d="M371.2,60c-1.2-1.7-2.1-2.6-2.6-2.6c-0.1,0-0.3,1.1-0.6,3.5c-0.3,2.3-0.4,3.5-0.3,3.5c1,0.9,2,2.1,3,3.7
			s1.6,2.9,1.6,3.7S368.8,74,362,76c-9.9,2.8-19.8,4.2-29.7,4.2c-8.6,0-14.9-1.7-18.6-5.2c-2.1-2-3.1-4.2-3.1-6.7
			c0-1.1,0.3-2.3,0.7-3.7c0.4-1.4,0.5-2.2,0.1-2.3s-1.1,1.1-2.2,3.7c-1,2.6-1.5,4.7-1.5,6.4c0,3.3,1,6.1,3.2,8.6
			c3.9,4.1,10.5,6.1,20,6.1c7.1,0,15-1,23.8-3.1c9.1-2.1,15-4.3,17.5-6.7c1.6-1.4,2.3-4,2.3-7.8c0-2-0.4-4-1.3-5.9
			C372.9,62.6,372.2,61.4,371.2,60z"/>
		<path class="st1" d="M406.6,51.1l6.4,3.8l3.2-5.7l-6.6-3.9l-2.7,4.8l-6.5-3.8l-3.1,5.7l6.6,3.9L406.6,51.1z"/>
		<path class="st1" d="M511.3,15.9c1.1,1.2,1.9,1.9,2.2,2.2c1,1,1.6,1.5,2,1.3c0,0,0.1-0.1,0.1-0.2c0-0.5-1.1-3.4-3.3-8.4
			c-2.2-4.9-3.5-7.4-3.8-7.4c-0.1,0-0.5,0.8-1.1,2.2c-0.3,1-0.9,2.3-1.6,4.2c-0.1,0.3,0.2,0.9,1,1.6c1.6,10.4,4.1,25.1,5.1,30.3
			c3.4,19.5,5.3,31.8,5.6,37.2c0.1,1.7-0.7,3.1-2.5,4.3c-0.6,0.4-1.3,0.7-1.9,0.9c-0.2-0.2-0.3-0.3-0.6-0.3c-2,0-3.5-0.5-4.3-1.6
			c-1.1-1.5-1.5-3.2-1-5.3c0.4-0.6,1.1-2,2.2-4.1c1-2.1,1.6-3.3,1.6-3.5c0-2.4-1.1-4.8-3.5-6.7c-1.7-1.6-3.6-2.8-5.8-3.5
			c-3.8-1.4-9.8-1.6-18-0.8c-12.3,1.4-21.4,2.4-27.4,3.1c-9.5,0.9-16.5,1-21.1,0.3c-5.3-0.8-7.9-2-7.9-3.6s2.6-4.2,7.8-7.7
			c9.2-6.3,16.3-9.5,21.5-9.5c0.7,0,1.2,0.2,1.5,0.5c0.7,0.9,1.1,1.3,1.2,1.3c0.3,0,0.8-0.7,1.2-2.2c0.5-1.5,0.7-2.6,0.7-3.5
			c0-1.6-0.7-2.4-2.1-2.4c-5.4,0-12.7,3.1-21.7,9.3c-9.2,6.3-13.7,12.4-13.7,18.2c0,2.9,2.9,4.8,8.7,5.5c5.7,0.7,14,0.4,24.8-0.9
			c13.1-1.5,22-2.4,27-2.9c5.8-0.5,10.1-0.4,12.9,0.4c5,1.5,8.1,3.8,9.4,7.1c-11.9,2.4-25.3,4.5-40.1,6.1
			c-14.8,1.7-26.5,2.5-35.4,2.5c-9.6,0-15.7-1.6-18.2-4.7c-1-1.3-1.5-2.7-1.3-4.2c0.1-1,0-1.6-0.4-1.6c-0.5-0.1-1.3,0.5-2.2,1.9
			c-2,2.6-3.5,4.2-4.5,5.1c-2.4,1.9-5.2,2.9-8.2,2.9c-6.7,0-10.9-4.9-12.4-14.9c-0.1-0.5-1-7.9-2.6-22.2
			c-1.2-10.3-2.2-16.3-4.1-23.7c-0.6-2.4-1.4-4.8-2.4-7.4c-0.9-2.1-1.4-3.2-1.6-3.2c-0.1,0-0.5,1-1.1,3.2c-0.6,2.1-1,3.3-0.9,3.5
			c3.4,6.8,6.1,21.9,8.8,50.8C381.2,79.2,386,86,394.5,86c5,0,9-2.1,12.1-6.3c1.5-1.9,2.3-2.9,2.8-2.9c0.1,0.3,0.2,0.8,0.3,1.1
			c1,5.7,7.6,8.6,19.8,8.6c17.3,0,42.7-3.1,76.2-9.3c-1.4,4.3-1,7.9,1,10.6c0.2,0.3,0.4,0.5,0.6,0.8c0,0.3,0,0.4,0,0.7
			c0,1.2,0.3,1.8,0.9,1.8c4.1,0,7.3-1.8,9.6-5.4c2.1-3.3,3.1-7.2,3.1-11.7c0-3.7-1-10.9-2.8-21.5C516.2,42.7,513.1,25.9,511.3,15.9z
			"/>
		<path class="st1" d="M320.5,52.5c-2.9-17-5-29.5-6.5-37.4c1.2,1.2,1.9,1.9,2.2,2.2c1,1,1.6,1.5,2,1.3c0.3-0.3-0.8-3.1-3.3-8.6
			c-2.2-4.9-3.5-7.4-3.8-7.4c-0.1,0-0.5,0.8-1,2.2c-0.7,1.8-1.2,3.2-1.6,4.2c-0.1,0.3,0.2,0.9,1,1.6c1.6,10.4,2.8,18.2,3.7,23.3
			c3.3,18.8,4.8,27.8,5.6,35.8c0,0.3,0.1,2.2,0.3,5.4c0.1,1.6,0.3,2.2,0.6,2.2c0.5,0,1.1-1.8,1.8-5.5c0.4-2,0.6-3.9,0.6-5.8
			C322.1,63.2,321.8,61.4,320.5,52.5z"/>
		<path class="st1" d="M256.2,19.7c2.9,5.3,7.3,11.3,13.4,18.2c4.8,5.3,9.7,10.5,14.6,15.7c4.2,4.8,7.3,9.3,9.2,13.6
			c0.2,0.5,0.6,1.9,1.2,4.2c0.4,1.7,0.8,2.5,1,2.5c1,0,1-2.8-0.2-8.2c-1-4.9-3.9-10.1-8.6-15.6c-0.3-0.3-5-5.5-14.2-15.7
			c-6-6.6-9.8-11.2-11.5-13.9c2.9,0.9,4.3,1.1,4.4,0.7c0.1-0.3-1.6-1.8-4.9-4.6s-5.2-4.1-5.4-4.1s-0.3,1-0.6,3
			c-0.2,2-0.3,3.1-0.2,3.4C255.2,19.1,255.7,19.4,256.2,19.7z"/>
		<path class="st1" d="M299.7,35.7c-1.2-7-2.4-14.1-3.7-21.1c2,2.8,3.3,4,3.8,3.7c0.3-0.2-0.6-2.8-2.9-7.7c-2.2-4.9-3.5-7.4-3.9-7.4
			c-0.2,0-0.7,1-1.5,2.8s-1.2,2.9-1.2,3.1c0,0.3,0.3,0.8,0.9,1.3c0.3,3.6,1.8,13.5,4.7,29.6c2.7,15.3,4.1,25,4.1,29.1
			c0,2.2-0.6,4.2-1.9,6.1c-2.2,3.1-6.7,6.9-13.4,11.4c-2.3,1.6-5.4,3.4-9.1,5.4c-2.8,1.5-4.1,2.2-4.1,2.4c0.1,0.2,2.1-0.1,6-0.9
			c6.7-1.4,11.6-3.1,14.5-5.1c7.5-5.4,11.2-14.1,11.1-26.2C303,57,301.8,48.3,299.7,35.7z"/>
		<path class="st1" d="M179,18.1c2.9,5.3,7.3,11.3,13.4,18.2c4.8,5.3,9.7,10.5,14.6,15.7c4.2,4.8,7.3,9.3,9.2,13.6
			c0.2,0.5,0.6,1.9,1.2,4.2c0.4,1.7,0.8,2.5,1,2.5c1,0,0.9-2.8-0.2-8.2c-1-4.9-3.9-10.1-8.6-15.6c-0.3-0.3-5-5.5-14.2-15.7
			c-6-6.6-9.8-11.2-11.5-13.9c2.9,0.9,4.3,1.1,4.4,0.7c0.1-0.3-1.6-1.8-4.9-4.6c-3.4-2.8-5.2-4.1-5.4-4.1s-0.3,1-0.6,3
			c-0.2,2-0.3,3.1-0.2,3.4C178,17.6,178.5,17.9,179,18.1z"/>
		<path class="st1" d="M276.7,67.1c0-1.4-0.2-2.7-0.5-4c-0.3-1.1-0.7-1.7-0.9-1.7c-0.2,0-0.6,0.9-1.3,2.6c-0.7,1.7-1,2.8-1,3.1
			s0.3,0.7,0.7,1.3c0.4,0.5,0.7,1.1,0.7,1.6c0,1-1,1.4-2.9,1.4s-3.5-0.6-4.6-1.8c-1.2-1.4-1.6-2.8-1-4.2c0.3-1,0.4-1.6,0.3-1.7
			c-0.4-0.3-1,0-1.7,1c-0.4,0.7-0.9,1.6-1.3,2.9c-1.7,4.4-4.5,6.6-8.2,6.6c-3.8,0-5.7-1.4-5.7-4.2c0-0.9,0.3-1.9,0.9-3.2
			c0.2-0.4,0.1-0.7-0.1-0.8c-0.2-0.1-0.5,0.1-1,0.5c-0.4,0.3-1,1-1.6,1.7c-3.7,5.2-7.3,7.8-11,7.8c-5.4,0-8.5-3.8-9.5-11.2
			c-1.1-9.4-2.9-21.2-5.4-35.5c-1.7-9.9-3.4-17.6-4.9-23.3c-0.7-2.9-1.2-4.4-1.6-4.4c-0.2,0-0.4,1.1-1,3.5c-0.4,2.3-0.7,3.6-0.7,4
			c1.4,7.1,2.8,14.2,4.1,21.3c2.7,15.1,4.3,25.8,5,31.8v1.3c0,6.4-3.2,12.4-9.7,18c-1.8,1.6-4.6,3.5-8.2,5.6
			c-0.5,0.3-3.1,1.6-7.8,4.2c-2.2,1.2-2.8,1.8-1.6,1.8c1.4,0,6-1.1,13.7-3.5c4.6-1.5,8.4-4.9,11.3-10.3c2.1-3.7,3.4-8,3.9-12.9
			c1.2,10.6,4.7,15.8,10.7,15.9c0,0,0,0,0.1,0c0,0,0,0,0.1,0c2.9,0,5.6-1.2,8-3.6c1.7-2.1,3-3.7,3.8-4.9c-0.1,1.9,0.5,3.5,1.9,5
			c1.3,1.5,2.9,2.2,4.8,2.2c1.7,0,3.5-0.6,5.1-1.8c1.5-1,2.5-2.2,2.9-3.4c1-2,1.6-3.2,1.8-3.5c0.5,3.8,2.7,5.8,6.5,5.8
			C274.4,78,276.7,74.4,276.7,67.1z"/>
		<path class="st1" d="M160.5,105.1l-6.5-3.8l-3.2,5.7l6.6,3.9l2.7-4.8l6.5,3.8l3.2-5.7l-6.7-3.9L160.5,105.1z"/>
		<path class="st1" d="M191.4,44.4c-3-2.1-5.6-3.1-7.7-3.1c-1.4,0-2.8,0.7-4.1,2c-1.5,1.5-2.2,2.9-2.2,4.7c0,1.3,0.9,3.3,2.5,5.9
			c-5.4,2.4-10.1,5.3-14.2,8.4c-0.4,0.3-1.1,1.2-1.9,2.6c-0.9,1.4-1.2,2.3-1.2,2.9c0,0.1,0,0.2,0.1,0.2c2.1,1.2,6.2,2.3,12.3,3.5
			c2.6,0.4,4.8,1.2,6.4,2.2c1.3,0.8,1.9,1.5,1.9,1.9c0,0.9-2.9,2.9-8.8,6c-9,4.8-17.3,7.3-25,7.3c-4.2,0-7.8-1-10.8-2.9
			c-3.8-2.6-5.8-6.5-5.8-11.8c0-3.2,0.5-6.2,1.6-9.2c0.9-2.3,1.2-3.5,0.9-3.7c-0.8-0.3-1.9,1.4-3.4,5.3s-2.2,7.8-2.2,11.8
			c0,4.8,1.5,8.7,4.4,11.8c3.3,3.5,7.8,5.4,13.7,5.4c5.3,0,11.3-1.4,18.2-4.2c6.4-2.7,11.8-5.9,16.5-9.6c1.1-0.9,2.2-2.5,3.1-4.9
			c0.8-2.1,1.2-3.6,1.2-4.8c0-1.8-1.4-3.4-4.1-4.6c-1.9-0.9-5.4-1.8-10.4-2.8c-0.5-0.1-1-0.2-1.5-0.3c3.5-2.1,7.4-4.1,12.1-6
			c1,1.1,1.4,1.6,1.3,1.6c0.4,0,0.5-0.8,0.3-2.2c2.3-1,5.3-2,8.7-3.2c0.3-0.1,0.7-0.9,1.3-2.2c0.6-1.4,0.9-2.7,0.9-3.9
			C195.4,47.5,194.1,46.3,191.4,44.4z M182.5,52.8c-1.4-2.1-2.1-3.4-2.1-3.8c0-0.9,0.7-1.3,2.2-1.3c0.7,0,1.8,0.3,3.3,1
			s2.2,1.2,2.4,1.6L182.5,52.8z"/>
		<path class="st1" d="M299.3,93.7c2.2-1.5,3-1.5,4.4,0.2c0.4-1,1-1.7,1.1-2.6c0.1-0.6-0.1-1.6-0.5-2c-0.3-0.3-1.4-0.3-1.9,0.1
			c-1.3,0.8-2.5,1.7-3.5,2.9c-2.8,2.8-2.7,3.8,0.6,6.1c0.1,0.1,0.2,0.3,0.3,0.4c-0.6,1.1-1.1,2.2-1.7,3.3c3.1-1.7,5.9-3.3,8.8-4.8
			c1.5-0.7,1.9-1.8,2.2-3.5c-1.5,0.7-2.7,1.2-3.8,1.8C302.8,96.6,300.7,95.9,299.3,93.7z"/>
		<path class="st1" d="M195.6,9.4c1.3,1,2.3,1.7,3.5,2.8c1.1,1,1.9,2,2.6,3c2.6,3.8,2.5,8.4,2.4,10.7c-0.1,4.2-1.2,6.8-1.1,6.9
			c0.2,0,2.3-4.1,2.6-9.6c0.6-12.7-10-19.5-10-19.5s-0.3,2.6-0.3,2.9C195.3,7,195.1,8.9,195.6,9.4z"/>
		<path class="st1" d="M387.8,104.4c0,0.3,0.2,0.6,0.1,0.9c-0.2,1-0.3,1.9-0.6,2.7c-0.3,0.6-0.8,1.1-1.3,1.5c-1,0.6-1.8,0.3-2.4-0.6
			c-1.1-1.8-1.4-3.9-1-6c0.5-3,1.2-6.1,1.9-9.1c0.2-0.8,0.7-1.5,1.1-2.2c0.2,0.1,0.3,0.1,0.4,0.2c-0.1,0.4-0.2,0.9-0.3,1.4
			c-0.9,3.5-1.9,7.1-1.7,10.8c0,0.6,0.1,1.2,0.3,1.7c0.2,0.4,0.7,1,1,1c0.5,0,1.1-0.3,1.5-0.8c0.3-0.3,0.5-1,0.7-1.5
			C387.7,104.4,387.8,104.4,387.8,104.4z"/>
		<path class="st1" d="M347.2,110.4c-0.3-1.5-0.1-2.8,0.5-4c0.2-0.3,0.6-0.7,1-0.9c13-5.7,26.2-10.7,39.7-15
			c0.3-0.1,0.5-0.1,0.8-0.2c0.3,1.5-0.9,3.5-2.2,4.1c-7.2,2.7-14.4,5.3-21.6,8.1c-6,2.4-11.8,5.1-17.6,7.7
			C347.6,110.2,347.6,110.3,347.2,110.4z"/>
		<path class="st1" d="M300.3,108.6c0.2-0.4,0.3-0.9,0.7-1.3c1.5-2,3.2-3.7,5.4-4.8c4-1.9,8-3.7,11.9-5.6c0.5-0.3,1.1-0.3,1.7-0.4
			c-1.1,1.8-1.8,3.8-4,4.8c-4.6,2.2-9.2,4.5-13.7,6.7c-0.6,0.3-1.2,0.6-1.8,0.9C300.4,108.8,300.4,108.7,300.3,108.6z"/>
		<text transform="matrix(1 0 0 1 55.8061 84.0499)" class="st1 st2 st3">7</text>
		<text transform="matrix(1 0 0 1 17.2014 84.0494)" class="st1 st2 st3">4</text>
	</g>
</g>
</svg>
