<?xml version="1.0" encoding="utf-8"?>
<!-- Generator: Adobe Illustrator 16.0.0, SVG Export Plug-In . SVG Version: 6.00 Build 0)  -->
<!DOCTYPE svg PUBLIC "-//W3C//DTD SVG 1.1//EN" "http://www.w3.org/Graphics/SVG/1.1/DTD/svg11.dtd">
<svg version="1.1" id="Layer_1" xmlns="http://www.w3.org/2000/svg" xmlns:xlink="http://www.w3.org/1999/xlink" x="0px" y="0px"
	 width="673.999px" height="112.283px" viewBox="24 25.858 673.999 112.283" enable-background="new 24 25.858 673.999 112.283"
	 xml:space="preserve">
<g>
	<circle fill="#FBC311" cx="89.293" cy="84.116" r="54.025"/>
	<g>
		<path fill="#2F67B2" d="M640.298,66.848c-4.409-1.297-8.904-1.297-13.658-1.211c0.175-0.346,0.261-0.605,0.347-0.865
			c1.297-1.815,2.68-3.545,3.977-5.275c0.173-0.259,0.605-0.432,0.864-0.518c4.495-0.692,8.903,0.172,13.139,1.557
			c1.124,0.346,1.645,1.383,1.383,2.508c-0.259,0.951-0.689,1.902-1.21,2.68c-1.21,1.557-2.507,2.941-3.89,4.324
			c-1.469,1.471-3.457,2.076-5.445,2.422c-2.075,0.432-4.234,0.691-6.396,0.951c-0.434,0.086-0.865-0.174-1.21-0.26
			c0.345-0.26,0.604-0.691,0.948-0.865c3.547-1.643,7.091-3.285,10.635-4.929c0.173-0.087,0.346-0.173,0.519-0.259
			C640.298,67.107,640.298,67.021,640.298,66.848z"/>
		<path fill="#2F67B2" d="M285.884,67.972c-4.408-1.298-8.903-1.298-13.657-1.211c0.172-0.346,0.259-0.604,0.345-0.864
			c1.297-1.816,2.68-3.546,3.977-5.275c0.173-0.26,0.605-0.433,0.864-0.52c4.495-0.691,8.904,0.174,13.139,1.557
			c1.124,0.347,1.643,1.385,1.383,2.508c-0.259,0.951-0.691,1.903-1.21,2.682c-1.21,1.557-2.507,2.939-3.89,4.324
			c-1.469,1.47-3.457,2.075-5.446,2.421c-2.074,0.433-4.235,0.692-6.396,0.951c-0.433,0.087-0.865-0.173-1.211-0.259
			c0.346-0.26,0.606-0.692,0.951-0.865c3.544-1.643,7.089-3.286,10.633-4.93c0.173-0.086,0.345-0.173,0.518-0.26
			C285.884,68.145,285.884,68.059,285.884,67.972z"/>
		<path fill="#2F67B2" d="M618.687,39.693c0.521-2.768,0.864-5.361,1.472-7.869c0.345-1.471,0.862-2.854,1.556-4.151
			c0.52-1.038,1.383-1.21,2.506-0.951c2.682,0.778,3.631,3.546,1.902,5.708c-0.346-0.434-0.778-0.865-1.124-1.298
			c-1.123-1.297-2.42-1.21-2.939,0.433c-0.689,1.988-1.037,4.15-1.469,6.227c-0.346,1.816-0.604,3.719-0.865,5.621
			c-0.086,0.519-0.345,0.951-0.518,1.383c-0.087,0-0.26,0-0.346,0.087c-0.348-0.604-0.778-1.124-0.951-1.729
			c-0.605-1.383-0.951-2.854-1.644-4.237c-0.604-1.298-1.556-2.335-2.334-3.546c-0.087,0.087-0.173,0.26-0.26,0.346
			c-0.604-0.086-1.21-0.086-1.813-0.259c-0.434-0.087-0.778-0.433-1.211-0.605c-1.814-1.038-2.335-2.249-1.729-4.323
			c0.259-0.865,0.778-1.385,1.729-1.125c0.863,0.26,1.901,0.691,2.594,1.297c1.987,1.73,3.198,3.893,4.321,6.227
			C617.823,37.704,618.168,38.656,618.687,39.693z"/>
		<path fill="#2F67B2" d="M265.484,40.559c0.519-2.768,0.865-5.362,1.47-7.87c0.345-1.47,0.864-2.854,1.556-4.151
			c0.518-1.037,1.383-1.21,2.506-0.951c2.68,0.779,3.631,3.546,1.902,5.708c-0.346-0.433-0.778-0.864-1.124-1.298
			c-1.123-1.297-2.42-1.21-2.939,0.434c-0.691,1.988-1.037,4.15-1.469,6.227c-0.346,1.815-0.605,3.718-0.865,5.621
			c-0.086,0.518-0.345,0.951-0.518,1.383c-0.087,0-0.26,0-0.346,0.086c-0.346-0.604-0.778-1.123-0.951-1.729
			c-0.605-1.384-0.951-2.854-1.642-4.238c-0.605-1.297-1.556-2.334-2.334-3.545c-0.087,0.086-0.173,0.26-0.26,0.346
			c-0.605-0.086-1.21-0.086-1.815-0.26c-0.432-0.086-0.778-0.432-1.21-0.605c-1.815-1.037-2.334-2.248-1.729-4.323
			c0.259-0.864,0.778-1.384,1.729-1.124c0.864,0.26,1.902,0.691,2.593,1.297c1.988,1.729,3.199,3.892,4.322,6.227
			C264.621,38.569,264.965,39.434,265.484,40.559z"/>
		<path fill="#2F67B2" d="M693.459,74.804c0.087,0.346,0.173,0.691,0.173,1.038c-0.173,1.123-0.259,2.248-0.69,3.285
			c-0.261,0.692-0.95,1.384-1.557,1.73c-1.21,0.777-2.248,0.432-2.938-0.779c-1.384-2.248-1.729-4.67-1.297-7.178
			c0.604-3.631,1.47-7.35,2.334-10.896c0.259-0.951,0.862-1.816,1.383-2.681c0.173,0.086,0.346,0.086,0.432,0.172
			c-0.086,0.52-0.173,1.125-0.346,1.644c-1.123,4.324-2.247,8.562-2.074,13.059c0,0.691,0.086,1.47,0.346,2.075
			c0.261,0.52,0.864,1.211,1.297,1.297c0.604,0,1.384-0.432,1.815-0.951c0.432-0.432,0.604-1.211,0.864-1.815
			C693.2,74.804,693.373,74.804,693.459,74.804z"/>
		<path fill="#2F67B2" d="M671.589,53.271c0.087,0.346,0.173,0.692,0.173,1.038c-0.173,1.124-0.259,2.248-0.689,3.285
			c-0.262,0.692-0.951,1.385-1.558,1.73c-1.21,0.777-2.248,0.432-2.938-0.779c-1.383-2.248-1.729-4.669-1.297-7.178
			c0.604-3.631,1.47-7.35,2.334-10.896c0.259-0.951,0.862-1.815,1.383-2.681c0.173,0.086,0.346,0.086,0.432,0.173
			c-0.086,0.519-0.173,1.124-0.345,1.644c-1.124,4.323-2.248,8.561-2.075,13.058c0,0.692,0.086,1.47,0.347,2.075
			c0.26,0.52,0.863,1.211,1.297,1.297c0.604,0,1.383-0.432,1.814-0.951c0.434-0.432,0.605-1.21,0.864-1.815
			C671.33,53.184,671.503,53.184,671.589,53.271z"/>
		<path fill="#2F67B2" d="M617.995,70.566c0.087,0.346,0.173,0.691,0.173,1.037c-0.173,1.125-0.259,2.248-0.691,3.286
			c-0.26,0.692-0.949,1.384-1.556,1.729c-1.21,0.779-2.248,0.433-2.938-0.777c-1.384-2.249-1.729-4.67-1.298-7.178
			c0.605-3.633,1.472-7.352,2.334-10.896c0.261-0.951,0.864-1.816,1.385-2.682c0.173,0.087,0.346,0.087,0.432,0.174
			c-0.086,0.519-0.173,1.124-0.345,1.643c-1.124,4.324-2.248,8.562-2.075,13.059c0,0.691,0.086,1.47,0.346,2.075
			c0.259,0.519,0.864,1.21,1.296,1.297c0.605,0,1.383-0.433,1.816-0.951c0.432-0.433,0.604-1.21,0.864-1.815
			C617.736,70.479,617.909,70.479,617.995,70.566z"/>
		<path fill="#2F67B2" d="M581.689,86.132c0.087,0.347,0.174,0.692,0.174,1.038c-0.174,1.124-0.262,2.248-0.692,3.286
			c-0.259,0.692-0.951,1.384-1.556,1.729c-1.21,0.777-2.247,0.432-2.939-0.778c-1.383-2.249-1.729-4.671-1.297-7.179
			c0.605-3.631,1.47-7.351,2.334-10.896c0.26-0.951,0.865-1.815,1.383-2.681c0.173,0.086,0.347,0.086,0.435,0.174
			c-0.087,0.518-0.174,1.123-0.348,1.643c-1.124,4.324-2.248,8.561-2.073,13.059c0,0.691,0.087,1.47,0.346,2.074
			c0.259,0.521,0.865,1.211,1.297,1.299c0.604,0,1.383-0.434,1.814-0.951c0.433-0.434,0.604-1.211,0.863-1.816
			C581.43,86.045,581.603,86.045,581.689,86.132z"/>
		<path fill="#2F67B2" d="M578.232,42.028c0.087,0.346,0.173,0.692,0.173,1.038c-0.173,1.124-0.261,2.248-0.691,3.285
			c-0.26,0.692-0.951,1.385-1.556,1.73c-1.211,0.777-2.248,0.432-2.939-0.778c-1.383-2.249-1.729-4.67-1.297-7.178
			c0.605-3.632,1.469-7.351,2.334-10.896c0.259-0.951,0.864-1.815,1.383-2.681c0.173,0.086,0.348,0.086,0.434,0.173
			c-0.086,0.519-0.174,1.124-0.348,1.644c-1.123,4.323-2.247,8.561-2.072,13.058c0,0.692,0.086,1.47,0.346,2.075
			c0.259,0.52,0.864,1.211,1.296,1.297c0.604,0,1.383-0.432,1.815-0.951c0.433-0.432,0.604-1.21,0.863-1.815
			C577.973,41.941,578.146,41.941,578.232,42.028z"/>
		<path fill="#2F67B2" d="M310.175,42.201c0.086,0.346,0.172,0.691,0.172,1.037c-0.172,1.125-0.259,2.249-0.691,3.287
			c-0.259,0.691-0.951,1.383-1.556,1.729c-1.21,0.778-2.248,0.433-2.939-0.778c-1.383-2.248-1.729-4.67-1.297-7.178
			c0.605-3.633,1.47-7.351,2.334-10.896c0.26-0.951,0.865-1.816,1.383-2.681c0.173,0.087,0.346,0.087,0.433,0.173
			c-0.087,0.52-0.173,1.125-0.346,1.643c-1.124,4.324-2.248,8.563-2.075,13.059c0,0.691,0.087,1.471,0.346,2.076
			c0.259,0.518,0.864,1.21,1.297,1.297c0.605,0,1.383-0.433,1.815-0.951c0.432-0.433,0.605-1.211,0.864-1.816
			C309.916,42.201,310.002,42.201,310.175,42.201z"/>
		<path fill="#2F67B2" d="M204.11,63.129c0.087,0.346,0.173,0.691,0.173,1.037c-0.173,1.125-0.259,2.249-0.692,3.287
			c-0.259,0.691-0.95,1.383-1.555,1.729c-1.211,0.778-2.248,0.433-2.94-0.778c-1.383-2.248-1.728-4.67-1.296-7.178
			c0.605-3.633,1.469-7.351,2.334-10.896c0.259-0.951,0.864-1.816,1.383-2.681c0.173,0.087,0.346,0.087,0.432,0.173
			c-0.086,0.52-0.173,1.124-0.346,1.643c-1.123,4.324-2.247,8.563-2.074,13.059c0,0.691,0.086,1.471,0.345,2.076
			c0.26,0.518,0.865,1.21,1.297,1.297c0.605,0,1.383-0.433,1.815-0.951c0.433-0.433,0.605-1.211,0.865-1.816
			C203.852,63.129,204.024,63.129,204.11,63.129z"/>
		<path fill="#2F67B2" d="M594.051,120.464c0.087-0.347,0.173-0.692,0.434-0.95c0.69-0.865,1.383-1.816,2.248-2.509
			c0.604-0.433,1.469-0.692,2.245-0.778c1.385-0.086,2.161,0.691,2.248,2.162c0.086,2.594-0.776,4.93-2.334,6.918
			c-2.334,2.939-4.841,5.707-7.348,8.389c-0.691,0.691-1.642,1.125-2.507,1.644c-0.086-0.172-0.172-0.26-0.346-0.433
			c0.346-0.434,0.69-0.864,1.037-1.297c3.024-3.2,6.138-6.399,8.212-10.379c0.347-0.604,0.69-1.297,0.69-1.987
			c0.087-0.604-0.086-1.472-0.518-1.729c-0.521-0.347-1.384-0.26-1.988-0.087c-0.605,0.175-1.124,0.778-1.644,1.125
			C594.31,120.637,594.138,120.551,594.051,120.464z"/>
		<path fill="#2F67B2" d="M467.586,120.723c0.087-0.346,0.173-0.69,0.433-0.951c0.691-0.863,1.385-1.814,2.247-2.508
			c0.605-0.432,1.472-0.69,2.248-0.777c1.385-0.086,2.161,0.691,2.247,2.162c0.087,2.595-0.776,4.93-2.334,6.918
			c-2.334,2.939-4.841,5.707-7.347,8.389c-0.692,0.691-1.645,1.124-2.507,1.645c-0.087-0.175-0.173-0.261-0.348-0.433
			c0.348-0.435,0.692-0.865,1.037-1.298c3.026-3.2,6.14-6.398,8.212-10.378c0.348-0.605,0.692-1.298,0.692-1.988
			c0.086-0.604-0.087-1.471-0.519-1.729c-0.52-0.347-1.385-0.26-1.988-0.086c-0.605,0.172-1.124,0.777-1.644,1.123
			C467.846,120.811,467.673,120.723,467.586,120.723z"/>
		<path fill="#2F67B2" d="M455.484,64.253c0,0.26,0.173,0.605,0.087,0.864c-0.173,0.952-0.261,1.903-0.605,2.682
			c-0.26,0.605-0.777,1.124-1.297,1.471c-0.951,0.604-1.814,0.346-2.42-0.605c-1.124-1.816-1.383-3.893-1.038-5.968
			c0.519-3.026,1.211-6.054,1.902-9.08c0.173-0.778,0.69-1.47,1.124-2.249c0.173,0.087,0.259,0.087,0.432,0.174
			c-0.086,0.432-0.173,0.865-0.259,1.383c-0.865,3.547-1.902,7.092-1.729,10.811c0,0.605,0.086,1.211,0.261,1.729
			c0.173,0.433,0.69,1.038,1.036,1.038c0.52,0,1.123-0.346,1.471-0.779c0.346-0.346,0.519-0.951,0.69-1.47
			C455.225,64.253,455.398,64.253,455.484,64.253z"/>
		<path fill="#2F67B2" d="M455.917,38.742c0,0.26,0.173,0.519,0.086,0.778c-0.173,0.864-0.259,1.729-0.518,2.508
			c-0.175,0.519-0.692,1.038-1.211,1.298c-0.95,0.604-1.729,0.346-2.247-0.605c-1.037-1.73-1.299-3.547-0.951-5.449
			c0.432-2.767,1.124-5.534,1.729-8.301c0.173-0.692,0.691-1.385,1.037-2.076c0.087,0.086,0.26,0.086,0.347,0.173
			c-0.087,0.433-0.174,0.865-0.26,1.211c-0.864,3.286-1.729,6.485-1.556,9.944c0,0.52,0.086,1.125,0.259,1.557
			c0.173,0.434,0.605,0.951,0.951,0.951c0.432,0,1.037-0.346,1.383-0.691c0.346-0.345,0.433-0.951,0.691-1.383
			C455.657,38.742,455.83,38.742,455.917,38.742z"/>
		<path fill="#2F67B2" d="M642.718,36.061c0,0.26,0.086,0.434,0.086,0.692c-0.086,0.692-0.173,1.47-0.432,2.075
			c-0.173,0.433-0.605,0.865-1.037,1.125c-0.778,0.519-1.47,0.259-1.902-0.52c-0.862-1.47-1.124-3.026-0.862-4.67
			c0.432-2.334,0.948-4.67,1.469-7.004c0.173-0.605,0.604-1.125,0.864-1.73c0.087,0,0.173,0.087,0.346,0.087
			c-0.086,0.347-0.086,0.692-0.173,1.038c-0.691,2.768-1.469,5.534-1.383,8.389c0,0.432,0,0.951,0.26,1.297
			c0.173,0.346,0.518,0.777,0.864,0.777c0.432,0,0.862-0.259,1.124-0.604c0.259-0.26,0.346-0.778,0.604-1.211
			C642.545,36.061,642.631,36.061,642.718,36.061z"/>
		<path fill="#2F67B2" d="M520.921,128.592c0,0.262,0.173,0.606,0.087,0.865c-0.173,0.951-0.26,1.902-0.604,2.682
			c-0.262,0.604-0.778,1.123-1.297,1.471c-0.951,0.604-1.815,0.346-2.422-0.604c-1.124-1.815-1.384-3.894-1.037-5.968
			c0.52-3.025,1.211-6.055,1.901-9.08c0.173-0.777,0.692-1.471,1.124-2.249c0.173,0.087,0.259,0.087,0.434,0.174
			c-0.089,0.433-0.175,0.864-0.261,1.384c-0.864,3.545-1.9,7.092-1.729,10.811c0,0.605,0.086,1.21,0.259,1.729
			c0.173,0.434,0.692,1.039,1.037,1.039c0.519,0,1.124-0.347,1.47-0.777c0.346-0.348,0.521-1.039,0.691-1.473
			C520.748,128.592,520.835,128.592,520.921,128.592z"/>
		<path fill="#2F67B2" d="M504.497,47.995c0,0.26,0.173,0.605,0.087,0.864c-0.173,0.951-0.26,1.903-0.606,2.682
			c-0.259,0.605-0.775,1.124-1.296,1.47c-0.949,0.605-1.813,0.347-2.421-0.604c-1.123-1.816-1.383-3.893-1.037-5.968
			c0.521-3.026,1.21-6.054,1.902-9.08c0.173-0.778,0.691-1.47,1.124-2.249c0.173,0.087,0.259,0.087,0.432,0.174
			c-0.087,0.432-0.173,0.865-0.259,1.383c-0.865,3.547-1.901,7.092-1.729,10.811c0,0.605,0.086,1.211,0.259,1.729
			c0.173,0.433,0.69,1.038,1.037,1.038c0.519,0,1.124-0.346,1.47-0.779c0.346-0.346,0.521-0.951,0.691-1.47
			C504.324,47.995,504.411,47.995,504.497,47.995z"/>
		<path fill="#2F67B2" d="M398.347,68.145c0,0.26,0.172,0.605,0.086,0.865c-0.173,0.951-0.26,1.902-0.604,2.681
			c-0.261,0.604-0.778,1.124-1.297,1.47c-0.951,0.605-1.815,0.346-2.421-0.605c-1.123-1.816-1.383-3.891-1.037-5.967
			c0.519-3.027,1.211-6.053,1.902-9.08c0.172-0.778,0.69-1.471,1.122-2.248c0.175,0.086,0.261,0.086,0.434,0.173
			c-0.087,0.433-0.173,0.864-0.259,1.384c-0.865,3.545-1.902,7.091-1.729,10.81c0,0.604,0.086,1.21,0.259,1.729
			c0.174,0.432,0.692,1.037,1.037,1.037c0.521,0,1.124-0.346,1.471-0.777c0.347-0.346,0.52-0.951,0.691-1.471L398.347,68.145
			L398.347,68.145z"/>
		<path fill="#2F67B2" d="M269.202,85.268c0,0.26,0.173,0.605,0.086,0.864c-0.172,0.951-0.259,1.903-0.605,2.681
			c-0.259,0.605-0.778,1.125-1.296,1.472c-0.951,0.604-1.816,0.346-2.421-0.604c-1.123-1.816-1.383-3.893-1.037-5.968
			c0.519-3.027,1.21-6.054,1.902-9.08c0.173-0.779,0.691-1.471,1.123-2.249c0.173,0.087,0.26,0.087,0.433,0.173
			c-0.087,0.433-0.173,0.865-0.26,1.384c-0.864,3.546-1.901,7.091-1.728,10.81c0,0.605,0.086,1.211,0.259,1.73
			c0.173,0.432,0.691,1.037,1.037,1.037c0.519,0,1.124-0.347,1.47-0.779c0.345-0.346,0.518-0.95,0.691-1.469
			C269.028,85.268,269.116,85.268,269.202,85.268z"/>
		<path fill="#2F67B2" d="M171.694,73.42c0.087,0.691,0.346,1.47,0.26,2.075c-0.346,2.249-0.519,4.497-1.297,6.572
			c-0.519,1.384-1.642,2.681-2.766,3.546c-2.075,1.47-3.89,0.865-5.187-1.557c-2.42-4.411-3.025-9.427-2.333-14.441
			c1.037-7.352,2.593-14.615,4.062-21.879c0.432-1.903,1.556-3.546,2.334-5.362c0.26,0.087,0.519,0.26,0.865,0.347
			c-0.173,1.123-0.346,2.161-0.519,3.285c-1.902,8.562-3.976,17.123-3.717,26.117c0.086,1.383,0.086,2.854,0.605,4.064
			c0.432,1.037,1.47,2.508,2.248,2.508c1.037,0,2.333-0.865,3.198-1.816c0.778-0.951,1.037-2.422,1.556-3.632
			C171.176,73.333,171.436,73.333,171.694,73.42z"/>
		<path fill="#2F67B2" d="M488.16,35.802c4.754-1.557,9.508-3.2,14.262-4.67c4.928-1.557,9.77-3.112,14.696-4.669
			c0.259-0.087,0.604-0.174,0.864-0.26c0.086,0.086,0.173,0.173,0.259,0.173c-0.691,1.556-1.296,3.112-2.161,4.497
			c-0.259,0.519-1.037,0.951-1.643,1.211c-14.437,4.929-28.872,9.771-43.222,14.787c-16.597,5.794-33.193,11.674-49.444,18.506
			c-1.125,0.433-2.161,0.951-3.284,1.384c-0.175-2.421,1.987-5.707,4.234-6.572C444.333,51.195,466.117,43.152,488.16,35.802z"/>
		<path fill="#2F67B2" d="M658.796,37.877c4.754-1.557,9.509-3.199,14.263-4.67c4.929-1.557,9.77-3.113,14.695-4.67
			c0.26-0.086,0.605-0.172,0.865-0.259l0.259,0.173c-0.692,1.557-1.297,3.113-2.161,4.497c-0.259,0.519-1.037,0.951-1.642,1.21
			c-14.438,4.93-28.872,9.772-43.222,14.788c-16.598,5.794-47.457,15.22-63.709,22.052c-1.123,0.433-2.159,0.951-3.283,1.384
			c-0.086-2.421,1.986-5.708,4.234-6.572C600.621,56.902,636.667,45.229,658.796,37.877z"/>
		<path fill="#2F67B2" d="M652.659,75.582c-0.261-1.471-0.087-2.768,0.518-3.979c0.173-0.346,0.605-0.691,1.038-0.865
			c12.966-5.707,26.192-10.723,39.677-15.047c0.261-0.086,0.52-0.086,0.777-0.172c0.26,1.469-0.864,3.545-2.161,4.063
			c-7.174,2.681-14.435,5.275-21.609,8.13c-5.966,2.421-11.757,5.102-17.635,7.695C653.004,75.408,652.918,75.408,652.659,75.582z"
			/>
		<path fill="#2F67B2" d="M480.293,134.561c-0.259-1.471-0.086-2.768,0.519-3.979c0.175-0.348,0.605-0.691,1.037-0.865
			c12.969-5.707,26.192-10.723,39.679-15.047c0.26-0.087,0.519-0.087,0.776-0.173c0.261,1.47-0.862,3.546-2.161,4.063
			c-7.174,2.682-14.436,5.274-21.608,8.129c-5.965,2.422-11.756,5.104-17.635,7.697
			C480.726,134.387,480.639,134.473,480.293,134.561z"/>
		<path fill="#2F67B2" d="M219.151,134.904c-0.259-1.469-0.086-2.766,0.519-3.978c0.173-0.346,0.605-0.692,1.037-0.864
			c12.966-5.707,26.192-10.724,39.677-15.047c0.259-0.086,0.519-0.086,0.778-0.174c0.259,1.471-0.865,3.547-2.161,4.064
			c-7.175,2.681-14.436,5.275-21.611,8.129c-5.964,2.421-11.756,5.104-17.634,7.695
			C219.583,134.732,219.498,134.818,219.151,134.904z"/>
		<path fill="#2F67B2" d="M566.39,60.535c0.434-0.347,0.95-0.692,1.384-0.952c4.928-2.854,9.854-5.62,14.78-8.562
			c4.236-2.594,8.212-5.447,11.67-8.993c0.261-0.259,0.434-0.519,0.692-0.778c0,0,0-0.086,0-0.173
			c-0.778-0.519-1.643-0.951-2.421-1.47c-2.939-2.076-3.458-4.584-1.469-7.61c0.776-1.211,1.813-2.249,2.852-3.286
			c0.432-0.433,1.037-0.605,1.556-0.865c1.385-0.432,2.334,0,2.854,1.384c0.864,2.249,0.689,4.583,0.346,6.919
			c0,0.172-0.087,0.259-0.087,0.346c-0.432,1.729-0.519,1.297,1.037,1.902c0.692,0.26,1.383,0.519,2.075,0.777
			c0.519,0.174,0.69,0.52,0.432,1.039v0.086c-0.951,2.508-1.124,2.594-3.717,1.902c-1.988-0.605-1.988-0.519-3.285,1.037
			c-2.42,2.941-5.271,5.362-8.384,7.611c-5.792,4.15-12.016,7.523-18.931,9.599c-0.435,0.087-0.778,0.173-1.212,0.259
			C566.476,60.707,566.476,60.621,566.39,60.535z M596.99,37.704c0.173-1.297,0.346-2.161,0.346-3.112
			c0-1.99-1.124-2.854-3.112-2.422c-0.862,0.173-1.47,0.605-1.729,1.47c-0.259,0.865,0.087,1.644,0.778,2.075
			C594.398,36.407,595.607,36.926,596.99,37.704z"/>
		<path fill="#2F67B2" d="M182.933,50.936c-2.248-1.211-3.198,0.432-4.236,1.902c-0.691-1.988,0.865-5.102,3.112-6.313
			c-1.21-2.94-2.68-5.708-5.1-8.129c-0.605,1.643-1.556,1.124-2.42,0.605c-0.692-0.433-1.383-0.865-2.075-1.298
			c-1.988-1.297-2.334-2.335-1.642-4.669c0.345-1.211,0.951-1.557,2.247-1.211c2.507,0.691,4.409,2.334,5.878,4.324
			c1.297,1.729,2.421,3.545,3.89,5.361c0-1.644-0.086-3.287,0-4.93c0.173-1.988,0.259-3.979,0.692-5.881
			c0.691-2.768,2.852-3.372,5.186-1.729c1.988,1.383,2.334,2.594,1.124,4.929c-0.346-0.347-0.778-0.605-1.124-1.038
			c-0.864-0.951-1.988-1.297-3.198-0.865c-1.21,0.347-1.297,1.471-1.383,2.596c-0.173,3.978-0.432,7.955-0.692,11.674
			c1.643,1.384,3.112,2.594,4.668,3.892c0.865,0.692,0.865,1.644,0.605,2.681c-0.346,1.038-0.864,1.643-1.988,1.902
			c-2.507,0.604-5.1,1.471-7.52,2.422c-1.556,0.605-1.643,1.211-1.297,2.854c1.469,7.61,3.025,15.221,4.409,22.831
			c0.345,1.988,0.691,3.891,0.95,5.881c0.087,0.69-0.086,1.469-0.086,2.248c-0.087,0-0.259,0-0.346,0.086
			c-0.173-0.433-0.432-0.865-0.518-1.297c-0.951-4.93-1.902-9.857-2.94-14.788c-0.864-4.324-1.815-8.562-2.766-12.885
			c-1.123-5.104,1.47-9.34,5.792-10.725C182.5,51.281,182.673,51.108,182.933,50.936z"/>
		<path fill="#2F67B2" d="M382.96,50.157c-2.248-1.211-3.199,0.433-4.235,1.902c-0.69-1.989,0.864-5.103,3.111-6.313
			c-1.21-2.94-2.68-5.708-5.102-8.13c-0.604,1.644-1.555,1.125-2.42,0.605c-0.69-0.432-1.383-0.864-2.074-1.297
			c-1.987-1.297-2.334-2.334-1.643-4.67c0.346-1.211,0.95-1.557,2.248-1.211c2.506,0.692,4.408,2.336,5.877,4.324
			c1.297,1.73,2.42,3.546,3.891,5.361c0-1.643-0.086-3.285,0-4.929c0.174-1.989,0.26-3.978,0.691-5.88
			c0.691-2.768,2.854-3.373,5.188-1.73c1.986,1.384,2.334,2.595,1.123,4.93c-0.346-0.346-0.777-0.605-1.123-1.037
			c-0.864-0.952-1.988-1.298-3.198-0.865c-1.21,0.346-1.297,1.47-1.383,2.594c-0.175,3.979-0.435,7.957-0.692,11.675
			c1.645,1.384,3.112,2.595,4.67,3.892c0.862,0.691,0.862,1.643,0.604,2.681c-0.348,1.038-0.864,1.644-1.988,1.903
			c-2.507,0.604-5.102,1.47-7.521,2.421c-1.556,0.604-1.643,1.21-1.297,2.854c1.471,7.61,3.025,15.22,4.408,22.83
			c0.346,1.99,0.692,3.892,0.951,5.881c0.087,0.69-0.086,1.47-0.086,2.247c-0.087,0-0.26,0-0.346,0.088
			c-0.174-0.434-0.432-0.865-0.521-1.297c-0.948-4.93-1.899-9.859-2.938-14.788c-0.863-4.324-1.814-8.563-2.766-12.886
			c-1.123-5.102,1.471-9.34,5.793-10.723C382.527,50.503,382.7,50.33,382.96,50.157z"/>
		<path fill="#2F67B2" d="M288.651,115.535c-0.087,0.259-0.087,0.604-0.173,0.863c-0.346,0.778,0,1.297,0.605,1.645
			c0.691,0.432,1.383,0.259,2.074,0c0.087,0,0-0.52-0.086-0.691c-0.346-0.605,0.086-2.422,0.778-2.596
			c0.173,0,0.519,0.26,0.605,0.434c0.692,1.211,0,4.582-0.951,5.533c-0.864,0.779-2.68,0.865-3.63-0.086
			c-0.606-0.52-0.951-0.346-1.384,0.086c-1.815,1.816-3.63,2.162-5.878,1.038c-2.506-1.297-4.84-0.778-7.001,0.692
			c-2.68,1.902-5.187,3.891-7.78,5.881c-3.976,2.939-8.471,4.842-13.312,5.879c-0.346,0.088-0.778,0.088-1.124,0.088
			c0-0.088-0.086-0.174-0.086-0.347c0.518-0.173,1.037-0.433,1.556-0.604c2.074-0.865,4.235-1.729,6.31-2.682
			c3.63-1.814,6.742-4.238,9.681-7.004c2.161-1.99,4.582-3.633,7.261-4.844c1.816-0.864,3.545-0.864,5.187,0.26
			c1.729,1.124,4.236,0.52,5.273-1.211c0.346-0.52,0.605-1.211,0.951-1.729c0.259-0.347,0.605-0.52,0.864-0.779
			C288.479,115.448,288.564,115.448,288.651,115.535z"/>
		<path fill="#2F67B2" d="M651.362,120.723c0.259,1.385,0,2.162-1.124,2.682c-2.42,1.037-4.322,2.769-6.139,4.584
			c-0.604,0.604-1.383,1.297-0.949,2.335c0.346,0.95,1.383,1.038,2.246,1.124c2.768,0.347,5.359-0.346,7.866-1.385
			c0.52-0.172,1.037-0.346,1.47-0.432c0.088,0.086,0.088,0.172,0.088,0.26c-0.088,0.172-0.262,0.432-0.348,0.604
			c-2.68,2.94-6.137,4.151-10.025,3.806c-0.348,0-0.692-0.088-1.038-0.174c-1.729-0.52-2.42-1.643-1.901-3.459
			c0.52-1.902,1.901-4.238,3.544-5.881c-0.432-0.346-0.865-0.691-1.21-1.037c-1.038-0.951-1.124-1.902-0.346-3.027
			c0.777-1.297,1.813-2.421,3.197-3.113c0.604-0.346,1.384-0.518,1.987,0c0.605,0.521,0.521,1.299,0.261,1.99
			c-0.174,0.433-0.434,0.777-0.604,1.211c-0.173-0.088-0.26-0.088-0.346-0.174c-0.778-1.123-1.729-1.123-2.682-0.173
			c-0.432,0.433-0.346,1.124,0.348,1.47c1.124,0.605,2.334,0.778,3.544,0.088c0.432-0.261,0.777-0.605,1.21-0.864
			C650.584,121.068,650.93,120.896,651.362,120.723z"/>
		<path fill="#2F67B2" d="M366.709,70.826c0.173,0.432,0.434,0.777,0.345,1.21c-0.172,1.989-0.172,4.064-0.604,6.054
			c-0.345,1.643-1.556,2.768-3.284,3.026c-1.729,0.26-2.595-0.951-3.373-2.162c-2.161-3.199-2.334-6.745-1.729-10.29
			c0.519-3.027,1.211-5.968,2.075-8.908c2.681-8.993,1.988-17.295-4.236-24.732c-0.691-0.865-1.037-1.729-0.605-2.768
			c0.433-1.297,0.865-2.594,1.383-4.236c0.692,0.777,1.211,1.21,1.556,1.729c3.977,6.4,5.792,13.404,5.792,20.928
			c0,4.757-1.729,9.08-2.938,13.577c-0.605,2.335-0.865,4.67-1.124,7.091c-0.086,0.951,0.087,1.989,0.346,2.854
			c0.346,1.297,1.037,2.248,2.593,2.161c1.471-0.086,2.422-0.951,2.681-2.508c0.173-0.951,0.347-1.902,0.433-2.854
			C366.275,70.826,366.536,70.826,366.709,70.826z"/>
		<path fill="#2F67B2" d="M430.157,130.063c0.519,0.174,0.951,0.347,1.297,0.521c2.593,1.383,5.271,1.558,8.125,0.951
			c4.235-0.951,8.471-1.729,12.707-2.595c0.087,0,0.259-0.086,0.346-0.086c-0.087-1.299-1.21-2.336-2.766-2.336
			c-0.951,0-1.988,0.086-2.939,0.26c-2.421,0.433-4.755,1.037-7.088,1.384c-1.211,0.174-2.507,0.174-3.717-0.347
			c-0.606-0.26-0.865-0.69-0.951-1.385c-0.26-2.42,0.691-4.496,1.901-6.57c1.038-1.815,2.248-3.547,3.977-4.93
			c0.434-0.347,0.864-0.779,1.383-0.434c0.52,0.347,0.605,0.952,0.52,1.557c-0.086,0.521-0.259,1.039-0.434,1.557
			c-0.949-0.69-1.124-0.776-1.986,0.088c-0.951,0.951-1.815,2.074-2.507,3.199c-0.691,1.037-1.298,2.248-1.729,3.373
			c-0.345,0.864-0.086,1.297,0.865,1.297c1.469,0,3.023-0.086,4.495-0.346c2.334-0.347,4.668-1.037,7.002-1.385
			c2.334-0.346,4.147,0.865,4.927,3.113c0.173,0.605,0.346,1.297,0.259,1.988c-0.173,1.211-0.951,2.076-2.161,2.422
			c-5.1,1.384-10.198,2.509-15.387,3.199c-1.642,0.174-3.198-0.259-4.235-1.729c-0.519-0.779-1.124-1.471-1.643-2.248
			C430.33,130.495,430.33,130.322,430.157,130.063z"/>
		<path fill="#2F67B2" d="M656.894,134.561c1.988-0.778,4.063-1.557,6.053-2.336c6.051-2.508,12.188-5.016,18.238-7.695
			c1.729-0.778,3.371-1.902,4.929-3.026c0.776-0.604,1.296-1.644,1.813-2.508c0.951-1.298,1.729-2.769,2.768-3.979
			c0.863-1.037,1.729-1.037,2.766-0.086c2.075,1.729,2.421,4.584,1.556,6.831c-0.086,0.347-0.689,0.692-1.123,0.692
			c-1.814,0.086-3.37-0.605-4.841-1.557c-0.173-0.174-0.346-0.261-0.604-0.347c-0.087,0-0.087,0-0.261-0.087
			c-0.26,0.605-0.433,1.21-0.69,1.814c-0.778,1.645-2.161,2.683-3.717,3.547c-5.016,2.767-10.2,5.103-15.646,7.005
			c-2.938,0.95-6.051,1.297-9.077,1.901c-0.689,0.174-1.383,0.174-2.072,0.261C656.894,134.732,656.894,134.646,656.894,134.561z
			 M693.373,119.771c0.173-1.988-0.951-3.026-2.421-2.508c-0.259,0.086-0.52,0.432-0.691,0.691c-0.087,0.173,0.173,0.52,0.434,0.604
			C691.471,118.994,692.336,119.34,693.373,119.771z"/>
		<path fill="#2F67B2" d="M198.751,119.945c1.901-0.951,3.89-1.902,5.791-2.854c5.792-3.026,11.67-6.055,17.462-9.254
			c1.728-0.95,3.198-2.162,4.667-3.459c0.778-0.69,1.124-1.729,1.643-2.594c0.778-1.386,1.469-2.854,2.334-4.238
			c0.778-1.124,1.642-1.124,2.766-0.346c2.247,1.557,2.766,4.323,2.161,6.657c-0.086,0.348-0.692,0.692-1.037,0.779
			c-1.816,0.26-3.458-0.26-5.014-1.125c-0.173-0.086-0.432-0.259-0.605-0.346c-0.086,0-0.086,0-0.259,0
			c-0.173,0.605-0.346,1.211-0.605,1.816c-0.606,1.729-1.902,2.854-3.372,3.892c-4.754,3.2-9.768,6.054-14.954,8.302
			c-2.853,1.211-5.878,1.816-8.904,2.682c-0.691,0.172-1.383,0.259-2.074,0.433C198.837,120.117,198.837,120.031,198.751,119.945z
			 M233.847,102.044c0-1.989-1.296-2.94-2.68-2.335c-0.259,0.086-0.518,0.434-0.605,0.777c0,0.174,0.26,0.52,0.519,0.605
			C231.944,101.352,232.81,101.611,233.847,102.044z"/>
		<path fill="#2F67B2" d="M517.55,50.157c-0.776,0-1.297,0.087-1.814,0c-0.691-0.259-1.385-0.605-1.988-0.951
			c-1.469-0.951-1.988-2.768-1.21-4.324c0.432-0.864,1.297-1.124,2.334-0.864c1.988,0.519,3.024,1.988,3.976,3.545
			c1.038,1.73,1.902,3.633,2.854,5.448c0.173,0.347,0.432,0.778,0.863,1.124c0.261-1.988,0.52-4.064,0.95-6.053
			c0.434-1.816,0.865-3.719,1.645-5.361c0.689-1.557,1.813-1.816,3.457-1.125c2.334,1.125,2.938,3.546,1.211,5.448
			c-0.435-0.519-0.778-1.038-1.297-1.47c-1.21-1.125-2.334-1.038-2.768,0.605c-0.604,1.988-0.951,3.978-1.383,6.053
			c-0.346,1.816-0.432,3.805-0.951,5.621c-0.69,2.768-2.68,4.584-4.927,6.141c-3.544,2.508-7.434,4.323-11.67,5.534
			c-0.173,0.087-0.346,0.087-0.605,0.173c-0.087-0.086-0.087-0.173-0.173-0.26c1.815-1.211,3.544-2.594,5.446-3.719
			c3.112-1.815,6.137-3.805,8.903-6.14c0.863-0.778,1.124-1.297,0.69-2.507c-0.777-2.336-1.642-4.498-3.285-6.313
			C517.809,50.416,517.55,50.244,517.55,50.157z"/>
		<path fill="#2F67B2" d="M433.01,39.174c0.434-2.334,0.691-4.669,1.21-7.004c0.26-1.297,0.778-2.508,1.383-3.719
			c0.52-1.124,1.558-1.384,2.682-0.865c0.172,0.087,0.259,0.174,0.432,0.26c2.161,1.211,2.593,2.768,1.123,5.016
			c-0.432-0.432-0.777-0.865-1.123-1.297c-1.124-1.297-1.988-1.124-2.766,0.346c-1.124,2.335-1.211,4.843-1.558,7.264
			c-0.173,1.211-0.346,2.509-0.604,3.719c-0.087,0.434-0.26,0.779-0.521,1.385c-0.432-0.605-0.776-0.951-0.949-1.385
			c-0.605-1.47-1.124-3.026-1.815-4.41c-0.604-1.124-1.47-2.162-2.161-3.113c-1.9,0.865-4.582-1.037-4.841-3.545
			c-3.891,5.447-9.422,8.042-15.3,10.204c-0.087-0.087-0.087-0.173-0.173-0.259c0.259-0.174,0.518-0.347,0.776-0.52
			c4.149-2.94,8.386-5.881,12.534-8.82c0.778-0.605,1.469-1.298,2.247-1.989c0.951-0.865,1.729-1.038,2.768-0.26
			c0.949,0.605,1.9,1.298,2.507,2.249c1.211,1.729,2.159,3.631,3.197,5.534c0.261,0.433,0.434,0.864,0.605,1.384
			C432.837,39.261,432.923,39.174,433.01,39.174z"/>
		<path fill="#2F67B2" d="M694.237,91.84c-1.384-1.902-2.939-2.854-4.668-2.682c-2.247,0.174-4.322,1.902-6.052,5.103
			c-0.346-0.259-0.604-0.346-0.69-0.346c-0.605,0.778-1.124,1.558-1.558,2.249c-1.729,3.025-3.196,5.188-4.494,6.313
			c-1.643,1.558-3.631,2.334-5.878,2.334c-3.37,0-6.225-1.209-8.559-3.545c4.063-2.162,7.088-3.632,8.99-4.324
			c0.26-0.086,0.777-1.037,1.383-2.938c0.604-1.729,0.951-2.769,0.951-3.112c0-0.434-2.074-1.211-6.138-2.336
			c-4.668-1.298-9.854-1.557-15.474-0.951c-4.235,0.778-6.916,1.471-8.039,1.902c-0.26,0.087-0.776,0.951-1.384,2.508
			c-0.604,1.385-0.95,2.422-1.037,2.94c-0.086,0.346,0,0.604,0.087,0.776c0.172,0.088,0.605,0.088,1.037-0.086
			c2.247-0.951,4.236-0.865,6.051,0.347c1.211,0.778,2.595,2.161,4.149,3.979c-6.656,3.112-10.805,5.188-12.62,6.313
			c-3.285,2.076-6.916,5.447-10.892,9.857c-4.928,5.621-7.78,8.734-8.473,9.428c-3.024,2.854-5.618,4.324-7.952,4.324
			c-1.814,0-3.371-0.692-4.669-2.162c-1.209-1.385-1.9-3.113-1.9-5.189c0-3.545,1.729-7.869,5.187-12.973
			c1.037-1.469,1.47-2.248,1.297-2.42c-0.346-0.434-1.123,0-2.247,1.297c-4.148,5.016-6.311,10.031-6.311,15.047
			c0,2.768,0.604,5.275,1.9,7.438c1.729,2.769,4.149,4.15,7.521,4.15c2.593,0,5.359-1.21,8.125-3.719
			c1.644-1.469,4.15-4.236,7.521-8.389c4.147-5.103,7.865-8.733,11.063-10.896c2.248-1.558,7.607-4.238,16.252-8.218
			c4.149,4.67,8.385,7.007,12.62,7.007c4.754,0,8.645-3.287,11.756-9.945c1.902,1.384,4.149,2.681,7.002,3.806
			c2.508,1.037,4.149,1.471,4.928,1.383c0.691,0,1.557-0.95,2.508-2.68c0.95-1.644,1.469-2.682,1.469-3.199
			C696.917,97.374,696.053,94.434,694.237,91.84z M655.425,94.348c2.161-0.777,5.102-0.69,8.817,0.432
			c-2.334,1.212-4.236,2.25-5.619,2.941C657.067,95.904,656.03,94.779,655.425,94.348z M688.013,98.066
			c-1.642-0.779-2.506-1.297-2.42-1.558c0.087-0.52,0.692-0.778,1.815-0.864c0.69-0.086,1.556,0.172,2.594,0.777
			c1.21,0.692,1.901,1.645,2.074,2.768C691.039,99.189,689.656,98.844,688.013,98.066z"/>
		<path fill="#2F67B2" d="M593.446,73.766l6.568,3.892l-3.198,5.708l-6.568-3.893L593.446,73.766z M627.072,95.645
			c0-0.865-1.297-2.334-3.892-4.496c-3.023-2.682-5.878-4.064-8.558-4.064c-5.186,0-11.41,4.67-18.585,13.923
			c2.507,0.865,5.36,1.298,8.472,1.298c4.928,0,10.113-0.951,15.475-2.854C624.652,97.807,627.072,96.51,627.072,95.645z
			 M630.357,91.926c0,1.297-0.348,2.94-1.038,5.016c-0.691,1.99-1.471,3.459-2.161,4.151c-2.42,2.421-6.396,4.41-11.756,5.88
			c-4.581,1.385-8.903,1.99-12.968,1.99c-2.853,0-6.224-0.52-10.112-1.645c0,5.274-1.037,9.34-3.198,12.021
			c-1.815,2.508-6.397,5.707-13.744,9.514c-8.818,4.67-16.597,7.004-23.253,7.004c-7.78,0-13.226-2.682-16.511-7.955
			c-1.901-3.027-2.854-6.229-2.854-9.601c0-4.151,0.434-7.956,1.384-11.415c0.95-3.113,1.729-4.582,2.246-4.324
			c0.174,0,0.262,0.088,0.262,0.347c0-0.259-0.174,0.778-0.606,3.112c-0.432,2.336-0.604,5.017-0.604,8.043
			c0,3.806,1.212,7.006,3.632,9.601c3.284,3.459,8.212,5.188,14.867,5.188c7.003,0,15.041-2.424,24.03-7.266
			c7.607-4.064,11.583-6.832,12.017-8.302c0.26-0.864,0-2.767-0.605-5.621c-0.864-3.372-2.074-6.14-3.717-8.216
			c-0.086,0,0.173-1.123,0.778-3.285c0.604-2.249,0.95-3.373,1.036-3.373c0.087,0,0.347,0.432,0.864,1.211
			c0.605,1.124,1.21,2.075,1.729,2.854c1.123,1.383,2.334,2.336,3.457,2.854c2.68-3.979,5.706-7.608,8.989-11.069
			c5.272-5.361,9.94-8.042,13.918-8.042c3.37,0,6.568,1.383,9.682,4.15C628.974,87.516,630.357,89.852,630.357,91.926z"/>
		<path fill="#2F67B2" d="M567.945,85.008c-2.854-17.036-6.828-37.877-8.299-45.66c1.211,1.211,1.901,1.902,2.248,2.248
			c0.949,1.038,1.643,1.471,1.987,1.297c0.345-0.259-0.778-3.113-3.285-8.561c-2.248-4.93-3.544-7.352-3.804-7.352
			c-0.086,0-0.518,0.779-1.037,2.249c-0.689,1.815-1.21,3.2-1.556,4.151c-0.086,0.346,0.173,0.864,0.951,1.557
			c1.556,10.377,4.581,26.462,5.53,31.65c3.285,18.767,5.706,39.002,6.57,46.957c0,0.347,0.086,2.162,0.346,5.449
			c0.086,1.557,0.261,2.248,0.605,2.248c0.518,0,1.124-1.816,1.814-5.535c0.433-1.988,0.604-3.892,0.604-5.793
			C570.452,106.887,569.329,93.915,567.945,85.008z"/>
		<path fill="#2F67B2" d="M366.449,125.479l6.568,3.806l3.198-5.707l-6.569-3.806L366.449,125.479z"/>
		<path fill="#2F67B2" d="M401.458,84.143c-1.21-1.729-2.074-2.594-2.593-2.594c-0.087,0-0.26,1.124-0.605,3.459
			s-0.432,3.459-0.346,3.459c0.951,0.865,1.987,2.076,3.025,3.719c1.037,1.644,1.556,2.854,1.556,3.719
			c0,0.865-3.457,2.248-10.286,4.15c-9.854,2.769-19.795,4.151-29.735,4.151c-8.646,0-14.87-1.729-18.585-5.188
			c-2.075-1.988-3.112-4.238-3.112-6.658c0-1.125,0.259-2.336,0.691-3.719c0.433-1.385,0.519-2.162,0.087-2.336
			c-0.432-0.086-1.124,1.125-2.161,3.719c-0.951,2.595-1.47,4.67-1.47,6.399c0,3.286,1.038,6.14,3.199,8.562
			c3.89,4.064,10.546,6.054,19.968,6.054c7.088,0,15.042-1.037,23.771-3.113c9.078-2.073,14.956-4.323,17.55-6.743
			c1.556-1.386,2.334-3.979,2.334-7.783c0-1.989-0.433-3.979-1.297-5.881C403.187,86.736,402.496,85.613,401.458,84.143z"/>
		<path fill="#2F67B2" d="M436.899,75.322l6.396,3.805l3.199-5.707l-6.57-3.892l-2.68,4.757l-6.483-3.806l-3.11,5.708l6.568,3.891
			L436.899,75.322z"/>
		<path fill="#2F67B2" d="M541.581,40.126c1.123,1.21,1.901,1.902,2.161,2.248c1.037,1.038,1.642,1.47,1.986,1.298
			c0,0,0.088-0.087,0.088-0.174c0-0.519-1.123-3.372-3.284-8.389c-2.161-4.929-3.458-7.35-3.806-7.35
			c-0.086,0-0.519,0.777-1.123,2.248c-0.346,0.951-0.863,2.335-1.557,4.15c-0.086,0.347,0.173,0.865,0.951,1.557
			c1.556,10.378,4.148,25.079,5.1,30.268c3.372,19.458,5.273,31.825,5.619,37.186c0.087,1.73-0.689,3.113-2.507,4.324
			c-0.604,0.432-1.296,0.691-1.901,0.951c-0.173-0.174-0.346-0.346-0.604-0.346c-1.988,0-3.457-0.521-4.322-1.558
			c-1.123-1.472-1.469-3.199-1.037-5.274c0.434-0.605,1.124-1.988,2.161-4.064c1.037-2.075,1.556-3.286,1.556-3.545
			c0-2.422-1.122-4.758-3.456-6.746c-1.729-1.557-3.632-2.768-5.791-3.545c-3.806-1.385-9.77-1.644-17.98-0.779
			c-12.275,1.385-21.438,2.422-27.402,3.113c-9.509,0.951-16.511,1.037-21.092,0.346c-5.271-0.777-7.866-1.988-7.866-3.631
			c0-1.557,2.595-4.151,7.779-7.697c9.163-6.313,16.338-9.513,21.524-9.513c0.69,0,1.211,0.173,1.47,0.519
			c0.691,0.865,1.124,1.298,1.21,1.298c0.346,0,0.778-0.692,1.21-2.162c0.519-1.47,0.692-2.595,0.692-3.459
			c0-1.644-0.692-2.421-2.075-2.421c-5.446,0-12.707,3.113-21.697,9.252c-9.162,6.313-13.744,12.367-13.744,18.162
			c0,2.939,2.939,4.756,8.731,5.533c5.705,0.691,14.003,0.434,24.809-0.865c13.052-1.469,22.042-2.42,26.97-2.938
			c5.791-0.521,10.113-0.433,12.88,0.433c5.015,1.471,8.127,3.805,9.424,7.092c-11.931,2.422-25.328,4.496-40.11,6.141
			c-14.781,1.729-26.537,2.508-35.354,2.508c-9.596,0-15.732-1.557-18.152-4.67c-1.037-1.297-1.47-2.682-1.297-4.15
			c0.087-1.039,0-1.558-0.434-1.645c-0.519-0.086-1.297,0.52-2.247,1.902c-1.987,2.596-3.458,4.237-4.493,5.103
			c-2.423,1.903-5.188,2.94-8.213,2.94c-6.743,0-10.893-4.931-12.447-14.875c-0.087-0.519-0.951-7.87-2.594-22.226
			c-1.211-10.29-2.248-16.344-4.063-23.694c-0.604-2.421-1.383-4.843-2.421-7.351c-0.864-2.076-1.383-3.199-1.555-3.199
			c-0.089,0-0.521,1.037-1.125,3.199c-0.604,2.075-0.95,3.286-0.864,3.459c3.372,6.832,6.051,21.879,8.816,50.763
			c1.384,13.491,6.225,20.322,14.695,20.322c5.013,0,8.99-2.074,12.102-6.313c1.471-1.902,2.335-2.854,2.768-2.854
			c0.086,0.347,0.173,0.779,0.259,1.125c1.037,5.707,7.607,8.562,19.795,8.562c17.289,0,42.703-3.113,76.242-9.254
			c-1.383,4.324-1.037,7.871,0.951,10.551c0.173,0.26,0.432,0.52,0.604,0.779c0,0.26,0,0.432,0,0.69
			c0,1.211,0.261,1.815,0.864,1.815c4.063,0,7.348-1.815,9.595-5.36c2.075-3.287,3.112-7.179,3.112-11.677
			c0-3.717-0.951-10.896-2.766-21.531C546.508,66.848,543.396,50.07,541.581,40.126z"/>
		<path fill="#2F67B2" d="M85.686,95.645c0.259,0.086,0.086,0.691-0.519,1.729c-4.582,7.524-10.287,11.242-17.029,11.242
			c-2.075,0-3.977-0.519-5.706-1.47c-1.901-0.951-2.853-2.422-2.853-4.238c0-3.026,0.951-6.227,2.939-9.512
			c2.68-4.498,4.063-7.006,4.063-7.438s-1.47-0.69-4.495-0.778c-4.668-0.173-7.002-1.557-7.002-4.063
			c0-4.323,1.988-9.339,6.051-15.047c3.717-5.103,6.31-7.696,7.866-7.696v0.172c0,0.779-0.346,2.422-1.124,4.844
			c-0.864,2.421-1.556,3.805-1.988,4.064c-4.322,2.075-6.483,3.978-6.483,5.707c0,1.471,1.988,2.335,5.964,2.595
			c4.322,0.259,6.483,1.21,6.483,2.681c0,1.729-1.21,4.843-3.717,9.253c-2.507,4.496-3.717,7.265-3.717,8.476
			c0,0.864,1.037,1.729,3.112,2.421c1.902,0.691,3.717,1.124,5.446,1.124c3.544,0,7.261-1.211,11.065-3.632
			C84.82,95.645,85.339,95.559,85.686,95.645z"/>
		<path fill="#2F67B2" d="M124.67,67.972c-5.706,9.599-9.768,20.583-12.188,32.948c-1.124,5.621-1.815,8.389-2.161,8.389
			c-0.691,0-1.729-2.422-2.939-7.352c-4.063-14.874-9.422-25.856-16.337-32.861c-0.346-0.346-0.346-2.248,0-5.535
			c0.346-3.459,0.691-5.102,1.124-5.102c1.124,0,3.63,3.459,7.693,10.464c4.668,8.042,7.953,15.999,9.768,23.694
			c1.642-8.215,4.149-16.344,7.607-24.387c2.766-6.658,4.581-10.031,5.273-10.031c0.346,0,0.864,1.038,1.469,3.027
			c0.605,1.988,0.951,3.805,0.951,5.188C124.93,67.193,124.843,67.626,124.67,67.972z"/>
		<path fill="#2F67B2" d="M128.906,117.783c5.446-7.006,10.719-13.75,11.324-22.83c0.086-1.297,0-2.596-0.519-4.064
			c-1.124,1.297-1.037,2.682-0.519,4.064c0.433,1.211,0.605,2.334-0.259,3.459c-0.778,0.951-1.815,1.297-2.939,0.951
			c-0.951-0.346-1.556-1.211-1.383-2.248c0.346-1.557,1.642-1.385,2.939-1.038c-0.951-1.384-2.161-2.509-1.815-4.237
			c0.345-1.557,1.037-2.854,2.334-3.892c0.605-0.519,0.345-1.038,0-1.47c-0.606-0.865-1.297-1.73-1.902-2.596
			c0.346-0.433,0.778-0.951,1.21-1.47c0.951-1.211,1.297-2.076-0.086-3.46c-2.248-2.161-1.989-4.237,0.259-7.177
			c-0.951,0-2.075,0.518-2.68-0.605c-0.432-0.692-0.259-1.385,0.173-1.989c0.519-0.778,1.297-1.038,2.161-0.952
			c1.47,0.174,2.593,1.816,2.334,3.373c-0.173,1.038-0.691,2.076-0.605,3.199c0.086,0.692,0.259,1.385,1.037,2.076
			c1.038-5.361-0.345-10.031-2.507-14.615c-2.074-4.496-5.359-8.215-8.039-12.279c3.112,1.643,5.446,4.15,7.521,6.832
			c3.63,4.842,6.051,10.204,6.656,16.258c0.173,1.643,0,3.199-0.346,4.756c-0.432,1.902,0.519,3.113,1.47,4.843
			c0.95-2.681,0.345-4.843-0.865-7.178c1.21,0.173,2.507,0.433,2.766,1.211c1.038,3.026,4.495,3.632,5.965,6.228
			c0.518,0.863,0.519,1.123-0.087,1.814c-1.123,1.384-2.074,2.768-3.889,3.199c-0.692,0.174-0.692,0.691-0.778,1.125
			c-0.519,1.816-1.816,2.594-3.89,3.027c1.123-2.336,1.815-4.498,0.864-7.093c-1.124,1.644-1.815,3.113-1.469,5.017
			c1.037,5.881-0.606,11.242-3.458,16.344c-2.161,3.979-4.927,7.438-8.558,10.205C130.548,117.005,130.029,117.609,128.906,117.783z
			 M149.22,83.797c-0.087-1.037-0.692-1.643-1.643-1.643c-1.124,0-2.334,0.432-2.42,1.643c-0.087,0.951,1.124,1.471,2.074,1.643
			C148.27,85.527,148.96,85.008,149.22,83.797z M143.688,83.711c-0.432-0.691-0.864-1.471-1.642-1.384
			c-0.605,0-1.037,0.95-1.037,1.47c0.086,0.605,0.432,1.557,1.123,1.471C142.823,85.182,143.342,84.488,143.688,83.711z"/>
		<path fill="#2F67B2" d="M46.613,116.658c-3.63-2.768-6.396-6.313-8.558-10.204c-2.766-5.103-4.495-10.464-3.458-16.345
			c0.346-1.988-0.346-3.373-1.47-5.017c-0.951,2.509-0.259,4.757,0.864,7.093c-2.074-0.521-3.371-1.297-3.89-3.113
			c-0.173-0.434-0.173-1.037-0.778-1.124c-1.815-0.433-2.853-1.816-3.89-3.2c-0.519-0.691-0.605-0.951-0.086-1.814
			c1.47-2.596,5.014-3.201,5.964-6.228c0.26-0.778,1.47-1.038,2.767-1.211c-1.21,2.335-1.815,4.497-0.865,7.178
			c0.951-1.729,1.902-2.94,1.47-4.843c-0.346-1.557-0.519-3.113-0.346-4.756c0.519-6.141,3.025-11.416,6.656-16.258
			c2.075-2.768,4.409-5.189,7.521-6.832c-2.68,4.064-5.964,7.869-8.039,12.279c-2.161,4.497-3.544,9.167-2.507,14.615
			c0.778-0.691,0.951-1.297,1.037-2.076c0.087-1.123-0.432-2.161-0.605-3.199c-0.346-1.557,0.778-3.199,2.334-3.373
			c0.864-0.086,1.643,0.174,2.161,0.952c0.432,0.604,0.519,1.297,0.173,1.989c-0.691,1.123-1.729,0.605-2.68,0.605
			c2.248,2.939,2.42,5.016,0.259,7.177c-1.47,1.384-1.037,2.249-0.086,3.46c0.432,0.519,0.778,0.951,1.21,1.47
			c-0.692,0.864-1.297,1.729-1.902,2.596c-0.346,0.518-0.605,0.951,0,1.47c1.296,1.038,1.988,2.335,2.334,3.892
			c0.346,1.729-0.778,2.854-1.815,4.237c1.383-0.261,2.593-0.519,2.939,1.038c0.259,1.037-0.346,1.902-1.383,2.248
			c-1.124,0.432-2.161,0-2.939-0.951c-0.864-1.125-0.691-2.248-0.259-3.459c0.432-1.385,0.605-2.682-0.519-4.064
			c-0.519,1.471-0.605,2.769-0.519,4.064c0.519,9.08,5.878,15.824,11.324,22.83C47.564,117.609,47.132,117.005,46.613,116.658z
			 M30.448,85.439c0.951-0.086,2.161-0.604,2.075-1.644c-0.086-1.211-1.297-1.643-2.42-1.643c-1.037,0-1.556,0.691-1.643,1.643
			C28.633,85.008,29.412,85.527,30.448,85.439z M35.462,85.268c0.778,0.086,1.037-0.951,1.124-1.471
			c0.086-0.52-0.433-1.383-1.038-1.47c-0.778,0-1.21,0.778-1.643,1.384C34.252,84.488,34.857,85.182,35.462,85.268z"/>
		<path fill="#2F67B2" d="M350.802,76.706c-2.852-17.036-5.013-29.489-6.483-37.358c1.21,1.211,1.902,1.902,2.248,2.248
			c0.95,1.038,1.642,1.471,1.988,1.297c0.346-0.259-0.778-3.113-3.285-8.561c-2.247-4.93-3.544-7.352-3.803-7.352
			c-0.087,0-0.519,0.779-1.038,2.249c-0.691,1.815-1.21,3.2-1.556,4.151c-0.086,0.346,0.173,0.864,0.951,1.557
			c1.556,10.377,2.766,18.16,3.717,23.349c3.285,18.766,4.841,27.846,5.619,35.802c0,0.346,0.086,2.162,0.346,5.448
			c0.086,1.557,0.259,2.249,0.605,2.249c0.518,0,1.123-1.816,1.815-5.535c0.432-1.989,0.605-3.893,0.605-5.794
			C352.358,87.43,352.1,85.613,350.802,76.706z"/>
		<path fill="#2F67B2" d="M286.491,43.844c2.852,5.275,7.347,11.329,13.398,18.161c4.841,5.274,9.682,10.464,14.609,15.739
			c4.235,4.756,7.347,9.339,9.249,13.576c0.173,0.52,0.605,1.902,1.21,4.15c0.432,1.729,0.778,2.508,1.037,2.508
			c1.038,0,0.951-2.767-0.172-8.215c-1.038-4.93-3.89-10.118-8.558-15.565c-0.259-0.26-5.014-5.534-14.177-15.653
			c-5.964-6.572-9.768-11.241-11.496-13.922c2.852,0.864,4.322,1.123,4.408,0.691c0.087-0.26-1.556-1.816-4.927-4.584
			c-3.371-2.767-5.187-4.15-5.446-4.15c-0.173,0-0.346,1.037-0.605,3.027c-0.173,1.988-0.259,3.113-0.173,3.372
			C285.453,43.326,285.972,43.585,286.491,43.844z"/>
		<path fill="#2F67B2" d="M329.97,59.93c-1.211-7.006-2.421-14.097-3.717-21.102c1.988,2.768,3.284,3.979,3.803,3.719
			c0.346-0.173-0.605-2.768-2.853-7.696c-2.247-4.929-3.544-7.351-3.889-7.351c-0.173,0-0.692,0.951-1.47,2.768
			c-0.778,1.816-1.21,2.854-1.21,3.113c0,0.259,0.259,0.777,0.864,1.297c0.26,3.632,1.816,13.49,4.668,29.575
			c2.68,15.307,4.063,24.992,4.149,29.144c0,2.162-0.605,4.15-1.901,6.054c-2.161,3.112-6.656,6.918-13.399,11.416
			c-2.334,1.643-5.359,3.372-9.076,5.36c-2.766,1.472-4.063,2.248-4.063,2.422c0.086,0.172,2.075-0.088,5.964-0.864
			c6.743-1.384,11.584-3.113,14.523-5.103c7.52-5.361,11.237-14.097,11.064-26.203C333.254,81.203,332.131,72.469,329.97,59.93z"/>
		<path fill="#2F67B2" d="M209.297,42.287c2.852,5.275,7.347,11.329,13.398,18.161c4.841,5.274,9.682,10.464,14.609,15.739
			c4.236,4.756,7.347,9.34,9.249,13.577c0.173,0.52,0.605,1.901,1.21,4.15c0.433,1.729,0.778,2.508,1.038,2.508
			c1.037,0,0.95-2.768-0.173-8.216c-1.038-4.929-3.89-10.117-8.558-15.565c-0.259-0.26-5.014-5.534-14.176-15.653
			c-5.965-6.572-9.768-11.242-11.497-13.922c2.852,0.864,4.322,1.123,4.408,0.691c0.087-0.26-1.556-1.816-4.927-4.584
			c-3.371-2.767-5.186-4.15-5.446-4.15c-0.173,0-0.346,1.037-0.605,3.027c-0.173,1.988-0.259,3.113-0.173,3.372
			C208.259,41.77,208.778,42.115,209.297,42.287z"/>
		<path fill="#2F67B2" d="M306.977,91.234c0-1.385-0.173-2.682-0.518-3.979c-0.346-1.124-0.692-1.729-0.865-1.729
			c-0.173,0-0.605,0.865-1.296,2.595c-0.692,1.729-1.038,2.769-1.038,3.112c0,0.261,0.26,0.691,0.692,1.297
			c0.432,0.521,0.691,1.125,0.691,1.644c0,0.952-0.951,1.386-2.852,1.386c-1.902,0-3.458-0.605-4.582-1.816
			c-1.21-1.385-1.556-2.768-1.037-4.15c0.346-1.037,0.432-1.644,0.346-1.73c-0.432-0.346-0.951,0-1.729,1.039
			c-0.432,0.691-0.864,1.644-1.297,2.939c-1.729,4.41-4.495,6.572-8.212,6.572c-3.803,0-5.705-1.385-5.705-4.238
			c0-0.863,0.259-1.902,0.865-3.199c0.172-0.432,0.086-0.69-0.087-0.777c-0.173-0.088-0.519,0.087-1.037,0.519
			c-0.432,0.347-0.951,0.951-1.556,1.729c-3.717,5.188-7.348,7.783-10.978,7.783c-5.36,0-8.472-3.806-9.509-11.242
			c-1.124-9.426-2.939-21.188-5.359-35.457c-1.729-9.857-3.372-17.641-4.927-23.262c-0.692-2.94-1.211-4.41-1.643-4.41
			c-0.173,0-0.432,1.123-0.951,3.459c-0.432,2.334-0.691,3.632-0.691,3.978c1.383,7.091,2.766,14.183,4.063,21.273
			c2.679,15.134,4.322,25.771,5.013,31.825v1.297c0,6.398-3.198,12.365-9.681,17.986c-1.816,1.557-4.582,3.459-8.212,5.621
			c-0.519,0.26-3.112,1.643-7.78,4.238c-2.248,1.21-2.766,1.814-1.556,1.814c1.383,0,5.964-1.123,13.744-3.459
			c4.582-1.47,8.385-4.929,11.324-10.291c2.075-3.719,3.371-8.041,3.89-12.886c1.21,10.552,4.668,15.826,10.719,15.912
			c0,0,0,0,0.086,0c0,0,0,0,0.087,0c2.939,0,5.618-1.211,8.039-3.632c1.729-2.075,3.025-3.719,3.803-4.93
			c-0.086,1.902,0.519,3.545,1.902,5.017c1.297,1.47,2.939,2.162,4.841,2.162c1.729,0,3.457-0.604,5.1-1.816
			c1.469-1.038,2.507-2.161,2.939-3.372c1.037-1.988,1.642-3.199,1.815-3.546c0.519,3.806,2.68,5.794,6.483,5.794
			C304.729,102.217,306.977,98.585,306.977,91.234z"/>
		<path fill="#2F67B2" d="M190.798,129.284l-6.483-3.806l-3.198,5.709l6.569,3.891l2.68-4.756l6.483,3.805l3.198-5.707l-6.656-3.893
			L190.798,129.284z"/>
		<path fill="#2F67B2" d="M221.659,68.577c-3.025-2.075-5.619-3.113-7.693-3.113c-1.383,0-2.766,0.692-4.15,1.989
			c-1.469,1.47-2.247,2.939-2.247,4.67c0,1.297,0.864,3.285,2.507,5.88c-5.36,2.421-10.114,5.274-14.177,8.39
			c-0.432,0.346-1.123,1.209-1.901,2.594c-0.865,1.384-1.211,2.334-1.211,2.854c0,0.086,0,0.173,0.087,0.173
			c2.074,1.211,6.224,2.336,12.275,3.459c2.593,0.434,4.754,1.211,6.396,2.25c1.297,0.776,1.902,1.469,1.902,1.901
			c0,0.864-2.939,2.854-8.817,5.967c-8.99,4.843-17.288,7.265-24.982,7.265c-4.235,0-7.78-0.951-10.805-2.939
			c-3.803-2.596-5.792-6.486-5.792-11.762c0-3.199,0.519-6.228,1.643-9.166c0.864-2.336,1.21-3.547,0.864-3.719
			c-0.778-0.347-1.902,1.383-3.371,5.274c-1.47,3.892-2.248,7.783-2.248,11.761c0,4.756,1.47,8.733,4.409,11.848
			c3.285,3.547,7.78,5.361,13.658,5.361c5.273,0,11.324-1.384,18.153-4.236c6.396-2.682,11.842-5.881,16.51-9.601
			c1.124-0.864,2.161-2.508,3.112-4.929c0.778-2.075,1.21-3.632,1.21-4.757c0-1.816-1.383-3.373-4.149-4.583
			c-1.902-0.864-5.446-1.815-10.373-2.768c-0.519-0.086-0.951-0.174-1.47-0.347c3.458-2.075,7.434-4.063,12.102-5.967
			c0.951,1.124,1.383,1.644,1.297,1.644c0.432,0,0.519-0.779,0.259-2.249c2.334-0.951,5.273-1.989,8.731-3.2
			c0.259-0.086,0.691-0.864,1.297-2.248c0.605-1.384,0.95-2.681,0.95-3.892C225.722,71.69,224.424,70.479,221.659,68.577z
			 M212.841,76.965c-1.383-2.075-2.075-3.372-2.075-3.805c0-0.865,0.692-1.297,2.161-1.297c0.692,0,1.816,0.346,3.285,1.037
			c1.47,0.692,2.248,1.211,2.421,1.557L212.841,76.965z"/>
		<path fill="#2F67B2" d="M329.625,117.869c2.161-1.471,3.025-1.471,4.408,0.174c0.433-0.951,0.951-1.73,1.124-2.595
			c0.087-0.605-0.086-1.558-0.518-1.989c-0.346-0.346-1.383-0.26-1.902,0.086c-1.297,0.779-2.507,1.73-3.544,2.854
			c-2.766,2.768-2.68,3.806,0.605,6.141c0.086,0.087,0.173,0.26,0.259,0.434c-0.605,1.123-1.124,2.161-1.729,3.285
			c3.112-1.729,5.878-3.285,8.817-4.756c1.47-0.691,1.902-1.816,2.161-3.546c-1.469,0.692-2.679,1.21-3.803,1.815
			C333.083,120.811,331.007,120.117,329.625,117.869z"/>
		<path fill="#2F67B2" d="M225.895,33.553c1.296,1.039,2.334,1.73,3.457,2.768c1.124,1.038,1.902,1.989,2.594,3.027
			c2.593,3.805,2.506,8.389,2.42,10.723c-0.087,4.238-1.21,6.832-1.124,6.918c0.173,0,2.334-4.15,2.593-9.599
			c0.606-12.712-10.027-19.544-10.027-19.544s-0.259,2.595-0.259,2.854C225.634,31.219,225.375,33.121,225.895,33.553z"/>
		<path fill="#2F67B2" d="M418.142,128.592c0,0.262,0.175,0.606,0.086,0.865c-0.172,0.951-0.259,1.902-0.604,2.682
			c-0.259,0.604-0.778,1.123-1.297,1.471c-0.95,0.604-1.815,0.346-2.42-0.604c-1.124-1.815-1.384-3.894-1.037-5.968
			c0.519-3.025,1.21-6.055,1.9-9.08c0.173-0.777,0.691-1.471,1.123-2.249c0.175,0.087,0.261,0.087,0.434,0.174
			c-0.086,0.433-0.173,0.864-0.259,1.384c-0.864,3.545-1.902,7.092-1.729,10.811c0,0.605,0.087,1.21,0.261,1.729
			c0.172,0.434,0.69,1.039,1.036,1.039c0.52,0,1.124-0.347,1.47-0.777c0.347-0.348,0.52-1.039,0.691-1.473
			C417.969,128.592,418.056,128.592,418.142,128.592z"/>
		<path fill="#2F67B2" d="M377.516,134.561c-0.261-1.471-0.089-2.768,0.519-3.979c0.172-0.348,0.604-0.691,1.036-0.865
			c12.967-5.707,26.192-10.723,39.678-15.047c0.259-0.087,0.518-0.087,0.777-0.173c0.26,1.47-0.864,3.546-2.16,4.063
			c-7.176,2.682-14.438,5.274-21.611,8.129c-5.964,2.422-11.756,5.104-17.634,7.697
			C377.945,134.387,377.859,134.473,377.516,134.561z"/>
		<path fill="#2F67B2" d="M330.576,132.83c0.173-0.434,0.346-0.865,0.691-1.297c1.47-1.988,3.199-3.719,5.446-4.844
			c3.977-1.902,7.953-3.719,11.929-5.621c0.519-0.26,1.124-0.346,1.729-0.433c-1.124,1.816-1.815,3.806-3.976,4.757
			c-4.582,2.162-9.163,4.498-13.658,6.746c-0.605,0.258-1.21,0.604-1.815,0.864C330.749,133.004,330.662,132.916,330.576,132.83z"/>
	</g>
</g>
</svg>
