<svg width="1070" height="366" viewBox="0 0 1070 366" fill="none" xmlns="http://www.w3.org/2000/svg">
<path d="M1069.94 355.095C1069.13 347.073 1060.4 344.431 1060.4 344.431L1047.54 343.614C1047.39 343.23 1047.25 342.846 1047.1 342.413C1047.1 342.365 1047.06 342.317 1047.06 342.221C1046.91 341.837 1046.77 341.453 1046.63 341.068C1046.58 340.876 1046.48 340.732 1046.43 340.54C1046.29 340.156 1046.15 339.771 1045.95 339.387C1045.86 339.195 1045.81 339.003 1045.71 338.859C1045.57 338.474 1045.38 338.042 1045.23 337.658C1045.14 337.466 1045.04 337.225 1044.99 337.033C1044.8 336.601 1044.66 336.217 1044.47 335.784C1044.37 335.592 1044.27 335.4 1044.23 335.16C1044.03 334.727 1043.84 334.295 1043.65 333.815C1043.6 333.671 1043.51 333.478 1043.46 333.334C1043.27 332.854 1043.03 332.374 1042.79 331.845C1037.03 318.971 1028.3 303.743 1018.56 300.765C1001.14 295.432 992.024 290.917 992.024 290.917C1001.96 293.511 1018.56 290.917 1018.56 290.917L1011.07 268.723C992.072 270.597 949.562 265.937 897.744 257.915L948.506 198.396C940.11 203.344 906.38 208.34 841.655 205.506L920.006 133.449C845.302 162.848 812.099 150.839 689.319 150.839C568.793 150.839 538.902 244.656 534.632 260.989C534.488 260.701 534.296 260.413 534.104 260.077C535.687 245.089 536.311 183.312 447.98 144.161C309.318 82.7691 257.788 45.3957 232.31 0L275.876 157.42C235.045 153.865 166.53 141.856 128.578 101.456L183.994 221.598L282.209 238.892C186.202 257.002 90.3377 271.894 58.9108 268.771L51.426 290.965C51.426 290.965 68.027 293.559 77.9589 290.965C77.9589 290.965 68.8427 295.48 51.426 300.813C43.6532 303.215 36.5522 313.351 31.0825 323.871C30.6507 324.687 30.2668 325.504 29.835 326.321C29.835 326.321 29.835 326.369 29.787 326.369C29.4032 327.185 29.0193 327.954 28.6355 328.771C28.6355 328.819 28.6355 328.819 28.5875 328.819C25.9966 334.343 23.8375 339.627 22.3501 343.614L9.58748 344.383C9.58748 344.383 0.903116 347.073 0.0394778 355.047C-0.776181 363.07 11.2668 364.319 15.8728 364.03L456.28 338.378C456.28 338.378 479.311 365.952 535.879 365.952C586.402 365.952 608.425 343.23 613.607 338.378L1054.01 364.03C1058.72 364.319 1070.76 363.118 1069.94 355.095Z" fill="#F8F6E3"/>
<path d="M1069.94 355.095C1069.13 347.073 1060.4 344.431 1060.4 344.431L1047.54 343.614C1047.39 343.23 1047.25 342.846 1047.11 342.413C1047.11 342.365 1047.06 342.317 1047.06 342.221C1046.91 341.837 1046.77 341.453 1046.63 341.068C1046.58 340.876 1046.48 340.732 1046.43 340.54C1046.29 340.156 1046.15 339.771 1045.95 339.387C1045.86 339.195 1045.81 339.003 1045.71 338.859C1045.57 338.474 1045.38 338.042 1045.23 337.658C1045.14 337.466 1045.04 337.225 1044.99 337.033C1044.8 336.601 1044.66 336.217 1044.47 335.784C1044.37 335.592 1044.27 335.4 1044.23 335.16C1044.03 334.727 1043.84 334.295 1043.65 333.815C1043.6 333.671 1043.51 333.478 1043.46 333.334C1043.27 332.854 1043.03 332.374 1042.79 331.845C1017.84 334.439 992.264 333.094 967.698 331.125C928.355 327.906 889.395 321.421 850.244 316.665C813.587 312.198 776.69 310.853 740.034 306.001C722.617 303.695 705.344 300.861 688.359 296.345C670.991 291.734 653.91 286.113 636.349 282.222C617.925 278.139 599.789 277.082 580.98 278.523C565.675 279.724 550.225 284.912 534.776 284.096C533.768 284.048 532.761 283.999 531.753 283.903C516.879 282.27 502.821 276.169 488.043 273.96C470.483 271.317 452.346 272.566 434.882 275.305C399.52 280.829 364.495 289.764 329.518 297.258C293.101 305.04 256.54 312.294 219.548 316.713C185.674 320.796 151.512 324.495 117.494 326.993C95.8555 328.579 73.7847 329.299 52.0978 327.041C45.0448 326.321 38.0877 325.264 31.1306 323.823C30.6988 324.639 30.3149 325.456 29.8831 326.273C29.8831 326.273 29.8831 326.321 29.8351 326.321C29.4513 327.137 29.0674 327.906 28.6836 328.723C28.6836 328.771 28.6836 328.771 28.6356 328.771C25.9967 334.295 23.8856 339.579 22.3982 343.566L9.5876 344.383C9.5876 344.383 0.903238 347.073 0.0395998 355.047C-0.776059 363.07 11.2669 364.319 15.873 364.03L456.281 338.378C456.281 338.378 479.311 365.952 535.879 365.952C586.402 365.952 608.425 343.23 613.607 338.378L1054.01 364.03C1058.72 364.319 1070.76 363.118 1069.94 355.095Z" fill="#DBD8C7"/>
<path d="M1069.94 355.095C1069.13 347.073 1060.4 344.431 1060.4 344.431L1047.54 343.614L602.044 315.945C601.036 317.145 599.98 318.346 598.829 319.451C592.448 309.171 575.127 290.052 534.968 291.013C494.664 290.052 477.392 309.267 471.058 319.499C469.907 318.346 468.851 317.145 467.892 315.945L22.3982 343.614L9.5876 344.383C9.5876 344.383 0.903238 347.073 0.0395998 355.047C-0.776059 363.07 11.2669 364.319 15.873 364.03L456.281 338.378C456.281 338.378 479.311 365.952 535.879 365.952C586.402 365.952 608.425 343.23 613.607 338.378L1054.01 364.03C1058.72 364.319 1070.76 363.118 1069.94 355.095Z" fill="#FDC300"/>
<path d="M484.589 329.395C511.217 343.758 555.119 345.92 584.291 330.116C556.223 295.288 501.19 303.599 484.589 329.395Z" fill="#003971"/>
<path d="M1069.94 355.095C1069.13 347.073 1060.4 344.431 1060.4 344.431L1047.54 343.614L602.044 315.945C601.036 317.146 599.98 318.346 598.829 319.451C594.607 323.679 589.713 327.233 584.291 330.164C555.119 345.968 511.218 343.758 484.589 329.443C479.311 326.609 474.705 323.294 471.058 319.547C469.907 318.395 468.851 317.194 467.892 315.993L22.3982 343.614L9.5876 344.383C9.5876 344.383 0.903238 347.073 0.0395998 355.047C-0.776059 363.07 11.2669 364.319 15.873 364.03L456.281 338.378C456.281 338.378 479.311 365.952 535.879 365.952C586.402 365.952 608.425 343.23 613.607 338.378L1054.01 364.03C1058.72 364.319 1070.76 363.118 1069.94 355.095Z" fill="#0066CC"/>
<path d="M447.98 144.161C309.318 82.7691 257.788 45.3957 232.31 0L275.876 157.42C235.045 153.865 166.53 141.856 128.578 101.456L183.994 221.598L282.209 238.892C323.04 231.206 363.919 222.943 399.856 215.209C482.334 197.531 519.614 238.412 531.465 255.945C532.52 257.531 533.432 258.924 534.104 260.077C535.687 245.089 536.311 183.264 447.98 144.161Z" fill="#D6CEC4"/>
<path d="M841.655 205.554L920.006 133.497C845.301 162.848 812.099 150.839 689.319 150.839C568.793 150.839 538.902 244.657 534.632 260.989C534.68 261.085 534.775 261.23 534.823 261.326C534.871 261.422 534.919 261.518 534.967 261.614C540.917 250.757 576.326 195.13 670.031 215.209C739.506 230.101 827.213 247.106 897.648 257.963L948.41 198.444C940.062 203.44 906.332 208.388 841.655 205.554Z" fill="#D6CEC4"/>
<path d="M586.642 256.762C602.619 250.517 620.324 247.875 648.872 247.875C671.087 247.875 792.044 268.339 792.044 268.339C722.665 251.286 711.102 242.543 659.571 235.433C607.993 228.276 586.642 256.762 586.642 256.762Z" fill="#BFB5A6"/>
<path d="M780.337 284.336C740.657 280.733 720.026 276.313 707.551 284.336C707.551 284.336 875.529 297.69 888.867 299.468C888.867 299.468 804.999 286.545 780.337 284.336Z" fill="#BFB5A6"/>
<path d="M871.978 311.045C871.978 311.045 1008.34 324.928 1024.27 326.993C1015.97 325.888 930.85 314.551 915.304 311.045C898.991 307.346 871.978 311.045 871.978 311.045Z" fill="#BFB5A6"/>
<path d="M845.302 271.318C846.645 271.99 941.645 285.345 953.976 286.69C953.976 286.69 928.835 277.082 908.635 274.344C882.63 270.837 845.302 271.318 845.302 271.318Z" fill="#BFB5A6"/>
<path d="M428.164 247.827C456.712 247.827 474.369 250.517 490.394 256.714C490.394 256.714 469.043 228.228 417.513 235.337C365.934 242.447 354.419 251.238 285.04 268.243C284.992 268.339 405.949 247.827 428.164 247.827Z" fill="#BFB5A6"/>
<path d="M296.747 284.336C272.037 286.545 188.217 299.468 188.217 299.468C201.555 297.69 369.533 284.336 369.533 284.336C357.058 276.313 336.379 280.781 296.747 284.336Z" fill="#BFB5A6"/>
<path d="M161.732 311.045C146.186 314.551 61.0699 325.888 52.7694 326.993C68.6987 324.928 205.058 311.045 205.058 311.045C205.058 311.045 178.045 307.346 161.732 311.045Z" fill="#BFB5A6"/>
<path d="M168.401 274.344C148.202 277.082 123.06 286.69 123.06 286.69C135.391 285.345 230.391 271.99 231.735 271.318C231.735 271.318 194.406 270.837 168.401 274.344Z" fill="#BFB5A6"/>
<path d="M309.03 158.861C482.861 161.071 522.972 232.407 531.513 255.945C532.568 257.531 533.48 258.924 534.152 260.077C535.735 245.089 536.359 183.312 448.028 144.161C309.318 82.7691 257.787 45.3957 232.31 0L275.876 157.42C295.739 159.149 309.03 158.861 309.03 158.861Z" fill="#BFB5A6"/>
<path d="M713.309 193.544C765.175 200.414 807.685 204.065 841.655 205.554L920.006 133.497C845.301 162.848 812.099 150.839 689.319 150.839C568.793 150.839 538.902 244.657 534.632 260.989C534.68 261.085 534.775 261.23 534.823 261.326C540.245 247.971 576.326 175.338 713.309 193.544Z" fill="#BFB5A6"/>
</svg>
