<svg width="387" height="122" viewBox="0 0 387 122" fill="none" xmlns="http://www.w3.org/2000/svg">
<path fill-rule="evenodd" clip-rule="evenodd" d="M84.9031 43.2623L84.9031 43.2623C85.0367 43.5651 85.1671 43.8604 85.1289 44.1277C85.0899 44.6338 85.0575 45.14 85.025 45.6461C84.9276 47.1646 84.8302 48.6832 84.5574 50.2017C84.2457 51.863 82.9988 52.9532 81.2844 53.2128C79.5699 53.4723 78.6867 52.2783 77.8554 51.0843C75.7254 47.9174 75.5175 44.3353 76.141 40.7532C76.6605 37.7421 77.3359 34.7311 78.2191 31.8238C80.9207 22.8426 80.1934 14.4843 74.0109 7.06043C73.2836 6.17787 73.0238 5.34723 73.4394 4.25702C73.6984 3.56684 73.9256 2.8448 74.1738 2.0556L74.174 2.05478L74.1742 2.05441C74.3739 1.41924 74.5874 0.740573 74.8422 0C75.0846 0.259572 75.304 0.478767 75.5002 0.674889C75.8928 1.06714 76.1929 1.36709 76.4008 1.71319C80.4012 8.09872 82.2195 15.1072 82.2195 22.6868C82.2195 26.2935 81.2122 29.6337 80.2044 32.9758C79.8776 34.0595 79.5508 35.1434 79.2582 36.2366C78.6531 38.4538 78.3906 40.8176 78.1381 43.0909L78.1152 43.297C78.0113 44.2315 78.1672 45.2698 78.4269 46.1523C78.7387 47.3983 79.466 48.3847 80.9726 48.3328C82.4273 48.2809 83.3625 47.3983 83.6223 45.8409C83.6999 45.3755 83.7775 44.8972 83.8551 44.4189L83.8551 44.4188L83.8552 44.4187L83.8552 44.4185L83.8552 44.4184L83.8561 44.4132L83.8569 44.408L83.8569 44.4079L83.8569 44.4077L83.857 44.4076L83.857 44.4075L83.857 44.4073L83.857 44.4072L83.8571 44.407L83.8571 44.4069L83.8571 44.4068L83.8571 44.4066L83.8572 44.4065L83.8572 44.4064C83.9347 43.9284 84.0123 43.4505 84.0898 42.9855C84.3496 42.9336 84.5574 42.9336 84.7652 42.9336C84.8064 43.0435 84.8549 43.1533 84.903 43.2622L84.903 43.2622L84.9031 43.2623ZM162.591 11.2655C162.604 11.3304 162.62 11.3954 162.637 11.4603C162.685 11.6549 162.734 11.8496 162.695 12.0443C162.668 12.1781 162.643 12.3151 162.618 12.4538L162.617 12.4559C162.494 13.1233 162.364 13.8311 162.02 14.4323C161.76 14.9515 161.137 15.4187 160.565 15.6783C159.474 16.1974 158.487 15.9898 157.812 15.1072C156.565 13.4979 156.201 11.6809 156.617 9.91574C157.188 7.26828 157.967 4.62081 158.747 1.97335L158.747 1.97277C158.889 1.5093 159.228 1.07031 159.561 0.638997L159.561 0.638891L159.561 0.638597C159.713 0.441974 159.863 0.246945 159.994 0.0519149L159.994 0.0520062C160.15 0.103891 160.305 0.155775 160.409 0.20766C160.378 0.334049 160.351 0.45563 160.324 0.575329L160.324 0.575619V0.575678C160.264 0.849191 160.206 1.11289 160.097 1.4017C160.023 1.63561 159.949 1.86951 159.874 2.10346C158.954 4.98499 158.031 7.87319 158.175 10.8502C158.175 11.3694 158.227 11.8885 158.487 12.3557C158.695 12.7191 159.266 13.2383 159.682 13.2902C160.253 13.2902 160.929 12.9787 161.344 12.6153C161.628 12.4028 161.791 12.0695 161.948 11.7472L161.948 11.7471C162.021 11.597 162.093 11.4494 162.176 11.3174C162.331 11.2136 162.435 11.2136 162.591 11.2655ZM313.249 11.4603C313.233 11.3954 313.217 11.3304 313.204 11.2655C313.1 11.2136 312.996 11.2136 312.788 11.3174C312.706 11.4492 312.634 11.5967 312.561 11.7466L312.56 11.7471C312.403 12.0694 312.241 12.4028 311.957 12.6153C311.541 12.9787 310.866 13.2902 310.294 13.2902C309.879 13.2383 309.307 12.7191 309.1 12.3557C308.84 11.8885 308.788 11.3694 308.788 10.8502C308.644 7.87326 309.566 4.98513 310.486 2.10366L310.487 2.10337L310.492 2.08682C310.565 1.85842 310.638 1.63006 310.71 1.4017C310.818 1.1134 310.876 0.850112 310.937 0.577111L310.937 0.576748L310.937 0.576466L310.937 0.575808L310.937 0.574068C310.964 0.454776 310.99 0.333605 311.022 0.20766C310.918 0.155745 310.762 0.10383 310.606 0.0519149C310.476 0.247026 310.325 0.442138 310.174 0.638844L310.173 0.639042C309.841 1.07034 309.502 1.50931 309.359 1.97277C308.58 4.62043 307.801 7.26809 307.229 9.91574C306.814 11.6809 307.177 13.4979 308.424 15.1072C309.1 15.9898 310.087 16.1974 311.178 15.6783C311.749 15.4187 312.373 14.9515 312.632 14.4323C312.976 13.831 313.107 13.1232 313.23 12.4557L313.23 12.4535C313.256 12.3149 313.281 12.178 313.308 12.0443C313.347 11.8496 313.298 11.6549 313.249 11.4603ZM261.458 26.5285C257.25 25.2826 252.938 25.2826 248.47 25.3345C248.533 25.2093 248.579 25.0925 248.621 24.984C248.684 24.8227 248.74 24.6799 248.834 24.5557C249.629 23.4629 250.446 22.3912 251.256 21.3272L251.257 21.3266L251.257 21.3261L251.258 21.3255C251.595 20.882 251.932 20.4397 252.266 19.9979C252.219 19.8532 252.186 19.7213 252.211 19.6238C253.873 15.7821 252.418 12.5634 250.288 9.44851C249.249 7.99489 248.106 6.59319 246.963 5.2434C246.236 4.36085 246.132 3.06298 246.704 2.0766C247.119 1.4017 247.639 1.4017 248.106 1.86894C248.99 2.69957 249.821 3.58213 250.548 4.56851C252.938 7.52766 254.341 10.7983 254.341 14.64L254.27 15.1209L254.269 15.1228C254.085 16.3735 253.895 17.6556 253.665 18.897C253.664 18.9099 253.662 18.9228 253.66 18.9356L253.657 18.9566L253.653 18.9772C253.65 18.9957 253.646 19.0141 253.643 19.0324C257.907 18.3961 262.02 19.2738 266.082 20.5583C267.173 20.9217 267.693 21.8562 267.381 22.9464C267.121 23.8289 266.758 24.7634 266.186 25.4902C265.043 26.9438 263.796 28.2936 262.497 29.6434C261.095 31.097 259.172 31.6162 257.302 31.9796C255.681 32.3118 254.06 32.5112 252.439 32.7105C252.034 32.7604 251.629 32.8102 251.224 32.8621C250.969 32.8985 250.689 32.8075 250.401 32.7141L250.401 32.714C250.278 32.6741 250.153 32.6337 250.029 32.6026C250.162 32.4911 250.287 32.3605 250.41 32.2312L250.41 32.2311L250.41 32.231C250.573 32.0594 250.734 31.8903 250.912 31.7719L261.043 27.0996C261.199 27.0477 261.354 26.9438 261.51 26.84C261.458 26.7362 261.458 26.6323 261.458 26.5285ZM341.674 33.4332C337.466 32.1872 333.154 32.1872 328.686 32.2392C328.749 32.1139 328.794 31.9971 328.837 31.8887L328.837 31.8883C328.9 31.7271 328.956 31.5845 329.05 31.4604C329.845 30.3676 330.661 29.2959 331.472 28.2319L331.476 28.2273C331.935 27.6248 332.392 27.0247 332.842 26.4247C333.05 26.1651 333.414 26.0094 333.725 25.9574C338.038 25.2826 342.194 26.1651 346.298 27.463C347.389 27.8264 347.909 28.7609 347.597 29.8511C347.337 30.7336 346.973 31.6681 346.402 32.3949C345.259 33.8485 344.012 35.1983 342.713 36.5481C341.311 38.0017 339.388 38.5209 337.518 38.8843C335.897 39.2165 334.276 39.4159 332.655 39.6152C332.25 39.6651 331.845 39.7149 331.439 39.7668C331.185 39.8032 330.905 39.7122 330.617 39.6187L330.616 39.6186C330.493 39.5787 330.369 39.5383 330.245 39.5072C330.378 39.3957 330.503 39.2651 330.626 39.1358C330.789 38.9642 330.95 38.7951 331.128 38.6766L341.259 34.0043C341.414 33.9524 341.57 33.8487 341.726 33.7449L341.726 33.7447C341.674 33.5889 341.674 33.4851 341.674 33.4332ZM329.615 64.6211L329.6 64.5626L329.589 64.5172C329.582 64.4869 329.575 64.4567 329.569 64.4264C329.465 64.4264 329.361 64.4264 329.154 64.4783C329.071 64.6101 328.999 64.7576 328.926 64.9076L328.926 64.9079C328.769 65.2302 328.606 65.5636 328.322 65.7762C327.907 66.1396 327.231 66.4511 326.66 66.4511C326.244 66.3991 325.673 65.88 325.465 65.5166C325.205 65.0494 325.153 64.5302 325.153 64.0111C325.009 61.0341 325.931 58.146 326.852 55.2645L326.852 55.2642L326.857 55.2484L326.862 55.2329L326.867 55.2177L326.954 54.9434L327.006 54.7797C330.876 53.2544 334.799 51.8179 338.73 50.3784L338.734 50.377L338.735 50.3766L338.736 50.3764C341.049 49.5294 343.365 48.6813 345.675 47.8136C346.818 47.3983 347.909 45.4774 347.649 44.1796C347.389 44.2315 347.129 44.2834 346.921 44.3353C334.764 48.2289 322.867 52.7455 311.178 57.8851C310.814 58.0409 310.398 58.3004 310.242 58.6119C309.723 59.7021 309.567 60.8962 309.775 62.194C310.035 62.0902 310.191 62.0383 310.346 62.0383C311.957 61.3282 313.563 60.6036 315.169 59.8793L315.169 59.8792C318.657 58.3056 322.143 56.7329 325.672 55.3106C324.911 57.8992 324.153 60.4879 323.595 63.0766C323.179 64.8417 323.543 66.6587 324.789 68.2681C325.465 69.1506 326.452 69.3583 327.543 68.8391C328.114 68.5796 328.738 68.1123 328.998 67.5932C329.341 66.9919 329.472 66.284 329.595 65.6165L329.596 65.6141L329.596 65.6115L329.62 65.4794L329.637 65.3936L329.65 65.322L329.659 65.2759L329.673 65.2051C329.712 65.0104 329.663 64.8158 329.615 64.6211ZM107.625 116.082C107.638 116.147 107.654 116.211 107.67 116.276C107.719 116.471 107.768 116.666 107.729 116.86C107.702 116.995 107.676 117.132 107.651 117.271L107.651 117.272C107.528 117.939 107.397 118.647 107.053 119.249C106.793 119.768 106.17 120.235 105.599 120.494C104.507 121.014 103.52 120.806 102.845 119.923C101.598 118.314 101.234 116.497 101.65 114.732C102.222 112.084 103.001 109.437 103.78 106.789L103.78 106.789L103.78 106.788C102.2 107.373 100.618 107.952 99.0364 108.531L99.0362 108.531C94.1295 110.327 89.2297 112.12 84.4016 114.057C80.329 115.685 76.3289 117.481 72.3189 119.283L72.3188 119.283L72.3181 119.283L72.3174 119.283L72.3167 119.284L72.3159 119.284L72.3152 119.284L72.3145 119.285L72.3138 119.285L72.3131 119.285L72.3124 119.286L72.3117 119.286L72.311 119.286L72.3103 119.286L72.3096 119.287L72.3088 119.287L72.3081 119.287L72.3074 119.288L72.3067 119.288L72.306 119.288L72.3053 119.289L72.3046 119.289C70.4365 120.128 68.5663 120.968 66.6855 121.792C66.5296 121.792 66.3738 121.844 66.114 121.948C65.8542 120.494 66.0621 119.197 66.6335 117.951C66.7894 117.587 67.257 117.276 67.6726 117.12C80.6609 111.409 93.909 106.426 107.417 102.065C107.59 101.995 107.763 101.972 107.936 101.949C108.023 101.938 108.11 101.926 108.196 101.909C108.456 103.363 107.313 105.491 106.014 105.958C105.711 106.071 105.409 106.184 105.106 106.297L105.042 106.496L104.91 106.91L104.909 106.913L104.908 106.916L104.907 106.92C103.987 109.801 103.064 112.689 103.209 115.666C103.209 116.186 103.261 116.705 103.52 117.172C103.728 117.535 104.3 118.054 104.715 118.106C105.287 118.106 105.962 117.795 106.378 117.431C106.661 117.219 106.824 116.886 106.981 116.563C107.054 116.413 107.127 116.266 107.209 116.134C107.365 116.03 107.469 116.03 107.625 116.082ZM293.871 117.367C293.854 117.302 293.838 117.237 293.825 117.172C293.785 117.172 293.747 117.168 293.712 117.165C293.612 117.155 293.525 117.147 293.41 117.224C293.327 117.356 293.255 117.503 293.182 117.653L293.182 117.653L293.182 117.653C293.025 117.976 292.862 118.309 292.578 118.522C292.163 118.885 291.487 119.197 290.916 119.197C290.5 119.145 289.929 118.626 289.721 118.262C289.461 117.795 289.409 117.276 289.409 116.757C289.265 113.779 290.188 110.891 291.108 108.01C291.183 107.776 291.257 107.542 291.332 107.308C291.44 107.019 291.498 106.756 291.558 106.483L291.558 106.482L291.559 106.48C291.585 106.361 291.612 106.24 291.643 106.114C291.539 106.062 291.383 106.01 291.228 105.958C291.097 106.153 290.947 106.349 290.795 106.545C290.462 106.977 290.123 107.416 289.981 107.879C289.201 110.527 288.422 113.174 287.851 115.822C287.435 117.587 287.799 119.404 289.046 121.014C289.721 121.896 290.708 122.104 291.799 121.585C292.371 121.325 292.994 120.858 293.254 120.339C293.598 119.737 293.728 119.03 293.851 118.362L293.852 118.36L293.869 118.265L293.886 118.172C293.9 118.097 293.915 118.024 293.929 117.951C293.968 117.756 293.919 117.561 293.871 117.367ZM158.227 99.0017C158.29 98.9186 158.335 98.819 158.381 98.7193C158.45 98.5698 158.518 98.4202 158.643 98.3268C158.829 98.1983 159.01 98.062 159.193 97.9253C159.673 97.5651 160.156 97.2028 160.721 96.977C161.24 96.7694 162.02 96.8213 162.643 96.977C163.838 97.2885 164.41 98.1191 164.306 99.2094C164.15 101.234 163.215 102.791 161.708 103.882C159.526 105.491 157.188 106.945 154.85 108.346C154.426 108.593 153.906 108.697 153.372 108.802C153.12 108.852 152.866 108.903 152.616 108.969C152.59 108.891 152.551 108.827 152.512 108.762C152.473 108.697 152.434 108.632 152.408 108.554C152.523 108.478 152.637 108.395 152.754 108.31C152.956 108.163 153.165 108.011 153.396 107.879C153.672 107.715 153.95 107.553 154.227 107.39L154.228 107.389C156.767 105.901 159.31 104.409 161.137 102.117C161.183 102.055 161.23 101.994 161.277 101.932C161.55 101.577 161.827 101.217 161.916 100.819C162.02 100.403 161.968 99.6247 161.656 99.3651C161.24 99.0017 160.513 98.794 159.942 98.7421C159.53 98.7421 159.152 98.9048 158.754 99.0756C158.649 99.1205 158.543 99.1661 158.435 99.2094L158.227 99.0017ZM303.551 54.0917C303.547 54.0756 303.544 54.0595 303.541 54.0434C303.437 53.9915 303.281 53.9915 303.125 54.0953C303.042 54.2271 302.97 54.3746 302.897 54.5245L302.897 54.525C302.74 54.8473 302.577 55.1807 302.294 55.3932C301.878 55.7566 301.203 56.0681 300.631 56.0681C300.216 56.0162 299.644 55.497 299.436 55.1336C299.176 54.6664 299.124 54.1472 299.124 53.6281C298.988 50.8049 299.81 48.0615 300.681 45.328C303.274 44.3465 305.885 43.3907 308.499 42.4336L308.499 42.4333C310.812 41.5864 313.128 40.7383 315.438 39.8706C316.581 39.4553 317.672 37.5345 317.412 36.2366C317.152 36.2885 316.893 36.3404 316.685 36.3923C304.528 40.286 292.63 44.8026 280.941 49.9421C280.577 50.0979 280.162 50.3574 280.006 50.6689C279.486 51.7592 279.33 52.9532 279.538 54.2511L279.616 54.2199C279.821 54.1369 279.924 54.0953 280.11 54.0953C281.719 53.3857 283.324 52.6617 284.929 51.9379L284.932 51.9364C288.608 50.2778 292.283 48.6202 296.007 47.1387C297.127 46.6928 298.252 46.2549 299.381 45.8227C298.71 48.113 298.06 50.4033 297.566 52.6936C297.15 54.4587 297.514 56.2757 298.761 57.8851C299.436 58.7677 300.423 58.9753 301.514 58.4562C302.086 58.1966 302.709 57.7294 302.969 57.2102C303.313 56.609 303.443 55.9013 303.566 55.2339L303.567 55.2318L303.567 55.2295L303.568 55.2245C303.588 55.1178 303.607 55.012 303.628 54.9079L303.644 54.8221C303.683 54.6275 303.635 54.4328 303.586 54.2381L303.572 54.1812L303.56 54.1334L303.551 54.0917ZM200.102 40.9609C200.119 41.0647 200.148 41.1685 200.177 41.2723C200.234 41.48 200.292 41.6877 200.257 41.8953C200.213 42.1043 200.174 42.3132 200.135 42.5212L200.134 42.5238L200.134 42.5246L200.134 42.5255L200.134 42.5256L200.134 42.5258C199.989 43.298 199.846 44.0564 199.478 44.7506C199.166 45.3736 198.439 45.9447 197.712 46.2562C196.361 46.9311 195.218 46.6196 194.439 45.5813C192.932 43.6604 192.516 41.48 192.984 39.2996C193.625 36.2426 194.501 33.2792 195.389 30.276L195.389 30.2758L195.389 30.2754L195.53 29.7992C195.708 29.2273 196.109 28.7046 196.511 28.1804C196.664 27.9803 196.817 27.78 196.959 27.5766L190.984 29.774C171.843 36.8136 150.663 44.603 138.173 49.3191C133.898 50.9213 129.734 52.7757 125.559 54.6352L125.559 54.6354C124.052 55.3065 122.544 55.9783 121.029 56.6392C120.332 56.9374 119.699 57.3415 119.049 57.7569L119.048 57.7569L119.048 57.757C118.68 57.9922 118.306 58.231 117.911 58.4562C118.798 59.5384 119.87 59.8282 120.953 60.1207L121.133 60.1694C121.372 60.2492 121.625 60.2881 121.885 60.328C122.133 60.366 122.386 60.4049 122.639 60.4809C123.522 60.7404 123.834 61.3634 123.626 62.194C123.47 62.7132 123.263 63.2843 122.951 63.7515C122.795 63.9591 122.431 64.1668 122.172 64.1149C120.042 63.8553 118.171 62.9728 116.561 61.5191C116.041 61.0519 115.885 60.4809 116.145 59.806C116.381 59.2274 116.599 58.6399 116.818 58.051L116.818 58.0503L116.818 58.0502L116.818 58.05L116.818 58.0498L116.818 58.0496L116.818 58.0495L116.819 58.0493L116.819 58.0491L116.819 58.049L116.819 58.0488L116.819 58.0486L116.819 58.0485C117.13 57.2114 117.442 56.3712 117.808 55.5489C118.015 55.0817 118.483 54.5626 118.95 54.3549C120.114 53.8123 121.271 53.2633 122.427 52.715L122.428 52.7144L122.428 52.7143L122.428 52.7143L122.429 52.7141C125.916 51.0595 129.388 49.412 132.978 47.9694C152.408 40.0264 194.75 24.2962 214.596 17.3396C216.515 16.6607 218.464 16.1046 220.396 15.5533L220.397 15.553C220.977 15.3878 221.555 15.2229 222.13 15.0553C222.409 14.9624 222.706 14.9434 223.056 14.9211C223.292 14.9061 223.551 14.8895 223.844 14.8477C223.733 15.1024 223.627 15.3477 223.524 15.5855L223.524 15.5866C223.145 16.4632 222.809 17.2388 222.441 18.0145C222.368 18.162 222.137 18.2571 221.897 18.3556C221.799 18.3958 221.7 18.4366 221.61 18.4817C215.236 20.8499 206.614 24.0248 197.162 27.502C197.205 27.5149 197.251 27.5279 197.296 27.5408L197.296 27.5409C197.387 27.5668 197.478 27.5928 197.556 27.6187C197.452 28.086 197.348 28.5532 197.192 29.0204C197.119 29.2485 197.046 29.4767 196.973 29.7048L196.967 29.7235L196.96 29.7449C195.835 33.2419 194.708 36.7477 194.854 40.3898L194.86 40.4648L194.865 40.5244L194.874 40.6449L194.874 40.646L194.874 40.6471L194.874 40.6485L194.874 40.6498L194.874 40.6511C194.912 41.1852 194.95 41.7084 195.218 42.1549C195.478 42.6221 196.153 43.2451 196.673 43.2451C197.348 43.2451 198.179 42.8298 198.699 42.4145C199.026 42.1238 199.226 41.7315 199.423 41.3442C199.508 41.1781 199.592 41.0129 199.686 40.857C199.79 40.9089 199.946 40.9609 200.102 40.9609ZM321.228 98.8979C321.199 98.7941 321.17 98.6902 321.153 98.5864C320.997 98.5864 320.841 98.5345 320.737 98.4826C320.644 98.6381 320.56 98.803 320.475 98.9688L320.475 98.9692L320.475 98.9697C320.277 99.357 320.077 99.7493 319.75 100.04C319.23 100.455 318.399 100.871 317.724 100.871C317.204 100.871 316.529 100.248 316.269 99.7804C316.001 99.334 315.963 98.8107 315.925 98.2767C315.919 98.1898 315.913 98.1025 315.905 98.0153C315.76 94.3731 316.887 90.8672 318.011 87.3701L318.017 87.3499L318.144 86.9574L318.243 86.646C318.399 86.179 318.503 85.712 318.607 85.2451L318.607 85.2443L318.087 85.0885C317.926 85.3309 317.744 85.5682 317.562 85.8052L317.562 85.8059C317.16 86.3301 316.76 86.8528 316.581 87.4247L316.44 87.9001L316.44 87.9005C315.553 90.904 314.677 93.8677 314.035 96.9251C313.568 99.1055 313.983 101.286 315.49 103.207C316.269 104.245 317.412 104.557 318.763 103.882C319.49 103.57 320.218 102.999 320.529 102.376C320.897 101.682 321.04 100.923 321.185 100.151L321.185 100.15L321.186 100.149C321.225 99.9406 321.264 99.7307 321.309 99.5209C321.343 99.3132 321.285 99.1055 321.228 98.8979ZM79.7777 78.703C79.8816 78.7549 80.0375 78.8068 80.1933 78.8068C80.2107 78.9106 80.2395 79.0145 80.2684 79.1183C80.3261 79.326 80.3838 79.5336 80.3492 79.7413C80.3049 79.9517 80.2653 80.162 80.2259 80.3714L80.2258 80.3715L80.2258 80.3716C80.0805 81.1438 79.9377 81.9023 79.5699 82.5966C79.2582 83.2196 78.5308 83.7906 77.8035 84.1021C76.4527 84.777 75.3097 84.4655 74.5304 83.4272C73.0238 81.5064 72.6082 79.326 73.0757 77.1455C73.7172 74.0883 74.5931 71.1248 75.4807 68.1214L75.6214 67.6451C75.8003 67.0732 76.2007 66.5506 76.6024 66.0263C76.7842 65.7891 76.9662 65.5515 77.1281 65.3089C77.2058 65.3348 77.2965 65.3607 77.3872 65.3866L77.3878 65.3868L77.3879 65.3868C77.4788 65.4128 77.5697 65.4387 77.6476 65.4647C77.5437 65.9319 77.4398 66.3991 77.284 66.8664C77.2068 67.1078 77.1292 67.3493 77.0515 67.5907C75.9273 71.0878 74.8003 74.5936 74.9461 78.2357C74.9533 78.323 74.9596 78.4102 74.9658 78.4971C75.0041 79.0311 75.0417 79.5544 75.3097 80.0008C75.5695 80.4681 76.2449 81.0911 76.7644 81.0911C77.4398 81.0911 78.2711 80.6757 78.7906 80.2604C79.1178 79.9698 79.3178 79.5774 79.5152 79.1901C79.5999 79.024 79.6841 78.8588 79.7777 78.703ZM38.394 59.5983L38.394 59.5982C38.3652 59.4944 38.3363 59.3906 38.319 59.2868C38.1631 59.2868 38.0073 59.2868 37.9034 59.183C37.8098 59.3388 37.7256 59.504 37.6409 59.6702C37.4435 60.0574 37.2435 60.4498 36.9163 60.7404C36.3967 61.1557 35.5655 61.5711 34.8901 61.5711C34.3705 61.5711 33.6952 60.9481 33.4354 60.4809C33.1673 60.0344 33.1298 59.5111 33.0915 58.9771C33.0852 58.8902 33.079 58.803 33.0717 58.7157C32.9259 55.0736 34.053 51.5678 35.1772 48.0707C35.2548 47.8293 35.3324 47.5878 35.4096 47.3464C35.5655 46.8792 35.6694 46.4119 35.7733 45.9447C35.6954 45.9187 35.6044 45.8928 35.5135 45.8668C35.4226 45.8409 35.3317 45.8149 35.2538 45.7889C35.0919 46.0315 34.9099 46.269 34.7282 46.5062L34.7281 46.5063C34.3264 47.0306 33.9259 47.5532 33.7471 48.1251L33.6064 48.6015C32.7187 51.6048 31.8429 54.5683 31.2014 57.6255C30.7338 59.806 31.1494 61.9864 32.6561 63.9072C33.4354 64.9455 34.5784 65.257 35.9291 64.5821C36.6565 64.2706 37.3838 63.6996 37.6956 63.0766C38.0634 62.3823 38.2062 61.6237 38.3515 60.8515C38.3909 60.6421 38.4305 60.4317 38.4749 60.2213C38.5095 60.0136 38.4518 59.806 38.394 59.5983ZM11.8228 52.0706C11.8538 52.3183 11.8986 52.5705 11.9436 52.8233C12.0493 53.4183 12.1555 54.016 12.0826 54.5625C12.0284 55.0141 11.9773 55.4688 11.9261 55.9248L11.926 55.9249C11.6828 58.0898 11.4365 60.2824 10.8357 62.2979C10.3162 63.9072 9.17321 65.4647 8.03024 66.3991C7.75599 66.6264 7.48692 66.8115 7.22334 66.9555C7.09051 67.4892 6.8919 68.1504 6.6275 68.943C4.65327 74.3421 3.71812 78.6511 3.71812 81.8179C3.77007 86.8536 5.27671 91.0068 8.29 94.3294C11.7709 98.1191 16.8103 100.04 23.3565 100.04C28.9155 100.04 35.1498 98.6902 42.0596 95.9906C47.255 94.0179 52.3464 91.474 57.3339 88.4111C61.5941 85.8672 63.7242 84.3617 63.7242 83.8945C63.7242 82.5966 61.8538 81.714 58.0093 81.2987C47.5147 80.1047 42.2674 77.1974 42.2674 72.5251C42.2674 67.0221 45.021 60.8962 50.4761 54.1992C55.7753 47.7098 60.2433 44.4911 63.9839 44.4911C65.3347 44.4911 66.4777 45.0621 67.4648 46.2043C68.4519 47.3464 68.9714 48.6962 68.9714 50.2017C68.9714 51.3957 68.7117 52.6417 68.1921 53.9396C67.7246 55.2374 67.257 55.9123 66.9453 55.9123C66.7374 55.9123 66.114 55.2374 65.1269 53.8877C64.1398 52.5379 63.2566 51.863 62.4773 51.863C60.3472 51.863 57.0222 54.0434 52.5022 58.4043C47.9304 62.817 45.6964 66.0877 45.6964 68.3719C45.6964 69.4621 46.7874 70.5523 49.0214 71.6426C50.9436 72.6289 52.762 73.2 54.5284 73.3557C59.464 73.823 62.8409 74.5498 64.6593 75.5362C66.3218 76.5226 67.1531 77.9762 67.1531 79.8451C67.1531 83.583 66.2179 86.646 64.3476 88.9821C61.2823 92.9277 55.3077 96.9251 46.3198 100.974C36.6045 105.439 28.1362 107.723 20.9666 107.723C11.667 107.723 5.32867 103.622 1.89975 95.4196C0.0813855 90.8511 -0.126428 85.4 1.32826 78.9625C2.15952 75.2766 3.4064 71.7983 5.0689 68.4238C5.27451 68.0223 5.46666 67.6577 5.64537 67.3306C4.52709 67.224 3.5443 66.27 2.731 64.5821C0.289199 59.3387 -0.334241 53.5243 0.393105 47.6579C1.48412 39.04 2.99077 30.474 4.49741 21.96C4.78916 20.393 5.4393 18.9539 6.08844 17.517L6.08844 17.517C6.36407 16.9069 6.63951 16.2972 6.88727 15.6783C7.01715 15.7562 7.16002 15.834 7.30289 15.9119C7.44576 15.9898 7.58863 16.0677 7.71852 16.1455C7.63654 16.6575 7.57073 17.1614 7.50514 17.6637L7.50514 17.6637L7.50514 17.6637L7.50513 17.6637L7.50513 17.6637L7.50513 17.6637L7.50512 17.6638L7.50512 17.6638L7.50512 17.6638C7.40445 18.4346 7.30432 19.2014 7.14703 19.9872C7.0311 20.5947 6.9146 21.2021 6.79808 21.8096L6.79795 21.8102C4.98251 31.2757 3.1623 40.766 3.4064 50.6689L3.40802 50.7192C3.45948 52.315 3.51571 54.0585 4.02983 55.497C4.44546 56.743 5.53648 58.4562 6.31578 58.4562C7.4068 58.5081 8.70563 57.4179 9.53688 56.2757C10.0638 55.5386 10.3532 54.5165 10.646 53.4825C10.7863 52.9873 10.9273 52.4894 11.0955 52.0187C11.2253 52.0187 11.3422 52.0317 11.4591 52.0447L11.4592 52.0447L11.4592 52.0447C11.5761 52.0577 11.693 52.0706 11.8228 52.0706ZM227.897 1.0383C227.533 1.73915 227.182 2.45298 226.831 3.16681C226.481 3.88064 226.13 4.59447 225.766 5.29532C225.143 6.48936 224 6.9566 222.753 7.26809C207.219 11.3174 191.841 15.7821 176.619 20.766C156.617 27.3072 136.978 34.6791 117.859 43.4009C115.776 44.3437 113.722 45.3162 111.653 46.2959L111.648 46.2983L111.633 46.3054C110.974 46.6173 110.314 46.9299 109.651 47.2426C109.339 47.3983 109.079 47.5021 108.56 47.7098C108.647 47.4494 108.706 47.2072 108.761 46.9832L108.761 46.9831L108.762 46.983C108.838 46.6709 108.906 46.3941 109.027 46.1523C109.859 44.6987 110.742 43.2451 111.729 41.8953C112.197 41.2723 112.872 40.8051 113.547 40.3898C123.211 35.0426 133.497 31.0451 143.836 27.2034C170.176 17.3915 197.036 9.13702 224.156 1.76511C224.727 1.60936 225.312 1.45362 225.896 1.29787L225.898 1.29732C226.482 1.14176 227.066 0.986198 227.637 0.830638C227.741 0.934468 227.793 0.986383 227.897 1.0383ZM355.442 5.81447C350.662 7.37192 345.934 8.92936 341.155 10.5387C319.075 17.9626 297.202 26.0094 275.745 34.8868C273.512 35.7694 271.329 39.0919 271.485 41.48L274.758 40.0783C291.02 33.2774 307.645 27.3592 324.27 21.5966C334.121 18.1494 343.997 14.7996 353.88 11.4472C358.434 9.9022 362.991 8.35669 367.547 6.80085C368.17 6.59319 368.846 6.12596 369.158 5.60681C369.799 4.48433 370.317 3.29994 370.831 2.12535L370.831 2.12492L370.834 2.11861C370.985 1.77435 371.135 1.43095 371.288 1.09021L371.08 0.882553C370.924 0.934474 370.781 0.973413 370.638 1.01235L370.638 1.01244L370.638 1.01251C370.495 1.05139 370.352 1.09029 370.197 1.14213L370.188 1.1449L370.188 1.14497C365.255 2.70147 360.322 4.25797 355.442 5.81447ZM39.6698 35.7174C39.2022 36.6519 39.0463 37.6902 39.2542 38.8323C39.5139 38.7804 39.6178 38.7285 39.7217 38.6247C41.1987 37.9779 42.6704 37.3153 44.1436 36.652C47.2823 35.2388 50.4277 33.8226 53.6452 32.5506C57.3229 31.0534 61.0675 29.69 64.806 28.3289C66.7712 27.6134 68.7347 26.8985 70.6859 26.1651C71.673 25.8017 72.6082 24.1404 72.4003 22.9983L71.7769 23.154C61.1784 26.6323 50.7358 30.5779 40.4491 35.0426C40.1374 35.1983 39.8256 35.4579 39.6698 35.7174ZM37.8514 32.4987C37.6436 31.3566 37.7995 30.3183 38.267 29.3838C38.4229 29.1243 38.7346 28.8647 39.0463 28.7089C49.2811 24.1923 59.7238 20.2468 70.3742 16.8204L70.9976 16.6647C71.2054 17.8068 70.2703 19.4681 69.2831 19.8315C67.332 20.5649 65.3684 21.2798 63.4032 21.9953C59.6648 23.3564 55.9201 24.7198 52.2425 26.217C49.0249 27.489 45.8796 28.9051 42.741 30.3183L42.7408 30.3184L42.7406 30.3185L42.7404 30.3186L42.7401 30.3187L42.7399 30.3188L42.7397 30.3189L42.7394 30.319L42.7392 30.3191L42.739 30.3192L42.7388 30.3193L42.7385 30.3194L42.7383 30.3195L42.7381 30.3196L42.7378 30.3197L42.7376 30.3198L42.7374 30.3199L42.7372 30.3201L42.7369 30.3202L42.7367 30.3203L42.7365 30.3204L42.7362 30.3205L42.736 30.3206C41.2645 30.9831 39.7944 31.645 38.319 32.2911C38.2151 32.3949 38.1112 32.4468 37.8514 32.4987ZM24.0318 23.154C22.0151 22.0984 21.1522 23.3489 20.2537 24.6511C20.1801 24.7578 20.1062 24.8649 20.0314 24.9711C19.3561 23.1021 20.8627 20.1949 22.9408 19.0009C21.7979 16.2494 20.3951 13.6017 18.1611 11.3174C17.5896 12.823 16.7064 12.3557 15.9271 11.8885C15.2517 11.5251 14.5764 11.1098 13.9529 10.6945C12.0826 9.44851 11.7189 8.51404 12.3943 6.33362C12.758 5.19149 13.2775 4.88 14.4724 5.19149C16.8623 5.86638 18.6287 7.37192 20.0314 9.29277C20.4911 9.91178 20.9276 10.5461 21.3707 11.19C22.0795 12.22 22.805 13.2743 23.6682 14.3285C23.6682 13.8074 23.6565 13.2863 23.645 12.7672C23.6219 11.7347 23.599 10.7099 23.6682 9.70809C23.7721 7.83915 23.876 5.97021 24.3436 4.15319C25.019 1.55745 27.0451 0.934468 29.2791 2.54383C31.1494 3.8417 31.4612 5.03574 30.3701 7.16426L30.3701 7.16425L30.3701 7.16424L30.3701 7.16423L30.3701 7.16422L30.3701 7.16421L30.3701 7.1642L30.3701 7.16419L30.3701 7.16418L30.37 7.16417L30.37 7.16416L30.37 7.16415L30.37 7.16414L30.37 7.16413L30.37 7.16412L30.37 7.16411L30.37 7.1641L30.37 7.16409L30.3699 7.16408L30.3699 7.16407L30.3699 7.16406C30.0063 6.85263 29.6427 6.54121 29.3311 6.22979C28.4998 5.29532 27.4608 5.03575 26.3178 5.39915C25.1748 5.76255 25.0709 6.80085 25.019 7.83915L25.019 7.8392C24.8111 11.5771 24.6033 15.3149 24.3955 18.8451C24.9268 19.2875 25.4401 19.7119 25.9413 20.1264L25.9418 20.1267L25.942 20.127L25.9422 20.1271L25.9435 20.1281C26.9119 20.9288 27.8357 21.6927 28.7596 22.4792C29.5909 23.154 29.5909 23.9847 29.2791 24.9711C28.9674 25.9574 28.4998 26.5285 27.3569 26.7881C24.967 27.4111 22.5772 28.1379 20.2393 29.0723C18.7846 29.6434 18.6807 30.2664 18.9924 31.8238L23.2006 53.3166C23.5643 55.1336 23.876 57.0026 24.1358 58.8715C24.2095 59.3504 24.1524 59.8554 24.0945 60.3681C24.0708 60.5779 24.0469 60.7889 24.0318 61C23.9799 61 23.915 61.013 23.8501 61.0259L23.85 61.026C23.7851 61.0389 23.7201 61.0519 23.6682 61.0519C23.6162 60.9135 23.5585 60.7809 23.5008 60.6482L23.5008 60.6481C23.3853 60.3828 23.2699 60.1174 23.2006 59.806C22.733 57.4958 22.2784 55.1726 21.8239 52.8495C21.3693 50.5262 20.9147 48.203 20.4471 45.8928C19.6158 41.8434 18.7326 37.794 17.8494 33.7447C16.8103 28.9685 19.2521 24.9711 23.3565 23.6732C23.6682 23.5174 23.824 23.3617 24.0318 23.154ZM276.733 82.7004C277.772 82.2332 278.083 81.4545 277.824 80.0528C277.642 80.1566 277.46 80.2345 277.278 80.3123C277.096 80.3902 276.914 80.4681 276.733 80.5719C276.525 80.7017 276.317 80.8444 276.109 80.9871L276.109 80.9874C275.901 81.1301 275.693 81.2728 275.486 81.4025C274.291 82.0774 273.044 81.8698 271.901 81.2987C271.226 80.9872 271.174 80.3123 271.589 79.8451C272.576 78.8587 273.512 78.9106 274.291 80.0008C274.291 80.0308 274.325 80.0435 274.395 80.0688C274.445 80.0874 274.515 80.1127 274.603 80.1566C274.613 80.1351 274.624 80.1137 274.635 80.0922C274.649 80.0646 274.664 80.037 274.678 80.0094C274.708 79.9531 274.738 79.8968 274.768 79.8404L274.822 79.7414C274.972 79.4645 275.122 79.1876 275.226 78.9106C275.486 78.1838 275.59 77.457 274.966 76.8859C274.343 76.3668 273.615 76.5745 272.992 76.8859C271.641 77.5608 270.654 78.703 269.823 79.9489C269.044 81.143 269.199 82.0255 270.187 83.0119C270.394 83.1936 270.602 83.3623 270.81 83.5311C271.018 83.6998 271.226 83.8685 271.433 84.0502C269.823 85.6596 268.472 87.9438 267.953 89.8647C267.485 91.6298 268.108 92.8238 269.875 93.2911C270.186 93.3949 270.55 93.4987 270.914 93.4987C274.862 93.7583 278.239 92.5643 280.941 89.657C281.097 89.5013 281.201 89.2936 281.305 89.086C281.305 89.034 281.253 88.9302 281.201 88.8783C281.042 88.9259 280.883 88.9687 280.725 89.0111C280.368 89.1073 280.019 89.2014 279.694 89.3455C277.2 90.3838 274.603 91.0587 271.849 90.7472C271.791 90.7399 271.731 90.7329 271.671 90.7258C270.875 90.6315 269.953 90.5223 269.615 89.6051C269.264 88.6538 269.928 87.9923 270.535 87.3876L270.602 87.3208C272.421 85.5038 274.291 83.7387 276.733 82.7004ZM217.921 98.2749C217.657 98.524 217.401 98.7778 217.147 99.0306C216.552 99.6209 215.963 100.206 215.272 100.715C212.518 102.74 209.401 103.259 206.024 102.688C203.79 102.272 202.855 100.923 203.167 98.6383C203.427 96.4579 204.518 94.6928 206.128 93.2391C206.78 92.6727 207.447 92.1217 208.147 91.544L208.148 91.5433C208.73 91.0623 209.335 90.5628 209.973 90.0204C209.787 89.9962 209.603 89.9714 209.42 89.9467C207.252 89.6544 205.295 89.3905 203.427 90.5396C203.332 90.6026 203.199 90.6082 203.051 90.6145C202.955 90.6186 202.853 90.623 202.751 90.6434L202.751 90.6242C202.751 90.6054 202.75 90.5865 202.749 90.5676C202.748 90.5512 202.748 90.5347 202.747 90.5183L202.745 90.4876C202.735 90.3319 202.725 90.1762 202.803 90.0204C203.634 87.6323 204.933 86.6979 207.479 86.6979H207.479C208.466 86.6979 209.505 86.6979 210.492 86.8536C212.103 87.0613 212.466 87.6842 212.051 89.2417C211.635 90.6434 210.752 91.7336 209.661 92.6681C209.26 93.0241 208.831 93.3515 208.401 93.6789C207.829 94.1154 207.256 94.5519 206.752 95.0562C206.024 95.6791 205.401 96.4579 204.829 97.2366C204.362 97.9115 204.518 98.7421 205.297 99.1055L205.371 99.1373L205.48 99.1846L205.644 99.2556L205.646 99.2566C206.64 99.6878 207.704 100.149 208.726 100.196C211.479 100.3 214.077 99.6766 216.519 98.3268C216.709 98.2001 216.938 98.1314 217.17 98.0617C217.318 98.0171 217.468 97.9722 217.61 97.9115L217.921 98.2749ZM381.579 111.854C381.833 111.601 382.089 111.347 382.354 111.098C382.332 111.077 382.314 111.053 382.295 111.029C382.279 111.007 382.264 110.984 382.248 110.961C382.194 110.882 382.138 110.798 382.042 110.734C381.9 110.795 381.75 110.84 381.602 110.885C381.37 110.954 381.141 111.023 380.951 111.15C378.509 112.5 375.911 113.123 373.158 113.019C372.136 112.972 371.072 112.511 370.079 112.08L370.076 112.079C369.96 112.028 369.844 111.978 369.729 111.929C368.95 111.565 368.794 110.734 369.261 110.06C369.833 109.281 370.456 108.502 371.184 107.879C371.688 107.375 372.261 106.938 372.833 106.502C373.263 106.174 373.692 105.847 374.093 105.491C375.184 104.557 376.067 103.466 376.483 102.065C376.899 100.507 376.535 99.8843 374.924 99.6766C373.937 99.5209 372.898 99.5209 371.911 99.5209C369.365 99.5209 368.066 100.455 367.235 102.843C367.157 102.999 367.167 103.155 367.177 103.311C367.18 103.363 367.183 103.414 367.183 103.466C367.285 103.446 367.388 103.442 367.483 103.438C367.631 103.431 367.764 103.426 367.859 103.363C369.727 102.213 371.684 102.477 373.852 102.77C374.035 102.794 374.219 102.819 374.405 102.843C373.767 103.386 373.162 103.886 372.579 104.367L372.579 104.367C371.879 104.945 371.212 105.496 370.56 106.062C368.95 107.516 367.859 109.281 367.599 111.461C367.287 113.746 368.222 115.095 370.456 115.511C373.833 116.082 376.951 115.563 379.704 113.538C380.395 113.029 380.984 112.444 381.579 111.854ZM136.184 15.1474C136.036 16.0671 135.888 16.9889 135.731 17.9106C135.679 17.9106 135.628 17.9236 135.576 17.9366C135.524 17.9496 135.472 17.9626 135.42 17.9626C135.382 17.8717 135.344 17.7798 135.306 17.6871L135.306 17.6869C135.082 17.1438 134.847 16.5738 134.536 16.0417C134.143 15.3503 133.757 14.6518 133.37 13.9527L133.37 13.9526L133.37 13.9525L133.37 13.9523L133.37 13.9521L133.369 13.9517L133.369 13.9512L133.369 13.9504L133.368 13.9495L133.368 13.9488L133.368 13.9484C132.274 11.9718 131.178 9.99049 129.913 8.15064C129.029 6.85277 127.627 5.86638 126.276 4.98383C124.717 3.94553 123.678 4.15319 122.276 5.39915C121.856 5.75827 121.452 6.14038 121.049 6.52193C120.403 7.13322 119.758 7.74304 119.054 8.25447C115.585 10.7479 112.081 13.2235 108.572 15.7022L108.571 15.7024L108.571 15.7027L108.571 15.703L108.57 15.7036L108.567 15.7052C106.087 17.4574 103.604 19.2111 101.131 20.9736C100.838 21.1563 100.571 21.339 100.312 21.5217C99.9714 19.415 99.6728 17.711 99.4161 16.4051C97.4938 6.17787 95.6235 1.0383 93.8051 1.0383C93.2336 1.0383 92.4543 2.33617 91.4153 4.88C90.3762 7.42383 89.8567 9.34468 89.8567 10.6945C89.8567 11.2655 90.0125 11.577 90.2723 11.6289C90.636 11.6809 91.0516 11.2655 91.4153 10.383C91.8309 9.50043 92.0387 9.08511 92.1426 9.08511C93.3895 9.08511 95.1559 16.5609 97.5457 31.5643C99.0004 41.0647 100.455 53.2128 101.91 68.0085C103.416 83.1157 108.872 90.6434 118.275 90.6434C123.73 90.6434 127.938 87.5285 130.796 81.2468C131.471 84.154 133.134 86.6979 135.731 88.8264C134.433 91.9413 134.225 93.6025 135.108 93.8621C135.627 94.0179 136.459 92.7719 137.602 90.1243C140.355 91.8894 143.888 92.72 148.304 92.72L148.2 92.7719C161.344 92.7719 175.528 90.1242 190.698 84.777C204.414 79.9489 214.077 77.5608 219.584 77.5608C220.987 77.5608 222.389 77.6647 223.74 77.8204C223.889 77.8204 224.198 77.8737 224.705 77.9612L224.705 77.9613C224.906 77.9959 225.138 78.0359 225.403 78.08L225.753 78.1386C226.484 78.2612 226.95 78.3396 227.221 78.3396C227.429 78.3396 228.052 77.3013 229.143 75.2766C230.234 73.2519 230.806 72.006 230.806 71.5387C230.754 71.5387 230.702 71.4868 230.65 71.383C221.974 71.383 213.609 70.2928 205.609 68.0604C203.011 67.3336 199.166 66.1915 194.023 64.5821C190.75 63.4919 188.724 62.9728 187.944 62.9728C187.477 62.9728 186.282 63.1285 184.36 63.4919C182.437 63.8034 181.398 64.0111 181.294 64.1149C180.723 64.634 179.996 65.8281 179.112 67.6451C178.437 69.1506 178.125 70.0332 178.125 70.3447C178.125 70.5004 179.268 70.6042 181.606 70.7081C184.619 70.8119 187.477 71.1234 190.178 71.6945L190.906 70.9677C195.426 72.2136 199.53 73.3557 203.219 74.446C202.405 74.7193 201.593 74.9927 200.782 75.2658L200.75 75.2763C195.871 76.9184 191.025 78.5496 186.178 80.1047C180.931 81.8179 176.255 83.1157 172.151 83.9464C172.203 83.8685 172.268 83.7906 172.333 83.7127C172.397 83.6349 172.462 83.557 172.514 83.4791C174.904 80.2085 176.099 77.2494 176.099 74.4979C176.099 72.1617 174.592 69.566 171.631 66.7106C168.41 63.6996 165.033 62.194 161.5 62.194C154.071 62.194 146.642 68.943 139.108 82.4408C136.407 80.9872 134.692 79.0664 133.861 76.7821C133.757 76.4706 133.653 75.64 133.601 74.394C133.497 73.5115 133.29 73.0443 132.978 73.0443C132.458 73.0443 131.679 73.823 130.64 75.4323C130.25 76.0294 129.874 76.6135 129.497 77.1977C129.12 77.7816 128.744 78.3656 128.354 78.9625C126.12 81.9736 123.367 83.4791 119.99 83.4791C112.508 83.4791 107.884 77.9242 106.118 66.8664C104.144 51.6553 102.689 39.7149 101.754 31.097C101.248 27.5546 100.796 24.5451 100.399 22.0615C108.758 19.0591 116.594 15.2685 122.12 7.57957C122.535 11.1098 126.276 13.8613 129.029 12.6153C129.285 12.9721 129.549 13.329 129.815 13.6881L129.815 13.6882C130.633 14.7921 131.468 15.9177 132.095 17.1319C132.75 18.4095 133.261 19.749 133.771 21.0854C134.069 21.8669 134.366 22.6473 134.692 23.4136C134.861 23.8176 135.16 24.1779 135.506 24.5936L135.506 24.5938L135.506 24.5942C135.694 24.8194 135.894 25.0609 136.095 25.3345C136.214 25.0448 136.328 24.7942 136.431 24.5681C136.641 24.1055 136.805 23.7453 136.874 23.3617C137.214 21.7114 137.464 20.0156 137.707 18.3594L137.707 18.3571L137.708 18.3542L137.708 18.3534L137.758 18.0145C137.896 17.158 138.007 16.2954 138.118 15.4334C138.465 12.7423 138.811 10.0567 139.992 7.57957C141.031 5.39915 142.226 5.2434 143.888 7.06043C144.13 7.32645 144.372 7.60374 144.619 7.88705L144.62 7.88761C144.903 8.21229 145.194 8.54487 145.499 8.87745C147.577 5.60681 147.057 3.32255 143.94 1.66128L143.317 1.34979C141.654 0.622979 140.199 0.934468 139.42 2.59574C138.589 4.25702 137.913 6.07404 137.498 7.89106C136.969 10.2678 136.578 12.6994 136.184 15.146L136.184 15.1467L136.184 15.1474ZM54.5804 12.2C54.4812 12.3388 54.3971 12.4473 54.3253 12.54C54.2091 12.69 54.1251 12.7985 54.0608 12.9268C54.0195 12.9957 53.9781 13.0683 53.9357 13.1427L53.9355 13.143L53.9353 13.1433C53.8183 13.3486 53.6938 13.567 53.5413 13.7574C51.619 16.6128 48.294 16.457 46.9432 13.2902C46.4662 12.1535 46.3002 10.8873 46.134 9.61964L46.134 9.61948L46.1339 9.61934L46.1339 9.61921L46.1339 9.61908C46.0648 9.09217 45.9957 8.56502 45.9042 8.04681C45.8346 7.59499 45.8582 7.1199 45.8814 6.6527C45.8928 6.42203 45.9042 6.19329 45.9042 5.97021C44.7612 5.55489 44.7093 5.39915 45.2288 4.36085C45.5405 3.73787 45.8522 3.16681 46.1639 2.59574C46.3198 2.38808 46.6315 2.02468 46.7874 2.0766C47.0472 2.12851 47.4108 2.44 47.5147 2.69957C47.7225 3.37447 47.8265 4.04936 47.8265 4.77617C47.8527 5.50947 47.8656 6.24277 47.8787 6.98273L47.8788 6.9833C47.8916 7.70998 47.9046 8.44309 47.9304 9.18894C47.9304 9.29273 47.9433 9.4095 47.9563 9.52627L47.9563 9.52638C47.9693 9.64319 47.9823 9.76 47.9823 9.86383C48.2421 11.8366 49.1253 12.7191 50.6319 12.6153C52.3464 12.5115 53.853 11.006 53.8011 9.29277C53.6972 7.57958 53.4374 5.9183 53.1257 4.25702C52.9211 3.18394 53.2703 2.31204 53.7767 1.04725L53.8011 0.986383C53.9481 1.23829 54.0952 1.43926 54.2251 1.61676C54.4164 1.87824 54.5704 2.08879 54.6323 2.33617C54.7824 3.16112 54.9084 3.98607 55.0336 4.80523L55.0336 4.8057C55.1683 5.68754 55.302 6.56266 55.4636 7.42383C55.6194 8.41021 55.7753 9.3966 56.1909 10.2791C56.5546 11.1617 57.3859 11.7328 58.373 11.8366C59.6198 11.9923 60.2433 11.2655 59.8277 10.1234C59.2562 8.46213 58.5808 6.80085 57.8534 5.19149C57.2217 3.73476 57.7263 2.50511 58.3468 0.992787C58.3897 0.88823 58.4332 0.782322 58.4769 0.674894C58.6216 0.935141 58.734 1.09875 58.8232 1.22852C58.8941 1.33173 58.9504 1.41354 58.9964 1.50553C59.125 1.86948 59.2535 2.23564 59.3825 2.60309L59.3827 2.60351C59.8792 4.01802 60.3826 5.45175 60.9187 6.85277C61.5941 8.51404 62.1136 10.1753 61.7499 11.9923C61.3863 13.7574 60.555 14.7957 59.2042 15.0034C57.9054 15.2111 55.9831 14.2766 55.2558 13.0826C55.008 12.8845 54.8548 12.6392 54.6158 12.2566L54.5804 12.2ZM287.879 15.2852L287.878 15.2909L287.872 15.325C287.715 16.2707 287.555 17.2346 287.383 18.2221C287.161 17.7412 286.959 17.2801 286.762 16.8317L286.757 16.8203L286.756 16.8188L286.756 16.8183C286.403 16.013 286.068 15.2486 285.669 14.4843C284.318 11.5251 282.655 8.66979 280.162 6.54128C279.278 5.76255 278.031 5.29532 276.889 4.93192C275.746 4.56851 275.018 5.29532 274.706 6.38553C273.979 8.98128 274.551 10.5387 276.889 11.8885C277.062 11.975 277.229 12.0731 277.396 12.1712C277.731 12.3673 278.066 12.5634 278.447 12.6672C278.988 12.8216 279.586 12.8899 280.178 12.9575C280.382 12.9808 280.585 13.004 280.785 13.0306L281.097 12.5634C281.387 12.9839 281.685 13.3963 281.983 13.8074C282.75 14.8681 283.511 15.9201 284.11 17.08C284.652 18.1312 285.037 19.241 285.422 20.3496C285.665 21.0476 285.907 21.7452 286.188 22.4272C286.406 22.9706 286.724 23.4886 287.038 23.999C287.174 24.2202 287.309 24.4399 287.435 24.6596C287.513 24.6596 287.591 24.6466 287.669 24.6336C287.747 24.6206 287.825 24.6077 287.903 24.6077C287.95 24.5033 287.999 24.3989 288.049 24.2942C288.269 23.8261 288.493 23.3517 288.578 22.8426C288.758 21.8292 288.909 20.7962 289.061 19.7607L289.061 19.7588L289.061 19.7571C289.258 18.4066 289.456 17.0518 289.721 15.7302C289.791 15.3747 289.86 15.0182 289.928 14.6614L289.93 14.6543L289.931 14.6478C290.374 12.3513 290.821 10.0371 291.539 7.83915C292.267 5.71064 293.877 5.60681 295.332 7.26809C295.851 7.78723 296.319 8.3583 296.787 8.92936C299.073 6.12596 297.826 2.64766 294.397 1.66128C292.994 1.24596 291.851 1.50553 291.176 2.8034C290.344 4.5166 289.617 6.33362 289.201 8.15064C288.678 10.4691 288.288 12.8145 287.879 15.2838L287.879 15.2852ZM349.052 104.141C349.082 104.08 349.113 104.016 349.144 103.952L349.144 103.952C349.271 103.69 349.404 103.415 349.571 103.207C349.709 103.077 349.846 102.947 349.982 102.816C350.667 102.161 351.346 101.511 352.169 101.078C352.844 100.715 353.727 100.611 354.507 100.663C355.909 100.819 356.533 101.701 356.377 103.103C356.065 105.699 354.818 107.879 352.948 109.592C350.195 112.136 347.285 114.472 344.376 116.808L344.376 116.809C343.844 117.233 343.192 117.489 342.551 117.741C342.252 117.858 341.955 117.974 341.674 118.106C341.622 118.029 341.583 117.951 341.544 117.873C341.505 117.795 341.466 117.717 341.414 117.639L342.661 116.549L342.973 116.311C346.401 113.693 349.805 111.093 352.377 107.516C352.792 106.945 353.208 106.322 353.364 105.699C353.52 105.128 353.468 104.193 353.104 103.882C352.636 103.518 351.753 103.414 351.078 103.518C350.655 103.589 350.255 103.827 349.848 104.07L349.847 104.07L349.847 104.07C349.654 104.185 349.459 104.301 349.259 104.401C349.259 104.349 349.156 104.245 349.052 104.141ZM219.119 38.1895C219.366 38.1743 219.64 38.1574 219.948 38.1574C219.948 38.2094 220.207 38.4689 220.467 38.5728C222.389 40.6494 223.377 43.1932 224.26 45.8409C224.675 47.2426 224.416 47.8655 223.429 48.6962C220.259 51.4477 216.727 53.68 213.142 55.8085C211.385 56.8789 209.664 58.0905 207.949 59.2977L207.949 59.2978C207.584 59.5543 207.22 59.8107 206.855 60.0655L207.011 60.377C207.115 60.3511 207.232 60.3251 207.349 60.2992C207.466 60.2732 207.583 60.2472 207.687 60.2213C212.518 58.8715 217.038 56.7949 221.143 53.8877C223.688 52.0706 226.026 49.994 226.805 46.8272C227.148 45.5813 227.323 44.2792 227.498 42.9772C227.614 42.1092 227.73 41.2412 227.897 40.3898C228.312 38.0536 228.78 35.7174 229.455 33.4332C229.975 31.6162 231.325 31.4085 232.676 32.7583C233.073 33.1553 233.44 33.6129 233.8 34.0616C233.911 34.1998 234.021 34.3371 234.131 34.4715C236.105 32.2392 235.482 29.4357 232.728 28.1898C230.91 27.3592 229.559 27.6187 228.78 29.4357C227.897 31.4085 227.325 33.537 226.857 35.6655C226.511 37.223 226.303 38.7805 226.095 40.338C225.992 41.1167 225.888 41.8954 225.766 42.674C225.247 42.2587 224.987 41.8434 224.779 41.3762C224.507 40.844 224.237 40.3086 223.968 39.7732L223.967 39.7728L223.967 39.7725L223.967 39.7723C223.159 38.1665 222.35 36.5608 221.454 35.0426C220.363 33.2774 219.168 31.5123 216.882 30.9413C215.687 30.6298 214.648 31.0451 214.181 31.9796C213.298 33.7966 213.869 35.8732 215.584 36.9634C216.311 37.4306 217.09 37.846 217.87 38.1055C218.218 38.2449 218.614 38.2206 219.119 38.1895ZM302.553 68.5277C299.956 65.2051 297.306 63.5957 294.553 63.5957C292.63 63.5957 290.76 64.634 289.046 66.7626C287.227 68.9949 286.344 71.5906 286.344 74.6017C286.344 79.4298 289.409 81.6102 295.488 81.2468C298.553 81.143 300.995 81.5064 302.865 82.3889C304.164 83.1677 304.787 83.8945 304.787 84.4655C304.787 85.6596 301.255 88.463 294.189 92.8757C286.656 97.4962 278.759 101.649 270.55 105.335C264.835 108.035 257.146 111.15 247.379 114.732C241.872 116.757 239.118 117.951 239.118 118.314C239.118 118.418 239.326 118.47 239.69 118.47C240.521 118.47 243.431 118.054 248.418 117.172C260.523 115.251 266.602 114.213 266.654 114.109C271.174 112.759 277.979 109.385 287.123 103.986C292.86 100.587 297.075 97.8923 299.738 95.9012C298.948 98.8762 298.553 101.802 298.553 104.609C298.553 109.177 299.644 112.863 301.826 115.666C304.164 118.729 307.593 120.287 312.113 120.287C316.893 120.287 322.503 117.951 328.946 113.278C334.557 109.281 338.817 105.128 341.674 100.923C343.285 98.5345 344.168 94.8485 344.22 89.8647C348.324 88.6706 353.572 86.5421 360.066 83.5311C366.612 80.4681 372.794 78.6511 378.613 78.0281C380.795 77.7685 382.561 77.8204 384.016 78.1838C384.276 78.2357 384.795 77.1455 385.679 75.017C386.562 72.8366 386.978 71.5906 386.978 71.1753C387.081 70.8119 386.822 70.7081 386.25 70.76C375.704 71.4349 364.638 70.4485 353.208 67.8008C351.234 67.3855 349.104 67.0221 346.766 66.7626C349.935 64.686 352.688 61.7787 354.974 58.0409C357 54.6664 358.975 51.2919 360.897 47.9174C361.78 46.6196 362.871 45.9966 364.066 45.9966C365.729 45.9966 366.664 47.8136 366.975 51.3957V54.1472C366.872 54.9779 367.027 55.4451 367.391 55.4451C368.118 55.4451 368.69 54.5106 369.158 52.6936C369.521 51.0843 369.729 49.423 369.729 47.6579C369.729 45.9966 369.365 44.2315 368.586 42.2587C367.703 40.0264 366.82 38.9362 365.988 38.9362C363.702 38.9362 361.313 41.48 358.819 46.5677C355.078 54.5626 349.207 60.3251 341.207 63.8034C338.297 65.0494 336.687 65.88 336.323 66.1915H336.167C335.752 66.2953 335.076 67.3336 334.141 69.3583C333.206 71.383 332.738 72.577 332.738 72.9404C332.738 73.3038 332.998 73.4596 333.57 73.4596C335.492 73.2519 338.141 73.3038 341.414 73.6153C347.857 74.1345 354.351 75.1208 360.897 76.5226C353 80.3123 346.922 82.6485 342.713 83.5311C342.038 81.9736 341.414 80.8834 340.791 80.2085C338.141 77.3013 335.804 75.8477 333.777 75.8477C331.439 75.8477 329.361 77.1974 327.543 79.9489C325.88 82.337 325.049 84.777 325.049 87.1651C325.049 91.0068 327.595 92.8757 332.634 92.8757C335.388 92.8757 338.193 92.2528 341.051 91.0587C341.674 91.8894 341.986 92.9277 341.986 94.1736C341.986 96.0425 338.609 99.5728 331.803 104.66C324.322 110.215 318.035 113.019 312.84 113.019C309.151 113.019 306.294 111.773 304.164 109.333C302.086 106.893 300.995 103.83 300.995 100.196C300.995 98.2877 301.204 96.338 301.621 94.3839C302.032 94.017 302.36 93.6873 302.605 93.3949C305.463 90.0204 306.917 85.8672 306.917 80.9353C306.917 76.263 305.463 72.1098 302.553 68.5277ZM292.578 73.9268C291.383 73.7191 290.812 73.3557 290.812 72.7328C290.812 72.3694 291.176 71.954 291.903 71.5906C292.63 71.2272 293.306 71.0196 293.825 71.0196C295.592 71.0196 297.098 71.9021 298.345 73.6153C295.748 74.0306 293.825 74.1345 292.578 73.9268ZM193.659 107.775L186.438 103.518L183.476 108.814L176.099 104.505L179.632 98.1711L186.853 102.376L189.815 97.0808L197.192 101.39L193.659 107.775ZM257.302 96.5098C258.341 94.2774 258.861 92.4604 258.861 91.0068C258.861 88.4111 256.679 86.2826 252.367 84.6213C250.704 84.0502 247.431 83.2715 242.547 82.2332C242.514 82.2248 242.481 82.2164 242.45 82.2082L242.449 82.2078L242.445 82.207L242.444 82.2067C242.285 82.165 242.148 82.1294 241.976 82.1294C242.08 82.1034 242.171 82.0645 242.262 82.0255C242.353 81.9866 242.443 81.9477 242.547 81.9217C247.795 80.0008 254.808 77.1455 263.64 73.4596C272.005 69.9294 276.629 67.8528 277.512 67.2817C277.928 67.0221 278.759 65.9838 280.006 64.1149C281.253 62.246 281.824 61.1557 281.72 60.7404C281.668 60.5328 281.201 60.6366 280.317 60.9481C279.43 61.3368 278.546 61.7255 277.663 62.1135L277.662 62.1139C274.771 63.3842 271.896 64.6473 268.992 65.88C263.588 68.1643 260.108 69.3583 258.653 69.3583C254.704 69.3583 250.86 67.3336 247.119 63.2843C243.794 59.5983 242.08 56.3796 242.08 53.68C242.08 52.9013 244.002 52.0187 247.847 50.8766C251.691 49.7864 255.12 49.2153 258.133 49.2153C262.809 49.2153 265.77 49.6306 267.069 50.4613C268.368 51.2919 269.199 51.3957 269.563 50.8247C269.875 50.3574 269.407 49.6826 268.056 48.7481C262.705 45.3217 257.874 43.6085 253.458 43.6085C249.301 43.6085 245.613 45.0621 242.443 47.9174C239.274 50.7728 237.664 54.1472 237.664 58.0409C237.664 61.3634 239.17 64.7898 242.132 68.3719C244.314 71.0715 246.34 72.9404 248.314 73.9787C241.197 76.7821 236.832 78.7549 235.222 80.0008V80.1047C234.702 80.4162 234.027 81.3506 233.144 82.8043C232.209 84.3617 231.741 85.4 231.741 85.9711V86.2306C234.183 87.5804 238.807 88.8264 245.561 89.9685C247.327 90.2281 249.145 90.8511 251.068 91.7336C253.769 92.8757 255.12 94.1217 255.12 95.4715C255.12 96.1464 252.107 97.8077 246.132 100.559C228.052 108.554 205.92 112.603 179.736 112.603C159.422 112.603 142.901 109.956 130.068 104.609C124.094 102.117 118.899 99.4689 114.586 96.6136C113.236 95.8349 112.456 95.6272 112.249 95.8868C112.041 96.2502 114.275 98.6383 118.899 102.947C124.146 107.516 128.406 110.683 131.627 112.448C140.823 116.964 156.824 119.249 179.632 119.249C198.959 119.249 216.415 116.705 232.001 111.669C243.015 108.139 250.496 104.505 254.445 100.871C255.38 100.04 256.315 98.5345 257.302 96.5098ZM93.8051 66.2953C93.5973 66.5549 92.4024 66.1915 90.2723 65.257C90.4281 66.0357 91.5192 68.2681 93.5453 72.0579C95.3637 75.3804 96.2469 78.1319 96.2469 80.3123C96.2469 85.0885 94.6364 89.3974 91.4153 93.2392C89.8047 95.1081 84.6094 98.6383 75.9332 103.778C66.7894 109.073 59.9835 112.5 55.4636 113.953C55.3077 114.005 49.2292 115.043 37.1241 117.016C32.2924 117.795 29.383 118.21 28.4998 118.21C28.1362 118.21 27.9283 118.158 27.9283 118.054C27.9283 117.743 30.6819 116.549 36.1889 114.472C45.9042 110.89 53.6452 107.775 59.412 105.128C67.6206 101.39 75.5175 97.1847 82.9988 92.5123C90.0645 88.1515 93.5973 85.4 93.5973 84.2579C93.5973 83.9983 92.0387 80.7796 88.9215 74.5498C87.259 71.2272 86.0641 68.2162 85.3367 65.5166C84.8691 65.3089 84.6094 64.9455 84.6094 64.5302C84.6094 64.0111 84.8172 62.7132 85.1809 60.6885C85.5965 58.4562 85.9602 57.314 86.2199 57.314C86.3758 57.314 87.207 58.1447 88.7137 59.806C92.4024 63.8553 94.0649 66.0357 93.8051 66.2953ZM26.1619 89.3974L32.9159 93.6545L36.2409 87.2689L29.3311 82.96L26.5776 88.2553L19.8236 84.0502L16.4986 90.4357L23.4084 94.6928L26.1619 89.3974ZM167.579 49.4749L160.253 45.166L156.721 51.5515L164.046 55.8604L167.579 49.4749ZM159.37 69.3583C153.396 69.3583 147.317 74.0826 141.031 83.583C143.576 84.7251 146.538 85.3481 150.019 85.3481C155.733 85.3481 161.137 84.3098 166.176 82.2851C170.332 80.6238 172.41 79.3779 172.41 78.5472C172.41 77.5089 171.164 75.7957 168.67 73.5115C165.605 70.76 162.539 69.3583 159.37 69.3583ZM329.673 84.5174C329.673 84.1021 329.985 83.6868 330.556 83.2196C331.128 82.8043 331.647 82.5966 332.011 82.5966C333.777 82.5966 335.44 83.583 337.102 85.5557C335.959 85.8153 334.609 85.9192 332.998 85.9192C330.816 85.9192 329.673 85.4519 329.673 84.5174ZM359.858 21.2332L367.183 25.5421L363.65 31.9277L356.325 27.6187L359.858 21.2332Z" fill="url(#paint0_linear_255_2447)"/>
<defs>
<linearGradient id="paint0_linear_255_2447" x1="0.10791" y1="60.974" x2="387" y2="60.974" gradientUnits="userSpaceOnUse">
<stop stop-color="#0066CC"/>
<stop offset="0.974" stop-color="#003E7C"/>
<stop offset="1" stop-color="#000E1B"/>
</linearGradient>
</defs>
</svg>
