<svg width="41" height="40" viewBox="0 0 41 40" fill="none" xmlns="http://www.w3.org/2000/svg">
<rect x="0.5" width="40" height="40" rx="20" fill="#EAF9FB"/>
<g clip-path="url(#clip0_900_11413)">
<path d="M20.5 10C14.9772 10 10.5 14.4772 10.5 20C10.5 24.6896 13.7288 28.6248 18.0844 29.7056V23.056H16.0224V20H18.0844V18.6832C18.0844 15.2796 19.6248 13.702 22.9664 13.702C23.6 13.702 24.6932 13.8264 25.1404 13.9504V16.7204C24.9044 16.6956 24.4944 16.6832 23.9852 16.6832C22.3456 16.6832 21.712 17.3044 21.712 18.9192V20H24.9784L24.4172 23.056H21.712V29.9268C26.6636 29.3288 30.5004 25.1128 30.5004 20C30.5 14.4772 26.0228 10 20.5 10Z" fill="#29C0D5"/>
</g>
<defs>
<clipPath id="clip0_900_11413">
<rect width="20" height="20" fill="white" transform="translate(10.5 10)"/>
</clipPath>
</defs>
</svg>
