<svg width="22" height="16" viewBox="0 0 22 16" fill="none" xmlns="http://www.w3.org/2000/svg">
<g clip-path="url(#clip0_935_7472)">
<mask id="mask0_935_7472" style="mask-type:luminance" maskUnits="userSpaceOnUse" x="0" y="0" width="22" height="16">
<path d="M0.00109863 0H21.3323V16H0.00109863V0Z" fill="white"/>
</mask>
<g mask="url(#mask0_935_7472)">
<path fill-rule="evenodd" clip-rule="evenodd" d="M-1.33325 0H22.6667V16H-1.33325V0Z" fill="#165D31"/>
<path fill-rule="evenodd" clip-rule="evenodd" d="M4.7136 4.53445C4.6886 4.90945 4.6511 5.5657 4.97297 5.63445C5.35735 5.67195 5.14485 4.98445 5.28547 4.85945C5.31047 4.79695 5.35735 4.79695 5.36047 4.87508V5.45945C5.36047 5.64695 5.48547 5.7032 5.57922 5.7407C5.67922 5.73445 5.74797 5.7407 5.78547 5.83445L5.83547 6.84383C5.83547 6.84383 6.06672 6.91258 6.07922 6.2782C6.0886 5.9032 6.00422 5.59383 6.05422 5.52195C6.05422 5.45008 6.14797 5.44695 6.21047 5.48133C6.31047 5.55008 6.35422 5.63758 6.51047 5.60633C6.74797 5.53758 6.89172 5.42195 6.89485 5.2407C6.89016 5.06258 6.85309 4.8868 6.78547 4.72195C6.79797 4.6907 6.74172 4.60633 6.75422 4.57508C6.79485 4.64383 6.86047 4.63758 6.87297 4.57508C6.83235 4.44383 6.76985 4.3157 6.66985 4.26258C6.58547 4.18758 6.46047 4.20008 6.41985 4.35633C6.39485 4.53445 6.48235 4.74383 6.61047 4.91883C6.6386 4.98445 6.6761 5.09695 6.66047 5.19695C6.59172 5.23758 6.52297 5.21883 6.4636 5.15945C6.4636 5.15945 6.2761 5.01883 6.2761 4.98445C6.3261 4.6657 6.28547 4.6282 6.25735 4.53758C6.2386 4.4157 6.17922 4.37508 6.13235 4.29383C6.08547 4.24383 6.02297 4.24383 5.99172 4.29383C5.90735 4.43758 5.94797 4.74695 6.00735 4.88758C6.0511 5.0157 6.11672 5.09695 6.08547 5.09695C6.06047 5.16883 6.00735 5.15008 5.96672 5.0657C5.92099 4.88813 5.89892 4.7053 5.9011 4.52195C5.88547 4.3782 5.86672 4.07195 5.76985 3.9907C5.7136 3.9157 5.62922 3.9532 5.59797 4.02195C5.58972 4.16156 5.59285 4.3016 5.60735 4.4407C5.66985 4.67195 5.69172 4.8782 5.72297 5.11258C5.73235 5.4282 5.54172 5.25008 5.5511 5.0907C5.59209 4.89034 5.58889 4.68345 5.54172 4.48445C5.51047 4.4032 5.4761 4.38445 5.39797 4.39695C5.3386 4.39695 5.18547 4.56258 5.14172 4.84383C5.14172 4.84383 5.10422 4.98758 5.0886 5.1157C5.06672 5.25945 4.97297 5.3657 4.90422 5.09695C4.84797 4.90008 4.81047 4.42195 4.71672 4.53445H4.7136Z" fill="white"/>
<path fill-rule="evenodd" clip-rule="evenodd" d="M5.7605 6.0688L4.7605 6.55005C4.76987 6.32192 5.23237 5.91255 5.55112 5.90942C5.75425 5.91255 5.70425 5.98755 5.75737 6.0688H5.7605Z" fill="white"/>
<path fill-rule="evenodd" clip-rule="evenodd" d="M5.58235 6.38127C5.05735 7.74064 6.81672 7.93127 7.0136 6.43752C7.03235 6.37502 7.10734 6.31564 7.11985 6.41564C7.07922 7.76877 5.75734 7.85939 5.53234 7.43439C5.47941 7.28816 5.45296 7.13366 5.45422 6.97814C5.42297 6.71252 5.28235 6.81564 5.26047 7.07814C5.2386 7.22502 5.24485 7.26564 5.24485 7.40627C5.3136 8.47502 7.01672 8.01564 7.29485 7.13439C7.44172 6.64689 7.26985 6.28752 7.34797 6.28752C7.51672 6.46877 7.75422 6.31252 7.80734 6.25002C7.82922 6.21877 7.88547 6.19689 7.92297 6.23752C8.05422 6.33127 8.28547 6.28752 8.33547 6.12189C8.36359 5.95627 8.38547 5.78752 8.39172 5.61564C8.28234 5.64689 8.20422 5.66877 8.19484 5.71564L8.17297 5.85939C8.16359 5.90627 8.07297 5.90627 8.06672 5.84689C8.02609 5.65939 7.85735 5.63752 7.75422 5.92502C7.6886 5.98127 7.5636 5.99377 7.5511 5.90939C7.56672 5.71564 7.4886 5.69064 7.33235 5.78127L7.18235 4.65002C7.24484 4.65002 7.30734 4.69689 7.36672 4.62189C7.30422 4.41877 7.16359 4.00627 7.08547 3.97502C7.05109 3.93127 7.01984 3.95939 6.96984 3.97189C6.88859 3.99689 6.8136 4.06564 6.8386 4.20314C6.93235 4.79064 6.99485 5.23752 7.09172 5.82814C7.10735 5.89377 7.05109 5.98439 6.97609 5.97502C6.85109 5.89064 6.81985 5.71877 6.6011 5.72502C6.44485 5.72502 6.26985 5.89689 6.24797 6.05939C6.21984 6.19064 6.21047 6.33127 6.24797 6.44377C6.35734 6.57502 6.4886 6.56252 6.60422 6.53439C6.69797 6.49377 6.7761 6.40002 6.81047 6.42189C6.83235 6.45002 6.8136 6.76252 6.3636 7.00002C6.09172 7.12502 5.87297 7.15002 5.75735 6.92814C5.68547 6.78752 5.7636 6.25939 5.58235 6.38127Z" fill="white"/>
<path fill-rule="evenodd" clip-rule="evenodd" d="M7.82302 4.99998C7.92614 4.96248 8.42614 4.38748 8.42614 4.38748L8.35114 4.32498C8.32302 4.3031 8.32614 4.2781 8.35114 4.25623C8.47614 4.18123 8.43552 4.02498 8.37302 3.94998C8.33059 3.92929 8.28391 3.9188 8.23671 3.91935C8.18951 3.91989 8.14309 3.93145 8.10114 3.9531C8.01364 4.03748 7.99489 4.17185 8.06364 4.2531C8.12927 4.28435 8.19489 4.3531 8.15114 4.3906C7.94489 4.60935 7.38552 4.98748 7.45114 4.99998C7.46364 5.01873 7.81052 5.01873 7.81989 4.99998H7.82302ZM4.79177 7.03123C4.60427 7.33123 4.58864 7.7781 4.69177 7.91248C4.74802 7.97498 4.83864 8.0031 4.90427 7.98123C5.02302 7.93123 5.07614 7.6906 5.04802 7.60623C5.00739 7.54373 4.97614 7.53435 4.93552 7.58435C4.85427 7.7531 4.81989 7.63748 4.81052 7.54373C4.80156 7.38496 4.80994 7.22568 4.83552 7.06873C4.85739 6.93748 4.83552 6.97498 4.79177 7.03123ZM12.8261 6.5531C12.6449 6.15935 12.3918 5.77185 12.3136 5.62498C12.0701 5.24 11.8116 4.86471 11.5386 4.49998C11.3449 4.26873 11.8574 4.59685 11.4761 4.13435L11.198 3.89998C11.1355 3.85623 10.9855 3.77498 10.9605 3.90623C10.948 4.02498 10.9543 4.08748 10.973 4.18435C10.9886 4.24685 11.0824 4.35623 11.1293 4.41873C11.7699 5.26731 12.3326 6.17203 12.8105 7.12185C12.8918 7.08123 12.873 6.61873 12.8261 6.5531Z" fill="white"/>
<path fill-rule="evenodd" clip-rule="evenodd" d="M12.0293 7.85948C11.9918 7.9001 12.1168 8.07198 12.2793 8.07198C12.548 8.04073 12.7855 7.89073 13.0043 7.49073C13.0932 7.35766 13.1499 7.20574 13.1699 7.04698C13.1964 6.28836 13.1356 5.52921 12.9887 4.78448C12.9793 4.72198 12.9887 4.64698 12.9949 4.62823C13.0137 4.60635 13.073 4.62823 13.1043 4.5751C13.1512 4.52823 12.9793 4.1376 12.8855 3.99073C12.8543 3.92198 12.8387 3.87823 12.7824 3.99698C12.7145 4.12801 12.6822 4.27455 12.6887 4.42198C12.8168 5.3126 12.8574 6.09073 12.9387 6.98135C12.948 7.06885 12.9355 7.19385 12.8762 7.24385C12.6404 7.50639 12.3518 7.71618 12.0293 7.85948ZM15.6699 7.85635C15.4762 7.96885 15.4762 8.09698 15.6324 8.1001C15.9012 8.06885 16.2199 8.04698 16.4387 7.71573C16.5159 7.55971 16.5606 7.38958 16.5699 7.21573C16.6092 6.46879 16.5599 5.71981 16.423 4.98448C16.4168 4.92198 16.3887 4.7751 16.398 4.75635C16.4168 4.7126 16.5043 4.75948 16.5355 4.70948C16.5793 4.6626 16.3074 4.3126 16.2105 4.1626C16.1793 4.09385 16.1668 4.0501 16.1074 4.16885C16.0445 4.30109 16.0248 4.44979 16.0512 4.59385C16.1949 5.5626 16.3012 6.2876 16.323 7.14385C16.3105 7.2251 16.3074 7.26885 16.2699 7.37198C16.1855 7.47823 16.0918 7.61573 16.0043 7.68135C15.9168 7.74385 15.7293 7.80635 15.6699 7.85635Z" fill="white"/>
<path fill-rule="evenodd" clip-rule="evenodd" d="M15.8136 6.99073C15.8136 6.7626 15.8167 6.56885 15.8105 6.39698C15.8085 6.25141 15.7766 6.10782 15.7167 5.9751C15.6605 5.84698 15.6949 5.74385 15.6667 5.60635C15.6417 5.46885 15.648 5.2626 15.6105 5.10323C15.598 5.04073 15.5667 4.8376 15.5761 4.81573C15.5917 4.77198 15.6511 4.81573 15.6824 4.76573C15.7261 4.71885 15.5261 4.20323 15.4261 4.05635C15.3917 3.99073 15.323 4.0126 15.2449 4.11885C15.1667 4.19073 15.1949 4.3501 15.2261 4.50323C15.4167 5.5126 15.5636 6.42823 15.5324 7.3876C15.5199 7.46885 15.8136 7.14385 15.8136 6.99073ZM14.3855 5.74073C14.2636 5.73448 14.0105 5.5001 13.9355 5.36573C13.9232 5.33289 13.918 5.29783 13.9201 5.26284C13.9223 5.22784 13.9318 5.19369 13.948 5.1626C13.9949 5.13135 14.0636 5.1001 14.1167 5.13135C14.1167 5.13135 14.1699 5.20635 14.1605 5.21573C14.223 5.24698 14.2542 5.23135 14.2605 5.20323C14.2636 5.15635 14.2417 5.12823 14.2417 5.07823C14.2699 4.93448 14.4292 4.9126 14.4917 5.00323C14.5355 5.05948 14.5542 5.1751 14.5574 5.25323C14.5574 5.29385 14.4949 5.24698 14.4542 5.25323C14.4199 5.26573 14.4105 5.30948 14.4074 5.34698C14.4011 5.4501 14.3886 5.61573 14.3855 5.7376V5.74073ZM12.1417 7.24073C12.173 6.93448 12.1292 6.3876 12.1261 6.20635C12.1094 5.74022 12.0708 5.27512 12.0105 4.8126C11.973 4.5501 12.1167 4.84073 12.098 4.6876C12.0511 4.42823 11.9074 4.2501 11.7355 4.01573C11.6824 3.9376 11.6824 3.92198 11.598 4.03448C11.5042 4.24385 11.5855 4.39073 11.6105 4.55635C11.7324 5.09385 11.8042 5.5876 11.8386 6.07823C11.8746 6.58789 11.8788 7.0993 11.8511 7.60948C11.9449 7.6126 12.0886 7.4626 12.1417 7.24073Z" fill="white"/>
<path fill-rule="evenodd" clip-rule="evenodd" d="M16.2292 6.74999C16.0136 6.38749 15.6917 5.99999 15.6042 5.85311C15.3145 5.44845 15.0101 5.05444 14.6917 4.67186C14.4261 4.39061 14.8167 4.62499 14.6417 4.40624C14.4949 4.24686 14.4542 4.19374 14.3261 4.09686C14.2636 4.05624 14.2261 3.97811 14.2011 4.11249C14.1911 4.22888 14.189 4.34581 14.1949 4.46249C14.1949 4.51561 14.2511 4.61874 14.3011 4.68124C14.948 5.47811 15.6573 6.29061 16.2261 7.31249C16.3073 7.27186 16.2792 6.81249 16.2261 6.74999H16.2292Z" fill="white"/>
<path fill-rule="evenodd" clip-rule="evenodd" d="M6.49795 6.08429C6.48232 6.11242 6.44795 6.14679 6.46045 6.18117C6.48232 6.21242 6.5042 6.2218 6.5417 6.2218C6.57607 6.2218 6.62607 6.23117 6.63545 6.21242C6.6542 6.19054 6.6667 6.14992 6.6542 6.10929C6.6167 6.01554 6.5167 6.05304 6.49795 6.08429Z" fill="#165D31"/>
<path fill-rule="evenodd" clip-rule="evenodd" d="M13.7354 11.3282C14.0229 11.3407 14.2104 11.3439 14.4636 11.372L14.7636 11.3407C15.0948 11.3095 15.1073 11.8126 15.1073 11.8126C15.1073 12.1095 14.9917 12.1251 14.8448 12.1564C14.7604 12.1689 14.7198 12.1064 14.6729 12.0439C14.6023 12.0665 14.527 12.0708 14.4542 12.0564C14.3323 12.0501 14.2136 12.0501 14.0948 12.0407C13.9698 12.0314 13.9011 12.0564 13.7729 12.0439C13.7479 12.0845 13.7104 12.1407 13.6354 12.1251C13.5729 12.1157 13.4948 11.9376 13.5167 11.797C13.5636 11.697 13.5479 11.7314 13.5479 11.6876C12.3729 11.6564 11.1886 11.6032 10.0386 11.6189C9.13857 11.622 8.25107 11.6595 7.36045 11.697C6.88545 11.6907 6.52295 11.6157 6.27295 11.2501C6.29795 11.2501 7.48545 11.3157 7.83232 11.2939C8.47295 11.2876 9.06045 11.2345 9.71357 11.2157C11.0011 11.2376 12.2792 11.2376 13.5667 11.3282C13.4417 11.2439 13.4417 11.047 13.6292 10.997C13.6448 10.9845 13.6542 11.0939 13.6823 11.0907C13.8354 11.0814 13.7667 11.2876 13.7354 11.3282ZM8.56045 4.22824C8.3667 4.78449 8.67295 5.39699 8.88545 5.33761C9.0417 5.40011 9.13545 5.10636 9.19795 4.78761C9.24482 4.69699 9.27607 4.68761 9.29795 4.73449C9.2917 5.15949 9.3292 5.25636 9.43857 5.38449C9.68232 5.57199 9.88545 5.40949 9.90107 5.39386L10.0886 5.20324C10.1323 5.15636 10.1886 5.15636 10.2479 5.19386C10.3073 5.24699 10.2979 5.33761 10.4229 5.40011C10.5292 5.44386 10.7511 5.41261 10.8042 5.32199C10.8729 5.20011 10.8917 5.15949 10.9229 5.11574C10.9729 5.05011 11.0573 5.07824 11.0573 5.10011C11.0479 5.13761 10.9979 5.17199 11.0323 5.24074C11.0948 5.28449 11.1073 5.25636 11.1417 5.24699C11.2667 5.18449 11.3604 4.91574 11.3604 4.91574C11.3636 4.81574 11.3073 4.82199 11.2698 4.84699L11.1729 4.91261C11.1104 4.92199 10.9948 4.96261 10.9354 4.87199C10.8761 4.76574 10.8761 4.61261 10.8323 4.50324C10.8323 4.49699 10.7511 4.33136 10.8261 4.32199C10.8636 4.32824 10.9417 4.35011 10.9542 4.28449C10.9917 4.21886 10.8729 4.03449 10.7886 3.94074C10.7167 3.86261 10.6167 3.85324 10.5198 3.93449C10.4511 3.99699 10.4604 4.06574 10.4479 4.13136C10.4361 4.17839 10.4356 4.22756 10.4464 4.27483C10.4573 4.32209 10.4792 4.3661 10.5104 4.40324C10.5792 4.53449 10.7011 4.70636 10.6604 4.95011C10.6604 4.95011 10.5886 5.06261 10.4636 5.04699C10.4104 5.03761 10.3261 5.01574 10.2823 4.67824C10.2479 4.42824 10.2886 4.07199 10.1823 3.90636C10.1417 3.80324 10.1136 3.70636 10.0198 3.87824C9.99482 3.94699 9.88545 4.05011 9.96357 4.25949C10.0375 4.44816 10.0591 4.6533 10.0261 4.85324C9.9792 4.92199 9.96982 4.94386 9.91045 5.00949C9.8292 5.10324 9.73857 5.07824 9.66982 5.04386C9.60732 5.00324 9.55732 4.98136 9.52607 4.84074C9.53232 4.62199 9.54482 4.26261 9.5042 4.18761C9.44482 4.06886 9.34795 4.11261 9.30732 4.15011C9.12143 4.35662 8.99695 4.61098 8.94795 4.88449C8.8917 5.06574 8.83232 5.01261 8.7917 4.94074C8.6917 4.84699 8.68232 4.10636 8.56045 4.22824Z" fill="white"/>
<path fill-rule="evenodd" clip-rule="evenodd" d="M9.14798 5.44072C9.2386 5.37822 9.19798 5.33447 9.32923 5.46572C9.49864 5.76546 9.597 6.1001 9.61673 6.44384C9.61048 6.52509 9.66673 6.57509 9.69485 6.55634C9.70735 6.36884 10.1667 6.10634 10.5886 6.06884C10.6511 6.05322 10.6199 5.93134 10.6292 5.86884C10.6042 5.63447 10.7605 5.42197 10.9792 5.40634C11.2792 5.45009 11.3792 5.60947 11.3855 5.85009C11.3511 6.31884 10.8636 6.39697 10.5917 6.43447C10.5511 6.45009 10.5324 6.46884 10.5917 6.49072L11.7355 6.49697L11.7949 6.52822C11.8011 6.55947 11.7761 6.53447 11.7324 6.60947C11.6694 6.72 11.6301 6.84236 11.6167 6.96884C11.2761 7.08134 10.923 7.12509 10.5667 7.17197C10.4417 7.23447 10.3792 7.31884 10.4042 7.41259C10.448 7.51572 10.723 7.62197 10.723 7.62509C10.7761 7.65634 10.8355 7.73447 10.7074 7.89384C10.1511 7.86884 9.71673 7.63134 9.56673 7.29697C9.52298 7.26259 9.47298 7.29697 9.44173 7.34072C9.22298 7.62197 9.01048 7.87196 8.6386 8.00946C8.41985 8.06571 8.19173 7.97509 8.08548 7.83134C8.0136 7.74697 8.01673 7.65634 7.99173 7.63759C7.86985 7.69072 6.8386 8.12822 6.96985 7.92197C7.21985 7.65634 7.65735 7.45634 8.0386 7.19384C8.06673 7.10322 8.11673 6.80322 8.26673 6.70634C8.2761 6.70634 8.24485 6.88134 8.24798 6.95634C8.24798 7.01884 8.24173 7.04072 8.25423 7.02509C8.28235 7.00947 8.74485 6.64384 8.78548 6.53134C8.82923 6.46884 8.79485 6.30634 8.79485 6.30009C8.70735 6.07509 8.58548 6.05634 8.54173 5.94384C8.5011 5.79697 8.51985 5.62822 8.60423 5.57822C8.67923 5.51259 8.76673 5.51884 8.8511 5.59384C8.94485 5.67822 9.0261 5.84384 9.0511 5.96572C9.03548 6.01259 8.9261 5.93447 8.89485 5.95634C8.955 6.02546 8.995 6.10978 9.01048 6.20009C9.07298 6.45634 9.05423 6.55634 8.99173 6.72197C8.78548 7.15634 8.52298 7.28447 8.29173 7.44697C8.28548 7.44697 8.28235 7.55634 8.36673 7.61572C8.39798 7.64697 8.51985 7.66259 8.66048 7.61572C8.96091 7.44887 9.20384 7.19505 9.35735 6.88759C9.38391 6.65364 9.35829 6.41671 9.28235 6.19384C9.19173 5.98447 9.08548 5.68759 9.08548 5.68134C9.08235 5.55009 9.09173 5.50634 9.14798 5.44072ZM6.15423 4.23447C6.28548 4.29697 6.53548 4.26884 6.52298 4.05634L6.51673 3.95947C6.49173 3.89697 6.41673 3.91259 6.4011 3.97509C6.39485 3.99697 6.41048 4.03134 6.39173 4.04072C6.37923 4.05322 6.3386 4.04697 6.3386 3.98759C6.3386 3.96884 6.3261 3.95009 6.31673 3.93759C6.31048 3.93134 6.30423 3.93134 6.2886 3.93134C6.26985 3.93134 6.26985 3.93447 6.26048 3.95009C6.25735 3.96572 6.2511 3.98134 6.2511 4.00009C6.2511 4.02197 6.2386 4.02822 6.2261 4.03134C6.20735 4.03134 6.21048 4.03134 6.19485 4.02509C6.1886 4.01572 6.17923 4.01259 6.17923 3.99384L6.16985 3.94384C6.1636 3.93447 6.1511 3.92822 6.1386 3.92509C6.06673 3.92509 6.06048 4.00947 6.06673 4.04072C6.06048 4.04697 6.05735 4.19384 6.15423 4.23447Z" fill="white"/>
<path fill-rule="evenodd" clip-rule="evenodd" d="M10.0136 5.8656C10.1448 5.9281 10.4605 5.89372 10.3823 5.6906L10.3761 5.5906C10.348 5.5281 10.2761 5.54372 10.2605 5.60935C10.2542 5.6281 10.2698 5.66247 10.248 5.67185C10.2386 5.68435 10.1948 5.6781 10.198 5.62185C10.198 5.6031 10.1855 5.58122 10.1761 5.56872C10.1667 5.5656 10.1636 5.56247 10.1448 5.56247C10.1292 5.56247 10.1292 5.56872 10.1198 5.58435C10.1136 5.59997 10.1105 5.6156 10.1105 5.63435C10.1073 5.6531 10.098 5.65935 10.0823 5.6656C10.0667 5.6656 10.0698 5.6656 10.0573 5.65622C10.048 5.64685 10.0386 5.64372 10.0386 5.6281L10.0292 5.5781C10.023 5.56872 10.0105 5.56247 9.99796 5.55935C9.92609 5.55935 9.91984 5.6406 9.92296 5.67185C9.91984 5.6781 9.91671 5.8281 10.0167 5.8656H10.0136ZM12.2636 5.1906C12.3948 5.2531 12.6417 5.22497 12.6323 5.0156L12.6261 4.9156C12.598 4.8531 12.5261 4.86872 12.5105 4.93122C12.5042 4.9531 12.5198 4.98747 12.498 4.99997C12.4886 5.00935 12.4448 5.0031 12.448 4.94372C12.448 4.92497 12.4355 4.90622 12.4261 4.89372C12.4167 4.88747 12.4136 4.88747 12.3948 4.88747C12.3792 4.88747 12.3792 4.89372 12.3698 4.90935L12.3605 4.95622C12.3573 4.9781 12.348 4.98747 12.3323 4.98747C12.3167 4.98747 12.3198 4.98747 12.3073 4.98122C12.298 4.97185 12.2886 4.96872 12.2886 4.9531C12.2886 4.93747 12.2855 4.91247 12.2792 4.89997C12.273 4.8906 12.2605 4.88747 12.248 4.88435C12.1761 4.88435 12.1698 4.9656 12.173 4.99685C12.1698 5.0031 12.1667 5.14997 12.2667 5.1906H12.2636ZM13.4292 6.88747C13.2011 7.14685 13.3011 7.57497 13.3542 7.66872C13.4292 7.81872 13.4886 7.9156 13.6355 7.9906C13.7698 8.08747 13.8761 8.0281 13.9323 7.95935C14.0667 7.81872 14.0698 7.45935 14.1323 7.3906C14.1761 7.25935 14.2886 7.28122 14.3417 7.3406C14.3914 7.41115 14.458 7.4681 14.5355 7.50622C14.6605 7.6156 14.8105 7.63747 14.9605 7.53747C15.0605 7.4781 15.1261 7.40622 15.1855 7.25935C15.248 7.08435 15.2167 6.27185 15.2011 5.7906L15.0698 5.11872C15.0698 5.11247 15.0542 4.79997 15.0386 4.7281C15.0386 4.69685 15.0292 4.68747 15.0605 4.6906C15.0948 4.72185 15.098 4.72185 15.123 4.73122C15.1542 4.73747 15.1855 4.6781 15.1636 4.6281L14.8511 4.04685C14.8261 4.02185 14.7917 3.99685 14.7511 4.0531C14.7271 4.0748 14.708 4.10134 14.6951 4.13097C14.6822 4.1606 14.6757 4.19265 14.6761 4.22497C14.6855 4.36247 14.7073 4.5031 14.7167 4.6406L14.8417 5.34685C14.8823 5.84685 14.8917 6.25935 14.9323 6.76247C14.9261 6.97497 14.8605 7.15935 14.798 7.18747C14.798 7.18747 14.7042 7.2406 14.6417 7.18122C14.5948 7.16247 14.4105 6.87185 14.4105 6.87185C14.3167 6.78747 14.2542 6.80935 14.1886 6.87185C14.0011 7.0531 13.9198 7.38435 13.7917 7.6156C13.7605 7.66872 13.6667 7.70935 13.5667 7.61247C13.3105 7.25935 13.4605 6.75935 13.4292 6.88747ZM12.323 3.95935C12.4417 4.00622 12.523 4.24685 12.498 4.3656C12.473 4.50622 12.4105 4.66247 12.3667 4.64372C12.3167 4.62497 12.398 4.49997 12.3511 4.36872C12.3261 4.28122 12.1636 4.12497 12.1823 4.08122C12.1511 3.98435 12.2511 3.9406 12.323 3.95622V3.95935Z" fill="white"/>
<path fill-rule="evenodd" clip-rule="evenodd" d="M13.8106 7.03133C13.8324 6.74383 13.7918 6.56884 13.7856 6.40008C13.7793 6.23133 13.5949 4.94383 13.5574 4.81883C13.5106 4.57508 13.7356 4.78758 13.7106 4.64383C13.6324 4.46883 13.4418 4.20946 13.3824 4.05633C13.3449 3.99383 13.3606 3.93133 13.2793 4.04071C13.2093 4.23248 13.1847 4.43784 13.2074 4.64071C13.4012 5.65008 13.5981 6.48759 13.5668 7.44696C13.6606 7.44696 13.7637 7.23758 13.8106 7.03133ZM15.8231 4.36571C15.9324 4.41883 15.9949 4.71883 15.9824 4.80321C15.9606 4.95946 15.9043 5.12821 15.8637 5.10633C15.8168 5.08758 15.8731 4.87508 15.8512 4.80946C15.8262 4.71571 15.6793 4.54696 15.6949 4.49696C15.6637 4.39071 15.7574 4.34696 15.8231 4.36571ZM7.83243 6.48759C7.93555 6.52821 7.99805 6.74696 7.98868 6.80946C7.96368 6.92508 7.91055 7.05008 7.86993 7.03133C7.8293 7.01883 7.8793 6.86258 7.86055 6.81258C7.85118 6.69696 7.70743 6.63446 7.71055 6.58446C7.68555 6.49071 7.77305 6.47509 7.83555 6.48759H7.83243Z" fill="white"/>
<path fill-rule="evenodd" clip-rule="evenodd" d="M10.3199 6.8187C10.4512 6.82495 10.5168 6.9312 10.3949 6.97495C10.2699 7.01558 10.1543 7.04995 10.1512 7.22495C10.198 7.47495 10.0887 7.38745 10.0262 7.3562C9.95116 7.29995 9.73866 7.1687 9.70741 6.88745C9.70428 6.82183 9.75741 6.76245 9.84178 6.76245C9.96678 6.79683 10.1543 6.79995 10.3199 6.8187Z" fill="#165D31"/>
<path fill-rule="evenodd" clip-rule="evenodd" d="M5.08553 3.88762C5.23553 3.93137 5.2449 4.15637 5.23553 4.222C5.21365 4.34075 5.16053 4.46887 5.12303 4.45325C5.07928 4.43762 5.12303 4.27512 5.10115 4.22512C5.07928 4.15637 4.95115 4.02512 4.96365 3.98762C4.93553 3.9095 5.02615 3.872 5.08553 3.88762ZM8.0824 4.93762C7.96365 5.00012 7.9199 5.18762 7.99178 5.30012C8.06053 5.39387 8.16678 5.3595 8.17928 5.3595C8.2949 5.372 8.36365 5.14387 8.36365 5.14387C8.36365 5.14387 8.36678 5.08137 8.2324 5.20325C8.17303 5.21262 8.1699 5.19075 8.15428 5.1595C8.13997 5.1 8.14546 5.03746 8.1699 4.98137C8.19178 4.92512 8.14803 4.90012 8.0824 4.93762ZM8.9574 3.80012C8.8949 3.84075 8.77928 3.96262 8.77615 4.10012C8.77303 4.17825 8.7574 4.17825 8.8074 4.22512C8.84803 4.28137 8.8824 4.27825 8.9574 4.23762C8.97609 4.22586 8.99213 4.21034 9.0045 4.19205C9.01687 4.17376 9.02531 4.15309 9.02928 4.13137C9.04803 4.04387 8.93553 4.17512 8.92303 4.07512C8.89803 3.98137 8.9699 3.94387 9.03865 3.85637C9.03865 3.79387 9.03865 3.75325 8.95428 3.80012H8.9574ZM9.6574 3.92512C9.62985 4.03891 9.61311 4.15505 9.6074 4.272C9.58865 4.3595 9.70115 4.397 9.74803 4.2845C9.82303 4.08137 9.82303 3.99387 9.82928 3.9095C9.8074 3.77512 9.71678 3.77825 9.6574 3.92512ZM14.0949 6.1845C14.1074 6.16887 14.7199 5.7345 14.7199 5.7345C14.7824 5.71262 14.7668 5.9595 14.7387 5.95637C14.5487 6.13944 14.3302 6.29037 14.0918 6.40325C14.0605 6.42512 14.0324 6.23762 14.0918 6.1845H14.0949ZM14.648 6.17825C14.7574 6.23137 14.8012 6.547 14.7887 6.63137C14.7887 6.80012 14.6855 6.93137 14.6418 6.91262C14.598 6.89075 14.648 6.70325 14.6262 6.63762C14.6012 6.54387 14.5105 6.372 14.5262 6.322C14.4949 6.21575 14.5824 6.1595 14.6512 6.17825H14.648ZM11.023 7.5345C11.0737 7.47533 11.1327 7.42376 11.198 7.38137C11.2605 7.35012 11.3168 7.40637 11.3137 7.40325C11.323 7.46575 11.2762 7.51887 11.2918 7.60012C11.3043 7.63137 11.3137 7.66887 11.373 7.65637C11.4699 7.57825 11.5605 7.572 11.6543 7.56887C11.7324 7.572 11.7355 7.70012 11.6855 7.70012C11.5074 7.73762 11.4293 7.78762 11.3012 7.8345C11.2387 7.872 11.1887 7.82512 11.1887 7.822C11.1887 7.81887 11.1543 7.78762 11.1762 7.70637C11.1824 7.64387 11.1574 7.60637 11.1012 7.61262C11.0637 7.63762 11.0262 7.65012 11.0074 7.60325C10.998 7.572 10.9949 7.55325 11.023 7.5345ZM15.2918 7.70325C15.3168 7.7345 15.3355 7.76575 15.2887 7.822L15.173 7.922C15.1543 7.95325 15.1418 8.0095 15.2043 8.02512C15.3168 8.05637 15.5793 7.8845 15.5793 7.88137C15.623 7.85012 15.6105 7.78762 15.6043 7.78762C15.5793 7.7595 15.523 7.77825 15.4855 7.772C15.4668 7.772 15.4074 7.76575 15.4355 7.7095C15.4565 7.68188 15.4734 7.65135 15.4855 7.61887C15.5012 7.58137 15.4855 7.55637 15.423 7.5345C15.3574 7.522 15.3293 7.52825 15.2574 7.5345C15.2199 7.54075 15.2074 7.5595 15.198 7.60637C15.2012 7.67825 15.2449 7.67512 15.2918 7.70012V7.70325Z" fill="white"/>
<path fill-rule="evenodd" clip-rule="evenodd" d="M11.0449 5.92819C11.0293 5.95944 10.973 5.95944 10.9199 5.92819C10.8668 5.89694 10.8355 5.84694 10.8543 5.81881C10.873 5.79069 10.9261 5.79069 10.9793 5.81881C11.0324 5.84694 11.0605 5.90006 11.0449 5.92819ZM8.26365 4.25319C8.2324 4.26256 8.18865 4.23444 8.1699 4.19069C8.15115 4.14694 8.16052 4.10944 8.19177 4.10006C8.22302 4.09069 8.26365 4.12194 8.28552 4.16256C8.3074 4.20319 8.2949 4.24694 8.26052 4.25631L8.26365 4.25319ZM13.7668 11.7188C14.0605 11.7313 14.3355 11.7188 14.6261 11.7344C14.6793 11.7813 14.6418 11.8907 14.6074 11.8844L14.3636 11.8751C14.3605 11.7813 14.123 11.7969 14.1293 11.8782C14.0011 11.8938 13.8855 11.8751 13.7543 11.8688C13.7168 11.8219 13.723 11.7376 13.7668 11.7188Z" fill="#165D31"/>
</g>
</g>
<defs>
<clipPath id="clip0_935_7472">
<rect width="21.3333" height="16" rx="4" fill="white"/>
</clipPath>
</defs>
</svg>
