<svg width="22" height="16" viewBox="0 0 22 16" fill="none" xmlns="http://www.w3.org/2000/svg">
<g clip-path="url(#clip0_935_7431)">
<path d="M0 10.6667H21.3333V16.0001H0V10.6667Z" fill="#000001"/>
<path d="M0 5.33325H21.3333V10.6666H0V5.33325Z" fill="white"/>
<path d="M0 0H21.3333V5.33333H0V0Z" fill="#CE1126"/>
<path d="M10.6881 8.06407L12.5147 9.76007L12.3841 6.68007C12.3654 6.2134 11.9601 6.32007 11.6641 6.48807C11.3681 6.68007 11.0241 6.68007 10.6667 6.55473C10.3067 6.68007 9.96539 6.68007 9.66939 6.48807C9.37606 6.32007 8.96806 6.2134 8.94939 6.68007L8.81873 9.76007L10.6881 8.06407Z" fill="white" stroke="#C09300" stroke-width="0.13" stroke-linejoin="round"/>
<path d="M9.16006 6.57349L9.03206 9.56815L8.81873 9.76015L8.94939 6.68015C9.01239 6.63184 9.08383 6.59567 9.16006 6.57349ZM9.41606 6.78682L9.30939 9.29349L9.09606 9.51215L9.22406 6.61882C9.26673 6.66149 9.39206 6.76549 9.41606 6.78682ZM9.64806 6.97882L9.56539 9.06949L9.39206 9.23749L9.49873 6.85349C9.54139 6.89349 9.62672 6.95482 9.64806 6.97882ZM9.90139 7.08549L9.81873 8.86682L9.65073 9.00282L9.73339 7.02149C9.77606 7.04015 9.85872 7.08549 9.90139 7.08549ZM10.1361 7.08549L10.0747 8.57082L9.90139 8.73882L9.96806 7.10415C10.0081 7.10415 10.1174 7.10415 10.1361 7.08549Z" fill="#C09300"/>
<path d="M12.1734 6.57349L12.3014 9.56815L12.5148 9.76015L12.3841 6.68015C12.3211 6.63184 12.2497 6.59567 12.1734 6.57349ZM11.9174 6.78682L12.0241 9.29349L12.2374 9.51215L12.1094 6.61882C12.0668 6.66149 11.9414 6.76549 11.9174 6.78682ZM11.6854 6.97882L11.7681 9.06949L11.9414 9.23749L11.8348 6.85349C11.7921 6.89349 11.7068 6.95482 11.6854 6.97882ZM11.4321 7.08549L11.5148 8.86682L11.6828 9.00282L11.6001 7.02149C11.5574 7.04015 11.4748 7.08549 11.4321 7.08549ZM11.1974 7.08549L11.2588 8.57082L11.4321 8.73882L11.3654 7.10415C11.3254 7.10415 11.2161 7.10415 11.1974 7.08549Z" fill="#C09300"/>
<path d="M10.7521 8.40015L11.0081 9.56815L10.9228 9.65348L10.8348 9.58681L10.6908 8.54681L10.7521 9.58681L10.6668 9.69348L10.5841 9.58681L10.6454 8.54681L10.4988 9.58681L10.4108 9.65348L10.3254 9.56815L10.5814 8.40281H10.7521V8.40015Z" fill="#C09300" stroke="#C09300" stroke-width="0.11"/>
<path d="M10.0934 7.88818L9.58411 9.69352L10.2854 9.80018L10.5814 8.44285L10.0934 7.88818Z" fill="white" stroke="#C09300" stroke-width="0.12" stroke-linejoin="round"/>
<path d="M9.92542 8.50687L9.98675 8.65353L10.3174 8.33887" stroke="#C09300" stroke-width="0.13" stroke-linejoin="round"/>
<path d="M10.1547 8.13354L10.2241 8.78154L10.4347 8.50421M10.3494 8.61088L10.4641 9.01088M10.5094 8.86421L10.2774 9.21621M10.3494 9.56821L10.2747 9.21621M10.2747 9.21621L10.2107 8.85888L10.0534 9.06955L9.98673 8.82688L9.76807 9.05088L9.8774 9.45621L10.0321 9.20555L10.1147 9.46154L10.2747 9.21621Z" stroke="#C09300" stroke-width="0.13" stroke-linejoin="round"/>
<path d="M9.7334 9.65361L9.87473 9.45361L9.9654 9.76028L10.0934 9.54695L10.1761 9.80295" stroke="#C09300" stroke-width="0.13" stroke-linejoin="round"/>
<path d="M11.2401 7.88818L11.7494 9.69352L11.0481 9.80018L10.7521 8.44285L11.2401 7.88818Z" fill="white" stroke="#C09300" stroke-width="0.12" stroke-linejoin="round"/>
<path d="M11.4081 8.50687L11.3467 8.65353L11.0161 8.33887" stroke="#C09300" stroke-width="0.13" stroke-linejoin="round"/>
<path d="M11.1788 8.13354L11.1094 8.78154L10.8988 8.50421M10.9841 8.61088L10.8694 9.01088M10.8241 8.86421L11.0561 9.21621M10.9841 9.56821L11.0588 9.21621M11.0588 9.21621L11.1228 8.85888L11.2801 9.06955L11.3468 8.82688L11.5654 9.05088L11.4561 9.45621L11.3014 9.20555L11.2188 9.46154L11.0588 9.21621Z" stroke="#C09300" stroke-width="0.13" stroke-linejoin="round"/>
<path d="M11.6001 9.65361L11.4588 9.45361L11.3681 9.76028L11.2401 9.54695L11.1574 9.80295" stroke="#C09300" stroke-width="0.13" stroke-linejoin="round"/>
<path d="M10.6667 10.5015C11.2 10.5015 11.7067 10.4588 12.0053 10.3762C12.1307 10.3522 12.1307 10.2882 12.1307 10.2028C12.2587 10.1602 12.1947 10.0108 12.2827 10.0108C12.192 10.0375 12.176 9.86417 12.0693 9.8855C12.0693 9.73617 11.9173 9.7175 11.792 9.76017C11.5387 9.84283 11.0907 9.86417 10.6667 9.86417C10.24 9.84283 9.79734 9.84283 9.54134 9.7575C9.41601 9.7175 9.26668 9.73617 9.26668 9.8855C9.16001 9.86417 9.14134 10.0348 9.05334 10.0108C9.14134 10.0108 9.07468 10.1628 9.20268 10.2028C9.20268 10.2882 9.20268 10.3522 9.33068 10.3762C9.62401 10.4588 10.136 10.5015 10.6667 10.5015Z" fill="white" stroke="#C09300" stroke-width="0.24" stroke-linecap="round" stroke-linejoin="round"/>
<path d="M9.94401 9.69354C10.1147 9.71754 10.3067 9.73621 10.456 9.71754C10.5413 9.71754 10.6027 9.86421 10.432 9.88554C10.2853 9.90421 10.0507 9.88554 9.92534 9.86421C9.76041 9.83534 9.59671 9.79975 9.43468 9.75754C9.28534 9.69354 9.39201 9.57087 9.47734 9.58687C9.62958 9.63565 9.7857 9.67133 9.94401 9.69354ZM11.3893 9.69354C11.2187 9.71754 11.0267 9.73621 10.8827 9.71754C10.792 9.71754 10.7307 9.86421 10.9013 9.88554C11.0507 9.90421 11.2827 9.88554 11.408 9.86421C11.5147 9.84287 11.7493 9.80287 11.8987 9.75754C12.048 9.69354 11.9413 9.57087 11.856 9.58687C11.7038 9.63569 11.5477 9.67137 11.3893 9.69354Z" fill="white" stroke="#C09300" stroke-width="0.13" stroke-linecap="round" stroke-linejoin="round"/>
<path d="M9.41336 9.61098C9.28536 9.58698 9.22669 9.73631 9.26669 9.82164C9.28536 9.77898 9.37336 9.77898 9.39202 9.73631C9.41602 9.67231 9.37336 9.67231 9.41602 9.61098H9.41336ZM9.92536 10.003C9.92536 9.91764 10.008 9.92831 10.008 9.84298C10.008 9.80298 9.98669 9.73631 9.94402 9.73631C9.92181 9.73758 9.90083 9.74698 9.8851 9.76272C9.86936 9.77845 9.85996 9.79943 9.85869 9.82164C9.84002 9.90431 9.92536 9.91764 9.92536 10.003ZM10.5307 9.76031C10.656 9.76031 10.6427 9.92831 10.584 10.0136C10.584 9.95231 10.4774 9.92831 10.4774 9.88564C10.4774 9.82164 10.5734 9.82164 10.5307 9.76031ZM11.9174 9.61098C12.048 9.58698 12.1094 9.73631 12.0667 9.82164C12.048 9.77898 11.96 9.77898 11.9414 9.73631C11.9174 9.67231 11.96 9.67231 11.9174 9.61098ZM11.4134 10.0003C11.4134 9.91498 11.328 9.92564 11.328 9.84031C11.328 9.80031 11.3494 9.73364 11.392 9.73364C11.4142 9.73492 11.4352 9.74431 11.451 9.76005C11.4667 9.77579 11.4761 9.79676 11.4774 9.81898C11.496 9.90164 11.4107 9.91498 11.4107 10.0003H11.4134ZM10.8 9.76031C10.6747 9.76031 10.688 9.92831 10.7467 10.0136C10.7467 9.95231 10.8534 9.92831 10.8534 9.88564C10.8534 9.82164 10.7574 9.82164 10.8 9.76031Z" fill="white" stroke="#C09300" stroke-width="0.13" stroke-linecap="round" stroke-linejoin="round"/>
<path d="M9.45862 9.65356C9.50128 9.65356 9.56528 9.67223 9.58395 9.69623L9.45862 9.65356ZM9.66928 9.71756C9.69062 9.71756 9.77595 9.73623 9.81595 9.76023L9.66928 9.71756ZM10.432 9.8029C10.392 9.8029 10.3066 9.8029 10.2853 9.82156L10.432 9.80023V9.8029ZM10.2 9.8029C10.176 9.7789 10.0933 9.7789 10.0506 9.8029H10.2ZM11.8746 9.65356C11.8294 9.65413 11.7855 9.66908 11.7493 9.69623L11.8746 9.65356ZM11.6666 9.71756C11.64 9.71756 11.56 9.73623 11.5173 9.76023L11.6666 9.71756ZM10.9013 9.8029C10.9413 9.8029 11.0266 9.8029 11.0506 9.82156L10.9013 9.80023V9.8029ZM11.1333 9.8029C11.1573 9.7789 11.24 9.7789 11.2826 9.8029H11.1333Z" fill="white" stroke="#C09300" stroke-width="0.09" stroke-linecap="round" stroke-linejoin="round"/>
<path d="M9.42136 9.98956C9.40802 9.9869 9.40002 9.97356 9.40536 9.9629C9.40802 9.94423 9.42136 9.93623 9.43202 9.94156C9.44269 9.94156 9.45602 9.95756 9.45602 9.9629L9.44536 9.98156L9.44002 9.98423C9.44002 9.98956 9.42936 9.98956 9.42136 9.98956ZM10.888 10.0936C10.8827 10.0936 10.872 10.0802 10.872 10.0749C10.872 10.0642 10.888 10.0482 10.8987 10.0482L10.92 10.0589C10.928 10.0669 10.928 10.0829 10.9174 10.0909C10.912 10.0962 10.896 10.0962 10.888 10.0909V10.0936ZM10.896 10.1602C10.8854 10.1549 10.8827 10.1496 10.88 10.1389C10.88 10.1256 10.88 10.1229 10.8934 10.1149L10.904 10.1096L10.9147 10.1149C10.9254 10.1202 10.9334 10.1256 10.9334 10.1362C10.9334 10.1442 10.9254 10.1522 10.9147 10.1576C10.9067 10.1629 10.904 10.1629 10.896 10.1576V10.1602Z" fill="#C09300"/>
<path d="M9.54136 9.86694C9.53069 9.86694 9.51736 9.87761 9.50936 9.88294C9.49336 9.88561 9.47202 9.89628 9.45602 9.88294C9.44002 9.88028 9.41869 9.88294 9.41602 9.90428C9.41869 9.92294 9.44269 9.93094 9.45869 9.92028C9.46936 9.90694 9.49869 9.89628 9.50402 9.92028C9.49069 9.94161 9.49336 9.96561 9.48269 9.98428C9.48269 9.99761 9.47469 10.0083 9.46936 10.0189C9.45602 10.0189 9.44269 10.0189 9.43202 10.0269C9.42374 10.0269 9.41558 10.0289 9.40817 10.0326C9.40077 10.0363 9.39432 10.0417 9.38936 10.0483C9.37869 10.0643 9.36802 10.0803 9.36536 10.1016C9.36802 10.1176 9.39202 10.1229 9.40802 10.1256L9.46136 10.1416L9.54669 10.1656C9.58936 10.1789 9.63202 10.1843 9.67469 10.1949L9.68802 10.1976C9.70669 10.2029 9.71469 10.1843 9.71469 10.1709L9.74136 10.0749C9.74669 10.0616 9.75469 10.0349 9.73069 10.0403C9.71736 10.0483 9.70402 10.0616 9.68802 10.0616C9.66402 10.0616 9.67736 10.0883 9.68802 10.0963C9.68802 10.1123 9.68269 10.1309 9.67469 10.1443C9.65869 10.1523 9.64269 10.1443 9.62669 10.1389C9.61336 10.1389 9.58136 10.1309 9.59469 10.1123L9.60802 10.0643C9.61602 10.0483 9.61602 10.0296 9.62136 10.0109C9.61069 9.99228 9.59469 10.0189 9.58136 10.0216C9.57069 10.0269 9.53869 10.0296 9.55469 10.0483C9.57069 10.0589 9.56002 10.0776 9.55469 10.0936C9.55469 10.1123 9.53336 10.1203 9.51736 10.1123C9.50136 10.1123 9.47736 10.0989 9.49069 10.0829L9.50402 10.0349L9.52269 9.98161C9.52269 9.96294 9.53069 9.94961 9.53869 9.93361C9.53869 9.91494 9.55202 9.89894 9.55202 9.88028C9.55202 9.87228 9.54669 9.86961 9.54136 9.86961V9.86694ZM9.44269 10.0616C9.44391 10.0609 9.44529 10.0605 9.44669 10.0605C9.44809 10.0605 9.44947 10.0609 9.45069 10.0616C9.45602 10.0669 9.45602 10.0723 9.45069 10.0776L9.44269 10.0829C9.42936 10.0829 9.42669 10.0803 9.42669 10.0749C9.42669 10.0723 9.42669 10.0696 9.43469 10.0669C9.43794 10.0646 9.44154 10.0628 9.44536 10.0616H9.44269ZM9.41602 10.1949C9.40269 10.1843 9.40536 10.1763 9.42402 10.1603C9.43469 10.1549 9.43736 10.1549 9.44802 10.1629C9.46402 10.1763 9.46402 10.1843 9.44802 10.1976C9.44269 10.2029 9.44002 10.2029 9.43469 10.2029C9.42669 10.2029 9.42402 10.2029 9.41602 10.1976V10.1949ZM9.49602 10.2216C9.49007 10.2198 9.48507 10.2157 9.48208 10.2102C9.47909 10.2047 9.47836 10.1983 9.48002 10.1923C9.48536 10.1816 9.48802 10.1789 9.50402 10.1789C9.52269 10.1789 9.52536 10.1816 9.52802 10.1976C9.52802 10.2083 9.52802 10.2109 9.52002 10.2163C9.51705 10.2186 9.51361 10.2203 9.50993 10.2212C9.50625 10.2222 9.50242 10.2223 9.49869 10.2216H9.49602ZM11.8747 10.2216C11.8694 10.2189 11.8667 10.2163 11.8667 10.2083C11.8667 10.1976 11.872 10.1896 11.888 10.1843C11.904 10.1763 11.9147 10.1763 11.92 10.1896C11.928 10.2056 11.928 10.2109 11.9174 10.2216C11.912 10.2296 11.9094 10.2296 11.896 10.2296C11.8827 10.2296 11.88 10.2296 11.8747 10.2243V10.2216ZM9.60802 10.2536C9.59736 10.2536 9.59202 10.2429 9.59202 10.2323C9.59202 10.2243 9.59202 10.2216 9.59736 10.2163L9.61336 10.2109L9.62936 10.2136C9.64269 10.2243 9.64536 10.2349 9.63736 10.2456C9.62936 10.2563 9.62136 10.2563 9.60536 10.2536H9.60802ZM10.1894 10.2803L10.184 10.2723C10.184 10.2563 10.184 10.2429 10.1894 10.2269C10.192 10.2136 10.1894 10.2003 10.1947 10.1869L10.2054 10.1123C10.2054 10.0989 10.2054 10.0856 10.2107 10.0749C10.2134 10.0536 10.2107 10.0349 10.216 10.0163C10.216 10.0083 10.224 9.98961 10.232 10.0003C10.2427 10.0163 10.256 10.0269 10.2694 10.0403C10.28 10.0483 10.2694 10.0589 10.2614 10.0616C10.2507 10.0643 10.248 10.0776 10.248 10.0883L10.2427 10.1203C10.2427 10.1389 10.2427 10.1549 10.2374 10.1736L10.2347 10.2216L10.2294 10.2536C10.2294 10.2643 10.2294 10.2776 10.2187 10.2829C10.2107 10.2883 10.1974 10.2883 10.192 10.2803H10.1894ZM10.9814 10.0189L10.9467 10.0509C10.9307 10.0643 10.96 10.0696 10.9627 10.0803C10.968 10.0963 10.968 10.1123 10.968 10.1283C10.9734 10.1443 10.976 10.1576 10.9734 10.1736C10.9734 10.1923 10.952 10.1869 10.9414 10.1976C10.928 10.2029 10.9227 10.2163 10.9147 10.2243C10.9083 10.2377 10.9047 10.2522 10.904 10.2669C10.904 10.2803 10.896 10.2936 10.904 10.3043L10.9067 10.3096H10.92L10.96 10.3069C10.992 10.3016 11.0267 10.3016 11.0587 10.2989L11.1174 10.2936C11.1334 10.2963 11.1414 10.2803 11.1414 10.2669C11.1307 10.2483 11.1387 10.2296 11.1307 10.2136C11.1254 10.1923 11.128 10.1736 11.1254 10.1549C11.1254 10.1389 11.1067 10.1336 11.0987 10.1443C11.088 10.1549 11.072 10.1576 11.0667 10.1683C11.0587 10.1843 11.0827 10.1843 11.088 10.1949L11.0907 10.2349C11.0934 10.2509 11.0774 10.2509 11.064 10.2536C11.0507 10.2589 11.032 10.2616 11.024 10.2456C11.0187 10.2323 11.0187 10.2189 11.0187 10.2056C11.0187 10.1789 11.0107 10.1576 11.0107 10.1336C11.0107 10.1069 11.0027 10.0776 11.0027 10.0483C11.0027 10.0349 11 10.0163 10.9814 10.0189ZM10.9654 10.2376H10.9734V10.2589L10.9654 10.2616C10.9619 10.2627 10.9583 10.2636 10.9547 10.2643C10.9529 10.2643 10.9511 10.2643 10.9494 10.2643C10.944 10.2589 10.944 10.2509 10.952 10.2429L10.9654 10.2376ZM10.1654 9.99228C10.1574 9.99228 10.144 10.0109 10.1334 10.0083C10.1094 10.0109 10.112 10.0349 10.1307 10.0429V10.0643C10.1334 10.0856 10.12 10.1043 10.1227 10.1256C10.1227 10.1469 10.1147 10.1709 10.1147 10.1949C10.1067 10.2189 10.1067 10.2429 10.104 10.2669C10.1014 10.2883 10.0854 10.2803 10.072 10.2749V10.2483C10.0747 10.2243 10.0587 10.2189 10.04 10.2163C10.0214 10.2163 10.0134 10.2029 10.0187 10.1869C10.0267 10.1763 10.0454 10.1789 10.0587 10.1789C10.0854 10.1843 10.0827 10.1496 10.0694 10.1363C10.0587 10.1203 10.0374 10.1096 10.032 10.0936C10.032 10.0723 10.0187 10.0483 10 10.0376C9.97069 10.0349 9.94669 10.0589 9.93869 10.0856C9.92536 10.0856 9.91202 10.0909 9.90136 10.0963C9.88269 10.1016 9.85602 10.1336 9.88269 10.1469C9.89602 10.1496 9.94136 10.1603 9.92002 10.1789C9.90936 10.2003 9.88802 10.2003 9.86936 10.1949C9.85069 10.1949 9.82936 10.1843 9.82936 10.1629C9.82669 10.1416 9.82669 10.1203 9.81869 10.1016C9.81336 10.0803 9.78936 10.0856 9.78669 10.1069C9.76802 10.1203 9.77069 10.1443 9.78402 10.1603C9.79202 10.1789 9.78402 10.2029 9.77602 10.2189C9.77069 10.2456 9.74402 10.2456 9.72536 10.2509C9.71736 10.2563 9.68269 10.2509 9.69602 10.2696C9.71602 10.2788 9.73838 10.2816 9.76002 10.2776C9.78136 10.2776 9.80002 10.2589 9.81336 10.2403C9.82669 10.2269 9.85069 10.2349 9.87202 10.2349C9.89069 10.2349 9.91202 10.2483 9.93336 10.2376C9.93869 10.2243 9.96536 10.1976 9.97336 10.2243C9.97336 10.2483 9.99202 10.2589 10.0134 10.2563C10.0374 10.2563 10.0267 10.2723 10.0267 10.2883C10.0267 10.3123 10.0454 10.3256 10.0667 10.3363H10.088C10.1067 10.3283 10.128 10.3203 10.136 10.2989C10.144 10.2803 10.144 10.2589 10.1494 10.2403C10.1547 10.2109 10.16 10.1789 10.16 10.1496C10.168 10.1229 10.1654 10.0936 10.1707 10.0643L10.1787 10.0029C10.1787 9.98961 10.1734 9.98961 10.1654 9.99228ZM9.98669 10.1016C9.98936 10.1016 9.99202 10.1069 9.99202 10.1149C9.99202 10.1256 9.99736 10.1336 10.0054 10.1363V10.1443L9.98402 10.1496C9.97069 10.1496 9.96002 10.1443 9.95202 10.1363L9.94669 10.1309L9.95469 10.1256L9.96802 10.1123C9.97602 10.1043 9.98136 10.1016 9.98669 10.1016ZM11.7467 9.89094C11.7313 9.89205 11.7162 9.89473 11.7014 9.89894C11.6747 9.89894 11.6614 9.92561 11.688 9.94161C11.704 9.98161 11.728 9.93094 11.7547 9.93628C11.792 9.94161 11.7947 9.98428 11.8027 10.0163C11.8027 10.0456 11.8134 10.0749 11.8214 10.1043C11.848 10.1336 11.8027 10.1523 11.784 10.1309C11.768 10.1123 11.7307 10.0909 11.712 10.1149C11.688 10.1256 11.6854 10.1576 11.6667 10.1683C11.6347 10.1763 11.632 10.1363 11.6134 10.1203C11.5974 10.0963 11.568 10.0936 11.544 10.0883C11.5334 10.0643 11.5387 10.0243 11.5174 10.0083C11.496 10.0163 11.4587 10.0536 11.4907 10.0723C11.5174 10.0989 11.4774 10.1096 11.464 10.1256C11.4427 10.1496 11.4374 10.1789 11.4374 10.2056C11.4027 10.2243 11.3974 10.1843 11.392 10.1603C11.392 10.1309 11.3654 10.1389 11.3467 10.1496C11.32 10.1603 11.3094 10.1843 11.2934 10.2029V10.2563C11.2987 10.2803 11.3254 10.2696 11.3414 10.2669C11.368 10.2563 11.3787 10.2856 11.3574 10.3016C11.3414 10.3176 11.2987 10.3096 11.304 10.3389H11.3467C11.3734 10.3309 11.4054 10.3096 11.408 10.2776C11.4134 10.2509 11.4534 10.2536 11.4747 10.2483C11.5014 10.2403 11.536 10.2376 11.544 10.2749C11.5627 10.2936 11.6027 10.3149 11.624 10.2883C11.6342 10.2818 11.6423 10.2727 11.6475 10.2618C11.6527 10.251 11.6547 10.2389 11.6534 10.2269C11.6507 10.2056 11.688 10.2056 11.6987 10.2189C11.712 10.2403 11.7547 10.2349 11.776 10.2189C11.7974 10.2056 11.8027 10.1763 11.8347 10.1763L11.9787 10.1363C12.016 10.1283 11.9734 10.1043 11.9627 10.0883C11.936 10.0749 11.9094 10.1336 11.8774 10.1043C11.8507 10.0856 11.8534 10.0509 11.8454 10.0216C11.8374 9.98428 11.84 9.94161 11.8134 9.91494C11.7974 9.89628 11.7707 9.89094 11.7467 9.89094ZM11.5654 10.1443C11.568 10.1443 11.5734 10.1443 11.5787 10.1496C11.5894 10.1549 11.5974 10.1656 11.5974 10.1763C11.5974 10.1816 11.5974 10.1816 11.5894 10.1843L11.576 10.1896C11.5707 10.1896 11.5574 10.1816 11.5574 10.1763V10.1656C11.552 10.1549 11.552 10.1549 11.5574 10.1496L11.5654 10.1443ZM11.7387 10.1549C11.7494 10.1549 11.7547 10.1549 11.76 10.1629C11.7627 10.1736 11.76 10.1789 11.7494 10.1843L11.736 10.1896L11.7254 10.1816C11.72 10.1789 11.7174 10.1763 11.7174 10.1709C11.7174 10.1629 11.728 10.1549 11.7387 10.1523V10.1549ZM11.4987 10.1549C11.504 10.1549 11.5067 10.1549 11.5094 10.1603C11.5147 10.1656 11.5174 10.1683 11.5174 10.1763V10.1923C11.5174 10.2003 11.5174 10.1976 11.5014 10.1976C11.4854 10.1976 11.4827 10.1976 11.4827 10.1816C11.4827 10.1709 11.4827 10.1683 11.4907 10.1629C11.4934 10.1576 11.4987 10.1576 11.5014 10.1576L11.4987 10.1549ZM11.3547 10.1949C11.3572 10.1957 11.3595 10.1971 11.3614 10.1989C11.3632 10.2008 11.3646 10.2031 11.3654 10.2056C11.3654 10.2136 11.3654 10.2189 11.36 10.2216C11.352 10.2243 11.3387 10.2269 11.3334 10.2216C11.3333 10.2207 11.3333 10.2198 11.3334 10.2189C11.328 10.2163 11.328 10.2136 11.3334 10.2109V10.2083L11.3387 10.2003C11.3403 10.1977 11.3428 10.1957 11.3457 10.1948C11.3487 10.1938 11.3518 10.1939 11.3547 10.1949ZM11.6 10.2269L11.6134 10.2296V10.2456H11.5814L11.5787 10.2403C11.5787 10.2349 11.5787 10.2323 11.584 10.2296L11.6 10.2269ZM11.144 10.3549C11.1414 10.3549 11.136 10.3523 11.1414 10.3496C11.144 10.3416 11.1547 10.3389 11.1627 10.3336C11.1772 10.3281 11.1901 10.3189 11.2 10.3069C11.2 10.2963 11.2107 10.2909 11.2107 10.2803L11.208 10.2429C11.2044 10.2317 11.1968 10.2223 11.1867 10.2163C11.1787 10.2136 11.168 10.2109 11.1654 10.2003C11.1654 10.1923 11.1734 10.1843 11.176 10.1763L11.192 10.1443C11.2 10.1363 11.2107 10.1443 11.2134 10.1496L11.2267 10.1763C11.2347 10.1843 11.24 10.1923 11.2427 10.2029C11.248 10.2136 11.2534 10.2216 11.2534 10.2296L11.2587 10.2643C11.2587 10.2776 11.2587 10.2936 11.2534 10.3069L11.2374 10.3283C11.2294 10.3363 11.2214 10.3443 11.2107 10.3469C11.2027 10.3496 11.1974 10.3576 11.1867 10.3576H11.1467L11.144 10.3549ZM10.96 10.3656C10.9547 10.3603 10.952 10.3576 10.952 10.3496C10.952 10.3416 10.952 10.3416 10.96 10.3336C10.9707 10.3229 10.976 10.3229 10.9974 10.3336C11.016 10.3443 11.024 10.3443 11.024 10.3363C11.0267 10.3309 11.0374 10.3229 11.0507 10.3229C11.0556 10.3231 11.0603 10.325 11.064 10.3283C11.0694 10.3336 11.072 10.3363 11.072 10.3469C11.072 10.3603 11.072 10.3603 11.064 10.3683C11.056 10.3736 11.056 10.3736 11.0454 10.3736C11.0406 10.3734 11.0361 10.3717 11.0323 10.3688C11.0285 10.366 11.0256 10.3621 11.024 10.3576C11.024 10.3523 11.024 10.3496 11.0187 10.3549L11.0134 10.3576C11.008 10.3576 10.9974 10.3656 10.992 10.3709L10.9787 10.3736C10.968 10.3736 10.968 10.3736 10.96 10.3656ZM10.432 10.1283C10.4134 10.1283 10.3947 10.1443 10.392 10.1629C10.3974 10.1816 10.4134 10.2029 10.4027 10.2216C10.4107 10.2483 10.3814 10.2589 10.3627 10.2456C10.352 10.2189 10.3467 10.1923 10.328 10.1656C10.3067 10.1603 10.2987 10.1949 10.2827 10.2083C10.2907 10.2269 10.312 10.2456 10.3147 10.2696C10.32 10.2963 10.304 10.3229 10.2854 10.3336C10.2667 10.3523 10.24 10.3469 10.2187 10.3496C10.192 10.3656 10.2374 10.3709 10.2507 10.3709C10.2774 10.3736 10.3067 10.3709 10.3307 10.3496C10.3494 10.3416 10.3467 10.3043 10.3707 10.3016L10.4987 10.3096C10.52 10.3149 10.5547 10.3069 10.5707 10.3229C10.5707 10.3496 10.5974 10.3709 10.6214 10.3816C10.6347 10.3869 10.648 10.3683 10.6614 10.3656C10.688 10.3576 10.68 10.3256 10.696 10.3123H10.8294C10.8347 10.3123 10.8374 10.2989 10.8454 10.2936L10.84 10.2429C10.832 10.2216 10.84 10.1949 10.8267 10.1763C10.8027 10.1709 10.784 10.1896 10.7627 10.1923C10.736 10.2029 10.7174 10.2269 10.7147 10.2536C10.7014 10.2776 10.6774 10.2483 10.688 10.2269L10.6854 10.2003C10.672 10.1869 10.648 10.1923 10.6294 10.1896L10.5494 10.1843C10.5227 10.1843 10.4987 10.1869 10.4774 10.1816C10.4507 10.1816 10.4507 10.1549 10.4507 10.1336C10.4454 10.1296 10.4387 10.1276 10.432 10.1283ZM10.4854 10.2269L10.512 10.2296H10.5467C10.5734 10.2349 10.6 10.2349 10.6267 10.2349C10.632 10.2349 10.6374 10.2403 10.6427 10.2456V10.2989C10.6427 10.3069 10.6427 10.3176 10.6374 10.3203C10.636 10.3224 10.6341 10.3242 10.632 10.3256C10.6281 10.3249 10.6244 10.3234 10.6212 10.3211C10.618 10.3187 10.6153 10.3157 10.6134 10.3123V10.2749C10.6081 10.2705 10.6016 10.2677 10.5947 10.2669L10.5254 10.2643L10.472 10.2616C10.464 10.2589 10.4534 10.2616 10.448 10.2509C10.4427 10.2456 10.4507 10.2349 10.4587 10.2323C10.4671 10.2285 10.4762 10.2267 10.4854 10.2269ZM10.7867 10.2349C10.7894 10.2349 10.792 10.2349 10.792 10.2429L10.7974 10.2563C10.7974 10.2589 10.7974 10.2616 10.792 10.2616C10.7787 10.2669 10.7654 10.2669 10.76 10.2616C10.76 10.2589 10.76 10.2483 10.7654 10.2456L10.7867 10.2349Z" fill="#C09300"/>
<path d="M10.6668 8.72546C11.5361 8.05879 11.4614 7.07746 11.4614 7.07746L11.3948 7.08279C11.2108 7.08279 10.7761 6.97613 10.6748 6.84546C10.5681 6.96546 10.1201 7.08546 9.93878 7.08546L9.87212 7.07746C9.87212 7.07746 9.79478 8.05613 10.6668 8.72546Z" fill="white" stroke="#C09300" stroke-width="0.11"/>
<path d="M11.3921 7.1467H11.3707C11.2054 7.1467 10.8214 7.06404 10.6721 6.93604C10.5174 7.05337 10.1254 7.14937 9.96274 7.14937C9.95557 7.14909 9.94843 7.1482 9.94141 7.1467C9.94283 7.31522 9.96614 7.48285 10.0107 7.64537C10.1177 8.03694 10.3477 8.38377 10.6667 8.6347C10.986 8.38282 11.2159 8.03509 11.3227 7.6427C11.3671 7.48104 11.3904 7.31433 11.3921 7.1467Z" fill="white" stroke="#C09300" stroke-width="0.09"/>
<path d="M10.3841 7.06688C10.2408 7.11352 10.0919 7.14043 9.94141 7.14688L9.94407 7.25621C9.95318 7.38702 9.97552 7.51657 10.0107 7.64288C10.0824 7.90514 10.2098 8.14889 10.3841 8.35754V7.06688ZM10.9334 7.06688V8.37888C11.1161 8.16542 11.2491 7.91403 11.3227 7.64288C11.3579 7.51656 11.3803 7.38701 11.3894 7.25621L11.3921 7.14954H11.3707C11.2694 7.14954 11.0934 7.11754 10.9334 7.06421V7.06688Z" fill="#C09300"/>
<path d="M10.9948 6.74677C11.0134 6.74943 10.9708 6.65343 10.9708 6.65343C11.0188 6.70143 11.1948 6.71477 11.1948 6.71477C11.0881 6.66677 10.9814 6.3121 10.9948 6.02677C11.0054 5.7441 10.9548 5.6321 10.9148 5.58943C10.8614 5.5361 10.6881 5.4881 10.5761 5.48277C10.5094 5.4801 10.5228 5.53077 10.5228 5.53077C10.4028 5.50143 10.2828 5.4881 10.2294 5.52543C10.1814 5.55743 10.1708 5.72543 10.2081 5.6961C10.2961 5.6241 10.3734 5.69077 10.4268 5.7681C10.4748 5.83477 10.4721 6.02677 10.4028 6.25343C10.3414 6.42479 10.2512 6.58441 10.1361 6.72543C10.2428 6.72543 10.3921 6.6321 10.3921 6.6321L10.3574 6.77877C10.4694 6.72543 10.5574 6.64277 10.5574 6.64277L10.6641 6.75477C10.6988 6.70677 10.7708 6.64277 10.7708 6.64277C10.7708 6.64277 10.8588 6.7361 10.9948 6.74943V6.74677Z" fill="white" stroke="#C09300" stroke-width="0.12"/>
<path d="M10.5628 6.06949C10.5628 6.06949 10.5041 6.50682 10.3921 6.62949M10.6588 6.05615C10.6588 6.05615 10.6321 6.50149 10.5574 6.64282M10.7414 6.07482C10.7414 6.07482 10.7414 6.56015 10.7681 6.64282M10.8481 6.09882C10.8481 6.09882 10.8694 6.50682 10.9708 6.65349" stroke="#C09300" stroke-width="0.13"/>
<path d="M10.4535 5.85622C10.4511 5.8253 10.442 5.79527 10.4268 5.76822C10.3735 5.68822 10.2961 5.62422 10.2081 5.69622C10.2081 5.69622 10.2375 5.60289 10.3041 5.60022C10.3521 5.59755 10.4668 5.63755 10.5681 5.80822C10.5681 5.80822 10.4935 5.79222 10.4748 5.80822C10.4428 5.83489 10.4561 5.85622 10.4561 5.85622H10.4535Z" fill="#C09300" stroke="#C09300" stroke-width="0.03"/>
<path d="M10.1974 5.58143C10.2054 5.55477 10.2161 5.53343 10.2321 5.52543C10.2854 5.4881 10.4027 5.49877 10.5227 5.53077C10.5227 5.53077 10.5121 5.4801 10.5761 5.48277C10.6881 5.4881 10.8587 5.5361 10.9121 5.58943C10.9291 5.60819 10.9427 5.62987 10.9521 5.65343C10.9254 5.6161 10.8507 5.61877 10.8321 5.62143C10.8054 5.6241 10.7867 5.62143 10.7494 5.6321C10.7307 5.63743 10.7041 5.64277 10.6881 5.65343C10.6774 5.6641 10.6667 5.6961 10.6507 5.6961C10.6241 5.6961 10.6241 5.69077 10.6161 5.68277C10.6081 5.66943 10.6027 5.65343 10.5921 5.6561C10.5654 5.65877 10.5174 5.63743 10.4587 5.58943C10.3974 5.54143 10.3734 5.53077 10.2987 5.5361C10.2187 5.54143 10.1974 5.58677 10.1974 5.58677V5.58143Z" fill="#C09300" stroke="#C09300" stroke-width="0.03"/>
<path d="M10.6348 5.65067C10.6525 5.65067 10.6668 5.63634 10.6668 5.61867C10.6668 5.601 10.6525 5.58667 10.6348 5.58667C10.6171 5.58667 10.6028 5.601 10.6028 5.61867C10.6028 5.63634 10.6171 5.65067 10.6348 5.65067Z" fill="white"/>
</g>
<defs>
<clipPath id="clip0_935_7431">
<rect width="21.3333" height="16" rx="4" fill="white"/>
</clipPath>
</defs>
</svg>
