<svg width="78" height="78" viewBox="0 0 78 78" fill="none" xmlns="http://www.w3.org/2000/svg">
<path d="M55.062 0.666626H22.9387C8.98532 0.666626 0.666992 8.98496 0.666992 22.9383V55.0233C0.666992 69.015 8.98532 77.3333 22.9387 77.3333H55.0237C68.977 77.3333 77.2953 69.015 77.2953 55.0616V22.9383C77.3337 8.98496 69.0153 0.666626 55.062 0.666626ZM51.8803 47.8166C52.992 48.9283 52.992 50.7683 51.8803 51.88C51.3053 52.455 50.577 52.7233 49.8487 52.7233C49.1203 52.7233 48.392 52.455 47.817 51.88L39.0003 43.0633L30.1837 51.88C29.6087 52.455 28.8803 52.7233 28.152 52.7233C27.4237 52.7233 26.6953 52.455 26.1203 51.88C25.0087 50.7683 25.0087 48.9283 26.1203 47.8166L34.937 39L26.1203 30.1833C25.0087 29.0716 25.0087 27.2316 26.1203 26.12C27.232 25.0083 29.072 25.0083 30.1837 26.12L39.0003 34.9366L47.817 26.12C48.9287 25.0083 50.7687 25.0083 51.8803 26.12C52.992 27.2316 52.992 29.0716 51.8803 30.1833L43.0637 39L51.8803 47.8166Z" fill="#EF4D57"/>
</svg>
