<svg width="89" height="90" viewBox="0 0 89 90" fill="none" xmlns="http://www.w3.org/2000/svg">
<path d="M89 44.5C89 19.9233 69.0767 -3.01944e-06 44.5 -1.94516e-06C19.9233 -8.70876e-07 -3.01944e-06 19.9233 -1.94516e-06 44.5C-8.70876e-07 69.0767 19.9233 89 44.5 89C69.0767 89 89 69.0767 89 44.5Z" fill="#B9C4E1"/>
<path d="M44.6857 63.3435C54.2454 63.3435 61.995 52.6097 61.995 39.3688C61.995 26.1279 54.2454 15.394 44.6857 15.394C35.126 15.394 27.3763 26.1279 27.3763 39.3688C27.3763 52.6097 35.126 63.3435 44.6857 63.3435Z" fill="white"/>
<path d="M44.4172 61.8114C29.9252 61.8114 16.9724 65.2815 8.35547 70.7375C16.4158 82.1236 29.6778 89.5586 44.6921 89.5586C59.7064 89.5586 72.776 82.2267 80.8569 70.978C72.2469 65.3846 59.1223 61.8114 44.4241 61.8114H44.4172Z" fill="white"/>
<path d="M47.324 45.0585H42.0467C38.3958 45.0585 35.4363 48.0181 35.4363 51.6689V66.7107C35.4363 70.3615 38.3958 73.3211 42.0467 73.3211H47.324C50.9748 73.3211 53.9344 70.3615 53.9344 66.7107V51.6689C53.9344 48.0181 50.9748 45.0585 47.324 45.0585Z" fill="white"/>
<path d="M30.1107 40.7294C30.6261 44.5705 29.774 47.9032 28.2073 48.1712C26.6337 48.4392 24.9433 45.5394 24.4211 41.6914C23.9057 37.8502 24.7578 34.5175 26.3245 34.2495C27.8981 33.9815 29.5885 36.8813 30.1107 40.7294Z" fill="white"/>
<path d="M59.2665 40.7294C58.7512 44.5705 59.6032 47.9032 61.17 48.1712C62.7435 48.4392 64.4339 45.5394 64.9562 41.6914C65.4715 37.8502 64.6195 34.5175 63.0527 34.2495C61.486 33.9815 59.7888 36.8813 59.2665 40.7294Z" fill="white"/>
<path d="M27.9806 38.4276C27.3965 34.5864 26.8193 30.7521 26.2352 26.9109C26.0222 25.516 25.8229 24.0455 26.3314 22.733C26.8399 21.4205 28.331 20.3692 29.6504 20.8639C29.1213 18.1909 32.076 16.2188 34.6528 15.3324C38.9681 13.8481 43.5927 13.0922 48.1141 13.6763C52.6356 14.2604 57.054 16.26 60.105 19.6545C61.067 20.7265 61.8984 21.9496 62.3588 23.3171C63.2452 25.9489 62.6818 28.828 62.1114 31.5423C61.6579 33.6999 61.2044 35.8645 60.7509 38.0221C60.6478 38.5169 60.531 39.0323 60.1943 39.4102C59.6583 40.008 58.7513 40.0492 57.9473 40.0561C49.3648 40.0767 40.7822 40.0905 32.1928 40.1111C30.578 40.1111 28.4685 39.7194 28.2554 38.1183" fill="white"/>
</svg>
