<?xml version="1.0" encoding="utf-8"?>
<!-- Generator: Adobe Illustrator 16.0.0, SVG Export Plug-In . SVG Version: 6.00 Build 0)  -->
<!DOCTYPE svg PUBLIC "-//W3C//DTD SVG 1.1//EN" "http://www.w3.org/Graphics/SVG/1.1/DTD/svg11.dtd">
<svg version="1.1" id="Layer_1" xmlns="http://www.w3.org/2000/svg" xmlns:xlink="http://www.w3.org/1999/xlink" x="0px" y="0px"
	 width="24px" height="24px" viewBox="0 0 24 24" enable-background="new 0 0 24 24" xml:space="preserve">
<g>
	
		<linearGradient id="SVGID_1_" gradientUnits="userSpaceOnUse" x1="661.7314" y1="580.9004" x2="662.9688" y2="589.4708" gradientTransform="matrix(1 0 0 1 -650.2695 -576.7305)">
		<stop  offset="0" style="stop-color:#29C0D5"/>
		<stop  offset="1" style="stop-color:#1E94A4"/>
	</linearGradient>
	<path fill="url(#SVGID_1_)" d="M19.779,6.35H4.22c-1.222,0-1.72,0.136-1.72,1.5c0,1.502,0.428,1.502,1.281,1.502L4.22,9.35
		l15.999,0.002c0.854,0,1.281,0,1.281-1.502C21.5,6.486,21.002,6.35,19.779,6.35z"/>
	
		<linearGradient id="SVGID_2_" gradientUnits="userSpaceOnUse" x1="657.5146" y1="582.4082" x2="670.8331" y2="604.9433" gradientTransform="matrix(1 0 0 1 -650.2695 -576.7305)">
		<stop  offset="0" style="stop-color:#29C0D5"/>
		<stop  offset="1" style="stop-color:#1E94A4"/>
	</linearGradient>
	<path fill="url(#SVGID_2_)" d="M19.924,10.351l-0.145-0.001L4.064,10.352l1.339,8.208c0.307,1.86,0.971,2.938,3.456,2.938h6.032
		c2.756,0,3.102-1.077,3.438-2.834L19.924,10.351z M10.75,18c0,0.414-0.336,0.75-0.75,0.75S9.25,18.414,9.25,18v-5
		c0-0.414,0.336-0.75,0.75-0.75s0.75,0.336,0.75,0.75V18z M14.75,18c0,0.414-0.336,0.75-0.75,0.75s-0.75-0.336-0.75-0.75v-5
		c0-0.414,0.336-0.75,0.75-0.75s0.75,0.336,0.75,0.75V18z"/>
	<path fill="#005A66" d="M22.5,7.85c0-2.5-1.77-2.5-2.721-2.5h-0.566c-0.018-0.024-0.027-0.052-0.049-0.073l-3.621-3.63
		c-0.195-0.196-0.512-0.195-0.707-0.001c-0.195,0.195-0.195,0.512,0,0.707l2.99,2.997H6.175l2.989-2.997
		c0.195-0.195,0.195-0.512-0.001-0.707C8.968,1.452,8.652,1.452,8.456,1.647l-3.62,3.63C4.815,5.298,4.804,5.326,4.788,5.35H4.22
		c-0.951,0-2.72,0-2.72,2.5c0,1.791,0.709,2.305,1.542,2.447l1.375,8.426C4.725,20.59,5.494,22.5,8.86,22.5h6.031
		c3.442,0,4.039-1.65,4.422-3.646l1.641-8.556C21.787,10.157,22.5,9.645,22.5,7.85z M14.891,21.5H8.86
		c-2.485,0-3.149-1.078-3.456-2.939l-1.339-8.208l15.714-0.002l0.146,0.001l-1.595,8.315C17.992,20.423,17.646,21.5,14.891,21.5z
		 M20.219,9.353L4.22,9.35L3.781,9.352c-0.853,0-1.281,0-1.281-1.502c0-1.364,0.498-1.5,1.72-1.5h15.559
		c1.223,0,1.721,0.136,1.721,1.5C21.5,9.353,21.072,9.353,20.219,9.353z"/>
	<path fill="#005A66" d="M10,12.25c-0.414,0-0.75,0.336-0.75,0.75v5c0,0.414,0.336,0.75,0.75,0.75s0.75-0.336,0.75-0.75v-5
		C10.75,12.586,10.414,12.25,10,12.25z"/>
	<path fill="#005A66" d="M14,12.25c-0.414,0-0.75,0.336-0.75,0.75v5c0,0.414,0.336,0.75,0.75,0.75s0.75-0.336,0.75-0.75v-5
		C14.75,12.586,14.414,12.25,14,12.25z"/>
</g>
</svg>
