<?xml version="1.0" encoding="utf-8"?>
<!-- Generator: Adobe Illustrator 16.0.0, SVG Export Plug-In . SVG Version: 6.00 Build 0)  -->
<!DOCTYPE svg PUBLIC "-//W3C//DTD SVG 1.1//EN" "http://www.w3.org/Graphics/SVG/1.1/DTD/svg11.dtd">
<svg version="1.1" id="Layer_1" xmlns="http://www.w3.org/2000/svg" xmlns:xlink="http://www.w3.org/1999/xlink" x="0px" y="0px"
	 width="24px" height="24px" viewBox="0 0 24 24" enable-background="new 0 0 24 24" xml:space="preserve">
<g>
	
		<linearGradient id="SVGID_1_" gradientUnits="userSpaceOnUse" x1="653.9131" y1="576.8037" x2="676.9213" y2="601.9583" gradientTransform="matrix(1 0 0 1 -650.2695 -576.7305)">
		<stop  offset="0" style="stop-color:#29C0D5"/>
		<stop  offset="1" style="stop-color:#1E94A4"/>
	</linearGradient>
	<path fill="url(#SVGID_1_)" d="M4.07,14.471c0,0.854,0.407,1.67,1.09,2.18l5.21,3.899c0.949,0.711,2.321,0.712,3.271,0l5.211-3.899
		c0.682-0.51,1.088-1.324,1.088-2.18V2.9H4.07V14.471z M8,7.6h8c0.221,0,0.4,0.179,0.4,0.4s-0.18,0.4-0.4,0.4H8
		C7.779,8.4,7.6,8.221,7.6,8S7.779,7.6,8,7.6z M8,12.6h8c0.221,0,0.4,0.18,0.4,0.4s-0.18,0.4-0.4,0.4H8c-0.221,0-0.4-0.18-0.4-0.4
		S7.779,12.6,8,12.6z"/>
	<path fill="#005A66" d="M22,2.1h-1.26H3.27H2c-0.221,0-0.4,0.179-0.4,0.4S1.779,2.9,2,2.9h1.27v11.571
		c0,1.105,0.527,2.16,1.41,2.82l5.21,3.898c0.614,0.459,1.346,0.703,2.115,0.703c0.769,0,1.5-0.244,2.114-0.703l5.21-3.898
		c0.884-0.66,1.411-1.715,1.411-2.82V2.9H22c0.221,0,0.4-0.179,0.4-0.4S22.221,2.1,22,2.1z M19.939,14.471
		c0,0.854-0.407,1.67-1.09,2.18l-5.209,3.899c-0.951,0.712-2.323,0.711-3.271,0l-5.21-3.899c-0.683-0.51-1.09-1.324-1.09-2.18V2.9
		h15.871V14.471z"/>
	<path fill="#005A66" d="M8,8.4h8c0.221,0,0.4-0.179,0.4-0.4s-0.18-0.4-0.4-0.4H8C7.779,7.6,7.6,7.779,7.6,8S7.779,8.4,8,8.4z"/>
	<path fill="#005A66" d="M8,13.4h8c0.221,0,0.4-0.18,0.4-0.4s-0.18-0.4-0.4-0.4H8c-0.221,0-0.4,0.18-0.4,0.4S7.779,13.4,8,13.4z"/>
</g>
</svg>
