<?xml version="1.0" encoding="utf-8"?>
<!-- Generator: Adobe Illustrator 16.0.0, SVG Export Plug-In . SVG Version: 6.00 Build 0)  -->
<!DOCTYPE svg PUBLIC "-//W3C//DTD SVG 1.1//EN" "http://www.w3.org/Graphics/SVG/1.1/DTD/svg11.dtd">
<svg version="1.1" id="Layer_1" xmlns="http://www.w3.org/2000/svg" xmlns:xlink="http://www.w3.org/1999/xlink" x="0px" y="0px"
	 width="24px" height="24px" viewBox="0 0 24 24" enable-background="new 0 0 24 24" xml:space="preserve">
<g>
	
		<linearGradient id="SVGID_1_" gradientUnits="userSpaceOnUse" x1="651.1699" y1="589.0488" x2="674.8799" y2="618.6228" gradientTransform="matrix(1 0 0 1 -650.2695 -588.7305)">
		<stop  offset="0" style="stop-color:#29C0D5"/>
		<stop  offset="1" style="stop-color:#1E94A4"/>
	</linearGradient>
	<path fill="url(#SVGID_1_)" d="M19.914,7.456l-6.182-4.331c-0.563-0.396-1.315-0.612-2.117-0.612c-0.868,0-1.702,0.262-2.288,0.717
		l-5.39,4.2C3.158,8.037,2.5,9.376,2.5,10.355v7.41c0,2.053,1.664,3.722,3.71,3.722h11.58c2.046,0,3.71-1.665,3.71-3.712v-7.279
		C21.5,9.448,20.773,8.056,19.914,7.456z M12.5,17.986c0,0.275-0.224,0.5-0.5,0.5s-0.5-0.225-0.5-0.5v-3c0-0.276,0.224-0.5,0.5-0.5
		s0.5,0.224,0.5,0.5V17.986z"/>
	<path fill="#005A66" d="M20.486,6.636l-6.18-4.33c-0.73-0.511-1.688-0.793-2.691-0.793c-1.102,0-2.133,0.33-2.902,0.928l-5.39,4.2
		C2.301,7.436,1.5,9.067,1.5,10.355v7.41c0,2.604,2.113,4.722,4.71,4.722h11.58c2.597,0,4.71-2.113,4.71-4.712v-7.279
		C22.5,9.119,21.615,7.423,20.486,6.636z M21.5,17.775c0,2.046-1.664,3.711-3.71,3.711H6.21c-2.046,0-3.71-1.67-3.71-3.721v-7.411
		c0-0.979,0.658-2.318,1.437-2.925l5.39-4.2c0.586-0.456,1.42-0.717,2.288-0.717c0.802,0,1.554,0.218,2.117,0.612l6.182,4.331
		c0.859,0.6,1.586,1.992,1.586,3.04V17.775z"/>
	<path fill="#005A66" d="M12,14.486c-0.276,0-0.5,0.224-0.5,0.5v3c0,0.275,0.224,0.5,0.5,0.5s0.5-0.225,0.5-0.5v-3
		C12.5,14.71,12.276,14.486,12,14.486z"/>
</g>
</svg>
