<?xml version="1.0" encoding="utf-8"?>
<!-- Generator: Adobe Illustrator 16.0.0, SVG Export Plug-In . SVG Version: 6.00 Build 0)  -->
<!DOCTYPE svg PUBLIC "-//W3C//DTD SVG 1.1//EN" "http://www.w3.org/Graphics/SVG/1.1/DTD/svg11.dtd">
<svg version="1.1" id="Layer_1" xmlns="http://www.w3.org/2000/svg" xmlns:xlink="http://www.w3.org/1999/xlink" x="0px" y="0px"
	 width="24px" height="24px" viewBox="0 0 24 24" enable-background="new 0 0 24 24" xml:space="preserve">
<g>
	
		<linearGradient id="SVGID_1_" gradientUnits="userSpaceOnUse" x1="657.6934" y1="581.9863" x2="669.2766" y2="606.0377" gradientTransform="matrix(1 0 0 1 -650.2695 -576.7305)">
		<stop  offset="0" style="stop-color:#29C0D5"/>
		<stop  offset="1" style="stop-color:#1E94A4"/>
	</linearGradient>
	<path fill="url(#SVGID_1_)" d="M20.605,11.651c-0.639,0.481-1.42,0.748-2.271,0.748c-1.343,0-2.576-0.793-3.23-1.928
		c-0.141,0.296-0.307,0.578-0.53,0.826c-0.646,0.71-1.55,1.102-2.548,1.102c-0.999,0-1.903-0.392-2.548-1.103
		c-0.236-0.261-0.41-0.562-0.551-0.875c-0.643,1.163-1.895,1.977-3.261,1.977c-0.832,0-1.6-0.251-2.23-0.713v4.023
		c0,4.225,1.552,5.834,5.69,5.885V19.5c0-1.896,1.003-2.9,2.9-2.9c1.896,0,2.9,1.004,2.9,2.9v2.096
		c4.131-0.055,5.68-1.664,5.68-5.886V11.651z"/>
	
		<linearGradient id="SVGID_2_" gradientUnits="userSpaceOnUse" x1="657.8643" y1="579.3223" x2="669.5458" y2="588.0994" gradientTransform="matrix(1 0 0 1 -650.2695 -576.7305)">
		<stop  offset="0" style="stop-color:#29C0D5"/>
		<stop  offset="1" style="stop-color:#1E94A4"/>
	</linearGradient>
	<path fill="url(#SVGID_2_)" d="M9.423,8.72c-0.007,0.076,0.001,0.148,0,0.223h5.194l-0.654-6.543h-3.905L9.423,8.72z"/>
	
		<linearGradient id="SVGID_3_" gradientUnits="userSpaceOnUse" x1="659.8467" y1="580.9521" x2="671.4269" y2="604.9973" gradientTransform="matrix(1 0 0 1 -650.2695 -576.7305)">
		<stop  offset="0" style="stop-color:#29C0D5"/>
		<stop  offset="1" style="stop-color:#1E94A4"/>
	</linearGradient>
	<path fill="url(#SVGID_3_)" d="M10.069,10.76c0.981,1.083,2.929,1.083,3.911,0c0.423-0.466,0.638-1.068,0.646-1.716l-0.011-0.102
		H9.422C9.408,9.629,9.625,10.269,10.069,10.76z"/>
	
		<linearGradient id="SVGID_4_" gradientUnits="userSpaceOnUse" x1="656.0781" y1="581.6963" x2="667.761" y2="590.4747" gradientTransform="matrix(1 0 0 1 -650.2695 -576.7305)">
		<stop  offset="0" style="stop-color:#29C0D5"/>
		<stop  offset="1" style="stop-color:#1E94A4"/>
	</linearGradient>
	<path fill="url(#SVGID_4_)" d="M10.069,10.76c0.981,1.083,2.929,1.083,3.911,0c0.423-0.466,0.638-1.068,0.646-1.716l-0.011-0.102
		H9.422C9.408,9.629,9.625,10.269,10.069,10.76z"/>
	
		<linearGradient id="SVGID_5_" gradientUnits="userSpaceOnUse" x1="663.4746" y1="578.6699" x2="675.5867" y2="589.726" gradientTransform="matrix(1 0 0 1 -650.2695 -576.7305)">
		<stop  offset="0" style="stop-color:#29C0D5"/>
		<stop  offset="1" style="stop-color:#1E94A4"/>
	</linearGradient>
	<path fill="url(#SVGID_5_)" d="M15.424,8.942h5.582v0.93c0.192-0.454,0.283-0.955,0.229-1.482l-0.278-2.749
		c-0.339-2.45-1.209-3.241-3.582-3.241h-2.567l0.616,6.241C15.434,8.743,15.422,8.842,15.424,8.942z"/>
	
		<linearGradient id="SVGID_6_" gradientUnits="userSpaceOnUse" x1="664.9326" y1="578.499" x2="676.5159" y2="602.5504" gradientTransform="matrix(1 0 0 1 -650.2695 -576.7305)">
		<stop  offset="0" style="stop-color:#29C0D5"/>
		<stop  offset="1" style="stop-color:#1E94A4"/>
	</linearGradient>
	<path fill="url(#SVGID_6_)" d="M15.424,8.942c0,0.009,0,0.017,0,0.024V8.97c0.147,1.449,1.455,2.63,2.91,2.63
		c0.861,0,1.637-0.333,2.185-0.938c0.212-0.234,0.366-0.505,0.487-0.791v-0.93L15.424,8.942L15.424,8.942z"/>
	
		<linearGradient id="SVGID_7_" gradientUnits="userSpaceOnUse" x1="662.0127" y1="580.2676" x2="674.1249" y2="591.3236" gradientTransform="matrix(1 0 0 1 -650.2695 -576.7305)">
		<stop  offset="0" style="stop-color:#29C0D5"/>
		<stop  offset="1" style="stop-color:#1E94A4"/>
	</linearGradient>
	<path fill="url(#SVGID_7_)" d="M15.424,8.942c0,0.009,0,0.017,0,0.024V8.97c0.147,1.449,1.455,2.63,2.91,2.63
		c0.861,0,1.637-0.333,2.185-0.938c0.212-0.234,0.366-0.505,0.487-0.791v-0.93L15.424,8.942L15.424,8.942z"/>
	<path fill="#005A66" d="M15.424,8.967c0-0.008,0-0.016,0-0.024c-0.002-0.101,0.01-0.199,0-0.302l-0.617-6.241h-0.039L15.424,8.967z
		"/>
	
		<linearGradient id="SVGID_8_" gradientUnits="userSpaceOnUse" x1="662.4775" y1="579.7607" x2="674.5896" y2="590.8168" gradientTransform="matrix(1 0 0 1 -650.2695 -576.7305)">
		<stop  offset="0" style="stop-color:#29C0D5"/>
		<stop  offset="1" style="stop-color:#1E94A4"/>
	</linearGradient>
	<path fill="url(#SVGID_8_)" d="M15.424,8.967c0-0.008,0-0.016,0-0.024c-0.002-0.101,0.01-0.199,0-0.302l-0.617-6.241h-0.039
		L15.424,8.967z"/>
	<path fill="#005A66" d="M22.033,8.31l-0.281-2.764C21.358,2.706,20.131,1.6,17.375,1.6h-3.01h-0.04h-4.63
		c-0.006,0-0.01,0.003-0.016,0.003C9.674,1.603,9.67,1.6,9.666,1.6h-3.05c-2.756,0-3.983,1.106-4.378,3.961l-0.27,2.75
		c-0.099,0.991,0.181,1.92,0.759,2.666c-0.054,0.068-0.091,0.15-0.091,0.244v4.49c0,4.689,2,6.689,6.69,6.689h0.2h5h0.189
		c4.689,0,6.69-2,6.69-6.689v-4.49c0-0.105-0.043-0.201-0.11-0.271C21.858,10.207,22.131,9.289,22.033,8.31z M9.925,19.5
		c0-1.452,0.648-2.1,2.1-2.1s2.1,0.646,2.1,2.1v2.1h-4.2V19.5z M14.926,21.596V19.5c0-1.896-1.004-2.9-2.9-2.9
		c-1.897,0-2.9,1.004-2.9,2.9v2.096c-4.139-0.052-5.69-1.66-5.69-5.886v-4.023c0.63,0.461,1.398,0.713,2.23,0.713
		c1.366,0,2.618-0.813,3.261-1.977c0.142,0.313,0.315,0.613,0.551,0.875c0.645,0.71,1.549,1.102,2.548,1.102
		c0.998,0,1.902-0.392,2.548-1.103c0.226-0.248,0.392-0.53,0.53-0.826c0.654,1.135,1.889,1.928,3.23,1.928
		c0.852,0,1.633-0.267,2.271-0.748v4.059C20.605,19.932,19.057,21.541,14.926,21.596z M2.763,8.389l0.268-2.734
		C3.373,3.19,4.243,2.399,6.615,2.399h2.608L8.57,8.942L8.567,8.971C8.426,10.421,7.125,11.6,5.666,11.6
		c-0.861,0-1.636-0.333-2.184-0.938c-0.188-0.208-0.329-0.447-0.446-0.697C2.812,9.489,2.708,8.954,2.763,8.389z M14.807,2.399
		h2.568c2.371,0,3.242,0.791,3.582,3.241l0.278,2.749c0.054,0.528-0.037,1.029-0.229,1.482c-0.121,0.286-0.275,0.557-0.487,0.791
		c-0.548,0.604-1.322,0.938-2.185,0.938c-1.455,0-2.763-1.181-2.91-2.63V8.968l-0.656-6.568H14.807z M13.963,2.399l0.654,6.543
		l0.01,0.102c-0.009,0.647-0.224,1.25-0.646,1.716c-0.981,1.083-2.929,1.083-3.911,0c-0.444-0.491-0.661-1.131-0.646-1.817
		c0.001-0.074-0.007-0.146,0-0.223l0.634-6.32H13.963z"/>
	
		<linearGradient id="SVGID_9_" gradientUnits="userSpaceOnUse" x1="651.6104" y1="578.5469" x2="663.7205" y2="589.5858" gradientTransform="matrix(1 0 0 1 -650.2695 -576.7305)">
		<stop  offset="0" style="stop-color:#29C0D5"/>
		<stop  offset="1" style="stop-color:#1E94A4"/>
	</linearGradient>
	<path fill="url(#SVGID_9_)" d="M3.035,8.942H8.57l0.653-6.543H6.615c-2.372,0-3.243,0.791-3.584,3.255L2.763,8.389
		C2.708,8.953,2.812,9.489,3.035,9.966V8.942z"/>
	
		<linearGradient id="SVGID_10_" gradientUnits="userSpaceOnUse" x1="654.7363" y1="583.4121" x2="666.3195" y2="607.4635" gradientTransform="matrix(1 0 0 1 -650.2695 -576.7305)">
		<stop  offset="0" style="stop-color:#29C0D5"/>
		<stop  offset="1" style="stop-color:#1E94A4"/>
	</linearGradient>
	<path fill="url(#SVGID_10_)" d="M3.035,9.966c0.117,0.25,0.258,0.488,0.446,0.697c0.547,0.604,1.323,0.938,2.184,0.938
		c1.459,0,2.762-1.179,2.902-2.629L8.57,8.943H3.035V9.966z"/>
	
		<linearGradient id="SVGID_11_" gradientUnits="userSpaceOnUse" x1="649.7539" y1="580.5801" x2="661.8639" y2="591.619" gradientTransform="matrix(1 0 0 1 -650.2695 -576.7305)">
		<stop  offset="0" style="stop-color:#29C0D5"/>
		<stop  offset="1" style="stop-color:#1E94A4"/>
	</linearGradient>
	<path fill="url(#SVGID_11_)" d="M3.035,9.966c0.117,0.25,0.258,0.488,0.446,0.697c0.547,0.604,1.323,0.938,2.184,0.938
		c1.459,0,2.762-1.179,2.902-2.629L8.57,8.943H3.035V9.966z"/>
	
		<linearGradient id="SVGID_12_" gradientUnits="userSpaceOnUse" x1="655.5938" y1="583.001" x2="667.1747" y2="607.0477" gradientTransform="matrix(1 0 0 1 -650.2695 -576.7305)">
		<stop  offset="0" style="stop-color:#29C0D5"/>
		<stop  offset="1" style="stop-color:#1E94A4"/>
	</linearGradient>
	<path fill="url(#SVGID_12_)" d="M14.125,19.5c0-1.452-0.646-2.1-2.1-2.1s-2.1,0.646-2.1,2.1v2.1h4.2V19.5z"/>
	
		<linearGradient id="SVGID_13_" gradientUnits="userSpaceOnUse" x1="659.5059" y1="593.3184" x2="665.4427" y2="600.7136" gradientTransform="matrix(1 0 0 1 -650.2695 -576.7305)">
		<stop  offset="0" style="stop-color:#29C0D5"/>
		<stop  offset="1" style="stop-color:#1E94A4"/>
	</linearGradient>
	<path fill="url(#SVGID_13_)" d="M14.125,19.5c0-1.452-0.646-2.1-2.1-2.1s-2.1,0.646-2.1,2.1v2.1h4.2V19.5z"/>
</g>
</svg>
