<?xml version="1.0" encoding="utf-8"?>
<!-- Generator: Adobe Illustrator 16.0.0, SVG Export Plug-In . SVG Version: 6.00 Build 0)  -->
<!DOCTYPE svg PUBLIC "-//W3C//DTD SVG 1.1//EN" "http://www.w3.org/Graphics/SVG/1.1/DTD/svg11.dtd">
<svg version="1.1" id="Layer_1" xmlns="http://www.w3.org/2000/svg" xmlns:xlink="http://www.w3.org/1999/xlink" x="0px" y="0px"
	 width="24px" height="24px" viewBox="0 0 24 24" enable-background="new 0 0 24 24" xml:space="preserve">
<g>
	<path fill="none" stroke="#6B788E" stroke-width="0.8" stroke-linecap="round" stroke-linejoin="round" d="M9.252,10.965
		c-0.1-0.01-0.22-0.01-0.33,0c-2.38-0.08-4.27-2.03-4.27-4.43c0-2.45,1.98-4.44,4.44-4.44c2.45,0,4.44,1.99,4.44,4.44
		C13.521,8.935,11.632,10.885,9.252,10.965z"/>
	<path fill="none" stroke="#6B788E" stroke-width="0.8" stroke-linecap="round" stroke-linejoin="round" d="M16.503,4.095
		c1.938,0,3.5,1.57,3.5,3.5c0,1.89-1.5,3.43-3.369,3.5c-0.079-0.01-0.171-0.01-0.261,0"/>
	<path fill="none" stroke="#6B788E" stroke-width="0.8" stroke-linecap="round" stroke-linejoin="round" d="M4.252,14.656
		c-2.42,1.619-2.42,4.26,0,5.869c2.75,1.84,7.26,1.84,10.01,0c2.42-1.619,2.42-4.26,0-5.869
		C11.522,12.826,7.013,12.826,4.252,14.656z"/>
	<path fill="none" stroke="#6B788E" stroke-width="0.8" stroke-linecap="round" stroke-linejoin="round" d="M18.434,20.096
		c0.719-0.15,1.399-0.438,1.959-0.871c1.561-1.17,1.561-3.1,0-4.27c-0.55-0.42-1.22-0.699-1.931-0.859"/>
</g>
</svg>
