<?xml version="1.0" encoding="utf-8"?>
<!-- Generator: Adobe Illustrator 16.0.0, SVG Export Plug-In . SVG Version: 6.00 Build 0)  -->
<!DOCTYPE svg PUBLIC "-//W3C//DTD SVG 1.1//EN" "http://www.w3.org/Graphics/SVG/1.1/DTD/svg11.dtd">
<svg version="1.1" id="Layer_1" xmlns="http://www.w3.org/2000/svg" xmlns:xlink="http://www.w3.org/1999/xlink" x="0px" y="0px"
	 width="24px" height="24px" viewBox="0 0 24 24" enable-background="new 0 0 24 24" xml:space="preserve">
<g>
	
		<linearGradient id="SVGID_1_" gradientUnits="userSpaceOnUse" x1="660.207" y1="591.7109" x2="663.8373" y2="602.7509" gradientTransform="matrix(1 0 0 1 -650.2695 -576.7305)">
		<stop  offset="0" style="stop-color:#29C0D5"/>
		<stop  offset="1" style="stop-color:#1E94A4"/>
	</linearGradient>
	<path fill="url(#SVGID_1_)" d="M15,21.6c1.042,0,1.921-0.089,2.675-0.271c-0.018-0.097-0.034-0.193-0.061-0.289
		c-0.034-0.132-0.067-0.265-0.115-0.392c-0.056-0.146-0.127-0.287-0.199-0.428c-0.062-0.117-0.118-0.236-0.19-0.349
		c-0.09-0.138-0.195-0.269-0.301-0.396c-0.084-0.103-0.162-0.207-0.256-0.304c-0.121-0.125-0.258-0.237-0.394-0.353
		c-0.103-0.086-0.197-0.176-0.308-0.256c-0.149-0.107-0.315-0.201-0.479-0.297c-0.116-0.066-0.225-0.142-0.348-0.201
		c-0.18-0.09-0.373-0.159-0.564-0.232c-0.122-0.047-0.238-0.104-0.365-0.145c-0.219-0.067-0.449-0.112-0.68-0.16
		c-0.113-0.022-0.221-0.059-0.336-0.075C12.729,17.4,12.369,17.37,12,17.37s-0.729,0.03-1.08,0.084
		c-0.117,0.019-0.225,0.053-0.339,0.075c-0.229,0.048-0.459,0.093-0.676,0.16c-0.129,0.041-0.248,0.099-0.373,0.146
		c-0.189,0.073-0.38,0.143-0.558,0.23c-0.125,0.062-0.236,0.137-0.354,0.205c-0.161,0.095-0.323,0.187-0.471,0.293
		c-0.112,0.08-0.21,0.172-0.314,0.261c-0.133,0.112-0.268,0.224-0.387,0.346c-0.095,0.099-0.175,0.205-0.259,0.31
		c-0.104,0.127-0.209,0.256-0.297,0.392c-0.073,0.112-0.131,0.231-0.192,0.351c-0.073,0.141-0.145,0.281-0.201,0.43
		c-0.047,0.125-0.079,0.254-0.113,0.383c-0.025,0.098-0.044,0.195-0.062,0.296c0.753,0.181,1.632,0.271,2.674,0.271H15V21.6z"/>
	
		<linearGradient id="SVGID_2_" gradientUnits="userSpaceOnUse" x1="652.3418" y1="576.1387" x2="675.539" y2="605.5931" gradientTransform="matrix(1 0 0 1 -650.2695 -576.7305)">
		<stop  offset="0" style="stop-color:#29C0D5"/>
		<stop  offset="1" style="stop-color:#1E94A4"/>
	</linearGradient>
	<path fill="url(#SVGID_2_)" d="M15,2.4H9C4.25,2.4,2.4,4.251,2.4,9v6c0,3.439,0.942,5.295,3.131,6.094
		c0-0.003,0.002-0.006,0.003-0.01c0.06-0.299,0.154-0.587,0.271-0.867c0.011-0.027,0.021-0.055,0.033-0.082
		c0.118-0.268,0.264-0.523,0.43-0.77c0.022-0.034,0.043-0.068,0.067-0.102c0.168-0.238,0.359-0.462,0.568-0.675
		c0.033-0.034,0.065-0.067,0.099-0.1c0.213-0.207,0.444-0.399,0.691-0.577c0.04-0.029,0.081-0.059,0.122-0.085
		c0.253-0.175,0.521-0.333,0.804-0.476c0.043-0.021,0.087-0.041,0.13-0.062c0.291-0.138,0.594-0.261,0.91-0.36
		c0.04-0.013,0.08-0.021,0.12-0.033c0.328-0.1,0.666-0.18,1.014-0.232c0.027-0.005,0.055-0.007,0.083-0.012
		c0.366-0.053,0.742-0.084,1.125-0.084c0.384,0,0.759,0.031,1.126,0.084c0.025,0.005,0.055,0.007,0.081,0.012
		c0.351,0.054,0.688,0.134,1.017,0.232c0.039,0.012,0.078,0.021,0.118,0.033c0.316,0.102,0.619,0.223,0.91,0.36
		c0.043,0.021,0.087,0.04,0.13,0.062c0.283,0.143,0.551,0.301,0.805,0.475c0.041,0.027,0.082,0.057,0.123,0.086
		c0.246,0.178,0.477,0.37,0.688,0.576c0.035,0.033,0.068,0.066,0.104,0.103c0.207,0.211,0.396,0.435,0.563,0.67
		c0.025,0.035,0.048,0.072,0.072,0.108c0.162,0.242,0.308,0.495,0.425,0.76c0.015,0.032,0.024,0.064,0.038,0.098
		c0.113,0.274,0.207,0.559,0.267,0.852c0.001,0.005,0.005,0.01,0.005,0.016c2.188-0.8,3.131-2.652,3.131-6.094V9
		C21.6,4.25,19.75,2.4,15,2.4z M12,14.57c-2.195,0-3.98-1.791-3.98-3.99C8.02,8.385,9.805,6.6,12,6.6c2.193,0,3.98,1.785,3.98,3.98
		C15.98,12.779,14.193,14.57,12,14.57z"/>
	<path fill="#005A66" d="M6.903,18.59c-0.209,0.213-0.4,0.438-0.568,0.674C6.503,19.025,6.694,18.802,6.903,18.59z"/>
	
		<linearGradient id="SVGID_3_" gradientUnits="userSpaceOnUse" x1="645.7217" y1="581.4785" x2="668.793" y2="610.7733" gradientTransform="matrix(1 0 0 1 -650.2695 -576.7305)">
		<stop  offset="0" style="stop-color:#29C0D5"/>
		<stop  offset="1" style="stop-color:#1E94A4"/>
	</linearGradient>
	<path fill="url(#SVGID_3_)" d="M6.903,18.59c-0.209,0.213-0.4,0.438-0.568,0.674C6.503,19.025,6.694,18.802,6.903,18.59z"/>
	<path fill="#005A66" d="M8.618,17.354c-0.283,0.143-0.55,0.301-0.804,0.476C8.067,17.654,8.335,17.495,8.618,17.354z"/>
	
		<linearGradient id="SVGID_4_" gradientUnits="userSpaceOnUse" x1="647.208" y1="580.002" x2="670.5889" y2="609.6896" gradientTransform="matrix(1 0 0 1 -650.2695 -576.7305)">
		<stop  offset="0" style="stop-color:#29C0D5"/>
		<stop  offset="1" style="stop-color:#1E94A4"/>
	</linearGradient>
	<path fill="url(#SVGID_4_)" d="M8.618,17.354c-0.283,0.143-0.55,0.301-0.804,0.476C8.067,17.654,8.335,17.495,8.618,17.354z"/>
	<path fill="#005A66" d="M15.252,17.292c-0.291-0.138-0.594-0.26-0.91-0.36C14.657,17.032,14.961,17.154,15.252,17.292z"/>
	
		<linearGradient id="SVGID_5_" gradientUnits="userSpaceOnUse" x1="651.5908" y1="576.7314" x2="674.7889" y2="606.1871" gradientTransform="matrix(1 0 0 1 -650.2695 -576.7305)">
		<stop  offset="0" style="stop-color:#29C0D5"/>
		<stop  offset="1" style="stop-color:#1E94A4"/>
	</linearGradient>
	<path fill="url(#SVGID_5_)" d="M15.252,17.292c-0.291-0.138-0.594-0.26-0.91-0.36C14.657,17.032,14.961,17.154,15.252,17.292z"/>
	<path fill="#005A66" d="M12,16.57c-0.383,0-0.759,0.031-1.125,0.084C11.241,16.602,11.617,16.57,12,16.57z"/>
	
		<linearGradient id="SVGID_6_" gradientUnits="userSpaceOnUse" x1="649.7598" y1="578.1729" x2="672.958" y2="607.6285" gradientTransform="matrix(1 0 0 1 -650.2695 -576.7305)">
		<stop  offset="0" style="stop-color:#29C0D5"/>
		<stop  offset="1" style="stop-color:#1E94A4"/>
	</linearGradient>
	<path fill="url(#SVGID_6_)" d="M12,16.57c-0.383,0-0.759,0.031-1.125,0.084C11.241,16.602,11.617,16.57,12,16.57z"/>
	<path fill="#005A66" d="M16.186,17.827c-0.252-0.175-0.521-0.332-0.804-0.474C15.665,17.495,15.934,17.654,16.186,17.827z"/>
	
		<linearGradient id="SVGID_7_" gradientUnits="userSpaceOnUse" x1="651.9668" y1="576.4336" x2="675.165" y2="605.8893" gradientTransform="matrix(1 0 0 1 -650.2695 -576.7305)">
		<stop  offset="0" style="stop-color:#29C0D5"/>
		<stop  offset="1" style="stop-color:#1E94A4"/>
	</linearGradient>
	<path fill="url(#SVGID_7_)" d="M16.186,17.827c-0.252-0.175-0.521-0.332-0.804-0.474C15.665,17.495,15.934,17.654,16.186,17.827z"
		/>
	<path fill="#005A66" d="M13.126,16.654C12.759,16.602,12.384,16.57,12,16.57C12.384,16.57,12.759,16.602,13.126,16.654z"/>
	
		<linearGradient id="SVGID_8_" gradientUnits="userSpaceOnUse" x1="650.4551" y1="577.627" x2="673.6533" y2="607.0826" gradientTransform="matrix(1 0 0 1 -650.2695 -576.7305)">
		<stop  offset="0" style="stop-color:#29C0D5"/>
		<stop  offset="1" style="stop-color:#1E94A4"/>
	</linearGradient>
	<path fill="url(#SVGID_8_)" d="M13.126,16.654C12.759,16.602,12.384,16.57,12,16.57C12.384,16.57,12.759,16.602,13.126,16.654z"/>
	<path fill="#005A66" d="M10.792,16.665c-0.349,0.054-0.686,0.134-1.014,0.231C10.106,16.799,10.444,16.719,10.792,16.665z"/>
	
		<linearGradient id="SVGID_9_" gradientUnits="userSpaceOnUse" x1="648.9414" y1="578.7656" x2="672.1906" y2="608.2861" gradientTransform="matrix(1 0 0 1 -650.2695 -576.7305)">
		<stop  offset="0" style="stop-color:#29C0D5"/>
		<stop  offset="1" style="stop-color:#1E94A4"/>
	</linearGradient>
	<path fill="url(#SVGID_9_)" d="M10.792,16.665c-0.349,0.054-0.686,0.134-1.014,0.231C10.106,16.799,10.444,16.719,10.792,16.665z"
		/>
	<path fill="#005A66" d="M9.658,16.932c-0.316,0.102-0.619,0.223-0.91,0.36C9.039,17.154,9.342,17.032,9.658,16.932z"/>
	
		<linearGradient id="SVGID_10_" gradientUnits="userSpaceOnUse" x1="648.1777" y1="579.5" x2="671.2953" y2="608.8533" gradientTransform="matrix(1 0 0 1 -650.2695 -576.7305)">
		<stop  offset="0" style="stop-color:#29C0D5"/>
		<stop  offset="1" style="stop-color:#1E94A4"/>
	</linearGradient>
	<path fill="url(#SVGID_10_)" d="M9.658,16.932c-0.316,0.102-0.619,0.223-0.91,0.36C9.039,17.154,9.342,17.032,9.658,16.932z"/>
	<path fill="#005A66" d="M17.663,19.262c-0.167-0.236-0.356-0.459-0.563-0.67C17.307,18.803,17.496,19.025,17.663,19.262z"/>
	
		<linearGradient id="SVGID_11_" gradientUnits="userSpaceOnUse" x1="652.3057" y1="576.168" x2="675.5038" y2="605.6237" gradientTransform="matrix(1 0 0 1 -650.2695 -576.7305)">
		<stop  offset="0" style="stop-color:#29C0D5"/>
		<stop  offset="1" style="stop-color:#1E94A4"/>
	</linearGradient>
	<path fill="url(#SVGID_11_)" d="M17.663,19.262c-0.167-0.236-0.356-0.459-0.563-0.67C17.307,18.803,17.496,19.025,17.663,19.262z"
		/>
	<path fill="#005A66" d="M14.223,16.896c-0.328-0.099-0.666-0.179-1.016-0.231C13.557,16.719,13.895,16.799,14.223,16.896z"/>
	
		<linearGradient id="SVGID_12_" gradientUnits="userSpaceOnUse" x1="651.0986" y1="577.1494" x2="674.2689" y2="606.5696" gradientTransform="matrix(1 0 0 1 -650.2695 -576.7305)">
		<stop  offset="0" style="stop-color:#29C0D5"/>
		<stop  offset="1" style="stop-color:#1E94A4"/>
	</linearGradient>
	<path fill="url(#SVGID_12_)" d="M14.223,16.896c-0.328-0.099-0.666-0.179-1.016-0.231C13.557,16.719,13.895,16.799,14.223,16.896z"
		/>
	<path fill="#005A66" d="M18.465,21.078c-0.061-0.293-0.152-0.576-0.267-0.852C18.313,20.502,18.404,20.785,18.465,21.078z"/>
	
		<linearGradient id="SVGID_13_" gradientUnits="userSpaceOnUse" x1="652.0518" y1="576.3701" x2="675.25" y2="605.8258" gradientTransform="matrix(1 0 0 1 -650.2695 -576.7305)">
		<stop  offset="0" style="stop-color:#29C0D5"/>
		<stop  offset="1" style="stop-color:#1E94A4"/>
	</linearGradient>
	<path fill="url(#SVGID_13_)" d="M18.465,21.078c-0.061-0.293-0.152-0.576-0.267-0.852C18.313,20.502,18.404,20.785,18.465,21.078z"
		/>
	<path fill="#005A66" d="M18.16,20.13c-0.117-0.265-0.262-0.517-0.426-0.76C17.898,19.613,18.043,19.866,18.16,20.13z"/>
	
		<linearGradient id="SVGID_14_" gradientUnits="userSpaceOnUse" x1="652.2334" y1="576.1865" x2="675.4579" y2="605.6757" gradientTransform="matrix(1 0 0 1 -650.2695 -576.7305)">
		<stop  offset="0" style="stop-color:#29C0D5"/>
		<stop  offset="1" style="stop-color:#1E94A4"/>
	</linearGradient>
	<path fill="url(#SVGID_14_)" d="M18.16,20.13c-0.117-0.265-0.262-0.517-0.426-0.76C17.898,19.613,18.043,19.866,18.16,20.13z"/>
	<path fill="#005A66" d="M5.805,20.217c-0.117,0.28-0.211,0.568-0.271,0.867C5.594,20.785,5.688,20.497,5.805,20.217z"/>
	
		<linearGradient id="SVGID_15_" gradientUnits="userSpaceOnUse" x1="644.2598" y1="582.5508" x2="667.4138" y2="611.9505" gradientTransform="matrix(1 0 0 1 -650.2695 -576.7305)">
		<stop  offset="0" style="stop-color:#29C0D5"/>
		<stop  offset="1" style="stop-color:#1E94A4"/>
	</linearGradient>
	<path fill="url(#SVGID_15_)" d="M5.805,20.217c-0.117,0.28-0.211,0.568-0.271,0.867C5.594,20.785,5.688,20.497,5.805,20.217z"/>
	<path fill="#005A66" d="M16.309,17.913c0.246,0.178,0.478,0.37,0.688,0.576C16.785,18.283,16.555,18.091,16.309,17.913z"/>
	
		<linearGradient id="SVGID_16_" gradientUnits="userSpaceOnUse" x1="652.2227" y1="576.2676" x2="675.3951" y2="605.6904" gradientTransform="matrix(1 0 0 1 -650.2695 -576.7305)">
		<stop  offset="0" style="stop-color:#29C0D5"/>
		<stop  offset="1" style="stop-color:#1E94A4"/>
	</linearGradient>
	<path fill="url(#SVGID_16_)" d="M16.309,17.913c0.246,0.178,0.478,0.37,0.688,0.576C16.785,18.283,16.555,18.091,16.309,17.913z"/>
	<path fill="#005A66" d="M7.001,18.49c0.212-0.207,0.444-0.399,0.691-0.577C7.445,18.091,7.214,18.283,7.001,18.49z"/>
	
		<linearGradient id="SVGID_17_" gradientUnits="userSpaceOnUse" x1="646.1143" y1="580.3281" x2="670.0374" y2="610.7043" gradientTransform="matrix(1 0 0 1 -650.2695 -576.7305)">
		<stop  offset="0" style="stop-color:#29C0D5"/>
		<stop  offset="1" style="stop-color:#1E94A4"/>
	</linearGradient>
	<path fill="url(#SVGID_17_)" d="M7.001,18.49c0.212-0.207,0.444-0.399,0.691-0.577C7.445,18.091,7.214,18.283,7.001,18.49z"/>
	<path fill="#005A66" d="M6.268,19.365c-0.166,0.246-0.312,0.502-0.43,0.77C5.956,19.867,6.102,19.611,6.268,19.365z"/>
	
		<linearGradient id="SVGID_18_" gradientUnits="userSpaceOnUse" x1="644.9111" y1="581.9912" x2="668.1093" y2="611.4468" gradientTransform="matrix(1 0 0 1 -650.2695 -576.7305)">
		<stop  offset="0" style="stop-color:#29C0D5"/>
		<stop  offset="1" style="stop-color:#1E94A4"/>
	</linearGradient>
	<path fill="url(#SVGID_18_)" d="M6.268,19.365c-0.166,0.246-0.312,0.502-0.43,0.77C5.956,19.867,6.102,19.611,6.268,19.365z"/>
	<path fill="#005A66" d="M15,1.6H9C3.813,1.6,1.6,3.813,1.6,9v6c0,4.027,1.279,6.188,4.145,7.003c0.001,0,0.001,0.001,0.002,0.001
		C6.65,22.271,7.714,22.4,9,22.4h6c1.283,0,2.346-0.131,3.248-0.396c0,0,0.001,0,0.002,0s0.001-0.001,0.002-0.001h0.001l0,0
		C21.121,21.189,22.4,19.029,22.4,15V9C22.4,3.813,20.188,1.6,15,1.6z M21.6,15c0,3.439-0.94,5.294-3.129,6.094
		c-0.002-0.006-0.005-0.011-0.006-0.016c-0.061-0.293-0.152-0.576-0.267-0.852c-0.015-0.031-0.023-0.064-0.038-0.098
		c-0.117-0.264-0.262-0.518-0.426-0.76c-0.023-0.036-0.047-0.073-0.071-0.108c-0.167-0.235-0.356-0.459-0.563-0.67
		c-0.033-0.034-0.066-0.069-0.103-0.103c-0.212-0.206-0.442-0.398-0.688-0.576c-0.041-0.029-0.082-0.059-0.123-0.086
		c-0.252-0.174-0.521-0.332-0.804-0.475c-0.043-0.021-0.087-0.041-0.13-0.062c-0.291-0.138-0.595-0.261-0.91-0.36
		c-0.04-0.013-0.08-0.021-0.119-0.033c-0.328-0.1-0.666-0.18-1.016-0.232c-0.025-0.005-0.055-0.007-0.081-0.012
		C12.759,16.602,12.384,16.57,12,16.57c-0.383,0-0.759,0.031-1.125,0.084c-0.027,0.004-0.055,0.006-0.083,0.011
		c-0.349,0.054-0.686,0.134-1.014,0.231c-0.04,0.013-0.081,0.021-0.12,0.035c-0.316,0.101-0.619,0.223-0.91,0.359
		c-0.043,0.021-0.087,0.04-0.13,0.063c-0.283,0.142-0.55,0.301-0.804,0.475c-0.041,0.027-0.082,0.056-0.122,0.085
		c-0.247,0.178-0.479,0.37-0.691,0.577c-0.034,0.031-0.066,0.064-0.099,0.1c-0.209,0.212-0.4,0.438-0.568,0.674
		c-0.023,0.033-0.044,0.067-0.067,0.103c-0.166,0.245-0.312,0.502-0.43,0.77c-0.012,0.027-0.021,0.056-0.033,0.082
		c-0.117,0.28-0.211,0.568-0.271,0.867c0,0.004-0.002,0.007-0.003,0.011C3.342,20.295,2.4,18.439,2.4,15V9c0-4.75,1.851-6.6,6.6-6.6
		h6c4.75,0,6.6,1.851,6.6,6.6V15z M6.387,21.034c0.034-0.13,0.066-0.259,0.113-0.384c0.056-0.146,0.127-0.289,0.201-0.43
		c0.061-0.117,0.119-0.236,0.192-0.35c0.088-0.137,0.192-0.264,0.297-0.393c0.084-0.104,0.165-0.209,0.259-0.309
		c0.119-0.122,0.253-0.232,0.387-0.346c0.104-0.088,0.202-0.18,0.314-0.262c0.147-0.105,0.31-0.197,0.471-0.291
		c0.118-0.069,0.23-0.146,0.354-0.207c0.177-0.088,0.369-0.156,0.558-0.229c0.125-0.048,0.243-0.104,0.373-0.146
		c0.217-0.068,0.447-0.113,0.676-0.16c0.114-0.023,0.222-0.059,0.339-0.076c0.351-0.055,0.711-0.084,1.08-0.084
		s0.729,0.029,1.08,0.084c0.114,0.018,0.224,0.053,0.336,0.074c0.229,0.049,0.461,0.094,0.681,0.162
		c0.127,0.039,0.242,0.097,0.364,0.144c0.192,0.073,0.386,0.144,0.565,0.231c0.121,0.062,0.229,0.136,0.347,0.203
		c0.163,0.094,0.329,0.188,0.479,0.297c0.108,0.078,0.205,0.168,0.307,0.254c0.136,0.115,0.271,0.229,0.395,0.354
		c0.092,0.096,0.172,0.201,0.254,0.303c0.105,0.129,0.211,0.26,0.301,0.396c0.072,0.111,0.131,0.23,0.191,0.35
		c0.072,0.139,0.145,0.279,0.199,0.428c0.048,0.127,0.081,0.259,0.115,0.391c0.025,0.096,0.043,0.191,0.061,0.289
		C16.921,21.511,16.042,21.6,15,21.6H9c-1.042,0-1.921-0.089-2.674-0.27C6.343,21.23,6.362,21.132,6.387,21.034z"/>
	
		<linearGradient id="SVGID_19_" gradientUnits="userSpaceOnUse" x1="658.6631" y1="582.8281" x2="667.1782" y2="593.42" gradientTransform="matrix(1 0 0 1 -650.2695 -576.7305)">
		<stop  offset="0" style="stop-color:#29C0D5"/>
		<stop  offset="1" style="stop-color:#1E94A4"/>
	</linearGradient>
	<path fill="url(#SVGID_19_)" d="M12,7.4c-1.753,0-3.18,1.427-3.18,3.18c0,1.759,1.427,3.189,3.18,3.189
		c1.754,0,3.18-1.432,3.18-3.189C15.18,8.827,13.754,7.4,12,7.4z"/>
	<path fill="#005A66" d="M12,6.6c-2.195,0-3.98,1.785-3.98,3.98c0,2.199,1.785,3.99,3.98,3.99c2.193,0,3.98-1.791,3.98-3.99
		C15.98,8.385,14.193,6.6,12,6.6z M12,13.77c-1.753,0-3.18-1.431-3.18-3.188c0-1.753,1.427-3.18,3.18-3.18
		c1.754,0,3.18,1.427,3.18,3.18C15.18,12.339,13.754,13.77,12,13.77z"/>
</g>
</svg>
