<?xml version="1.0" encoding="utf-8"?>
<!-- Generator: Adobe Illustrator 16.0.0, SVG Export Plug-In . SVG Version: 6.00 Build 0)  -->
<!DOCTYPE svg PUBLIC "-//W3C//DTD SVG 1.1//EN" "http://www.w3.org/Graphics/SVG/1.1/DTD/svg11.dtd">
<svg version="1.1" id="Layer_1" xmlns="http://www.w3.org/2000/svg" xmlns:xlink="http://www.w3.org/1999/xlink" x="0px" y="0px"
	 width="24px" height="24px" viewBox="0 0 24 24" enable-background="new 0 0 24 24" xml:space="preserve">
<g>
	
		<linearGradient id="SVGID_1_" gradientUnits="userSpaceOnUse" x1="654.2744" y1="577.4785" x2="665.5428" y2="591.5294" gradientTransform="matrix(1 0 0 1 -650.2695 -576.7305)">
		<stop  offset="0" style="stop-color:#29C0D5"/>
		<stop  offset="1" style="stop-color:#1E94A4"/>
	</linearGradient>
	<path fill="url(#SVGID_1_)" d="M8.608,10.89c0.028-0.009,0.208-0.011,0.327-0.001c2.163-0.089,3.858-1.937,3.868-4.215
		c0-2.329-1.813-4.225-4.039-4.225c-2.228,0-4.04,1.896-4.04,4.227C4.725,8.962,6.431,10.813,8.608,10.89z"/>
	
		<linearGradient id="SVGID_2_" gradientUnits="userSpaceOnUse" x1="649.9023" y1="589.3604" x2="659.1786" y2="606.9579" gradientTransform="matrix(1 0 0 1 -650.2695 -576.7305)">
		<stop  offset="0" style="stop-color:#29C0D5"/>
		<stop  offset="1" style="stop-color:#1E94A4"/>
	</linearGradient>
	<path fill="url(#SVGID_2_)" d="M1.756,16.915c0.02-0.125,0.044-0.249,0.076-0.372C1.801,16.666,1.772,16.79,1.756,16.915z"/>
	
		<linearGradient id="SVGID_3_" gradientUnits="userSpaceOnUse" x1="650.459" y1="589.0742" x2="659.7228" y2="606.6482" gradientTransform="matrix(1 0 0 1 -650.2695 -576.7305)">
		<stop  offset="0" style="stop-color:#29C0D5"/>
		<stop  offset="1" style="stop-color:#1E94A4"/>
	</linearGradient>
	<path fill="url(#SVGID_3_)" d="M1.84,16.51c0.105-0.381,0.283-0.746,0.514-1.093C2.116,15.764,1.941,16.129,1.84,16.51z"/>
	
		<linearGradient id="SVGID_4_" gradientUnits="userSpaceOnUse" x1="655.1885" y1="586.5752" x2="664.4648" y2="604.1727" gradientTransform="matrix(1 0 0 1 -650.2695 -576.7305)">
		<stop  offset="0" style="stop-color:#29C0D5"/>
		<stop  offset="1" style="stop-color:#1E94A4"/>
	</linearGradient>
	<path fill="url(#SVGID_4_)" d="M15.35,17.447c-0.002-1.022-0.585-1.988-1.644-2.723c-1.26-0.877-2.954-1.357-4.77-1.357
		c-1.817,0-3.518,0.481-4.785,1.357c-1.06,0.739-1.644,1.711-1.643,2.735c0.001,1.022,0.585,1.987,1.643,2.722
		c1.264,0.881,2.96,1.366,4.777,1.366c1.815,0,3.513-0.485,4.775-1.365C14.768,19.443,15.351,18.472,15.35,17.447z"/>
	
		<linearGradient id="SVGID_5_" gradientUnits="userSpaceOnUse" x1="662.8789" y1="581.0654" x2="671.6068" y2="589.9893" gradientTransform="matrix(1 0 0 1 -650.2695 -576.7305)">
		<stop  offset="0" style="stop-color:#29C0D5"/>
		<stop  offset="1" style="stop-color:#1E94A4"/>
	</linearGradient>
	<path fill="url(#SVGID_5_)" d="M15.737,11.171c0.064-0.077,0.155-0.13,0.262-0.144c0.123-0.015,0.246-0.013,0.356,0
		c1.607-0.067,2.919-1.494,2.919-3.249c0-1.79-1.391-3.246-3.1-3.246c-0.221,0-0.4-0.179-0.4-0.399c0-0.029,0.012-0.055,0.018-0.082
		c-0.42,0.047-0.83,0.157-1.188,0.335c0.42,0.63,0.7,1.37,0.77,2.18c0.121,1.5-0.469,2.88-1.5,3.8
		C14.387,10.803,15.03,11.084,15.737,11.171z"/>
	
		<linearGradient id="SVGID_6_" gradientUnits="userSpaceOnUse" x1="664.5947" y1="587.8438" x2="672.9872" y2="599.3903" gradientTransform="matrix(1 0 0 1 -650.2695 -576.7305)">
		<stop  offset="0" style="stop-color:#29C0D5"/>
		<stop  offset="1" style="stop-color:#1E94A4"/>
	</linearGradient>
	<path fill="url(#SVGID_6_)" d="M18.68,18.826c0.683-0.148,1.303-0.436,1.795-0.828c0.659-0.516,1.021-1.192,1.021-1.911
		c0-0.72-0.36-1.396-1.017-1.908c-0.481-0.384-1.078-0.659-1.774-0.821c-0.215-0.052-0.35-0.267-0.299-0.48
		c0-0.004,0.004-0.006,0.004-0.01c-1.485-0.479-3.191-0.533-4.653-0.109c0.85,0.311,1.63,0.729,2.3,1.26
		c1.182,0.95,1.771,2.141,1.67,3.381c-0.079,0.859-0.5,1.67-1.22,2.319c0.677,0.017,1.354-0.062,1.993-0.215
		c-0.058-0.054-0.106-0.118-0.125-0.2C18.327,19.086,18.464,18.873,18.68,18.826z"/>
	<path fill="#005A66" d="M8.632,11.688c0.084-0.008,0.175-0.009,0.252,0c0.013,0.001,0.026,0.002,0.041,0.002
		c0.005,0,0.009,0,0.014,0c2.604-0.092,4.655-2.293,4.666-5.014c0-2.771-2.171-5.025-4.84-5.025s-4.84,2.254-4.84,5.025
		C3.925,9.396,5.97,11.598,8.632,11.688z M8.765,2.449c2.228,0,4.039,1.896,4.039,4.225c-0.01,2.278-1.706,4.125-3.868,4.215
		c-0.118-0.01-0.298-0.008-0.327,0.001c-2.178-0.076-3.884-1.928-3.884-4.214C4.725,4.345,6.536,2.449,8.765,2.449z"/>
	<path fill="#005A66" d="M16.175,4.532c1.709,0,3.1,1.456,3.1,3.246c0,1.755-1.312,3.182-2.919,3.249
		c-0.11-0.013-0.233-0.015-0.356,0c-0.105,0.013-0.196,0.066-0.262,0.144c-0.066,0.081-0.104,0.187-0.091,0.3
		c0.022,0.204,0.196,0.354,0.396,0.354c0.017,0,0.031,0,0.047-0.002c0.057-0.007,0.113-0.007,0.23,0.002
		c2.105-0.082,3.756-1.858,3.756-4.046c0-2.23-1.75-4.046-3.9-4.046c-0.191,0-0.346,0.138-0.385,0.318
		c-0.006,0.026-0.017,0.053-0.017,0.082C15.774,4.354,15.954,4.532,16.175,4.532z"/>
	<path fill="#005A66" d="M14.163,14.068c-1.393-0.969-3.249-1.502-5.227-1.502c-1.979,0-3.839,0.533-5.242,1.502
		c-0.564,0.396-1.012,0.854-1.342,1.35c-0.23,0.347-0.408,0.712-0.514,1.093c-0.004,0.011-0.005,0.022-0.008,0.033
		c-0.032,0.123-0.057,0.247-0.076,0.372c-0.028,0.181-0.047,0.363-0.047,0.548c0.001,1.291,0.708,2.489,1.986,3.377
		c1.396,0.974,3.255,1.509,5.234,1.509c1.979,0,3.837-0.535,5.232-1.509c1.283-0.896,1.988-2.101,1.986-3.396
		C16.147,16.154,15.442,14.955,14.163,14.068z M8.93,21.549c-1.817,0-3.514-0.484-4.777-1.366c-1.058-0.733-1.642-1.698-1.643-2.722
		s0.583-1.996,1.643-2.735c1.27-0.876,2.968-1.358,4.785-1.358c1.816,0,3.511,0.481,4.771,1.358
		c1.058,0.733,1.641,1.699,1.643,2.722c0.001,1.024-0.582,1.996-1.645,2.736C12.442,21.064,10.745,21.549,8.93,21.549z"/>
	<path fill="#005A66" d="M20.974,13.55c-0.572-0.455-1.275-0.782-2.089-0.974c-0.213-0.049-0.422,0.082-0.476,0.289
		c-0.002,0.004-0.004,0.006-0.006,0.011c-0.05,0.215,0.084,0.43,0.299,0.479c0.697,0.163,1.293,0.438,1.775,0.822
		c0.655,0.512,1.016,1.189,1.016,1.908s-0.359,1.396-1.02,1.91c-0.492,0.395-1.113,0.681-1.795,0.828
		c-0.216,0.047-0.354,0.261-0.307,0.477c0.019,0.082,0.067,0.146,0.125,0.2c0.072,0.067,0.162,0.114,0.267,0.114
		c0.026,0,0.058-0.002,0.085-0.01c0.802-0.174,1.536-0.514,2.121-0.98c0.854-0.667,1.322-1.568,1.322-2.539
		S21.825,14.215,20.974,13.55z"/>
</g>
</svg>
